<svg width="17" height="12" viewBox="0 0 17 12" fill="none" xmlns="http://www.w3.org/2000/svg">
<path d="M4.69047 1.29204L4.69005 1.29251L0.625005 5.81554L0.624585 5.816C0.605168 5.83755 0.587298 5.86597 0.574301 5.90082C0.561295 5.9357 0.554083 5.97465 0.554083 6.01503C0.554083 6.05541 0.561294 6.09436 0.574301 6.12924C0.587298 6.16409 0.605169 6.19251 0.624585 6.21406L0.625005 6.21452L4.69005 10.7376C4.72863 10.7805 4.76881 10.7928 4.79784 10.7928C4.82688 10.7928 4.86705 10.7805 4.90564 10.7376C4.94581 10.6929 4.97621 10.6218 4.97621 10.5381C4.97621 10.4543 4.94581 10.3833 4.90564 10.3386L1.31898 6.34932L1.01842 6.01503L1.31898 5.68074L4.9057 1.69142L4.90606 1.69103C4.92548 1.66948 4.94335 1.64106 4.95634 1.60621C4.96935 1.57133 4.97656 1.53238 4.97656 1.492C4.97656 1.45162 4.96935 1.41267 4.95634 1.37779C4.94335 1.34294 4.92548 1.31452 4.90606 1.29298L5.27751 0.958289L4.90522 1.29204C4.88591 1.2705 4.8659 1.25663 4.84792 1.24833C4.83014 1.24012 4.81331 1.23682 4.79784 1.23682C4.78238 1.23682 4.76555 1.24012 4.74777 1.24833C4.72979 1.25663 4.70978 1.2705 4.69047 1.29204Z"/>
<path d="M15.8164 6.01507C15.8164 5.93154 15.7861 5.86076 15.7461 5.81625C15.7077 5.77349 15.6677 5.76123 15.6389 5.76123L1.41125 5.76123C1.38244 5.76123 1.34249 5.77349 1.30406 5.81625C1.26405 5.86076 1.23374 5.93154 1.23374 6.01507C1.23374 6.0986 1.26405 6.16938 1.30406 6.21389C1.34248 6.25664 1.38244 6.26891 1.41125 6.26891L15.6389 6.26891C15.6677 6.26891 15.7077 6.25664 15.7461 6.21389C15.7861 6.16937 15.8164 6.0986 15.8164 6.01507Z"/>
</svg>
