<svg width="52" height="50" viewBox="0 0 52 50" fill="none" xmlns="http://www.w3.org/2000/svg">
<path d="M52 48.7109C51.5531 49.7135 50.7405 50 49.6436 50C33.7853 49.974 17.9269 49.987 2.05508 49.987C0.98522 49.987 0.24038 49.5833 0.0914122 48.737C-0.0304707 48.099 -0.0304707 47.3958 0.0914122 46.7578C0.24038 45.9505 0.971678 45.5078 1.90611 45.5078C5.49489 45.5078 9.08366 45.4948 12.6724 45.5208C13.0923 45.5208 13.2954 45.3906 13.4714 45.0391C15.6112 40.7943 17.7374 36.5495 19.9448 32.3437C20.4594 31.3672 20.4052 30.4167 20.3917 29.362C19.4843 29.362 18.6176 29.362 17.7374 29.362C17.5207 29.362 17.2904 29.375 17.0738 29.349C16.6133 29.3099 16.3425 29.0234 16.3425 28.6198C16.3425 28.2161 16.6133 27.9167 17.0738 27.9036C17.9405 27.8776 18.7937 27.8906 19.6604 27.8906C19.8906 27.8906 20.1208 27.8906 20.3781 27.8906C20.3781 25.4036 20.3781 22.9948 20.3781 20.5078C19.6739 20.8464 19.0104 21.1589 18.3468 21.4714C15.3132 22.8906 12.2662 24.3229 9.23263 25.7422C8.27111 26.1979 7.94609 26.7839 8.06797 27.8906C8.24403 27.8906 8.42008 27.8906 8.60967 27.8906C10.0858 27.8906 11.5484 27.8906 13.0245 27.8906C13.1735 27.8906 13.336 27.8906 13.485 27.8906C13.9725 27.9297 14.284 28.2031 14.2975 28.6068C14.3111 29.0234 13.9725 29.3359 13.4714 29.349C11.887 29.362 10.2889 29.349 8.70447 29.349C8.50133 29.349 8.31174 29.349 8.08152 29.349C8.08152 29.8437 8.08152 30.2995 8.08152 30.7812C8.66384 30.8854 9.58474 30.612 9.54411 31.5885C9.51703 32.4479 8.70447 32.2396 8.09506 32.3047C8.09506 32.7734 8.09506 33.2292 8.09506 33.724C8.35237 33.737 8.59613 33.737 8.8399 33.763C9.2868 33.8021 9.58474 34.1016 9.5712 34.4922C9.54411 34.9089 9.30034 35.1823 8.88053 35.1953C7.83775 35.2214 6.78143 35.2214 5.73865 35.1953C5.29175 35.1823 4.99381 34.8437 5.0209 34.4531C5.04798 34.0365 5.30529 33.8021 5.72511 33.763C5.96888 33.737 6.22619 33.737 6.49704 33.724C6.49704 33.2422 6.49704 32.7995 6.49704 32.3177C5.92825 32.2005 5.03444 32.474 5.03444 31.5495C5.03444 30.625 5.91471 30.8724 6.52412 30.7812C6.52412 29.7135 6.53766 28.6719 6.52412 27.6302C6.49704 26.1198 7.18771 25.0651 8.60967 24.401C12.4016 22.6302 16.1664 20.8464 19.9583 19.0885C20.3511 18.9062 20.4729 18.6979 20.4459 18.3073C20.4188 17.9297 20.4323 17.5391 20.4323 17.1224C16.2883 17.1224 12.1984 17.1224 8.08152 17.1224C8.08152 17.5911 8.08152 18.0339 8.08152 18.5677C8.32528 18.5677 8.56905 18.5547 8.81281 18.5677C9.2868 18.6068 9.58474 18.9193 9.5712 19.3229C9.55765 19.7135 9.25972 20.013 8.79927 20.013C7.78358 20.026 6.76789 20.026 5.7522 20.013C5.30529 20 5.00736 19.6875 5.00736 19.3099C5.00736 18.9193 5.29175 18.6198 5.73865 18.5677C5.96888 18.5417 6.21264 18.5677 6.52412 18.5677C6.52412 18.3854 6.52412 18.2422 6.52412 18.0859C6.52412 17.1094 6.51058 16.1328 6.52412 15.1562C6.55121 13.8802 7.14708 12.9036 8.32528 12.3047C9.67954 11.6276 11.0473 11.0026 12.4151 10.3776C12.8756 10.1693 13.3089 10.2865 13.5121 10.6641C13.7288 11.0547 13.5662 11.4714 13.0787 11.7057C11.7922 12.3177 10.4921 12.9167 9.20555 13.5286C8.27111 13.9714 7.95963 14.5703 8.09506 15.612C12.1849 15.612 16.2748 15.612 20.3917 15.612C20.3917 13.1901 20.3917 10.7812 20.3917 8.30729C20.2563 8.35938 20.1208 8.39844 19.999 8.46354C18.8343 9.01042 17.6561 9.55729 16.4914 10.1042C16.0987 10.2865 15.7331 10.2865 15.4487 9.9349C15.1236 9.53125 15.2862 9.04948 15.8279 8.78906C17.2769 8.09896 18.753 7.42188 20.2021 6.71875C20.4323 6.60156 20.6625 6.39323 20.7709 6.15885C21.4751 4.7526 22.1387 3.33333 22.8158 1.91406C22.8835 1.78385 22.9241 1.65365 23.0054 1.45833C22.071 1.45833 21.2042 1.45833 20.324 1.45833C19.6604 1.45833 18.9968 1.47135 18.3468 1.45833C18.0217 1.45833 17.8728 1.5625 17.8863 1.88802C17.8999 2.21354 17.8863 2.53906 17.8863 2.92969C18.1572 2.92969 18.4009 2.91667 18.6447 2.92969C19.1051 2.95573 19.4166 3.28125 19.4031 3.6849C19.3895 4.07552 19.0781 4.375 18.6447 4.38802C17.629 4.40104 16.6133 4.40104 15.5976 4.38802C15.1507 4.375 14.8528 4.0625 14.8392 3.67187C14.8257 3.26823 15.1507 2.95573 15.6112 2.92969C15.8414 2.91667 16.0716 2.92969 16.3696 2.92969C16.2748 1.70573 16.2612 0.546875 17.6696 0C23.2221 0 28.7745 0 34.327 0C35.7354 0.546875 35.7219 1.70573 35.6271 2.92969C35.9385 2.92969 36.1958 2.91667 36.4396 2.92969C36.873 2.96875 37.1709 3.28125 37.1574 3.67187C37.1438 4.0625 36.8459 4.375 36.399 4.375C35.3833 4.38802 34.3676 4.38802 33.3519 4.375C32.905 4.375 32.6071 4.0625 32.5935 3.67187C32.58 3.26823 32.8915 2.94271 33.3519 2.91667C33.5957 2.90365 33.8394 2.91667 34.0832 2.91667C34.1915 1.44531 34.1915 1.44531 32.7967 1.44531C32.6477 1.44531 32.4987 1.44531 32.3362 1.44531C31.2393 1.44531 30.1559 1.44531 28.9912 1.44531C29.086 1.65365 29.1402 1.79687 29.2079 1.9401C29.8715 3.33333 30.5215 4.72656 31.2122 6.09375C31.3341 6.32813 31.5643 6.57552 31.8081 6.69271C35.6406 8.51562 39.4867 10.3255 43.3328 12.1094C44.7954 12.7865 45.5267 13.8672 45.486 15.4427C45.4589 16.4583 45.486 17.487 45.486 18.5547C45.784 18.5547 46.0413 18.5286 46.285 18.5547C46.732 18.5937 47.0163 18.9193 47.0028 19.2969C46.9893 19.6875 46.6913 19.987 46.2444 19.987C45.2287 20 44.213 20 43.1973 19.987C42.7504 19.974 42.4525 19.6745 42.439 19.2839C42.4254 18.8932 42.7234 18.5807 43.1567 18.5417C43.4005 18.5156 43.6578 18.5417 43.9151 18.5417C43.9151 18.0339 43.9151 17.5651 43.9151 17.0703C42.5067 17.0703 41.1389 17.0703 39.7711 17.0703C39.1888 17.0703 38.8773 16.8099 38.8637 16.3672C38.8502 15.8984 39.1752 15.612 39.7711 15.612C40.7326 15.599 41.6941 15.612 42.6692 15.612C43.089 15.612 43.5088 15.612 43.9151 15.612C44.037 14.5052 43.712 13.9193 42.7504 13.4635C39.1888 11.7839 35.6135 10.1172 32.0383 8.4375C31.9029 8.3724 31.7674 8.32031 31.6049 8.25521C31.6049 10.7161 31.6049 13.138 31.6049 15.612C31.8081 15.612 31.9841 15.612 32.1737 15.612C33.4061 15.612 34.6385 15.612 35.8844 15.612C36.4802 15.612 36.8323 15.8984 36.8459 16.3411C36.8594 16.7839 36.5073 17.0703 35.9115 17.0833C34.6655 17.0833 33.4061 17.0833 32.1602 17.0833C31.9841 17.0833 31.8081 17.0833 31.5914 17.0833C31.5914 17.3437 31.6185 17.526 31.5914 17.6953C31.4153 18.5677 31.8216 18.9844 32.6477 19.349C36.2771 20.9896 39.8523 22.7083 43.4547 24.401C44.8224 25.0391 45.5131 26.0807 45.4996 27.5521C45.4996 28.0208 45.4996 28.4896 45.4996 28.9714C45.4996 29.5703 45.4996 30.1562 45.4996 30.7812C46.1496 30.8464 46.9893 30.625 46.9893 31.5234C47.0028 32.4609 46.109 32.2005 45.5131 32.3047C45.5131 32.7734 45.5131 33.2292 45.5131 33.737C45.7704 33.737 46.0006 33.724 46.2309 33.737C46.7184 33.776 47.0163 34.0625 47.0163 34.4661C47.0163 34.8568 46.7184 35.1693 46.2715 35.1823C45.2558 35.2083 44.2401 35.2083 43.2244 35.1823C42.7369 35.1693 42.439 34.8437 42.4525 34.4401C42.466 34.0495 42.764 33.776 43.2109 33.737C43.4547 33.7109 43.6984 33.7109 43.9422 33.6979C43.9422 33.1901 43.9422 32.7474 43.9422 32.3047C42.7369 32.1745 42.4254 32.0312 42.466 31.5495C42.5338 30.612 43.3599 30.8724 43.9422 30.7682C43.9422 30.2865 43.9422 29.8307 43.9422 29.375C39.8117 29.375 35.7219 29.375 31.5101 29.375C31.6049 30.1823 31.483 31.0417 31.8081 31.6927C34.0155 36.1849 36.3177 40.638 38.5793 45.1042C38.7283 45.4036 38.8908 45.4948 39.2294 45.4948C42.6963 45.4818 46.1632 45.5208 49.6436 45.4687C50.7405 45.4557 51.5531 45.7552 52 46.7578C52 47.4089 52 48.0599 52 48.7109ZM18.7666 45.4557C23.6284 45.4557 28.3953 45.4557 33.2436 45.4557C32.5529 44.7266 31.9299 44.0495 31.2934 43.3854C30.9955 43.0729 30.8872 42.7474 31.158 42.3698C31.456 41.9661 31.9977 41.9661 32.4175 42.3958C33.3113 43.3333 34.1915 44.2708 35.0854 45.2083C35.2072 45.3255 35.3697 45.4687 35.5323 45.4818C36.0333 45.5208 36.5344 45.4948 37.1032 45.4948C34.9364 41.25 32.8102 37.0703 30.6569 32.8385C29.4246 34.1406 28.2464 35.4036 27.0411 36.6797C27.637 37.3177 28.2057 37.9297 28.7745 38.5286C29.1537 38.9323 29.5329 39.3229 29.8986 39.7266C30.2371 40.1042 30.2236 40.5208 29.885 40.8073C29.56 41.0807 29.1537 41.0547 28.8016 40.7161C28.6662 40.5859 28.5443 40.4557 28.4224 40.3255C27.637 39.4922 26.8379 38.6458 26.0254 37.7734C23.5877 40.3385 21.2042 42.8646 18.7666 45.4557ZM25.9983 46.9661C18.0895 46.9661 10.1942 46.9661 2.2853 46.9661C2.13634 46.9661 1.97383 46.9531 1.82486 46.9792C1.73006 46.9922 1.58109 47.0573 1.58109 47.0963C1.55401 47.513 1.49984 47.9427 1.58109 48.3464C1.60818 48.4505 2.06862 48.5156 2.33948 48.5156C18.103 48.5286 33.853 48.5286 49.6165 48.5286C50.4832 48.5286 50.4832 48.5286 50.4832 47.6693C50.4832 46.9661 50.4832 46.9661 49.7655 46.9661C41.8431 46.9531 33.9207 46.9661 25.9983 46.9661ZM31.6049 27.8385C35.7489 27.8385 39.8523 27.8385 43.9422 27.8385C44.0505 26.7448 43.739 26.1849 42.764 25.7292C39.1752 24.0365 35.5729 22.3437 31.9841 20.6641C31.8758 20.612 31.7539 20.5859 31.6185 20.5339C31.6049 22.9818 31.6049 25.3776 31.6049 27.8385ZM24.9691 36.6667C23.7502 35.3776 22.572 34.1276 21.3532 32.8255C19.1999 37.0703 17.0738 41.25 14.907 45.4818C15.408 45.4818 15.8279 45.5208 16.2477 45.4687C16.4914 45.4427 16.7758 45.3516 16.9383 45.1823C19.1322 42.8776 21.3126 40.5599 23.4929 38.2422C23.9805 37.7474 24.4545 37.2266 24.9691 36.6667ZM29.6413 6.32813C28.8693 4.71354 28.138 3.17708 27.3796 1.64062C27.3255 1.53646 27.1088 1.47135 26.9734 1.47135C26.3504 1.45833 25.7275 1.48437 25.1045 1.45833C24.8066 1.44531 24.6576 1.5625 24.5357 1.8099C23.8857 3.20312 23.2085 4.58333 22.545 5.96354C22.4908 6.06771 22.4637 6.19792 22.4095 6.32813C24.8201 6.32813 27.1901 6.32813 29.6413 6.32813ZM30.0475 17.1354C27.3255 17.1354 24.6441 17.1354 21.9626 17.1354C21.9626 17.6172 21.9626 18.0729 21.9626 18.5417C24.6711 18.5417 27.339 18.5417 30.0475 18.5417C30.0475 18.0599 30.0475 17.6172 30.0475 17.1354ZM21.9762 29.362C21.9762 29.8568 21.9762 30.3125 21.9762 30.7682C24.6982 30.7682 27.3661 30.7682 30.0475 30.7682C30.0475 30.2865 30.0475 29.8307 30.0475 29.362C27.3526 29.362 24.6847 29.362 21.9762 29.362ZM22.9241 32.3177C23.994 33.4505 24.9826 34.5052 26.0118 35.5859C27.0546 34.4792 28.0432 33.4245 29.086 32.3177C26.9869 32.3177 25.0097 32.3177 22.9241 32.3177ZM28.8152 20.0651C26.9327 20.0651 25.0368 20.0651 23.2221 20.0651C24.1565 20.9635 25.118 21.888 26.0118 22.7604C26.9327 21.888 27.8807 20.9766 28.8152 20.0651ZM26.0254 25.1042C25.0774 26.0156 24.1294 26.9271 23.195 27.8255C25.0503 27.8255 26.9598 27.8255 28.8558 27.8255C27.8943 26.901 26.9598 26.0026 26.0254 25.1042ZM28.8558 15.599C27.8807 14.6615 26.9327 13.75 26.066 12.9036C25.1316 13.8021 24.1836 14.7135 23.2763 15.599C25.0639 15.599 26.9598 15.599 28.8558 15.599ZM30.0475 9.07552C29.1131 9.97396 28.1516 10.8854 27.2713 11.7448C28.1651 12.6042 29.1131 13.5156 30.0475 14.4141C30.0475 12.6302 30.0475 10.8073 30.0475 9.07552ZM24.7795 11.7578C23.845 10.8594 22.8971 9.94792 21.9762 9.0625C21.9762 10.8073 21.9762 12.6432 21.9762 14.4401C22.9377 13.5286 23.8857 12.6042 24.7795 11.7578ZM23.1679 7.82552C24.1294 8.75 25.091 9.67448 25.9848 10.5339C26.9057 9.64844 27.8672 8.72396 28.8152 7.82552C26.9598 7.82552 25.0639 7.82552 23.1679 7.82552ZM21.9626 26.7448C22.9648 25.7812 23.9128 24.8568 24.793 23.9974C23.8586 23.099 22.8971 22.1875 21.9626 21.3021C21.9626 23.0469 21.9626 24.8698 21.9626 26.7448ZM27.2848 23.8802C28.2193 24.7786 29.1673 25.6901 30.0475 26.5234C30.0475 24.8437 30.0475 23.0208 30.0475 21.224C29.086 22.1615 28.138 23.0729 27.2848 23.8802Z" fill="#DEA54F"/>
</svg>
