<svg width="52" height="52" viewBox="0 0 52 52" fill="none" xmlns="http://www.w3.org/2000/svg">
<g clip-path="url(#clip0_13_713)">
<path d="M43.0625 0C43.7531 0.1625 44.4437 0.284375 45.1208 0.501042C49.1833 1.80104 51.9864 5.57917 52 9.83125C52.0135 23.3865 52.0135 36.9417 52.0135 50.5104C52.0135 51.526 51.4854 52 50.3885 52C38.9594 52 27.5437 52 16.1146 52C12.6479 52 9.18125 52 5.70104 52C4.59062 52 4.13021 51.5531 4.13021 50.4292C4.13021 48.0458 4.13021 45.6625 4.13021 43.2656C4.13021 43.1708 4.13021 43.0625 4.13021 42.9677C4.17083 42.4937 4.48229 42.1823 4.90208 42.1958C5.30833 42.2094 5.61979 42.5073 5.63333 42.9542C5.66041 43.8885 5.64687 44.8094 5.64687 45.7438C5.64687 46.0958 5.64687 46.4479 5.64687 46.8271C8.54479 46.8271 11.375 46.8271 14.2323 46.8271C14.2323 43.3062 14.2323 39.8125 14.2323 36.2646C13.826 36.2646 13.4333 36.2781 13.0542 36.2646C12.1604 36.2375 11.5917 35.6823 11.5781 34.8021C11.5646 34.1115 11.5646 33.4073 11.5781 32.7167C11.5917 31.8635 12.174 31.2813 13.0271 31.2813C16.0875 31.2677 19.1479 31.2813 22.2219 31.2813C22.7771 31.2813 23.1156 31.5792 23.1156 32.026C23.1156 32.4865 22.7635 32.7979 22.1812 32.7979C19.351 32.7979 16.5344 32.7979 13.7042 32.7979C13.5281 32.7979 13.3385 32.7979 13.1354 32.7979C13.1354 33.4615 13.1354 34.0708 13.1354 34.7208C20.2312 34.7208 27.2864 34.7208 34.3958 34.7208C34.3958 34.0979 34.3958 33.4885 34.3958 32.825C34.2333 32.8115 34.0573 32.7979 33.8677 32.7979C31.3489 32.7979 28.8302 32.7979 26.2979 32.7979C26.1489 32.7979 25.9864 32.8115 25.8375 32.7844C25.4042 32.7302 25.1062 32.4052 25.1198 32.0125C25.1333 31.6063 25.4312 31.2948 25.8781 31.2813C26.2437 31.2677 26.6229 31.2813 26.9885 31.2813C29.426 31.2813 31.8635 31.2813 34.301 31.2813C35.3844 31.2813 35.926 31.8229 35.9396 32.9063C35.9396 33.5156 35.9531 34.125 35.9396 34.7344C35.926 35.7094 35.3573 36.2646 34.3823 36.2781C34.0302 36.2781 33.6781 36.2781 33.2854 36.2781C33.2854 39.799 33.2854 43.2927 33.2854 46.8271C36.1156 46.8271 38.9594 46.8271 41.8708 46.8271C41.8708 46.6646 41.8708 46.4885 41.8708 46.3125C41.8708 41.2073 41.8708 36.0885 41.8573 30.9833C41.8573 30.726 41.7896 30.4417 41.6541 30.225C40.0291 27.6115 38.3906 25.0115 36.725 22.4115C36.5219 22.1 36.2239 21.8156 35.8989 21.6396C31.9854 19.5406 28.0448 17.4688 24.1177 15.3969C23.9417 15.3021 23.6167 15.3156 23.4406 15.4104C19.5271 17.4552 15.6271 19.5135 11.7406 21.5854C11.375 21.7885 11.0229 22.1135 10.7927 22.4656C9.14062 25.0385 7.50208 27.6385 5.89062 30.225C5.75521 30.4552 5.6875 30.7531 5.67396 31.024C5.66041 33.5833 5.66041 36.1292 5.66041 38.6885C5.66041 38.824 5.66041 38.9594 5.66041 39.0948C5.66041 39.8125 5.38958 40.1917 4.90208 40.1917C4.40104 40.1917 4.14375 39.826 4.14375 39.0948C4.14375 37.2396 4.14375 35.3708 4.14375 33.5156C4.14375 33.3396 4.14375 33.15 4.14375 32.8927C3.46666 33.3396 2.83021 33.6104 2.08542 33.4885C1.00208 33.3125 0.379166 32.649 0 31.6875C0 31.3896 0 31.0781 0 30.7667C0.135417 30.4823 0.257292 30.1844 0.433333 29.9135C2.64062 26.4063 4.86146 22.8854 7.06875 19.3646C7.40729 18.8094 7.84062 18.4031 8.40937 18.1052C13.1625 15.6 17.9156 13.0948 22.6417 10.5625C23.4135 10.1563 24.0635 10.1427 24.8219 10.5625C27.0427 11.7813 29.2906 12.9458 31.5385 14.124C31.6875 14.2052 31.85 14.2729 32.0667 14.3677C32.0667 12.7698 32.0125 11.2667 32.0802 9.76354C32.2562 5.66042 34.2333 2.68125 37.9302 0.920833C38.8916 0.460417 39.9885 0.297917 41.0177 0C41.7083 0 42.3854 0 43.0625 0ZM50.4427 20.1771C50.4427 17.3198 50.4427 14.4896 50.4427 11.6458C44.8229 11.6458 39.2302 11.6458 33.6104 11.6458C33.6104 12.7156 33.6239 13.7448 33.5969 14.774C33.5969 15.0854 33.7052 15.2479 33.976 15.3969C35.4927 16.1823 36.9823 17.0083 38.5125 17.7667C39.4469 18.2406 40.2458 18.8229 40.6927 19.7979C40.8416 20.1229 41.0583 20.2042 41.4104 20.2042C44.2541 20.1906 47.0979 20.1906 49.9416 20.1906C50.1041 20.1906 50.2666 20.1771 50.4427 20.1771ZM50.4968 10.075C50.375 6.73021 48.9802 4.15729 46.0823 2.58646C42.9541 0.89375 39.8396 1.1375 36.9687 3.23646C34.7073 4.90208 33.6239 7.21771 33.5969 10.0615C39.2573 10.075 44.8364 10.075 50.4968 10.075ZM23.7927 13.5688C24.1177 13.7177 24.4427 13.8396 24.7542 14.0156C28.5864 16.0333 32.3917 18.0781 36.2375 20.0688C37.0906 20.5156 37.7406 21.1115 38.2416 21.924C40.2052 25.0927 42.2229 28.2479 44.2135 31.4167C44.5791 31.9854 45.1073 32.1479 45.5812 31.85C46.0416 31.5656 46.0687 31.1729 45.6625 30.55C43.4823 27.0833 41.3021 23.6302 39.0948 20.1771C38.8916 19.8521 38.5531 19.5677 38.2146 19.3917C33.5156 16.8865 28.8167 14.3948 24.0906 11.9302C23.9146 11.8354 23.5896 11.8354 23.4135 11.9302C18.6604 14.4219 13.9073 16.9406 9.15416 19.4594C8.89687 19.5948 8.62604 19.7979 8.47708 20.0417C6.20208 23.6167 3.94062 27.2188 1.67917 30.8073C1.36771 31.2948 1.57083 31.7823 2.12604 31.9583C2.58646 32.1073 2.97917 31.9177 3.33125 31.3625C5.32187 28.2073 7.32604 25.0521 9.30312 21.8833C9.77708 21.125 10.3594 20.5563 11.1583 20.1365C15.1396 18.051 19.1073 15.9521 23.0885 13.8531C23.3052 13.7313 23.5354 13.6635 23.7927 13.5688ZM50.4562 41.9385C48.0864 41.9385 45.7573 41.9385 43.401 41.9385C43.401 44.7823 43.401 47.599 43.401 50.4427C45.7573 50.4427 48.1 50.4427 50.4562 50.4427C50.4562 47.599 50.4562 44.7958 50.4562 41.9385ZM50.4562 31.7958C49.5896 31.7958 48.75 31.8094 47.9104 31.7823C47.5854 31.7688 47.3958 31.85 47.2604 32.175C46.9489 32.8521 46.3802 33.2583 45.6354 33.4344C44.8229 33.624 44.1187 33.3531 43.4146 32.8927C43.4146 35.4115 43.4146 37.8625 43.4146 40.3406C45.7844 40.3406 48.1135 40.3406 50.4562 40.3406C50.4562 37.4969 50.4562 34.6802 50.4562 31.7958ZM50.4427 30.2792C50.4427 27.3813 50.4427 24.5646 50.4427 21.7479C47.5989 21.7479 44.8094 21.7479 42.0062 21.7479C42.0062 21.8021 42.0062 21.8427 42.0198 21.8698C43.7396 24.6052 45.4594 27.3406 47.1927 30.0625C47.2469 30.1573 47.3958 30.2656 47.5041 30.2656C48.4656 30.2792 49.4406 30.2792 50.4427 30.2792ZM15.8167 37.2531C15.8167 41.3698 15.8167 45.3781 15.8167 49.4948C18.1187 47.4229 20.3531 45.4052 22.6146 43.374C20.326 41.3156 18.1052 39.3115 15.8167 37.2531ZM24.8896 43.374C27.1646 45.4188 29.3854 47.4229 31.6739 49.4813C31.6739 45.3646 31.6739 41.3698 31.6739 37.2531C29.3854 39.325 27.1781 41.3156 24.8896 43.374ZM23.7521 42.3448C25.9729 40.3406 28.1937 38.35 30.4417 36.3052C25.9323 36.3052 21.5448 36.3052 17.0625 36.3052C19.3239 38.3635 21.5177 40.3406 23.7521 42.3448ZM23.7521 44.4031C21.5177 46.4208 19.3104 48.4115 17.0489 50.4427C21.5583 50.4427 25.9594 50.4427 30.4552 50.4427C28.1802 48.3979 25.9729 46.4073 23.7521 44.4031ZM41.8302 48.425C38.9458 48.425 36.1021 48.425 33.2719 48.425C33.2719 49.1292 33.2719 49.7927 33.2719 50.4563C36.1427 50.4563 38.9864 50.4563 41.8302 50.4563C41.8302 49.7656 41.8302 49.1156 41.8302 48.425ZM5.66041 50.4563C8.53125 50.4563 11.3615 50.4563 14.2187 50.4563C14.2187 49.7656 14.2187 49.1021 14.2187 48.4385C11.3479 48.4385 8.5177 48.4385 5.66041 48.4385C5.66041 49.1156 5.66041 49.7521 5.66041 50.4563Z" fill="#DEA54F"/>
<path d="M18.5386 24.0905C18.6063 21.1791 21.0032 18.8499 23.8469 18.9447C26.799 19.0395 29.0334 21.3822 28.9521 24.3343C28.8844 27.1916 26.5011 29.4395 23.6032 29.3718C20.7729 29.3041 18.4709 26.9072 18.5386 24.0905ZM27.4355 24.1447C27.4219 22.1134 25.7834 20.4749 23.7521 20.4749C21.7073 20.4749 20.0417 22.1405 20.0552 24.1853C20.0688 26.2436 21.7209 27.8686 23.7927 27.8551C25.824 27.828 27.449 26.1759 27.4355 24.1447Z" fill="#DEA54F"/>
</g>
<defs>
<clipPath id="clip0_13_713">
<rect width="52" height="52" fill="white"/>
</clipPath>
</defs>
</svg>
