<svg width="54" height="57" viewBox="0 0 54 57" fill="none" xmlns="http://www.w3.org/2000/svg">
<g clip-path="url(#clip0_13_734)">
<path d="M26.7899 57.0002C26.2785 56.7479 26.098 56.3471 26.098 55.783C26.1281 54.3729 26.113 52.9627 26.113 51.508C25.7821 51.508 25.4662 51.4932 25.1503 51.508C24.1275 51.5823 23.1197 51.5971 22.1721 51.1073C19.9008 49.9198 19.5398 47.2331 21.435 45.5854C21.9615 45.1252 22.488 45.1104 22.879 45.526C23.2701 45.9416 23.21 46.4315 22.6985 46.9362C22.2623 47.3518 21.9013 47.812 22.142 48.4502C22.4127 49.1479 22.9392 49.5932 23.6913 49.6526C24.4584 49.712 25.2256 49.6674 26.0378 49.6674C26.0378 47.5002 26.0378 45.3776 26.0378 43.2698C25.3309 43.2698 24.6239 43.2401 23.932 43.2698C22.0217 43.3885 20.3219 42.9729 18.9832 41.5034C17.0428 39.3807 17.5091 36.694 19.6601 34.9573C20.0963 34.601 20.6378 34.6456 20.9838 35.0018C21.3448 35.4026 21.3147 35.9073 20.8785 36.3377C20.8484 36.3674 20.8183 36.3823 20.7882 36.412C19.9308 37.1838 19.3292 38.0745 19.7654 39.262C20.2317 40.5088 21.2094 41.2807 22.5481 41.3846C23.7063 41.4737 24.8646 41.3995 26.0529 41.3995C26.0529 38.787 26.0529 36.3081 26.0529 33.7549C25.03 33.7995 24.0222 33.9034 23.0144 33.8737C21.8562 33.844 20.6679 33.8291 19.5548 33.5768C17.9002 33.1909 16.6668 32.1073 15.7191 30.7417C14.1999 28.5596 14.4105 25.8729 16.2306 23.8096C16.5464 23.4534 16.9074 23.112 17.2835 22.8003C17.7347 22.4292 18.3063 22.4885 18.6373 22.8893C18.9682 23.2901 18.908 23.7651 18.4868 24.1807C18.1108 24.5518 17.7197 24.9081 17.4038 25.3088C16.2757 26.7784 16.2907 28.4706 17.4189 29.9252C18.4718 31.2909 19.8556 32.0627 21.6155 32.0479C23.0746 32.0331 24.5336 31.9588 26.0378 31.9143C26.0378 24.819 26.0378 17.7534 26.0378 10.7768C25.3309 10.4503 24.6088 10.2128 23.9771 9.82682C21.8712 8.50573 20.9838 5.9526 21.781 3.65182C22.5932 1.32136 24.9398 -0.192704 27.4367 0.0151082C29.9036 0.208077 31.9643 2.03386 32.3855 4.40886C32.8818 7.18464 31.2122 9.82682 28.4445 10.5542C28.0384 10.6581 27.918 10.8214 27.918 11.2221C27.9331 17.9909 27.9331 24.7596 27.918 31.5432C27.918 31.9737 28.0835 32.0627 28.4595 32.1815C30.2345 32.7159 32.0244 33.2206 33.7242 33.9182C35.2584 34.5416 36.4768 35.6252 36.9732 37.2729C37.5899 39.2768 36.8679 41.0284 35.7398 42.6612C35.454 43.062 34.9576 43.0768 34.5364 42.7948C34.1153 42.4979 34.025 42.0674 34.2657 41.5776C34.5966 40.8948 34.9726 40.2268 35.1983 39.5143C35.5442 38.3713 35.2434 37.3174 34.3258 36.5456C33.7843 36.1002 33.1827 35.6698 32.5359 35.4174C31.1821 34.8979 29.7682 34.4971 28.3843 34.037C28.264 33.9924 28.1286 34.0073 27.9481 33.9924C27.9331 34.2002 27.918 34.3784 27.918 34.5565C27.918 36.7088 27.9331 38.8612 27.903 41.0135C27.903 41.4291 28.0384 41.5627 28.4295 41.6815C29.6027 42.0674 30.8211 42.4088 31.8891 42.9729C34.5816 44.3979 34.7169 46.9956 33.0924 49.3112C32.8066 49.7268 32.3253 49.7862 31.8891 49.519C31.4378 49.2518 31.3024 48.7916 31.5431 48.3166C31.7236 47.9752 31.9342 47.6338 32.0846 47.2776C32.5058 46.2088 32.2952 45.3331 31.2874 44.769C30.2495 44.1901 29.1214 43.8041 27.903 43.2698C27.903 43.8041 27.903 44.1307 27.903 44.4721C27.903 46.1049 27.918 47.7377 27.888 49.3705C27.888 49.801 28.0384 49.9643 28.4445 50.1127C29.1364 50.3651 29.8735 50.6323 30.4751 51.0479C32.235 52.2651 31.8891 54.2245 30.8813 55.501C30.6105 55.8573 30.2044 55.887 29.8133 55.6791C29.4072 55.4565 29.2116 55.1299 29.3169 54.6698C29.332 54.5807 29.3771 54.4916 29.4222 54.4174C30.3398 52.9924 29.6178 52.5026 28.4595 52.0424C28.3091 51.983 28.1437 51.9534 27.903 51.8791C27.903 52.844 27.903 53.7495 27.903 54.6549C27.903 55.026 27.888 55.3971 27.903 55.7682C27.9481 56.3174 27.7526 56.7479 27.2712 57.0299C27.166 57.0002 26.9704 57.0002 26.7899 57.0002ZM27.0456 1.85573C25.0601 1.84089 23.4205 3.41433 23.3905 5.32917C23.3754 7.28854 24.9849 8.90651 26.9854 8.90651C29.001 8.92135 30.6406 7.36276 30.6707 5.40339C30.7008 3.45886 29.0763 1.85573 27.0456 1.85573Z" fill="#DEA54F"/>
<path d="M9.02518 21.672C8.27309 21.8798 7.521 22.1767 6.73883 22.2657C6.10708 22.3399 5.4302 22.2509 4.79844 22.1173C3.94106 21.9243 3.7756 21.4345 4.19677 20.6626C4.27198 20.5142 4.36223 20.3806 4.45248 20.2173C3.92602 20.1282 3.39955 20.0688 2.90318 19.9501C1.50429 19.5938 0.66195 18.629 0.0903622 17.4118C-0.195432 16.7884 0.270864 16.061 0.962786 16.1501C4.18173 16.536 6.84412 15.1704 9.46139 13.597C11.1611 12.5727 12.8458 11.5188 14.6057 10.5985C16.516 9.604 18.5617 9.18837 20.6976 9.91572C22.0213 10.361 23.1344 11.1477 24.097 12.1423C24.2926 12.3352 24.3979 12.7063 24.3979 13.0032C24.4129 15.7345 24.4129 18.4509 24.4129 21.1821C24.4129 22.0282 23.8413 22.5329 23.1193 22.236C20.7277 21.2712 18.3812 21.6274 16.0196 22.3548C14.6809 22.7704 13.3271 23.1415 11.9433 23.4384C11.3567 23.572 10.7099 23.5126 10.0931 23.4235C9.04022 23.2603 8.84468 22.8743 9.02518 21.672ZM22.5177 20.0243C22.5177 17.7978 22.5177 15.586 22.5177 13.3743C22.5177 13.2556 22.4575 13.122 22.3672 13.0329C21.4497 12.2313 20.4419 11.6079 19.2085 11.4595C17.5388 11.2517 16.0497 11.8454 14.6508 12.6321C13.0714 13.5227 11.5372 14.5024 9.97281 15.4228C7.94217 16.6399 5.83632 17.679 3.4146 17.961C3.33939 17.9759 3.27922 18.0204 3.09872 18.1095C3.47476 18.1688 3.73047 18.2728 3.98618 18.2579C4.81348 18.1985 5.62574 18.1243 6.43799 18.0204C6.88925 17.961 7.26529 18.0353 7.50596 18.436C7.74663 18.8368 7.67142 19.2079 7.38563 19.5642C7.19008 19.8017 6.99454 20.054 6.799 20.2915C7.09983 20.3063 7.35554 20.2767 7.58117 20.1579C8.27309 19.8165 8.94997 19.4454 9.62685 19.1188C9.83744 19.0149 10.0781 18.911 10.3037 18.8962C11.0408 18.8517 11.6124 19.6235 11.492 20.5142C11.4469 20.8704 11.3266 21.2118 11.2213 21.6274C11.5372 21.5978 11.823 21.5978 12.0937 21.5235C12.906 21.3157 13.7182 21.0931 14.5305 20.8407C16.3806 20.2618 18.2308 19.6978 20.2012 19.7868C20.9533 19.8462 21.7054 19.9353 22.5177 20.0243Z" fill="#DEA54F"/>
<path d="M49.6079 20.3209C49.6229 20.3654 49.638 20.4248 49.653 20.4693C50.3449 21.6865 50.1494 22.1021 48.7505 22.3396C47.6976 22.5177 46.6898 22.3099 45.7271 21.924C45.4865 21.8349 45.2458 21.731 44.9901 21.6271C44.975 21.7013 44.9449 21.7459 44.96 21.8052C45.2608 22.9927 44.9149 23.4381 43.6514 23.5123C42.0268 23.6162 40.5527 23.0967 39.0335 22.681C37.8001 22.3545 36.5667 22.0427 35.3182 21.8201C33.9193 21.5677 32.5505 21.7756 31.2268 22.2506C30.1739 22.6217 29.6475 22.2506 29.6475 21.1373C29.6475 18.5099 29.6475 15.8677 29.6475 13.2404C29.6475 12.7357 29.7979 12.3646 30.1739 12.0232C31.8135 10.5091 33.6636 9.52946 35.9951 9.72243C37.3489 9.82633 38.6124 10.2568 39.7706 10.9248C41.6508 11.9787 43.4709 13.1068 45.321 14.2052C46.9154 15.1404 48.555 15.9568 50.4051 16.224C51.2023 16.3279 52.0146 16.2982 52.8118 16.2834C53.233 16.2834 53.609 16.3131 53.8497 16.6842C54.1054 17.0701 54.0001 17.4412 53.8046 17.8271C53.0374 19.2967 51.8341 20.1279 50.1644 20.2615C49.999 20.2763 49.8335 20.2912 49.6681 20.306C49.638 20.2763 49.6229 20.2912 49.6079 20.3209ZM50.9015 18.1982C50.6909 18.124 50.5856 18.0795 50.4803 18.0646C49.0814 17.9013 47.7427 17.5154 46.5093 16.8771C44.9149 16.0459 43.3956 15.0959 41.8163 14.2349C40.3422 13.4334 38.8831 12.5724 37.3338 11.9193C35.3032 11.0732 33.4229 11.5779 31.8135 13.0177C31.633 13.181 31.4976 13.4779 31.4976 13.7154C31.4675 15.3482 31.4826 16.981 31.4826 18.6138C31.4826 19.1334 31.4826 19.6381 31.4826 20.1131C32.5054 20.0388 33.4831 19.9201 34.4458 19.9201C36.4915 19.9052 38.3867 20.5881 40.3121 21.1521C41.0943 21.3748 41.8915 21.5529 42.6436 21.731C42.6436 21.0037 42.5232 20.3654 42.6736 19.7865C42.8692 18.9849 43.4558 18.8068 44.2079 19.1779C44.9449 19.5342 45.682 19.9052 46.4341 20.2615C46.6296 20.3506 46.8703 20.3951 47.2313 20.499C46.9154 20.0982 46.6296 19.8607 46.5243 19.5638C46.419 19.267 46.3739 18.8513 46.5093 18.599C46.6296 18.3763 47.0358 18.2427 47.3366 18.1537C47.5171 18.1092 47.7427 18.2131 47.9383 18.2576C48.9009 18.3912 49.8486 18.5248 50.9015 18.1982Z" fill="#DEA54F"/>
<path d="M39.5307 27.5798C39.5307 29.6876 37.9964 31.736 35.9507 32.3595C35.3942 32.5227 34.9429 32.3298 34.7474 31.8399C34.5519 31.3501 34.7474 30.9048 35.2588 30.6524C35.5597 30.504 35.8755 30.3852 36.1613 30.1923C38.1468 28.8712 38.1619 26.3329 36.1914 24.9821C35.9959 24.8485 35.7702 24.7446 35.5597 24.6259C35.0332 24.329 34.8527 23.8391 35.1084 23.3641C35.3491 22.9188 35.8304 22.7556 36.3569 22.9634C38.207 23.6907 39.5307 25.6352 39.5307 27.5798Z" fill="#DEA54F"/>
<path d="M21.7961 54.1351C21.781 53.0218 22.6685 52.0569 23.7816 51.9382C24.293 51.8788 24.7292 52.1757 24.8496 52.6507C24.9549 53.0812 24.6841 53.4968 24.2329 53.7195C24.0223 53.8234 23.8568 54.0015 23.6763 54.1499C23.8869 54.2687 24.0824 54.4913 24.3081 54.5062C24.8195 54.5656 25.1354 54.8179 25.1805 55.2929C25.2256 55.7976 24.8646 56.1093 24.3983 56.2429C23.1799 56.5843 21.8111 55.4562 21.7961 54.1351Z" fill="#DEA54F"/>
</g>
<defs>
<clipPath id="clip0_13_734">
<rect width="54" height="57" fill="white"/>
</clipPath>
</defs>
</svg>
