<svg width="52" height="52" viewBox="0 0 52 52" fill="none" xmlns="http://www.w3.org/2000/svg">
<path d="M52 50.6594C51.5531 51.7021 50.7405 52 49.6436 52C33.7853 51.9729 17.9269 51.9865 2.05508 51.9865C0.98522 51.9865 0.24038 51.5667 0.0914122 50.6865C-0.0304707 50.0229 -0.0304707 49.2917 0.0914122 48.6281C0.24038 47.7885 0.971678 47.3281 1.90611 47.3281C5.49489 47.3281 9.08366 47.3146 12.6724 47.3417C13.0923 47.3417 13.2954 47.2063 13.4714 46.8406C15.6112 42.426 17.7374 38.0115 19.9448 33.6375C20.4594 32.6219 20.4052 31.6333 20.3917 30.5365C19.4843 30.5365 18.6176 30.5365 17.7374 30.5365C17.5207 30.5365 17.2904 30.55 17.0738 30.5229C16.6133 30.4823 16.3425 30.1844 16.3425 29.7646C16.3425 29.3448 16.6133 29.0333 17.0738 29.0198C17.9405 28.9927 18.7937 29.0063 19.6604 29.0063C19.8906 29.0063 20.1208 29.0063 20.3781 29.0063C20.3781 26.4198 20.3781 23.9146 20.3781 21.3281C19.6739 21.6802 19.0104 22.0052 18.3468 22.3302C15.3132 23.8062 12.2662 25.2958 9.23263 26.7719C8.27111 27.2458 7.94609 27.8552 8.06797 29.0063C8.24403 29.0063 8.42008 29.0063 8.60967 29.0063C10.0858 29.0063 11.5484 29.0063 13.0245 29.0063C13.1735 29.0063 13.336 29.0063 13.485 29.0063C13.9725 29.0469 14.284 29.3313 14.2975 29.751C14.3111 30.1844 13.9725 30.5094 13.4714 30.5229C11.887 30.5365 10.2889 30.5229 8.70447 30.5229C8.50133 30.5229 8.31174 30.5229 8.08152 30.5229C8.08152 31.0375 8.08152 31.5115 8.08152 32.0125C8.66384 32.1208 9.58474 31.8365 9.54411 32.8521C9.51703 33.7458 8.70447 33.5292 8.09506 33.5969C8.09506 34.0844 8.09506 34.5583 8.09506 35.0729C8.35237 35.0865 8.59613 35.0865 8.8399 35.1135C9.2868 35.1542 9.58474 35.4656 9.5712 35.8719C9.54411 36.3052 9.30034 36.5896 8.88053 36.6031C7.83775 36.6302 6.78143 36.6302 5.73865 36.6031C5.29175 36.5896 4.99381 36.2375 5.0209 35.8313C5.04798 35.3979 5.30529 35.1542 5.72511 35.1135C5.96888 35.0865 6.22619 35.0865 6.49704 35.0729C6.49704 34.5719 6.49704 34.1115 6.49704 33.6104C5.92825 33.4885 5.03444 33.7729 5.03444 32.8115C5.03444 31.85 5.91471 32.1073 6.52412 32.0125C6.52412 30.9021 6.53766 29.8188 6.52412 28.7354C6.49704 27.1646 7.18771 26.0677 8.60967 25.3771C12.4016 23.5354 16.1664 21.6802 19.9583 19.8521C20.3511 19.6625 20.4729 19.4458 20.4459 19.0396C20.4188 18.6469 20.4323 18.2406 20.4323 17.8073C16.2883 17.8073 12.1984 17.8073 8.08152 17.8073C8.08152 18.2948 8.08152 18.7552 8.08152 19.3104C8.32528 19.3104 8.56905 19.2969 8.81281 19.3104C9.2868 19.351 9.58474 19.676 9.5712 20.0958C9.55765 20.5021 9.25972 20.8135 8.79927 20.8135C7.78358 20.8271 6.76789 20.8271 5.7522 20.8135C5.30529 20.8 5.00736 20.475 5.00736 20.0823C5.00736 19.676 5.29175 19.3646 5.73865 19.3104C5.96888 19.2833 6.21264 19.3104 6.52412 19.3104C6.52412 19.1208 6.52412 18.9719 6.52412 18.8094C6.52412 17.7937 6.51058 16.7781 6.52412 15.7625C6.55121 14.4354 7.14708 13.4198 8.32528 12.7969C9.67954 12.0927 11.0473 11.4427 12.4151 10.7927C12.8756 10.576 13.3089 10.6979 13.5121 11.0906C13.7288 11.4969 13.5662 11.9302 13.0787 12.174C11.7922 12.8104 10.4921 13.4333 9.20555 14.0698C8.27111 14.5302 7.95963 15.1531 8.09506 16.2365C12.1849 16.2365 16.2748 16.2365 20.3917 16.2365C20.3917 13.7177 20.3917 11.2125 20.3917 8.63958C20.2563 8.69375 20.1208 8.73438 19.999 8.80208C18.8343 9.37083 17.6561 9.93958 16.4914 10.5083C16.0987 10.6979 15.7331 10.6979 15.4487 10.3323C15.1236 9.9125 15.2862 9.41146 15.8279 9.14063C17.2769 8.42292 18.753 7.71875 20.2021 6.9875C20.4323 6.86563 20.6625 6.64896 20.7709 6.40521C21.4751 4.94271 22.1387 3.46667 22.8158 1.99063C22.8835 1.85521 22.9241 1.71979 23.0054 1.51667C22.071 1.51667 21.2042 1.51667 20.324 1.51667C19.6604 1.51667 18.9968 1.53021 18.3468 1.51667C18.0217 1.51667 17.8728 1.625 17.8863 1.96354C17.8999 2.30208 17.8863 2.64063 17.8863 3.04688C18.1572 3.04688 18.4009 3.03333 18.6447 3.04688C19.1051 3.07396 19.4166 3.4125 19.4031 3.83229C19.3895 4.23854 19.0781 4.55 18.6447 4.56354C17.629 4.57708 16.6133 4.57708 15.5976 4.56354C15.1507 4.55 14.8528 4.225 14.8392 3.81875C14.8257 3.39896 15.1507 3.07396 15.6112 3.04688C15.8414 3.03333 16.0716 3.04688 16.3696 3.04688C16.2748 1.77396 16.2612 0.56875 17.6696 0C23.2221 0 28.7745 0 34.327 0C35.7354 0.56875 35.7219 1.77396 35.6271 3.04688C35.9385 3.04688 36.1958 3.03333 36.4396 3.04688C36.873 3.0875 37.1709 3.4125 37.1574 3.81875C37.1438 4.225 36.8459 4.55 36.399 4.55C35.3833 4.56354 34.3676 4.56354 33.3519 4.55C32.905 4.55 32.6071 4.225 32.5935 3.81875C32.58 3.39896 32.8915 3.06042 33.3519 3.03333C33.5957 3.01979 33.8394 3.03333 34.0832 3.03333C34.1915 1.50312 34.1915 1.50312 32.7967 1.50312C32.6477 1.50312 32.4987 1.50312 32.3362 1.50312C31.2393 1.50312 30.1559 1.50312 28.9912 1.50312C29.086 1.71979 29.1402 1.86875 29.2079 2.01771C29.8715 3.46667 30.5215 4.91563 31.2122 6.3375C31.3341 6.58125 31.5643 6.83854 31.8081 6.96042C35.6406 8.85625 39.4867 10.7385 43.3328 12.5938C44.7954 13.2979 45.5267 14.4219 45.486 16.0604C45.4589 17.1167 45.486 18.1865 45.486 19.2969C45.784 19.2969 46.0413 19.2698 46.285 19.2969C46.732 19.3375 47.0163 19.676 47.0028 20.0688C46.9893 20.475 46.6913 20.7865 46.2444 20.7865C45.2287 20.8 44.213 20.8 43.1973 20.7865C42.7504 20.7729 42.4525 20.4615 42.439 20.0552C42.4254 19.649 42.7234 19.324 43.1567 19.2833C43.4005 19.2562 43.6578 19.2833 43.9151 19.2833C43.9151 18.7552 43.9151 18.2677 43.9151 17.7531C42.5067 17.7531 41.1389 17.7531 39.7711 17.7531C39.1888 17.7531 38.8773 17.4823 38.8637 17.0219C38.8502 16.5344 39.1752 16.2365 39.7711 16.2365C40.7326 16.2229 41.6941 16.2365 42.6692 16.2365C43.089 16.2365 43.5088 16.2365 43.9151 16.2365C44.037 15.0854 43.712 14.476 42.7504 14.0021C39.1888 12.2552 35.6135 10.5219 32.0383 8.775C31.9029 8.70729 31.7674 8.65313 31.6049 8.58542C31.6049 11.1448 31.6049 13.6635 31.6049 16.2365C31.8081 16.2365 31.9841 16.2365 32.1737 16.2365C33.4061 16.2365 34.6385 16.2365 35.8844 16.2365C36.4802 16.2365 36.8323 16.5344 36.8459 16.9948C36.8594 17.4552 36.5073 17.7531 35.9115 17.7667C34.6655 17.7667 33.4061 17.7667 32.1602 17.7667C31.9841 17.7667 31.8081 17.7667 31.5914 17.7667C31.5914 18.0375 31.6185 18.2271 31.5914 18.4031C31.4153 19.3104 31.8216 19.7437 32.6477 20.1229C36.2771 21.8292 39.8523 23.6167 43.4547 25.3771C44.8224 26.0406 45.5131 27.124 45.4996 28.6542C45.4996 29.1417 45.4996 29.6292 45.4996 30.1302C45.4996 30.7531 45.4996 31.3625 45.4996 32.0125C46.1496 32.0802 46.9893 31.85 46.9893 32.7844C47.0028 33.7594 46.109 33.4885 45.5131 33.5969C45.5131 34.0844 45.5131 34.5583 45.5131 35.0865C45.7704 35.0865 46.0006 35.0729 46.2309 35.0865C46.7184 35.1271 47.0163 35.425 47.0163 35.8448C47.0163 36.251 46.7184 36.576 46.2715 36.5896C45.2558 36.6167 44.2401 36.6167 43.2244 36.5896C42.7369 36.576 42.439 36.2375 42.4525 35.8177C42.466 35.4115 42.764 35.1271 43.2109 35.0865C43.4547 35.0594 43.6984 35.0594 43.9422 35.0458C43.9422 34.5177 43.9422 34.0573 43.9422 33.5969C42.7369 33.4615 42.4254 33.3125 42.466 32.8115C42.5338 31.8365 43.3599 32.1073 43.9422 31.999C43.9422 31.4979 43.9422 31.024 43.9422 30.55C39.8117 30.55 35.7219 30.55 31.5101 30.55C31.6049 31.3896 31.483 32.2833 31.8081 32.9604C34.0155 37.6323 36.3177 42.2635 38.5793 46.9083C38.7283 47.2198 38.8908 47.3146 39.2294 47.3146C42.6963 47.301 46.1632 47.3417 49.6436 47.2875C50.7405 47.274 51.5531 47.5854 52 48.6281C52 49.3052 52 49.9823 52 50.6594ZM18.7666 47.274C23.6284 47.274 28.3953 47.274 33.2436 47.274C32.5529 46.5156 31.9299 45.8115 31.2934 45.1208C30.9955 44.7958 30.8872 44.4573 31.158 44.0646C31.456 43.6448 31.9977 43.6448 32.4175 44.0917C33.3113 45.0667 34.1915 46.0417 35.0854 47.0167C35.2072 47.1385 35.3697 47.2875 35.5323 47.301C36.0333 47.3417 36.5344 47.3146 37.1032 47.3146C34.9364 42.9 32.8102 38.5531 30.6569 34.1521C29.4246 35.5063 28.2464 36.8198 27.0411 38.1469C27.637 38.8104 28.2057 39.4469 28.7745 40.0698C29.1537 40.4896 29.5329 40.8958 29.8986 41.3156C30.2371 41.7083 30.2236 42.1417 29.885 42.4396C29.56 42.724 29.1537 42.6969 28.8016 42.3448C28.6662 42.2094 28.5443 42.074 28.4224 41.9385C27.637 41.0719 26.8379 40.1917 26.0254 39.2844C23.5877 41.9521 21.2042 44.5792 18.7666 47.274ZM25.9983 48.8448C18.0895 48.8448 10.1942 48.8448 2.2853 48.8448C2.13634 48.8448 1.97383 48.8313 1.82486 48.8583C1.73006 48.8719 1.58109 48.9396 1.58109 48.9802C1.55401 49.4135 1.49984 49.8604 1.58109 50.2802C1.60818 50.3885 2.06862 50.4563 2.33948 50.4563C18.103 50.4698 33.853 50.4698 49.6165 50.4698C50.4832 50.4698 50.4832 50.4698 50.4832 49.576C50.4832 48.8448 50.4832 48.8448 49.7655 48.8448C41.8431 48.8312 33.9207 48.8448 25.9983 48.8448ZM31.6049 28.9521C35.7489 28.9521 39.8523 28.9521 43.9422 28.9521C44.0505 27.8146 43.739 27.2323 42.764 26.7583C39.1752 24.9979 35.5729 23.2375 31.9841 21.4906C31.8758 21.4365 31.7539 21.4094 31.6185 21.3552C31.6049 23.901 31.6049 26.3927 31.6049 28.9521ZM24.9691 38.1333C23.7502 36.7927 22.572 35.4927 21.3532 34.1385C19.1999 38.5531 17.0738 42.9 14.907 47.301C15.408 47.301 15.8279 47.3417 16.2477 47.2875C16.4914 47.2604 16.7758 47.1656 16.9383 46.9896C19.1322 44.5927 21.3126 42.1823 23.4929 39.7719C23.9805 39.2573 24.4545 38.7156 24.9691 38.1333ZM29.6413 6.58125C28.8693 4.90208 28.138 3.30417 27.3796 1.70625C27.3255 1.59792 27.1088 1.53021 26.9734 1.53021C26.3504 1.51667 25.7275 1.54375 25.1045 1.51667C24.8066 1.50313 24.6576 1.625 24.5357 1.88229C23.8857 3.33125 23.2085 4.76667 22.545 6.20208C22.4908 6.31042 22.4637 6.44583 22.4095 6.58125C24.8201 6.58125 27.1901 6.58125 29.6413 6.58125ZM30.0475 17.8208C27.3255 17.8208 24.6441 17.8208 21.9626 17.8208C21.9626 18.3219 21.9626 18.7958 21.9626 19.2833C24.6711 19.2833 27.339 19.2833 30.0475 19.2833C30.0475 18.7823 30.0475 18.3219 30.0475 17.8208ZM21.9762 30.5365C21.9762 31.051 21.9762 31.525 21.9762 31.999C24.6982 31.999 27.3661 31.999 30.0475 31.999C30.0475 31.4979 30.0475 31.024 30.0475 30.5365C27.3526 30.5365 24.6847 30.5365 21.9762 30.5365ZM22.9241 33.6104C23.994 34.7885 24.9826 35.8854 26.0118 37.0094C27.0546 35.8583 28.0432 34.7615 29.086 33.6104C26.9869 33.6104 25.0097 33.6104 22.9241 33.6104ZM28.8152 20.8677C26.9327 20.8677 25.0368 20.8677 23.2221 20.8677C24.1565 21.8021 25.118 22.7635 26.0118 23.6708C26.9327 22.7635 27.8807 21.8156 28.8152 20.8677ZM26.0254 26.1083C25.0774 27.0562 24.1294 28.0042 23.195 28.9385C25.0503 28.9385 26.9598 28.9385 28.8558 28.9385C27.8943 27.9771 26.9598 27.0427 26.0254 26.1083ZM28.8558 16.2229C27.8807 15.2479 26.9327 14.3 26.066 13.4198C25.1316 14.3542 24.1836 15.3021 23.2763 16.2229C25.0639 16.2229 26.9598 16.2229 28.8558 16.2229ZM30.0475 9.43854C29.1131 10.3729 28.1516 11.3208 27.2713 12.2146C28.1651 13.1083 29.1131 14.0563 30.0475 14.9906C30.0475 13.1354 30.0475 11.2396 30.0475 9.43854ZM24.7795 12.2281C23.845 11.2938 22.8971 10.3458 21.9762 9.425C21.9762 11.2396 21.9762 13.149 21.9762 15.0177C22.9377 14.0698 23.8857 13.1083 24.7795 12.2281ZM23.1679 8.13854C24.1294 9.1 25.091 10.0615 25.9848 10.9552C26.9057 10.0344 27.8672 9.07292 28.8152 8.13854C26.9598 8.13854 25.0639 8.13854 23.1679 8.13854ZM21.9626 27.8146C22.9648 26.8125 23.9128 25.851 24.793 24.9573C23.8586 24.0229 22.8971 23.075 21.9626 22.1542C21.9626 23.9687 21.9626 25.8646 21.9626 27.8146ZM27.2848 24.8354C28.2193 25.7698 29.1673 26.7177 30.0475 27.5844C30.0475 25.8375 30.0475 23.9417 30.0475 22.0729C29.086 23.0479 28.138 23.9958 27.2848 24.8354Z" />
</svg>
