<svg width="52" height="52" viewBox="0 0 52 52" fill="none" xmlns="http://www.w3.org/2000/svg">
<g clip-path="url(#clip0_330_8250)">
<path d="M0 50.2654C1.86372 50.2654 3.71661 50.2654 5.59117 50.2654C5.42863 49.3982 5.4178 49.3873 4.61596 49.3873C3.78162 49.3765 3.54324 49.1597 3.44572 48.3358C2.88227 43.5987 2.32965 38.8616 1.7662 34.1245C1.66868 33.344 1.90706 33.0513 2.90394 32.8562C2.57887 32.2166 2.28631 31.577 1.95041 30.9592C1.72286 30.5364 1.70119 30.1353 1.93957 29.7125C2.18879 29.2681 2.39467 28.802 2.63305 28.3575C2.92561 27.783 3.1965 27.6638 3.82496 27.783C4.85434 27.989 5.87289 28.2058 6.91311 28.39C7.12982 28.4334 7.45489 28.39 7.60659 28.2491C8.30006 27.6312 8.98271 27.6312 9.71953 28.1407C9.89289 28.26 10.1096 28.3358 10.3805 28.4659C10.4455 28.1949 10.5105 27.9673 10.5539 27.7288C11.3557 22.6123 12.1684 17.5066 12.9594 12.3901C12.9919 12.1841 12.9485 11.9564 12.9052 11.7505C12.6993 10.8941 12.4826 10.0486 12.2659 9.19222C12.0167 8.21661 12.3309 7.80469 13.3169 7.80469C16.0258 7.80469 18.7347 7.80469 21.4436 7.80469C22.3647 7.80469 22.6897 8.22745 22.473 9.13802C22.408 9.39818 22.3647 9.66919 22.2671 9.91851C21.6603 11.512 21.812 13.1055 22.0829 14.7532C22.8306 19.306 23.5024 23.8806 24.2067 28.4442C24.2392 28.6611 24.2826 28.8779 24.3367 29.1814C24.5318 29.0079 24.6943 28.867 24.846 28.7261C27.8475 25.9619 30.8381 23.1976 33.8287 20.4117C34.208 20.0648 34.598 19.9022 35.1073 19.9239C35.7466 19.9564 36.3968 19.9239 37.0361 19.9348C37.8704 19.9348 38.163 20.2274 38.163 21.073C38.163 22.9158 38.163 24.7695 38.163 26.6123C38.163 26.7857 38.163 26.97 38.163 27.306C39.084 26.2762 39.8858 25.3765 40.6985 24.4659C41.8904 23.1218 43.0931 21.7884 44.2634 20.4334C44.5776 20.0648 44.9352 19.9131 45.412 19.9239C46.3438 19.9456 47.2757 19.9239 48.2075 19.9348C49.1611 19.9348 49.4211 20.1949 49.4211 21.1272C49.4211 23.9673 49.4211 26.8182 49.4211 29.6583C49.4211 29.8643 49.4211 30.0594 49.4211 30.3521C49.9629 30.3521 50.4613 30.3521 50.9598 30.3521C51.7399 30.3629 52.0325 30.6448 52.0325 31.4361C52.0325 37.9402 52.0325 44.4442 52.0325 50.9375C52.0325 51.7396 51.7183 52.0215 50.8514 52.0215C33.9046 52.0215 16.9685 52.0215 0.0216712 52.0215C0 51.4253 0 50.8507 0 50.2654ZM32.1167 32.0865C32.1167 38.1787 32.1167 44.2058 32.1167 50.2329C33.8504 50.2329 35.5516 50.2329 37.2744 50.2329C37.2744 48.3142 37.2744 46.4388 37.2744 44.5526C37.2744 43.5879 37.5128 43.3386 38.4555 43.3386C40.2651 43.3386 42.0746 43.3386 43.8841 43.3386C44.7943 43.3386 45.0761 43.6096 45.0761 44.5093C45.0761 46.2329 45.0761 47.9673 45.0761 49.6909C45.0761 49.8751 45.0761 50.0486 45.0761 50.2329C46.8423 50.2329 48.5435 50.2329 50.2338 50.2329C50.2338 44.1624 50.2338 38.1353 50.2338 32.0865C44.1875 32.0865 38.163 32.0865 32.1167 32.0865ZM12.0275 47.6529C12.6126 47.6529 13.1544 47.6746 13.6962 47.6421C13.8371 47.6312 14.0321 47.4903 14.0863 47.3711C14.6931 45.9077 15.7658 45.0838 17.3586 45.0947C18.9515 45.0947 20.0133 45.9402 20.6093 47.4036C20.6526 47.5012 20.7285 47.5879 20.7935 47.6746C20.8368 47.6638 20.8694 47.6421 20.9127 47.6312C21.2811 44.4876 21.6603 41.344 22.0288 38.1787C15.9933 38.1787 10.0121 38.1787 4.00917 38.1787C4.38841 41.3765 4.75682 44.5093 5.12523 47.6529C5.19025 47.6746 5.24443 47.6963 5.30944 47.718C5.63451 46.699 6.21963 45.8968 7.17316 45.4307C8.13753 44.9646 9.1344 44.9429 10.1204 45.3873C11.074 45.8209 11.6808 46.6014 12.0275 47.6529ZM17.3261 12.9971C17.3261 13.5825 17.3261 14.1245 17.3261 14.6773C16.7302 14.6773 16.1884 14.6773 15.5924 14.6773C15.5924 14.1028 15.5924 13.5716 15.5924 13.0079C15.2348 13.0079 14.9314 13.0079 14.5955 13.0079C13.8696 17.5933 13.1544 22.157 12.4176 26.8399C12.6885 26.6448 12.8293 26.5364 12.981 26.428C13.8045 25.8209 13.9562 25.8209 14.7472 26.4497C15.7658 27.2627 16.7952 28.0648 17.792 28.8995C18.0629 29.1272 18.258 29.1272 18.5397 28.9429C19.0923 28.5743 19.6666 28.2491 20.23 27.9131C20.761 27.6096 21.0644 27.6421 21.5086 28.0648C21.812 28.3575 22.1154 28.6611 22.4188 28.9646C22.4513 28.9429 22.473 28.9212 22.5055 28.8995C21.6929 23.6096 20.8802 18.3196 20.0675 13.0296C20.0133 13.0405 19.9592 13.0405 19.9158 13.0513C19.9158 14.157 19.9158 15.2735 19.9158 16.3901C19.3307 16.3901 18.7781 16.3901 18.1713 16.3901C18.1713 15.2302 18.1713 14.1028 18.1713 12.9863C17.8787 12.9971 17.6403 12.9971 17.3261 12.9971ZM23.5674 39.8264C25.8321 39.8264 28.0642 39.8264 30.318 39.8264C30.318 37.2356 30.318 34.6773 30.318 32.0648C30.1013 32.0648 29.9171 32.0648 29.7437 32.0648C28.0317 32.0648 26.3305 32.0974 24.6185 32.0432C23.9467 32.0215 23.5891 32.26 23.394 32.8562C24.2175 33.1705 24.3367 33.3873 24.2284 34.2654C23.99 36.1082 23.7841 37.9293 23.5674 39.8264ZM36.3642 26.0377C36.2992 26.0161 36.2667 25.9944 36.2342 25.9944C34.338 25.9944 32.4418 25.9835 30.5455 25.9944C30.383 25.9944 30.188 26.1028 30.0688 26.2112C28.6926 27.4686 27.3274 28.7261 25.9621 29.9944C25.8862 30.0703 25.8104 30.157 25.6912 30.2979C29.2886 30.2979 32.8102 30.2979 36.3534 30.2979C36.3642 28.867 36.3642 27.4686 36.3642 26.0377ZM47.6441 25.9835C45.6612 25.9835 43.7216 25.9835 41.782 25.9944C41.6412 25.9944 41.4895 26.1353 41.3811 26.2437C40.3734 27.3602 39.3765 28.4876 38.3905 29.6258C38.2605 29.7776 38.2388 30.0052 38.163 30.2003C38.3255 30.2437 38.4989 30.3196 38.6614 30.3196C41.4895 30.3304 44.3067 30.3196 47.1348 30.3196C47.2974 30.3196 47.4599 30.3196 47.6441 30.3196C47.6441 28.8562 47.6441 27.4578 47.6441 25.9835ZM3.78162 36.3358C9.95791 36.3358 16.0909 36.3358 22.2346 36.3358C22.2996 35.7613 22.3647 35.2302 22.4188 34.6882C16.1125 34.6882 9.87122 34.6882 3.58658 34.6882C3.65159 35.2627 3.70577 35.783 3.78162 36.3358ZM30.318 43.3277C30.318 42.7207 30.318 42.1895 30.318 41.6258C28.8769 41.6258 27.4682 41.6258 26.0271 41.6258C26.0271 44.5093 26.0271 47.3602 26.0271 50.2329C27.4682 50.2329 28.8769 50.2329 30.3072 50.2329C30.3072 49.6583 30.3072 49.1055 30.3072 48.5201C29.7329 48.5201 29.2019 48.5201 28.6493 48.5201C28.6493 47.9239 28.6493 47.3819 28.6493 46.7857C29.2236 46.7857 29.7545 46.7857 30.3072 46.7857C30.3072 46.1895 30.3072 45.6475 30.3072 45.0513C29.7329 45.0513 29.2019 45.0513 28.6601 45.0513C28.6601 44.4551 28.6601 43.9022 28.6601 43.3277C29.2128 43.3277 29.7329 43.3277 30.318 43.3277ZM43.3207 45.1055C41.8471 45.1055 40.4384 45.1055 39.0406 45.1055C39.0406 46.8399 39.0406 48.5418 39.0406 50.222C40.4818 50.222 41.9012 50.222 43.3207 50.222C43.3207 48.5093 43.3207 46.8182 43.3207 45.1055ZM24.2284 50.2329C24.2284 47.3494 24.2284 44.4876 24.2284 41.6258C23.925 41.6258 23.6541 41.6258 23.3724 41.6258C23.3399 41.8209 23.2965 41.9835 23.2749 42.1461C23.0256 44.2166 22.7873 46.2762 22.5489 48.3467C22.4513 49.1597 22.213 49.3873 21.3678 49.3873C20.5876 49.3982 20.5334 49.4415 20.4143 50.2654C21.617 50.2654 22.8198 50.2654 24.0225 50.2654C24.0984 50.2654 24.1525 50.2437 24.2284 50.2329ZM13.0027 32.8887C14.0754 32.8887 15.0615 32.8887 16.1017 32.8887C16.0042 32.5743 15.9283 32.3033 15.8308 32.0323C15.4516 30.8833 15.4624 30.8508 16.4484 30.1678C16.4701 30.157 16.4701 30.1136 16.4918 30.0703C15.6899 29.4307 14.8881 28.7803 14.0754 28.1516C13.9779 28.0757 13.772 28.0323 13.6962 28.0865C13.1544 28.4659 12.6235 28.867 12.0167 29.3223C12.9052 29.5716 13.0569 30.157 13.0027 30.8941C12.9702 31.5445 13.0027 32.1949 13.0027 32.8887ZM11.269 32.8887C11.269 32.5635 11.2257 32.2816 11.2799 31.9998C11.4424 31.1326 11.1173 30.6123 10.2721 30.3413C9.71953 30.1678 9.17775 29.6583 8.66847 29.7017C8.14837 29.7451 7.6716 30.2871 7.184 30.6123C7.14066 30.6448 7.08648 30.6556 7.05397 30.699C6.99979 30.7749 6.92394 30.8616 6.92394 30.9483C6.91311 31.5879 6.91311 32.2274 6.91311 32.8779C8.38675 32.8887 9.78454 32.8887 11.269 32.8887ZM14.5414 11.2302C16.4376 11.2302 18.258 11.2302 20.1217 11.2302C20.2626 10.6773 20.4034 10.1245 20.5443 9.5391C18.388 9.5391 16.2751 9.5391 14.1188 9.5391C14.2705 10.1136 14.4005 10.6665 14.5414 11.2302ZM20.6093 29.7234C19.8833 30.157 19.114 30.6123 18.3555 31.0784C17.4995 31.5879 17.5103 31.5879 17.8245 32.5418C17.9221 32.8345 18.0521 32.9429 18.3555 32.9321C19.2007 32.9104 20.0458 32.9321 20.891 32.9212C21.0427 32.9212 21.2378 32.8562 21.3244 32.7478C21.6603 32.2925 21.9637 31.8047 22.2563 31.3602C21.6929 30.7966 21.1619 30.2762 20.6093 29.7234ZM8.66847 46.8074C7.70411 46.8074 6.92394 47.5987 6.93478 48.5418C6.94561 49.4741 7.71494 50.2437 8.6468 50.2654C9.61117 50.2762 10.3913 49.5066 10.3913 48.5418C10.3913 47.5662 9.64368 46.8074 8.66847 46.8074ZM15.6141 48.531C15.6141 49.4957 16.3834 50.2762 17.3478 50.2654C18.2796 50.2545 19.0598 49.4849 19.0706 48.5526C19.0923 47.6096 18.3013 46.8074 17.3478 46.7966C16.3726 46.7966 15.6141 47.5554 15.6141 48.531ZM47.6441 21.6909C45.6937 21.4524 45.6178 21.4849 44.3717 22.8833C44.155 23.1218 43.9383 23.3602 43.7324 23.5987C43.5591 23.7938 43.3965 23.989 43.2015 24.2166C44.7402 24.2166 46.1921 24.2166 47.6549 24.2166C47.6441 23.3602 47.6441 22.5364 47.6441 21.6909ZM36.3751 21.5933C35.8441 21.6475 35.259 21.5283 34.9448 21.7667C34.0021 22.493 33.1677 23.3494 32.225 24.2166C33.6662 24.2166 35.0098 24.2166 36.3751 24.2166C36.3751 23.3602 36.3751 22.5364 36.3751 21.5933ZM5.21192 29.8318C4.9627 29.7776 4.68098 29.6909 4.39925 29.6583C4.22588 29.6367 3.92248 29.6475 3.87914 29.7451C3.75995 29.9835 3.61909 30.3413 3.70577 30.5581C3.99833 31.2735 4.36674 31.9564 4.73515 32.6394C4.80017 32.7695 4.9627 32.8453 5.07106 32.9429C5.1144 32.9104 5.15774 32.8887 5.21192 32.8562C5.21192 31.8806 5.21192 30.8941 5.21192 29.8318ZM14.303 50.2545C13.9346 49.2898 13.9346 49.2789 12.3201 49.3873C11.7675 49.4199 11.93 49.951 11.6808 50.2545C12.5801 50.2545 13.4253 50.2545 14.303 50.2545Z" />
<path d="M16.47 6.88347C15.8524 6.88347 15.3323 6.88347 14.758 6.88347C14.7472 6.73171 14.7255 6.57995 14.7255 6.43902C14.7255 5.20325 14.7147 3.96748 14.7255 2.73171C14.7255 2.0271 15.0506 1.71274 15.7441 1.7019C16.2208 1.69106 16.6868 1.7019 17.1635 1.69106C17.196 1.69106 17.2285 1.66938 17.3152 1.6477C17.3152 1.11653 17.3152 0.574526 17.3152 0C17.9112 0 18.4421 0 19.0272 0C19.0272 0.921409 19.0706 1.84282 19.0056 2.76423C18.9731 3.21951 18.5938 3.43631 18.1279 3.43631C17.5861 3.43631 17.0552 3.43631 16.4592 3.43631C16.47 4.59621 16.47 5.72358 16.47 6.88347Z" />
<path d="M19.9484 6.0487C19.9268 6.36306 19.9159 6.60154 19.9051 6.8617C19.3416 6.8617 18.7999 6.8617 18.2039 6.8617C18.2039 6.25466 18.1606 5.65845 18.2147 5.08393C18.2581 4.60696 18.5723 4.32512 19.0708 4.32512C19.6234 4.31428 20.176 4.32512 20.7719 4.32512C20.7936 4.01076 20.8153 3.75059 20.837 3.46875C21.3896 3.46875 21.9314 3.46875 22.5165 3.46875C22.5165 4.08664 22.549 4.71536 22.5056 5.32241C22.4731 5.78853 22.0939 6.03786 21.5521 6.0487C21.032 6.05954 20.5119 6.0487 19.9484 6.0487Z" />
<path d="M22.5163 1.68022C21.9421 1.68022 21.4111 1.68022 20.8477 1.68022C20.8477 1.11653 20.8477 0.574526 20.8477 0C21.4003 0 21.9529 0 22.5163 0C22.5163 0.552846 22.5163 1.09485 22.5163 1.68022Z" />
<path d="M45.9435 38.9916C45.3909 38.9916 44.8275 39.0024 44.2749 38.9916C43.6897 38.9807 43.3647 38.6664 43.3538 38.0701C43.343 36.9536 43.343 35.8371 43.3538 34.7206C43.3647 34.1027 43.6789 33.7991 44.3074 33.7991C45.3909 33.7883 46.4745 33.7883 47.558 33.7991C48.2082 33.7991 48.5332 34.1244 48.5441 34.7639C48.5549 35.8479 48.5549 36.9319 48.5441 38.0159C48.5332 38.6555 48.2082 38.9807 47.5689 39.0024C47.5472 39.0024 47.5364 39.0024 47.5147 39.0024C46.9946 38.9916 46.4636 38.9916 45.9435 38.9916ZM45.1092 35.5552C45.1092 36.1406 45.1092 36.6826 45.1092 37.2355C45.6835 37.2355 46.2253 37.2355 46.7779 37.2355C46.7779 36.6609 46.7779 36.1189 46.7779 35.5552C46.2036 35.5552 45.6726 35.5552 45.1092 35.5552Z" />
<path d="M36.4181 38.9915C35.8547 38.9915 35.3021 39.0023 34.7495 38.9915C34.1643 38.9806 33.8284 38.6554 33.8284 38.0809C33.8176 36.9644 33.8176 35.8478 33.8284 34.7313C33.8393 34.1351 34.1427 33.8099 34.7278 33.8099C35.8439 33.799 36.9599 33.799 38.076 33.8099C38.6611 33.8207 38.997 34.1351 39.0079 34.7096C39.0187 35.8261 39.0187 36.9427 39.0079 38.0592C38.997 38.6554 38.6611 38.9806 38.0435 38.9915C37.4909 39.0023 36.9491 38.9915 36.4181 38.9915ZM37.2308 37.2462C37.2308 36.6825 37.2308 36.1297 37.2308 35.566C36.6674 35.566 36.1256 35.566 35.5838 35.566C35.5838 36.1513 35.5838 36.6934 35.5838 37.2462C36.1473 37.2462 36.6674 37.2462 37.2308 37.2462Z" />
<path d="M39.9082 48.5093C39.9082 47.924 39.9082 47.3928 39.9082 46.8291C40.4717 46.8291 41.0026 46.8291 41.5769 46.8291C41.5769 47.3819 41.5769 47.9348 41.5769 48.5093C41.0134 48.5093 40.4825 48.5093 39.9082 48.5093Z" />
</g>
<defs>
<clipPath id="clip0_330_8250">
<rect width="52" height="52" fill="white"/>
</clipPath>
</defs>
</svg>
