<svg xmlns="http://www.w3.org/2000/svg" viewBox="0 0 893.67 304.73"><defs><style>.cls-3{fill:#75aab9;}.cls-4{fill:rgba(221,231,255,0.67);}</style></defs><title>Logo</title><g id="Слой_4" data-name="Слой 4"><g id="Слой_3-4" data-name="Слой 3"><path class="cls-3" d="M325.3,212.29c-9.5,0-17-1.83-22.3-5.53a31.42,31.42,0,0,1-11.6-14.1,51.89,51.89,0,0,1-3.75-19,109,109,0,0,1,1.61-20.88c-15.21,1.65-31.54,2.79-48.89,3.21-2.8.07-4.93,0-7.71-.09l-5.14,3.65q-20.34,15.66-41.4,29.4C130.53,225.28,28.43,249.08,2,171.3A39.19,39.19,0,0,1,.2,154.88a43.32,43.32,0,0,1,3.75-13c2-4.37,5.89-7.76,11.6-10.13A33.49,33.49,0,0,1,32,129.59a26.82,26.82,0,0,1,13.38,5.66c4.42,3.34,7.81,9.19,10.17,17.48a22.41,22.41,0,0,1,.71,7.85,18.14,18.14,0,0,1-2.14,6.6A11.75,11.75,0,0,1,48,172.37c-2.85,1.16-5.13,1.29-6.78.36a11.65,11.65,0,0,1-4.11-4.1,20.61,20.61,0,0,1-2.32-5.53c-.49-1.92-.85-3.44-1.07-4.64a19.75,19.75,0,0,0-3.21-6.78,7.55,7.55,0,0,0-6.42-3.57c-.94,0-1.56,1.2-1.79,3.57a29.55,29.55,0,0,0,.89,9.1,53.71,53.71,0,0,0,4.46,12c25.86,51.77,92.53,19.09,129.19-1.07q16.8-9.3,35-20a109.59,109.59,0,0,1-24.09-7.32,50.13,50.13,0,0,1-17.49-12.27,35.75,35.75,0,0,1-8.39-18c-1.2-7-.22-15.3,2.85-24.8a85.23,85.23,0,0,1,20.17-32.79q4.1-4.16,8.58-8l-.13.47c23.5-15,43,1.37,22.78,18.67a114.53,114.53,0,0,0-8.74,8.59c-7.27,8-11.82,15.88-13.74,23.73s-.22,15,5,21.41a42.31,42.31,0,0,0,15.17,11.24A70.91,70.91,0,0,0,214,138.15q20.34-12.85,39.61-27.83,13.28-10.33,25.54-21l.31.08,85.49-71.79q2.88-2.55,5.35-4.82a59.66,59.66,0,0,1,5.36-4.46A36.68,36.68,0,0,1,386,2.27,20.46,20.46,0,0,1,394.9.67c3.08.14,5.71,1.74,7.85,4.82a30.78,30.78,0,0,1,2.86,8.57,16.73,16.73,0,0,1-.89,8.56,21,21,0,0,1-6.6,8.88Q384.19,44,370.63,58.26a377.23,377.23,0,0,0-23.91,29.22,201.61,201.61,0,0,0-21.41,36q12.51-3.21,21.41-5.35c5.93-1.43,9.86-1.92,11.78-1.43,2.36.45,3.75,1.51,4.1,3.21a8.18,8.18,0,0,1-1.07,5.53,35.43,35.43,0,0,1-4.28,6.2c-1.78,2.14-3.22,4.44-5.17,5.71-9.06,5.89-24.7,9.75-36.24,11.87l-.87,3.47A99,99,0,0,0,313.53,188c.49,2.63,1.65,4.19,3.57,4.64a8.55,8.55,0,0,0,6.6-1.43,24.19,24.19,0,0,1,12.85-3.93c2.5,0,4.82,1.7,7,5s2.14,7,0,11.06c-4.13,7.83-10.46,8.92-18.2,8.92ZM604.41,76.17A17.29,17.29,0,0,1,605.74,71c1.67-3.89,4.58-8.45,9.56-9.23,8.48-1.33,11.07,12.09-1.34,20.92C608.23,86.74,603.89,81.24,604.41,76.17Zm25.85,4.43a17.29,17.29,0,0,1,1.33-5.18c1.67-3.89,4.58-8.45,9.56-9.23,8.48-1.33,11.07,12.09-1.34,20.92C634.08,91.17,629.74,85.67,630.26,80.59Zm54.47-34c3.91,15.2-12.17,35.92-19.88,30.38-1.07-.77-1.81-2.23-2.16-4.35l-.46-2.82c-1.12-6.83-4.8-11.33-11.07-13.56s-14.36-2.89-24.21-2C609.6,55.82,568.45,64,554.19,72.5c-5.64,6.17-11.41,13-17.35,20.6a240.67,240.67,0,0,0-18,26.41,182.29,182.29,0,0,0-13.74,28.73,89.11,89.11,0,0,0-5.89,29.44,12.84,12.84,0,0,0,1.07,4.28c.49.94,1.65,1.65,3.57,2.14q2.48.74,6.42-1.07a103.36,103.36,0,0,0,9.1-6.42A133.78,133.78,0,0,0,530.42,167c3.7-3.57,7.18-7.27,10.53-11.06,2-2.23,4.44-5.53,6.83-8.47A84.5,84.5,0,0,1,553,136.19a111,111,0,0,1,19.14-25.87A76,76,0,0,1,593.51,95c5.87-2.7,12.43-5,19-5,41.41.11,42.69,54.67,29.83,82.75-22.55,49.26-97.31,53-100.67,3.36q-3.88,4.79-7.84,9.09c-3.57,3.79-7.36,7.5-11.42,11.06a85.51,85.51,0,0,1-12.31,9.1,42.41,42.41,0,0,1-12.49,5.17,24,24,0,0,1-12.31-.36,14.39,14.39,0,0,1-9.81-9.28,48.79,48.79,0,0,1-2.86-16.06c-.07-3,0-6,.17-8.87q-2.35,3.26-5.08,6.73a127.81,127.81,0,0,1-12.53,13.74,78.87,78.87,0,0,1-14,10.53,28.66,28.66,0,0,1-14.5,4.28,7.17,7.17,0,0,1-3.57-.8l-1.43-.71c-.49,1.92-.94,4-1.43,6.11-.37,1.43-2.11,16.2-.71,16.2a76,76,0,0,0,9.81-1.43,95.06,95.06,0,0,1,17-1.43,57.38,57.38,0,0,1,17.22,2.5,50.44,50.44,0,0,1,14,6.78,79.19,79.19,0,0,1,7.54,7.85,54,54,0,0,1,5.4,9.41A29.91,29.91,0,0,1,493,268a49.94,49.94,0,0,1-1.43,10.53,29.84,29.84,0,0,1-5.89,11.91c-18,23.46-61.66,15.22-79.54-4.46a55.37,55.37,0,0,1-9.82-14.63,60.25,60.25,0,0,1-3.93-10.88,36.19,36.19,0,0,1-.61-3.71l-3.67.14c-8.06.3-14.5-1.13-19.27-3.39A26.57,26.57,0,0,1,358.18,245a27.22,27.22,0,0,1-4.46-11.24,81.17,81.17,0,0,1-.89-11.42c.27-2.41,1-3.57,2.14-3.57a1.3,1.3,0,0,1,1.07.36,8.63,8.63,0,0,0,1.07.71l1.07,1.07a29.71,29.71,0,0,0,13.38,7.85A88.33,88.33,0,0,0,389.94,232c.49-4.77,1.07-9.19,1.79-13.2s1.43-7.76,2.14-11.06c1-3.79,1.92-7.27,2.85-10.35a68.11,68.11,0,0,1-14.41,9.95,32.41,32.41,0,0,1-14.81,3.93c-6.69,0-11.55-2.36-14.63-7.14s-4.64-10.93-4.64-18.56q0-11.78,4.64-26.59a130.28,130.28,0,0,1,13.87-29.8c8-13.34,17-23.15,26.81-29.44s18.83-9.46,26.85-9.46c7.36,0,12.8,2,16.37,5.89s5.71,7.45,6.42,10.53a38.43,38.43,0,0,1,3.93-4.86,56.51,56.51,0,0,1,5.53-5.17,36,36,0,0,1,6.42-4.32,14.72,14.72,0,0,1,7-1.79c4,0,7,1,8.74,3a11.17,11.17,0,0,1,2.67,7.67,23.55,23.55,0,0,1-2.14,9.28,53.72,53.72,0,0,1-6.11,10.39c-1.65,2.14-4.37,5.89-8.07,11.24s-7.45,11.06-11.29,17.13-7.23,12-10.22,17.84-4.46,10.31-4.46,13.38c0,2.63,1.34,4,4,4q3.21,0,8.43-4.15a112.23,112.23,0,0,0,10.93-10,137.86,137.86,0,0,0,11-12.67A106.6,106.6,0,0,0,478,145.16l.44-.64a189,189,0,0,1,15.26-38.92q7.36-13.83,15.1-25.66l.11-.17,1.64-2.44c-12.72-1.13-23.13-3.82-29.1-8.35a19.23,19.23,0,0,1-6.78-8.76,16.94,16.94,0,0,1-.85-9.05,27.75,27.75,0,0,1,3.11-8.2A31.49,31.49,0,0,1,482,36.18a6.81,6.81,0,0,1,2.83-1.7c2.26-.77,3.75.21,4.52,2.83,1.91,4.87,6.57,8.27,14.14,10.18s17,2.46,28.55,1.71c2.52-2.81,9.86-9.89,16.22-15.94h0c4.43-4.21,8.39-7.92,9.91-9.33l9.82-9.1a95.77,95.77,0,0,1,8.92-7.5A47.36,47.36,0,0,1,587.6,1.62,21.86,21.86,0,0,1,596.52,0a10.63,10.63,0,0,1,8.21,4.46,15.41,15.41,0,0,1,2.85,7.14,18.8,18.8,0,0,1-1.07,7.85c-.94,3.08-3.35,6.29-7.14,9.64q-3.78,3.6-7.7,7.22c29-6.83,86.38-15.66,93.06,10.27ZM891.5,140.92c1.92.94,2.54,2.72,2,5.35a30.09,30.09,0,0,1-2.32,6.78,155,155,0,0,1-22.84,30.34,124.75,124.75,0,0,1-12.49,10.88A97.06,97.06,0,0,1,841,203.55C817.6,215.45,772.77,217,770.52,182a63.8,63.8,0,0,1,1.78-22.48,109.69,109.69,0,0,1,6.78-18.91,80.52,80.52,0,0,1,7.67-13.2c2.5-3.34,4-5.35,4.46-6.07q13.18-18.2,28.19-25.52t26.41-5.17a27.21,27.21,0,0,1,5.89,2,20,20,0,0,1,7.14,5.53c2.28,2.63,4,6.29,5.17,11.06,7.75,30.71-26.68,71.12-58.17,54.24-6.3,20.13,11.05,28.13,28.37,24.8a37.12,37.12,0,0,0,11.6-4.11,47.39,47.39,0,0,0,10.7-7.49,121.39,121.39,0,0,0,13.92-15.17,158.1,158.1,0,0,0,11.42-16.24,16.3,16.3,0,0,1,2.5-3.21,9.92,9.92,0,0,1,3.21-1.61,5.25,5.25,0,0,1,3.92.54Zm-61.19-19.18-.06.05a93.89,93.89,0,0,0-15.47,18.41,55.64,55.64,0,0,0-5,9.28c12.11-2.26,26.69-9.13,34.44-19.09a46.59,46.59,0,0,0,3.75-5.53c8-16.45-8.56-10.55-17.66-3.12ZM756.49,91.4a20.13,20.13,0,0,1,9.28,5.36,30.17,30.17,0,0,1,6.42,8.88c1.92,3.83,2.85,8.7,2.85,14.63,0,10-2.59,20.3-7.72,31-20.18,42.1-96.88,89.4-111.75,36-1.26-4.54-1.25-9-1.25-13a94,94,0,0,1,1.79-18.38c1.2-6.07,2.36-11.11,3.57-15.17q2.87-9.64,8.74-23.91A245.06,245.06,0,0,1,683.6,86.59,232.36,232.36,0,0,1,706.09,55a150.17,150.17,0,0,1,31-27.84A30.38,30.38,0,0,1,742.84,24a57.27,57.27,0,0,1,5.89-2.5,19.67,19.67,0,0,1,6.6-1.07,24.85,24.85,0,0,1,3.57.36,9.56,9.56,0,0,1,4.1,1.79,11.32,11.32,0,0,1,3.39,4.28,18,18,0,0,1,1.43,7.85,19.19,19.19,0,0,1-1.43,6.6c-.94,2.5-3,5-6.07,7.32A217.1,217.1,0,0,0,732.49,74.1q-11.77,13-20,23.73a247,247,0,0,0-16.06,24.27,103.79,103.79,0,0,0-6.78,12.13Q694,127.8,700,120a104.15,104.15,0,0,1,13.61-14.45,82,82,0,0,1,15.88-11.06A36.26,36.26,0,0,1,746.81,90a31.12,31.12,0,0,1,9.68,1.43Zm-24,69.86a187.88,187.88,0,0,0,12-21.95c3.43-7.5,5.17-13.61,5.17-18.38,0-5.49-2.36-8.21-7.14-8.21-20.18,0-57.14,42.54-61.29,61.47-4.53,26.06,34.32,14,51.3-12.94Zm-153.26-6.65a35.88,35.88,0,0,0-3.39,16.06,22.74,22.74,0,0,0,2,10c3.59,7.18,10.39,9.64,18,9.64a23.79,23.79,0,0,0,12.85-3.57C657,156.09,618.51,74.71,579.24,154.61ZM379.64,182c2.36,0,6.29-2.32,11.86-7a148.85,148.85,0,0,0,16.82-16.77,137.75,137.75,0,0,0,14.9-20.7c4.24-7.27,6.38-13.61,6.38-19.09,0-3.08-1.43-4.64-4.24-4.64a11.56,11.56,0,0,0-6,2c-2.14,1.3-4.15,2.68-6.07,4.11a85.7,85.7,0,0,0-6.69,6.07,107,107,0,0,0-11.38,13.56c-3.52,5-6.64,9.86-9.37,14.63a84.92,84.92,0,0,0-6.38,13.56c-1.56,4.28-2.32,7.63-2.32,10,0,2.63.85,4.06,2.5,4.28Zm75.12,93.41c4.06-.22,7.18-1.07,9.46-2.5a18.38,18.38,0,0,0,5.17-4.64,10.9,10.9,0,0,0,2.14-4.82,28.24,28.24,0,0,0,.35-3.39,12.35,12.35,0,0,0-2.85-8.57,18.69,18.69,0,0,0-6.6-4.82,24.5,24.5,0,0,0-7.32-2c-2.36-.22-4.15-.36-5.36-.36a58,58,0,0,0-10,.89,72,72,0,0,0-9.1,2.14c-2.72.85-5,1.61-6.6,2.32l-2.5,1.07a31.7,31.7,0,0,0,1.79,4.28,33.65,33.65,0,0,0,5.89,8.39,45.86,45.86,0,0,0,10.35,8.21,29,29,0,0,0,15.17,3.75ZM318.88,76.33q-13.58,14.25-30.15,30t-35.15,31.76c6.91-.71,13.74-1.74,20.52-3s13.51-2.68,20.16-4.1C300,111.53,308.73,93.9,318.88,76.33Z"/><path class="cls-4" d="M522.07,265.88a9.52,9.52,0,0,0,7.95-3.68l.11.05v3.14h6.76V239H529.8v3l-.11.05a9.94,9.94,0,0,0-7.78-3.46c-7.08,0-12.43,5.68-12.43,13.68,0,8.16,5.35,13.62,12.6,13.62Zm1.35-6.38c-4,0-6.76-3-6.76-7.19,0-4.54,2.92-7.41,6.76-7.41s6.7,3.14,6.7,7.41S527,259.51,523.42,259.51Zm23.52,5.89H554V225.61h-7.08Zm25.57.49a12.72,12.72,0,0,0,7-1.68l-1.78-5.68a8.27,8.27,0,0,1-3.35.92c-1.68,0-2.27-1.08-2.27-3.41V244.86h7.14V239h-7.14v-9.35l-7.08.76V239h-3.14v5.89H565v12.22C565,263,568,265.88,572.51,265.88Zm17.95,10.22h7.19L611.87,239h-7.19l-6,16.22h-.11L592.14,239h-7.57l10.6,24.81Zm28.76-10.7h7.08V252.15c0-4.76,2.38-7.24,5.95-7.24,3.3,0,5.08,1.57,5.08,6.6V265.4h7.08V249.72c0-8.11-3.95-11.14-9.57-11.14a10.85,10.85,0,0,0-8.43,3.78h-.11V239h-7.08Zm63.58.49c7.35,0,12.7-5.46,12.7-13.62,0-8-5.35-13.68-12.49-13.68a10.26,10.26,0,0,0-8,3.41H675V225.61h-7.08V265.4h6.7v-3.19l.11-.05A9.66,9.66,0,0,0,682.8,265.88Zm-1.24-6.38a6.8,6.8,0,0,1-6.92-7.19c0-4.27,2.81-7.41,6.86-7.41,3.78,0,6.81,2.87,6.81,7.41,0,4.22-2.81,7.19-6.76,7.19Zm47.09-7.57c0-7.73-5.19-13.35-12.65-13.35-7.84,0-13.41,5.51-13.41,13.57,0,8.27,5.73,13.73,13.84,13.73,5.89,0,9.3-2.16,11.52-5l-4.6-4.27a7.9,7.9,0,0,1-6.43,3c-3.57,0-6.11-1.89-7-5.08h18.54c.05-.43.16-1.68.16-2.54Zm-12.7-7.19c3.08,0,5,1.84,5.68,4.65H710A5.88,5.88,0,0,1,715.94,244.75Zm29.74,21.14c6.92,0,10.22-3.57,10.22-8.22,0-5.24-3.35-6.49-9.08-8.59-2.59-1-3.89-1.73-3.89-2.81,0-1.4,1.41-1.95,2.49-1.95a9.35,9.35,0,0,1,6.32,2.81l3.46-5.24a14.86,14.86,0,0,0-9.62-3.3c-5.46,0-9.57,3.08-9.57,7.84,0,5.14,3.78,7.19,8.16,8.65,3.41,1.13,4.76,1.73,4.76,2.87,0,1.3-1.13,2.16-3.19,2.16a10.26,10.26,0,0,1-7.35-3L735,262a16,16,0,0,0,10.7,3.89Zm18.81-.49h7.08V239h-7.08Zm29.36,11.14c10.22,0,13.84-5.89,13.84-14.16V239H800.6v2.76h-.11a11.29,11.29,0,0,0-7.95-3.14c-7,0-12.22,5.57-12.22,13.35s5.35,13,12.6,13a10.42,10.42,0,0,0,7.68-3h.11v2.65c0,3.14-2.49,5.84-7.41,5.84a16.53,16.53,0,0,1-8.6-2.49l-1.68,6a21.51,21.51,0,0,0,10.81,2.65Zm.38-18a6.79,6.79,0,1,1,6.65-6.86A6.47,6.47,0,0,1,794.22,258.53Zm23.52,6.87h7.08V239h-7.08Zm17.41,0h7.08V252.21c0-4.76,2.38-7.3,5.57-7.3s4.65,2.65,4.65,6.86V265.4h7.08V252.21c0-4.76,2.43-7.3,5.41-7.3,3.3,0,4.59,2.65,4.59,6.86V265.4h7.08V250.1c0-8.11-3.62-11.52-9.3-11.52a11.36,11.36,0,0,0-9.24,4.16H858c-1.57-2.87-4.33-4.16-7.78-4.16a10.21,10.21,0,0,0-7.89,3.84h-.05V239h-7.08Z"/></g></g></svg>
