<svg width="28" height="25" viewBox="0 0 28 25" fill="none" xmlns="http://www.w3.org/2000/svg">
<g clip-path="url(#clip0_277_518)">
<path d="M-1 25.0002C-0.322293 20.5351 0.331635 16.1525 1.00934 11.7227C1.18769 11.7227 1.35414 11.7227 1.5087 11.7227C4.73079 11.7227 7.95287 11.7227 11.1868 11.7227C11.3057 11.7227 11.4246 11.7109 11.5435 11.7345C12.0191 11.8051 12.3639 12.2175 12.3282 12.6534C12.2926 13.0893 11.924 13.4074 11.4365 13.4074C10.0692 13.4074 8.70191 13.4074 7.33461 13.4074C7.21571 13.4074 7.1087 13.4074 6.98981 13.4074C6.97792 13.431 6.97792 13.4545 6.96603 13.4781C7.07304 13.537 7.18004 13.5959 7.28705 13.643C12.1023 15.6694 16.9295 17.684 21.7448 19.7222C22.0658 19.8518 22.2798 19.8282 22.5414 19.6279C23.1121 19.1803 23.7185 18.7797 24.2892 18.332C24.42 18.2378 24.5151 17.9903 24.4913 17.8372C24.2535 16.447 23.98 15.0568 23.6947 13.6784C23.6709 13.5723 23.5045 13.431 23.3856 13.4192C22.803 13.3485 22.4463 13.0304 22.4582 12.5474C22.482 12.0761 22.8862 11.7345 23.445 11.7345C23.9444 11.7227 24.4556 11.7345 24.955 11.7345C25.0025 11.7345 25.0382 11.758 25.1096 11.7698C25.4068 13.3014 25.704 14.8447 26.0013 16.3881C26.3104 18.0021 26.6195 19.6279 26.9168 21.242C27.1902 22.7147 26.2747 24.2934 24.8242 24.7646C24.4081 24.906 23.9563 24.9885 23.5163 24.9885C15.4909 25.0002 7.46539 25.0002 -0.560085 25.0002C-0.655202 25.0002 -0.785987 25.0002 -1 25.0002ZM20.5439 21.0417C20.4488 20.9828 20.4013 20.9475 20.3418 20.9357C16.8463 19.4748 13.3389 18.0257 9.8552 16.5648C9.59363 16.4588 9.48662 16.5648 9.34395 16.7297C8.1431 18.1082 6.94225 19.4866 5.72951 20.8768C5.02803 21.6897 4.32654 22.4908 3.55372 23.3744C3.81529 23.3744 3.96985 23.3744 4.12442 23.3744C8.07176 23.3744 12.0191 23.3509 15.9783 23.398C16.9057 23.4098 17.6667 23.233 18.3682 22.6322C19.0459 22.0431 19.8068 21.5719 20.5439 21.0417ZM0.961783 23.3155C0.997452 23.3509 1.04501 23.3862 1.08068 23.4333C1.24713 23.3155 1.46115 23.233 1.59193 23.0917C3.50616 20.9003 5.40849 18.6972 7.31083 16.4941C7.52484 16.2467 7.73885 15.9875 7.97665 15.7165C6.12187 14.9508 4.31465 14.1968 2.47176 13.431C1.94862 16.7533 1.46115 20.0403 0.961783 23.3155ZM24.9788 19.9343C23.3737 21.0888 21.8518 22.1845 20.318 23.2919C21.4594 23.3744 22.5533 23.3862 23.6471 23.3626C24.5745 23.3391 25.383 22.5615 25.3117 21.7486C25.2641 21.1713 25.1096 20.594 24.9788 19.9343Z" fill="white"/>
<path d="M17.6655 17.1656C16.0009 15.4927 14.5147 13.7726 13.2544 11.8758C12.5648 10.839 11.9347 9.74337 11.4234 8.61236C10.496 6.57419 10.9479 4.61849 12.1725 2.85129C13.7776 0.518583 16.6192 -0.47105 19.3895 0.224049C22.029 0.883804 24.0145 3.16938 24.3474 5.91444C24.4782 7.02188 24.2166 8.04686 23.753 9.03649C22.5997 11.487 20.9113 13.5723 19.1398 15.6105C18.6761 16.1171 18.1886 16.6119 17.6655 17.1656ZM17.7249 4.32396C16.536 4.27683 15.4897 5.25468 15.454 6.45638C15.4183 7.61095 16.4052 8.63593 17.5941 8.68305C18.7831 8.73018 19.8294 7.74054 19.8651 6.53885C19.9007 5.38428 18.9258 4.38286 17.7249 4.32396Z" fill="white"/>
</g>
<defs>
<clipPath id="clip0_277_518">
<rect width="28" height="25" fill="white"/>
</clipPath>
</defs>
</svg>
