<svg width="37" height="37" viewBox="0 0 37 37" fill="none" xmlns="http://www.w3.org/2000/svg">
<g clip-path="url(#clip0_277_461)">
<path d="M0.5 32.7688C1.75364 32.7688 3 32.7688 4.26093 32.7688C4.1516 32.1608 4.14431 32.1532 3.60496 32.1532C3.04373 32.1456 2.88338 31.9936 2.81778 31.416C2.43878 28.0949 2.06706 24.7737 1.68805 21.4526C1.62245 20.9054 1.7828 20.7002 2.45335 20.5634C2.23469 20.115 2.0379 19.6666 1.81195 19.2334C1.65889 18.937 1.64431 18.6558 1.80466 18.3594C1.9723 18.0478 2.11079 17.721 2.27114 17.4094C2.46793 17.0066 2.65015 16.923 3.07289 17.0066C3.76531 17.151 4.45044 17.303 5.15015 17.4322C5.29592 17.4626 5.51458 17.4322 5.61662 17.3334C6.08309 16.9002 6.54227 16.9002 7.0379 17.2574C7.15452 17.341 7.30029 17.3942 7.48251 17.4854C7.52624 17.2954 7.56997 17.1358 7.59913 16.9686C8.13848 13.3815 8.68513 9.80191 9.2172 6.21476C9.23907 6.07036 9.20991 5.91076 9.18076 5.76636C9.04227 5.16597 8.8965 4.57318 8.75073 3.97279C8.58309 3.2888 8.79446 3 9.45773 3C11.2799 3 13.102 3 14.9242 3C15.5437 3 15.7624 3.2964 15.6166 3.93479C15.5729 4.11719 15.5437 4.30718 15.4781 4.48198C15.07 5.59917 15.172 6.71635 15.3542 7.87154C15.8571 11.0635 16.309 14.2707 16.7828 17.4702C16.8047 17.6222 16.8338 17.7742 16.8703 17.987C17.0015 17.8654 17.1108 17.7666 17.2128 17.6678C19.2318 15.7298 21.2434 13.7919 23.2551 11.8387C23.5102 11.5955 23.7726 11.4815 24.1152 11.4967C24.5452 11.5195 24.9825 11.4967 25.4125 11.5043C25.9738 11.5043 26.1706 11.7095 26.1706 12.3023C26.1706 13.5943 26.1706 14.8938 26.1706 16.1858C26.1706 16.3074 26.1706 16.4366 26.1706 16.6722C26.7901 15.9502 27.3294 15.3194 27.8761 14.681C28.6778 13.7387 29.4869 12.8039 30.2741 11.8539C30.4854 11.5955 30.7259 11.4891 31.0466 11.4967C31.6735 11.5119 32.3003 11.4967 32.9271 11.5043C33.5685 11.5043 33.7434 11.6867 33.7434 12.3403C33.7434 14.3315 33.7434 16.3302 33.7434 18.3214C33.7434 18.4658 33.7434 18.6026 33.7434 18.8078C34.1079 18.8078 34.4431 18.8078 34.7784 18.8078C35.3032 18.8154 35.5 19.013 35.5 19.5678C35.5 24.1277 35.5 28.6877 35.5 33.24C35.5 33.8024 35.2886 34 34.7055 34C23.3061 34 11.914 34 0.514577 34C0.5 33.582 0.5 33.1792 0.5 32.7688ZM22.1035 20.0238C22.1035 24.2949 22.1035 28.5205 22.1035 32.746C23.2697 32.746 24.414 32.746 25.5729 32.746C25.5729 31.4008 25.5729 30.0861 25.5729 28.7637C25.5729 28.0873 25.7332 27.9125 26.3673 27.9125C27.5845 27.9125 28.8017 27.9125 30.0189 27.9125C30.6312 27.9125 30.8207 28.1025 30.8207 28.7333C30.8207 29.9417 30.8207 31.1576 30.8207 32.366C30.8207 32.4952 30.8207 32.6168 30.8207 32.746C32.0087 32.746 33.1531 32.746 34.2901 32.746C34.2901 28.4901 34.2901 24.2645 34.2901 20.0238C30.223 20.0238 26.1706 20.0238 22.1035 20.0238ZM8.59038 30.9372C8.98396 30.9372 9.3484 30.9524 9.71283 30.9296C9.80758 30.922 9.93878 30.8232 9.97522 30.7396C10.3834 29.7137 11.105 29.1361 12.1764 29.1437C13.2478 29.1437 13.9621 29.7365 14.363 30.7624C14.3921 30.8308 14.4431 30.8916 14.4869 30.9524C14.516 30.9448 14.5379 30.9296 14.5671 30.922C14.8149 28.7181 15.07 26.5141 15.3178 24.2949C11.258 24.2949 7.23469 24.2949 3.19679 24.2949C3.45189 26.5369 3.69971 28.7333 3.94752 30.9372C3.99125 30.9524 4.0277 30.9676 4.07143 30.9828C4.29009 30.2684 4.68367 29.7061 5.32507 29.3793C5.97376 29.0525 6.64431 29.0373 7.30758 29.3489C7.94898 29.6529 8.35714 30.2001 8.59038 30.9372ZM12.1545 6.64035C12.1545 7.05075 12.1545 7.43074 12.1545 7.81834C11.7536 7.81834 11.3892 7.81834 10.9883 7.81834C10.9883 7.41554 10.9883 7.04315 10.9883 6.64795C10.7478 6.64795 10.5437 6.64795 10.3178 6.64795C9.82945 9.86271 9.3484 13.0623 8.85277 16.3454C9.03499 16.2086 9.12974 16.1326 9.23178 16.0566C9.78571 15.631 9.88776 15.631 10.4198 16.0718C11.105 16.6418 11.7974 17.2042 12.4679 17.7894C12.6501 17.949 12.7813 17.949 12.9708 17.8198C13.3426 17.5614 13.7289 17.3334 14.1079 17.0978C14.465 16.885 14.6691 16.9078 14.9679 17.2042C15.172 17.4094 15.3761 17.6222 15.5802 17.835C15.602 17.8198 15.6166 17.8046 15.6385 17.7894C15.0918 14.0807 14.5452 10.3719 13.9985 6.66315C13.9621 6.67075 13.9257 6.67075 13.8965 6.67835C13.8965 7.45354 13.8965 8.23633 13.8965 9.01912C13.5029 9.01912 13.1312 9.01912 12.723 9.01912C12.723 8.20593 12.723 7.41554 12.723 6.63275C12.5262 6.64035 12.3659 6.64035 12.1545 6.64035ZM16.3528 25.4501C17.8761 25.4501 19.3776 25.4501 20.8936 25.4501C20.8936 23.6337 20.8936 21.8402 20.8936 20.0086C20.7478 20.0086 20.6239 20.0086 20.5073 20.0086C19.3557 20.0086 18.2114 20.0314 17.0598 19.9934C16.6079 19.9782 16.3673 20.1454 16.2362 20.5634C16.7901 20.7838 16.8703 20.9358 16.7974 21.5514C16.637 22.8433 16.4985 24.1201 16.3528 25.4501ZM24.9606 15.783C24.9169 15.7678 24.895 15.7526 24.8732 15.7526C23.5977 15.7526 22.3222 15.745 21.0466 15.7526C20.9373 15.7526 20.8061 15.8286 20.7259 15.9046C19.8003 16.7862 18.8819 17.6678 17.9636 18.557C17.9125 18.6102 17.8615 18.671 17.7813 18.7698C20.2012 18.7698 22.57 18.7698 24.9534 18.7698C24.9606 17.7666 24.9606 16.7862 24.9606 15.783ZM32.5481 15.745C31.2143 15.745 29.9096 15.745 28.605 15.7526C28.5102 15.7526 28.4082 15.8514 28.3353 15.9274C27.6574 16.7102 26.9869 17.5006 26.3236 18.2986C26.2362 18.405 26.2216 18.5646 26.1706 18.7014C26.2799 18.7318 26.3965 18.785 26.5058 18.785C28.4082 18.7926 30.3032 18.785 32.2055 18.785C32.3149 18.785 32.4242 18.785 32.5481 18.785C32.5481 17.759 32.5481 16.7786 32.5481 15.745ZM3.04373 23.0029C7.19825 23.0029 11.3236 23.0029 15.4563 23.0029C15.5 22.6001 15.5437 22.2278 15.5802 21.8478C11.3382 21.8478 7.13994 21.8478 2.91254 21.8478C2.95627 22.2506 2.99271 22.6153 3.04373 23.0029ZM20.8936 27.9049C20.8936 27.4793 20.8936 27.1069 20.8936 26.7117C19.9242 26.7117 18.9767 26.7117 18.0073 26.7117C18.0073 28.7333 18.0073 30.732 18.0073 32.746C18.9767 32.746 19.9242 32.746 20.8863 32.746C20.8863 32.3432 20.8863 31.9556 20.8863 31.5452C20.5 31.5452 20.1429 31.5452 19.7711 31.5452C19.7711 31.1272 19.7711 30.7472 19.7711 30.3292C20.1574 30.3292 20.5146 30.3292 20.8863 30.3292C20.8863 29.9113 20.8863 29.5313 20.8863 29.1133C20.5 29.1133 20.1429 29.1133 19.7784 29.1133C19.7784 28.6953 19.7784 28.3077 19.7784 27.9049C20.1501 27.9049 20.5 27.9049 20.8936 27.9049ZM29.6399 29.1513C28.6487 29.1513 27.7012 29.1513 26.7609 29.1513C26.7609 30.3672 26.7609 31.5604 26.7609 32.7384C27.7303 32.7384 28.6851 32.7384 29.6399 32.7384C29.6399 31.5376 29.6399 30.352 29.6399 29.1513ZM16.7974 32.746C16.7974 30.7244 16.7974 28.7181 16.7974 26.7117C16.5933 26.7117 16.4111 26.7117 16.2216 26.7117C16.1997 26.8485 16.1706 26.9625 16.156 27.0765C15.9883 28.5281 15.828 29.9721 15.6676 31.4236C15.602 31.9936 15.4417 32.1532 14.8732 32.1532C14.3484 32.1608 14.312 32.1912 14.2318 32.7688C15.0408 32.7688 15.8499 32.7688 16.6589 32.7688C16.7099 32.7688 16.7464 32.7536 16.7974 32.746ZM9.24636 20.5862C9.96793 20.5862 10.6312 20.5862 11.3309 20.5862C11.2653 20.3658 11.2143 20.1758 11.1487 19.9858C10.8936 19.1802 10.9009 19.1574 11.5641 18.6786C11.5787 18.671 11.5787 18.6406 11.5933 18.6102C11.0539 18.1618 10.5146 17.7058 9.96793 17.265C9.90233 17.2118 9.76385 17.1814 9.71283 17.2194C9.3484 17.4854 8.99125 17.7666 8.58309 18.0858C9.18076 18.2606 9.2828 18.671 9.24636 19.1878C9.22449 19.6438 9.24636 20.0998 9.24636 20.5862ZM8.08017 20.5862C8.08017 20.3582 8.05102 20.1606 8.08746 19.963C8.19679 19.355 7.97813 18.9902 7.40962 18.8002C7.0379 18.6786 6.67347 18.3214 6.3309 18.3518C5.98105 18.3822 5.66035 18.7622 5.33236 18.9902C5.30321 19.013 5.26676 19.0206 5.2449 19.051C5.20845 19.1042 5.15743 19.165 5.15743 19.2258C5.15015 19.6742 5.15015 20.1226 5.15015 20.5786C6.1414 20.5862 7.08163 20.5862 8.08017 20.5862ZM10.2813 5.40157C11.5569 5.40157 12.7813 5.40157 14.035 5.40157C14.1297 5.01397 14.2245 4.62638 14.3192 4.21598C12.8688 4.21598 11.4475 4.21598 9.99708 4.21598C10.0991 4.61878 10.1866 5.00637 10.2813 5.40157ZM14.363 18.367C13.8746 18.671 13.3571 18.9902 12.8469 19.317C12.2711 19.6742 12.2784 19.6742 12.4898 20.343C12.5554 20.5482 12.6429 20.6242 12.8469 20.6166C13.4155 20.6014 13.984 20.6166 14.5525 20.609C14.6545 20.609 14.7857 20.5634 14.844 20.4874C15.07 20.1682 15.2741 19.8262 15.4708 19.5146C15.0918 19.1194 14.7347 18.7546 14.363 18.367ZM6.3309 30.3444C5.68222 30.3444 5.15743 30.8992 5.16472 31.5604C5.17201 32.214 5.6895 32.7536 6.31633 32.7688C6.96501 32.7764 7.4898 32.2368 7.4898 31.5604C7.4898 30.8764 6.98688 30.3444 6.3309 30.3444ZM11.0029 31.5528C11.0029 32.2292 11.5204 32.7764 12.1691 32.7688C12.7959 32.7612 13.3207 32.2216 13.328 31.568C13.3426 30.9068 12.8105 30.3444 12.1691 30.3368C11.5131 30.3368 11.0029 30.8688 11.0029 31.5528ZM32.5481 12.7355C31.2362 12.5683 31.1851 12.5911 30.3469 13.5715C30.2012 13.7387 30.0554 13.9059 29.9169 14.0731C29.8003 14.2099 29.691 14.3467 29.5598 14.5063C30.5948 14.5063 31.5714 14.5063 32.5554 14.5063C32.5481 13.9059 32.5481 13.3283 32.5481 12.7355ZM24.9679 12.6671C24.6108 12.7051 24.2172 12.6215 24.0058 12.7887C23.3717 13.2979 22.8105 13.8983 22.1764 14.5063C23.1458 14.5063 24.0496 14.5063 24.9679 14.5063C24.9679 13.9059 24.9679 13.3283 24.9679 12.6671ZM4.00583 18.443C3.83819 18.405 3.64869 18.3442 3.45918 18.3214C3.34257 18.3062 3.13848 18.3138 3.10933 18.3822C3.02915 18.5494 2.9344 18.8002 2.99271 18.9522C3.1895 19.4538 3.43732 19.9326 3.68513 20.4114C3.72886 20.5026 3.83819 20.5558 3.91108 20.6242C3.94023 20.6014 3.96939 20.5862 4.00583 20.5634C4.00583 19.8794 4.00583 19.1878 4.00583 18.443ZM10.121 32.7612C9.87318 32.0848 9.87318 32.0772 8.78717 32.1532C8.41545 32.176 8.52478 32.5484 8.35714 32.7612C8.9621 32.7612 9.53061 32.7612 10.121 32.7612Z"/>
</g>
<defs>
<clipPath id="clip0_277_461">
<rect width="36" height="36" transform="translate(0.5 0.5)"/>
</clipPath>
</defs>
</svg>
