<svg width="35" height="35" viewBox="0 0 35 35" fill="none" xmlns="http://www.w3.org/2000/svg">
<g clip-path="url(#clip0_277_445)">
<g clip-path="url(#clip1_277_445)">
<path d="M9.83982 0.145508C10.8646 0.145508 11.8631 0.145508 12.8879 0.145508C13.0631 1.88165 13.2383 3.60902 13.4135 5.38024C13.7638 5.38024 14.123 5.38024 14.5083 5.38024C14.5083 7.15145 14.5083 8.88759 14.5083 10.65C15.5682 10.65 16.593 10.65 17.6528 10.65C17.6528 11.3603 17.6528 12.0442 17.6528 12.7457C18.3623 12.7457 19.0367 12.7457 19.7462 12.7457C19.7462 15.5603 19.7462 18.3487 19.7462 21.1546C21.1914 21.1546 22.5929 21.1546 24.0293 21.1546C24.3797 18.3662 24.7301 15.5779 25.0804 12.772C26.438 12.772 27.7869 12.772 29.1621 12.772C29.5124 15.5603 29.8628 18.3487 30.2132 21.1721C30.9226 21.1721 31.6321 21.1721 32.3591 21.1721C32.3591 25.039 32.3591 28.8708 32.3591 32.7288C22.5753 32.7288 12.7828 32.7288 2.94652 32.7288C2.94652 32.6149 2.94652 32.5009 2.94652 32.3869C2.94652 30.905 2.95528 29.4319 2.93776 27.9501C2.93776 27.801 2.85893 27.6081 2.75382 27.4941C0.213724 24.8373 0.204965 20.6986 2.7363 18.033C2.85017 17.9103 2.93776 17.6911 2.93776 17.5245C2.94652 13.6225 2.94652 9.72059 2.94652 5.81866C2.94652 5.68713 2.94652 5.56437 2.94652 5.40654C3.29688 5.40654 3.62096 5.40654 3.98008 5.40654C3.98008 4.6963 3.98008 4.01237 3.98008 3.3109C5.39903 3.3109 6.78294 3.3109 8.19314 3.3109C8.19314 3.99483 8.19314 4.67 8.19314 5.37147C8.56977 5.37147 8.92013 5.37147 9.30552 5.37147C9.48946 3.62656 9.66464 1.89042 9.83982 0.145508ZM13.4748 26.4419C14.8675 26.4419 16.2689 26.4419 17.6878 26.4419C17.6878 28.2219 17.6878 29.9493 17.6878 31.6766C18.3973 31.6766 19.0805 31.6766 19.79 31.6766C19.79 29.923 19.79 28.1868 19.79 26.4594C21.2002 26.4594 22.5753 26.4594 23.9855 26.4594C23.9855 28.2131 23.9855 29.9493 23.9855 31.6766C24.7038 31.6766 25.387 31.6766 26.0877 31.6766C26.0877 29.923 26.0877 28.1956 26.0877 26.4682C27.4979 26.4682 28.873 26.4682 30.292 26.4682C30.292 28.2219 30.292 29.958 30.292 31.6854C30.6511 31.6854 30.9752 31.6854 31.308 31.6854C31.308 29.2303 31.308 26.7926 31.308 24.355C25.6322 24.355 19.9827 24.355 14.3682 24.355C14.158 24.8811 13.9565 25.3809 13.7463 25.872C13.6675 26.0649 13.5711 26.2578 13.4748 26.4507C13.1857 26.7839 12.8879 27.1171 12.6252 27.4678C12.5201 27.6081 12.4237 27.801 12.415 27.9764C12.3974 28.9409 12.4062 29.9054 12.4062 30.8612C12.4062 31.133 12.4062 31.4048 12.4062 31.6766C12.7741 31.6766 13.1069 31.6766 13.466 31.6766C13.4748 29.9142 13.4748 28.178 13.4748 26.4419ZM18.7039 13.833C15.5419 13.833 12.4062 13.833 9.27049 13.833C9.27049 14.5958 9.27049 15.3411 9.27049 16.0864C11.8982 16.8405 13.5887 18.5241 14.3332 21.1546C15.7872 21.1546 17.2411 21.1546 18.7039 21.1546C18.7039 18.717 18.7039 16.2881 18.7039 13.833ZM7.1771 6.46752C7.1771 9.6329 7.1771 12.772 7.1771 15.9111C7.52746 15.9111 7.8603 15.9111 8.21941 15.9111C8.21941 14.8501 8.21941 13.8154 8.21941 12.7632C8.92889 12.7632 9.60333 12.7632 10.3128 12.7632C10.3128 12.053 10.3128 11.369 10.3128 10.65C11.3814 10.65 12.415 10.65 13.4485 10.65C13.4485 9.23833 13.4485 7.86169 13.4485 6.46752C11.3551 6.46752 9.27925 6.46752 7.1771 6.46752ZM11.3464 31.6854C11.3464 30.6244 11.3464 29.5985 11.3464 28.5376C8.89385 29.9493 6.45886 29.9493 4.02387 28.5463C4.02387 29.6161 4.02387 30.6507 4.02387 31.6854C6.47638 31.6854 8.90261 31.6854 11.3464 31.6854ZM29.1621 21.1633C28.9431 19.4184 28.7241 17.6823 28.5052 15.9374C27.5855 15.9374 26.6833 15.9374 25.7548 15.9374C25.5359 17.6823 25.3169 19.4097 25.0979 21.1633C26.4556 21.1633 27.7957 21.1633 29.1621 21.1633ZM31.3168 22.2506C25.7023 22.2506 20.1141 22.2506 14.5259 22.2506C14.5259 22.6014 14.5259 22.9346 14.5259 23.2678C20.1316 23.2678 25.7198 23.2678 31.3168 23.2678C31.3168 22.917 31.3168 22.5926 31.3168 22.2506ZM29.2059 31.6854C29.2059 30.2737 29.2059 28.8883 29.2059 27.5204C28.4964 27.5204 27.822 27.5204 27.1475 27.5204C27.1475 28.9234 27.1475 30.3 27.1475 31.6854C27.8395 31.6854 28.5139 31.6854 29.2059 31.6854ZM22.9169 27.5117C22.2075 27.5117 21.5243 27.5117 20.8411 27.5117C20.8411 28.9146 20.8411 30.3 20.8411 31.6766C21.5418 31.6766 22.225 31.6766 22.9169 31.6766C22.9169 30.2825 22.9169 28.9146 22.9169 27.5117ZM14.5434 27.5029C14.5434 28.9146 14.5434 30.2912 14.5434 31.6679C15.2441 31.6679 15.9273 31.6679 16.6017 31.6679C16.6017 30.2649 16.6017 28.8883 16.6017 27.5029C15.9098 27.5029 15.2353 27.5029 14.5434 27.5029ZM9.80478 22.2155C9.71719 21.5053 9.63836 20.8214 9.55953 20.1374C8.28073 20.1374 7.07199 20.1374 5.8107 20.1374C5.73187 20.8301 5.65304 21.5141 5.57421 22.2155C7.01068 22.2155 8.37707 22.2155 9.80478 22.2155ZM9.55953 25.3809C9.63836 24.6795 9.7172 24.0043 9.79603 23.3116C8.35956 23.3116 6.9844 23.3116 5.56545 23.3116C5.65304 24.0218 5.73187 24.697 5.8107 25.3809C7.08075 25.3809 8.28948 25.3809 9.55953 25.3809ZM11.942 1.20648C11.5391 1.20648 11.1712 1.20648 10.7858 1.20648C10.6456 2.60066 10.5055 3.97729 10.3654 5.37147C11.0398 5.37147 11.688 5.37147 12.3536 5.37147C12.2135 3.97729 12.0821 2.60066 11.942 1.20648ZM16.6105 11.7286C14.8499 11.7286 13.1157 11.7286 11.3814 11.7286C11.3814 12.0793 11.3814 12.4125 11.3814 12.7369C13.1332 12.7369 14.8675 12.7369 16.6105 12.7369C16.6105 12.3949 16.6105 12.0793 16.6105 11.7286ZM1.948 22.2068C2.83265 22.2068 3.68227 22.2068 4.52313 22.2068C4.5932 21.5053 4.66328 20.8389 4.73335 20.1287C4.04139 20.1287 3.34943 20.1199 2.66623 20.1374C2.59616 20.1374 2.49981 20.2339 2.46478 20.304C2.17573 20.9003 1.99179 21.5316 1.948 22.2068ZM4.73335 25.3897C4.65452 24.6619 4.58444 23.978 4.51437 23.3028C3.64724 23.3028 2.80638 23.3028 1.93924 23.3028C1.98303 24.0043 2.17573 24.6444 2.48229 25.2582C2.51733 25.3196 2.60492 25.3897 2.67499 25.3897C3.35819 25.3897 4.03263 25.3897 4.73335 25.3897ZM13.5273 23.3028C12.5463 23.3028 11.6967 23.3028 10.8559 23.3028C10.7858 24.0043 10.7157 24.6795 10.6456 25.3897C11.3376 25.3897 12.0033 25.3985 12.669 25.3809C12.7478 25.3809 12.8792 25.2932 12.9055 25.2143C13.1157 24.6005 13.3084 23.978 13.5273 23.3028ZM10.6369 20.1287C10.707 20.8564 10.777 21.5316 10.8471 22.2068C11.723 22.2068 12.5639 22.2068 13.5186 22.2068C13.2996 21.5316 13.1069 20.9091 12.8967 20.2953C12.8704 20.2164 12.739 20.1374 12.6602 20.1287C12.0033 20.1199 11.3376 20.1287 10.6369 20.1287ZM9.25297 19.0589C9.02524 18.3838 8.77999 17.7437 8.26321 17.2439C7.86905 16.8668 7.49242 16.8668 7.10703 17.2351C6.58149 17.7261 6.345 18.3838 6.1085 19.0589C7.1771 19.0589 8.2019 19.0589 9.25297 19.0589ZM6.1085 26.4507C6.345 27.1434 6.59025 27.7835 7.10703 28.2745C7.46614 28.6165 7.8165 28.6428 8.16686 28.3534C8.76247 27.8624 9.01648 27.1697 9.26173 26.4507C8.19314 26.4507 7.1771 26.4507 6.1085 26.4507ZM6.09974 14.8852C5.39027 14.8852 4.70707 14.8852 4.03263 14.8852C4.03263 15.5866 4.03263 16.2706 4.03263 16.9194C4.72459 16.6301 5.39903 16.3407 6.09974 16.0426C6.09974 15.7006 6.09974 15.3061 6.09974 14.8852ZM25.8862 14.8413C26.7359 14.8413 27.5417 14.8413 28.3738 14.8413C28.33 14.4906 28.2862 14.1574 28.2424 13.833C27.4804 13.833 26.7534 13.833 26.0264 13.833C25.9738 14.1749 25.93 14.4994 25.8862 14.8413ZM5.07495 4.35433C5.07495 4.71384 5.07495 5.03827 5.07495 5.37147C5.77566 5.37147 6.45886 5.37147 7.1333 5.37147C7.1333 5.02073 7.1333 4.68753 7.1333 4.35433C6.44134 4.35433 5.7669 4.35433 5.07495 4.35433ZM4.01511 7.47588C4.73335 7.47588 5.41655 7.47588 6.09099 7.47588C6.09099 7.12515 6.09099 6.80072 6.09099 6.46752C5.39027 6.46752 4.70707 6.46752 4.01511 6.46752C4.01511 6.80948 4.01511 7.13391 4.01511 7.47588ZM6.09099 12.7808C5.38151 12.7808 4.69831 12.7808 4.03263 12.7808C4.03263 13.1403 4.03263 13.4647 4.03263 13.7891C4.73335 13.7891 5.40779 13.7891 6.09099 13.7891C6.09099 13.4559 6.09099 13.1315 6.09099 12.7808ZM4.01511 11.6847C4.72459 11.6847 5.40779 11.6847 6.09099 11.6847C6.09099 11.334 6.09099 11.0095 6.09099 10.6763C5.39027 10.6763 4.71583 10.6763 4.01511 10.6763C4.01511 11.0183 4.01511 11.3427 4.01511 11.6847ZM4.02387 9.58906C4.73335 9.58906 5.40779 9.58906 6.09099 9.58906C6.09099 9.23833 6.09099 8.90513 6.09099 8.5807C5.39027 8.5807 4.70707 8.5807 4.02387 8.5807C4.02387 8.92267 4.02387 9.2471 4.02387 9.58906ZM3.23557 19.0765C3.82242 19.0765 4.32168 19.0765 4.82094 19.0677C4.89101 19.0677 5.00487 19.0239 5.03115 18.9625C5.24137 18.4364 5.44282 17.9015 5.65304 17.3491C4.70707 17.7174 3.92752 18.261 3.23557 19.0765ZM12.1434 19.0765C11.4339 18.261 10.6632 17.6998 9.71719 17.3666C9.92741 17.9015 10.1113 18.4013 10.3128 18.8923C10.3478 18.9712 10.4529 19.0765 10.523 19.0765C11.031 19.0852 11.5478 19.0765 12.1434 19.0765ZM5.65304 28.1605C5.44282 27.6081 5.24137 27.082 5.03991 26.5559C5.02239 26.5033 4.9348 26.4419 4.87349 26.4419C4.35671 26.4331 3.83993 26.4331 3.24432 26.4331C3.92752 27.2574 4.71583 27.801 5.65304 28.1605ZM9.71719 28.1693C10.6632 27.7922 11.4602 27.2661 12.1259 26.4419C11.5566 26.4419 11.0573 26.4331 10.5581 26.4507C10.4792 26.4507 10.3654 26.5384 10.3303 26.6085C10.1113 27.1083 9.92741 27.6169 9.71719 28.1693Z" />
<path d="M26.57 11.6936C26.2459 11.6936 25.9218 11.6936 25.554 11.6936C25.554 11.5533 25.554 11.4218 25.554 11.2815C25.5452 10.8518 25.3613 10.6589 24.9321 10.6589C23.7321 10.6589 22.5234 10.6677 21.3234 10.6501C20.5526 10.6414 19.922 10.0802 19.7993 9.31735C19.6767 8.59834 20.1147 7.84426 20.8154 7.59875C20.973 7.53737 21.1482 7.51106 21.3322 7.46722C20.9292 6.85343 20.7365 6.1958 20.8767 5.46803C21.0957 4.30183 21.9978 3.42499 23.1715 3.311C23.7759 3.24963 24.389 3.30224 25.0197 3.30224C25.0197 3.6442 25.0197 3.96863 25.0197 4.33691C24.5029 4.33691 23.9861 4.32814 23.4693 4.33691C22.7599 4.34567 22.1643 4.79286 21.9628 5.44172C21.6562 6.43255 22.3657 7.44092 23.3993 7.48476C23.7584 7.50229 24.1175 7.48476 24.4941 7.48476C24.4941 7.83549 24.4941 8.15992 24.4941 8.53696C24.389 8.53696 24.2752 8.53696 24.1613 8.53696C23.2854 8.53696 22.4095 8.53696 21.5336 8.53696C21.0869 8.53696 20.8417 8.7211 20.8417 9.0543C20.8329 9.39627 21.0869 9.58917 21.5511 9.58917C22.6372 9.58917 23.7233 9.63301 24.8007 9.5804C25.8693 9.53656 26.8065 10.3345 26.57 11.6936Z" />
<path d="M29.7589 5.3714C30.2932 5.3977 30.81 5.38017 31.3005 5.45908C32.6231 5.68706 33.534 6.8971 33.4289 8.23867C33.3238 9.56269 32.2202 10.6237 30.88 10.6587C30.4071 10.6675 29.9428 10.6587 29.4699 10.6587C28.8567 10.6587 28.7078 10.8078 28.7078 11.4041C28.7078 11.4917 28.7078 11.5794 28.7078 11.7109C28.5239 11.7109 28.3487 11.7109 28.1823 11.7109C28.0159 11.7109 27.8582 11.7109 27.7005 11.7109C27.4728 10.4746 28.1823 9.60653 29.3998 9.60653C29.8728 9.60653 30.337 9.6153 30.81 9.60653C31.6946 9.589 32.3778 8.90506 32.3866 8.04576C32.3953 7.16892 31.7034 6.46745 30.8012 6.45868C30.118 6.44991 29.4261 6.45868 28.7078 6.45868C28.7078 6.17809 28.7166 5.93258 28.7078 5.68706C28.6903 4.92421 28.1385 4.3718 27.3677 4.36303C26.956 4.35427 26.5356 4.36303 26.0977 4.36303C26.0977 4.0123 26.0977 3.6791 26.0977 3.3459C26.6582 3.3459 27.2188 3.27575 27.7619 3.36344C28.8042 3.52127 29.4523 4.1789 29.6976 5.2048C29.7239 5.23987 29.7414 5.31002 29.7589 5.3714Z" />
<path d="M17.6538 19.0938C17.6538 19.4445 17.6538 19.7689 17.6538 20.1109C17.3122 20.1109 16.9881 20.1109 16.6465 20.1109C16.6465 19.7865 16.6465 19.4533 16.6465 19.0938C16.9706 19.0938 17.3034 19.0938 17.6538 19.0938Z" />
<path d="M15.5517 19.0938C15.5517 19.4357 15.5517 19.7602 15.5517 20.1021C15.2189 20.1021 14.8948 20.1021 14.5444 20.1021C14.5444 19.7777 14.5444 19.4445 14.5444 19.0938C14.8685 19.0938 15.1926 19.0938 15.5517 19.0938Z" />
<path d="M17.6445 18.0064C17.3029 18.0064 16.9788 18.0064 16.6372 18.0064C16.6372 17.6732 16.6372 17.3488 16.6372 16.998C16.9613 16.998 17.2941 16.998 17.6445 16.998C17.6445 17.3137 17.6445 17.6469 17.6445 18.0064Z" />
<path d="M14.5356 17.9976C14.5356 17.6556 14.5356 17.3312 14.5356 16.9893C14.8772 16.9893 15.2101 16.9893 15.5604 16.9893C15.5604 17.3225 15.5604 17.6469 15.5604 17.9976C15.2276 17.9976 14.8948 17.9976 14.5356 17.9976Z" />
<path d="M17.6538 14.8848C17.6538 15.2355 17.6538 15.5599 17.6538 15.8931C17.3122 15.8931 16.9968 15.8931 16.6465 15.8931C16.6465 15.5687 16.6465 15.2355 16.6465 14.8848C16.9706 14.8848 17.3034 14.8848 17.6538 14.8848Z" />
<path d="M14.5444 14.876C14.8948 14.876 15.2189 14.876 15.5517 14.876C15.5517 15.2179 15.5517 15.5336 15.5517 15.8843C15.2276 15.8843 14.8948 15.8843 14.5444 15.8843C14.5444 15.5687 14.5444 15.2355 14.5444 14.876Z" />
<path d="M12.4331 15.9019C12.4331 15.56 12.4331 15.2355 12.4331 14.8936C12.7659 14.8936 13.0988 14.8936 13.4491 14.8936C13.4491 15.2268 13.4491 15.56 13.4491 15.9019C13.1163 15.9019 12.7922 15.9019 12.4331 15.9019Z" />
<path d="M11.3471 14.8848C11.3471 15.218 11.3471 15.5424 11.3471 15.8931C11.023 15.8931 10.6902 15.8931 10.3311 15.8931C10.3311 15.5687 10.3311 15.2355 10.3311 14.8848C10.6727 14.8848 10.9967 14.8848 11.3471 14.8848Z" />
</g>
</g>
<defs>
<clipPath id="clip0_277_445">
<rect width="34" height="34"  transform="translate(0.5 0.5)"/>
</clipPath>
<clipPath id="clip1_277_445">
<rect width="32.5833" height="32.5833"  transform="translate(0.854004 0.145508)"/>
</clipPath>
</defs>
</svg>
