<svg width="58" height="54" viewBox="0 0 58 54" fill="none" xmlns="http://www.w3.org/2000/svg">
<path d="M55.6493 1.59775L55.719 1.6684L55.8013 1.72397C56.156 1.96359 56.3052 2.31646 56.3052 2.80867V45.8588C56.3052 46.6793 55.8327 47.1733 55.4074 47.2811L55.3911 47.2852L55.3749 47.2899L41.7832 51.2249V5.22529L54.3839 1.41721C54.6943 1.41834 54.9791 1.42521 55.2334 1.46485C55.5439 1.51325 55.6391 1.58737 55.6493 1.59775Z" fill="white" stroke="#DEA54F" stroke-width="2"/>
<path d="M35.0621 51.2702L22.9004 48.1894V2.17993L35.0621 5.26079V51.2702Z" fill="white" stroke="#DEA54F" stroke-width="2"/>
<path d="M1.6582 7.5917C1.6582 7.12323 2.03297 6.49478 2.68689 6.13209L16.1802 2.2256V48.2252L3.57877 52.0335H3.01849C2.8395 52.0335 2.60538 51.9403 2.11765 51.6951C1.79488 51.4564 1.6582 51.1129 1.6582 50.6418V7.5917Z" fill="white" stroke="#DEA54F" stroke-width="2"/>
</svg>
