<svg width="17" height="11" viewBox="0 0 17 11" fill="none" xmlns="http://www.w3.org/2000/svg">
<path fill-rule="evenodd" clip-rule="evenodd" d="M11.3139 0.210394C11.3784 0.143702 11.455 0.0907891 11.5394 0.0546861C11.6238 0.0185831 11.7142 0 11.8055 0C11.8969 0 11.9873 0.0185831 12.0717 0.0546861C12.1561 0.0907891 12.2327 0.143702 12.2972 0.210394L16.4639 4.50727C16.5286 4.57379 16.5799 4.65282 16.6149 4.73983C16.6499 4.82683 16.6679 4.9201 16.6679 5.0143C16.6679 5.1085 16.6499 5.20177 16.6149 5.28878C16.5799 5.37578 16.5286 5.45481 16.4639 5.52133L12.2972 9.81821C12.1668 9.95268 11.99 10.0282 11.8055 10.0282C11.6211 10.0282 11.4443 9.95268 11.3139 9.81821C11.1835 9.68374 11.1102 9.50135 11.1102 9.31118C11.1102 9.12101 11.1835 8.93862 11.3139 8.80415L14.9903 5.0143L11.3139 1.22446C11.2492 1.15793 11.1979 1.07891 11.1629 0.991901C11.1279 0.904897 11.1099 0.811624 11.1099 0.717426C11.1099 0.623228 11.1279 0.529955 11.1629 0.442951C11.1979 0.355946 11.2492 0.276918 11.3139 0.210394Z" fill="#4777A7"/>
<path fill-rule="evenodd" clip-rule="evenodd" d="M5.26888e-08 5.01449C3.87149e-08 4.82455 0.0731647 4.6424 0.203398 4.50809C0.333632 4.37379 0.510267 4.29834 0.694445 4.29834L15.2778 4.29834C15.462 4.29834 15.6386 4.37379 15.7688 4.50809C15.8991 4.6424 15.9722 4.82455 15.9722 5.01449C15.9722 5.20442 15.8991 5.38657 15.7688 5.52088C15.6386 5.65518 15.462 5.73063 15.2778 5.73063L0.694445 5.73063C0.510267 5.73063 0.333632 5.65518 0.203398 5.52088C0.0731647 5.38657 6.66627e-08 5.20442 5.26888e-08 5.01449Z" fill="#4777A7"/>
</svg>
