<svg width="132" height="229" viewBox="0 0 132 229" fill="none" xmlns="http://www.w3.org/2000/svg">
<path d="M116.885 189.129C106.199 181.166 96.0356 172.437 85.6111 164.167C75.5775 156.204 65.1531 148.853 55.2498 140.89C52.9043 139.052 50.6891 137.061 48.4739 135.07C46.1284 133.079 43.9132 130.935 41.698 128.945C43.5223 130.629 43.392 130.323 41.1768 128.485C36.2251 124.197 31.0129 120.369 26.0613 116.081C22.0218 112.712 18.1126 109.19 14.3337 105.514V106.28C14.3337 106.739 14.2034 107.352 14.2034 107.811C14.2034 109.649 14.464 111.334 14.8549 113.018C14.464 114.703 14.2034 116.387 14.2034 118.225C14.2034 119.144 14.2034 119.909 14.3337 120.675L14.2034 127.873C14.2034 128.332 14.0731 128.945 14.0731 129.404C14.0731 131.242 14.3337 133.079 14.8549 134.764C14.3337 136.449 14.0731 138.286 14.0731 140.124C14.0731 141.043 14.0731 141.808 14.2034 142.574L14.0731 149.772C14.0731 150.231 13.9428 150.844 13.9428 151.303C13.9428 152.681 14.0731 154.06 14.3337 155.438C14.0731 156.816 13.9428 158.195 13.9428 159.573C13.9428 160.492 13.9428 161.257 14.0731 162.023L13.9428 169.221C13.9428 169.68 13.8125 170.293 13.8125 170.752C13.8125 172.437 14.0731 173.968 14.464 175.499C14.9853 177.797 16.0277 179.787 17.2005 181.778C17.3308 181.931 17.3308 182.084 17.4611 182.238C19.155 184.688 21.3702 186.985 24.1067 188.823C24.3673 188.976 24.6279 189.129 24.8885 189.282C29.9704 192.498 36.2251 194.489 43.2617 194.489C49.9073 194.489 56.0316 192.651 60.9833 189.741C60.853 190.507 60.853 191.12 60.853 191.885C60.853 192.804 60.853 193.57 60.9833 194.336L60.853 201.533C60.853 201.993 60.7227 202.605 60.7227 203.065C60.7227 205.974 61.3742 208.731 62.5469 211.334C62.6773 211.641 62.9379 212.1 63.0682 212.406C63.4591 213.172 63.85 213.785 64.3712 214.55C64.6318 214.857 64.8925 215.163 65.0228 215.622C65.8046 216.541 66.5864 217.613 67.4986 218.379C67.7592 218.685 68.1501 218.991 68.4107 219.298C73.7533 224.045 81.5716 227.108 90.1718 227.108C98.6417 227.108 106.199 224.198 111.542 219.604C112.063 219.144 112.454 218.838 112.845 218.379C113.757 217.46 114.539 216.541 115.321 215.622C115.712 215.163 116.103 214.55 116.363 214.091C116.624 213.631 117.015 213.172 117.275 212.559C117.406 212.253 117.666 211.794 117.797 211.487C118.969 208.884 119.621 206.128 119.621 203.218V191.885C119.621 191.426 119.621 190.813 119.491 190.354C118.709 190.354 117.797 189.895 116.885 189.129Z" fill="#CCD8DB" stroke="#6E8196" stroke-width="0.7087" stroke-miterlimit="10" stroke-linecap="round"/>
<path d="M69.1931 155.132C64.2415 147.628 54.4685 142.574 43.2622 142.574C32.0559 142.574 22.2829 147.628 17.3313 155.132H14.0737L13.9434 165.392C13.9434 165.698 13.9434 166.005 13.9434 166.464C13.9434 179.634 27.1043 190.354 43.3925 190.354C59.6808 190.354 72.8417 179.634 72.8417 166.464V155.132H69.1931Z" fill="#CCD8DB" stroke="#6E8196" stroke-width="0.7087" stroke-miterlimit="10" stroke-linecap="round"/>
<path d="M43.2617 190.354C59.526 190.354 72.7108 179.658 72.7108 166.464C72.7108 153.27 59.526 142.574 43.2617 142.574C26.9973 142.574 13.8125 153.27 13.8125 166.464C13.8125 179.658 26.9973 190.354 43.2617 190.354Z" fill="#CCD8DB" stroke="#6E8196" stroke-width="0.7087" stroke-miterlimit="10" stroke-linecap="round"/>
<path d="M69.1931 155.132C64.2415 147.628 54.4685 142.574 43.2622 142.574C32.0559 142.574 22.2829 147.628 17.3313 155.132H14.0737L13.9434 165.392C13.9434 165.698 13.9434 166.005 13.9434 166.464C13.9434 179.634 27.1043 190.354 43.3925 190.354C59.6808 190.354 72.8417 179.634 72.8417 166.464V155.132H69.1931Z" fill="#CCD8DB" stroke="#6E8196" stroke-width="0.7087" stroke-miterlimit="10" stroke-linecap="round"/>
<path d="M43.2617 190.354C59.526 190.354 72.7108 179.658 72.7108 166.464C72.7108 153.27 59.526 142.574 43.2617 142.574C26.9973 142.574 13.8125 153.27 13.8125 166.464C13.8125 179.658 26.9973 190.354 43.2617 190.354Z" fill="#CCD8DB" stroke="#6E8196" stroke-width="0.7087" stroke-miterlimit="10" stroke-linecap="round"/>
<path d="M43.2617 179.022C59.526 179.022 72.7108 168.326 72.7108 155.132C72.7108 141.938 59.526 131.242 43.2617 131.242C26.9973 131.242 13.8125 141.938 13.8125 155.132C13.8125 168.326 26.9973 179.022 43.2617 179.022Z" fill="#CCD8DB" stroke="#6E8196" stroke-width="0.7087" stroke-miterlimit="10" stroke-linecap="round"/>
<path d="M43.2617 179.022C59.526 179.022 72.7108 168.326 72.7108 155.132C72.7108 141.938 59.526 131.242 43.2617 131.242C26.9973 131.242 13.8125 141.938 13.8125 155.132C13.8125 168.326 26.9973 179.022 43.2617 179.022Z" fill="#CCD8DB" stroke="#6E8196" stroke-width="0.7087" stroke-miterlimit="10" stroke-linecap="round"/>
<path d="M43.3926 190.354C43.3926 190.048 43.3926 189.742 43.3926 189.588V179.175" fill="#CCD8DB"/>
<path d="M43.3926 190.354C43.3926 190.048 43.3926 189.742 43.3926 189.588V179.175" stroke="#6E8196" stroke-width="0.7087" stroke-miterlimit="10" stroke-linecap="round"/>
<path d="M49.7773 189.589V178.562" stroke="#6E8196" stroke-width="0.7087" stroke-miterlimit="10" stroke-linecap="round"/>
<path d="M55.9023 188.057V177.031" stroke="#6E8196" stroke-width="0.7087" stroke-miterlimit="10" stroke-linecap="round"/>
<path d="M61.5059 185.453V174.274" stroke="#6E8196" stroke-width="0.7087" stroke-miterlimit="10" stroke-linecap="round"/>
<path d="M66.1953 181.625V170.446" stroke="#6E8196" stroke-width="0.7087" stroke-miterlimit="10" stroke-linecap="round"/>
<path d="M70.627 175.346V164.167" stroke="#6E8196" stroke-width="0.7087" stroke-miterlimit="10" stroke-linecap="round"/>
<path d="M36.877 189.589V178.562" stroke="#6E8196" stroke-width="0.7087" stroke-miterlimit="10" stroke-linecap="round"/>
<path d="M30.752 188.057V177.031" stroke="#6E8196" stroke-width="0.7087" stroke-miterlimit="10" stroke-linecap="round"/>
<path d="M25.1484 185.453V174.274" stroke="#6E8196" stroke-width="0.7087" stroke-miterlimit="10" stroke-linecap="round"/>
<path d="M20.459 181.625V170.446" stroke="#6E8196" stroke-width="0.7087" stroke-miterlimit="10" stroke-linecap="round"/>
<path d="M16.1582 175.346V164.167" stroke="#6E8196" stroke-width="0.7087" stroke-miterlimit="10" stroke-linecap="round"/>
<path d="M43.2625 173.662C55.8566 173.662 66.0661 165.365 66.0661 155.132C66.0661 144.898 55.8566 136.602 43.2625 136.602C30.6685 136.602 20.459 144.898 20.459 155.132C20.459 165.365 30.6685 173.662 43.2625 173.662Z" fill="#CCD8DB" stroke="#6E8196" stroke-width="0.7087" stroke-miterlimit="10" stroke-linecap="round"/>
<path d="M43.2625 173.662C55.8566 173.662 66.0661 165.365 66.0661 155.132C66.0661 144.898 55.8566 136.602 43.2625 136.602C30.6685 136.602 20.459 144.898 20.459 155.132C20.459 165.365 30.6685 173.662 43.2625 173.662Z" fill="#CCD8DB" stroke="#6E8196" stroke-width="0.7087" stroke-miterlimit="10" stroke-linecap="round"/>
<path d="M44.8246 148.394L38.9608 151.303L37.9184 150.691C36.7456 149.925 35.9638 149.465 35.5729 149.312C35.0516 149.159 34.6607 149.159 34.1395 149.465C33.7486 149.619 33.6183 149.925 33.7486 150.078C33.8789 150.384 34.2698 150.691 34.791 151.15C35.8335 151.763 36.6153 152.222 37.3971 152.222C38.179 152.375 40.0033 152.222 42.87 152.222C45.3458 152.069 47.1701 152.069 48.2125 152.222C49.255 152.222 50.4277 152.528 51.7308 152.988C53.0339 153.447 54.4672 154.06 55.7703 154.979C57.9855 156.51 59.2886 157.888 59.5492 159.113C59.8098 160.492 59.0279 161.717 57.334 162.942L59.6795 164.473L56.943 165.852L54.4672 164.32C52.7733 164.933 50.6884 165.239 48.3428 165.086C45.9973 164.933 43.5215 163.861 40.6548 162.176L39.482 161.41L45.3458 158.501L46.9095 159.573C48.6035 160.645 49.7762 161.257 50.2974 161.564C50.8187 161.717 51.3399 161.717 51.8611 161.564C52.252 161.41 52.3823 161.104 52.3823 160.798C52.252 160.492 51.9914 160.185 51.4702 159.879C50.0368 158.96 48.9944 158.348 48.2125 158.041C47.4307 157.735 46.1276 157.582 44.3034 157.735C41.3063 157.888 39.2214 157.888 37.9184 157.735C36.7456 157.735 35.3122 157.429 33.8789 156.969C32.3152 156.51 31.0121 155.897 29.7091 154.979C27.8848 153.753 26.8424 152.528 26.8424 151.303C26.7121 150.078 27.6242 149.006 29.3182 147.781L27.3636 146.403L30.1 145.024L32.0546 146.403C34.1395 145.637 36.0941 145.484 38.179 145.637C40.1336 145.943 42.0882 146.556 43.9124 147.781C44.0428 147.781 44.4337 147.934 44.8246 148.394Z" fill="#CCD8DB" stroke="#6E8196" stroke-width="0.7087" stroke-miterlimit="10" stroke-linecap="round"/>
<path d="M44.8246 148.394L38.9608 151.303L37.9184 150.691C36.7456 149.925 35.9638 149.465 35.5729 149.312C35.0516 149.159 34.6607 149.159 34.1395 149.465C33.7486 149.619 33.6183 149.925 33.7486 150.078C33.8789 150.384 34.2698 150.691 34.791 151.15C35.8335 151.763 36.6153 152.222 37.3971 152.222C38.179 152.375 40.0033 152.222 42.87 152.222C45.3458 152.069 47.1701 152.069 48.2125 152.222C49.255 152.222 50.4277 152.528 51.7308 152.988C53.0339 153.447 54.4672 154.06 55.7703 154.979C57.9855 156.51 59.2886 157.888 59.5492 159.113C59.8098 160.492 59.0279 161.717 57.334 162.942L59.6795 164.473L56.943 165.852L54.4672 164.32C52.7733 164.933 50.6884 165.239 48.3428 165.086C45.9973 164.933 43.5215 163.861 40.6548 162.176L39.482 161.41L45.3458 158.501L46.9095 159.573C48.6035 160.645 49.7762 161.257 50.2974 161.564C50.8187 161.717 51.3399 161.717 51.8611 161.564C52.252 161.41 52.3823 161.104 52.3823 160.798C52.252 160.492 51.9914 160.185 51.4702 159.879C50.0368 158.96 48.9944 158.348 48.2125 158.041C47.4307 157.735 46.1276 157.582 44.3034 157.735C41.3063 157.888 39.2214 157.888 37.9184 157.735C36.7456 157.735 35.3122 157.429 33.8789 156.969C32.3152 156.51 31.0121 155.897 29.7091 154.979C27.8848 153.753 26.8424 152.528 26.8424 151.303C26.7121 150.078 27.6242 149.006 29.3182 147.781L27.3636 146.403L30.1 145.024L32.0546 146.403C34.1395 145.637 36.0941 145.484 38.179 145.637C40.1336 145.943 42.0882 146.556 43.9124 147.781C44.0428 147.781 44.4337 147.934 44.8246 148.394Z" fill="#CCD8DB" stroke="#6E8196" stroke-width="0.7087" stroke-miterlimit="10" stroke-linecap="round"/>
<path d="M69.1931 135.529C64.2415 128.025 54.4685 122.972 43.2622 122.972C32.0559 122.972 22.2829 128.025 17.3313 135.529H14.0737L13.9434 145.79C13.9434 146.096 13.9434 146.402 13.9434 146.862C13.9434 160.032 27.1043 170.752 43.3925 170.752C59.6808 170.752 72.8417 160.032 72.8417 146.862V135.529H69.1931Z" fill="#CCD8DB" stroke="#6E8196" stroke-width="0.7087" stroke-miterlimit="10" stroke-linecap="round"/>
<path d="M43.2617 170.752C59.526 170.752 72.7108 160.056 72.7108 146.862C72.7108 133.668 59.526 122.972 43.2617 122.972C26.9973 122.972 13.8125 133.668 13.8125 146.862C13.8125 160.056 26.9973 170.752 43.2617 170.752Z" fill="#CCD8DB" stroke="#6E8196" stroke-width="0.7087" stroke-miterlimit="10" stroke-linecap="round"/>
<path d="M69.1931 135.529C64.2415 128.025 54.4685 122.972 43.2622 122.972C32.0559 122.972 22.2829 128.025 17.3313 135.529H14.0737L13.9434 145.79C13.9434 146.096 13.9434 146.402 13.9434 146.862C13.9434 160.032 27.1043 170.752 43.3925 170.752C59.6808 170.752 72.8417 160.032 72.8417 146.862V135.529H69.1931Z" fill="#CCD8DB" stroke="#6E8196" stroke-width="0.7087" stroke-miterlimit="10" stroke-linecap="round"/>
<path d="M43.2617 170.752C59.526 170.752 72.7108 160.056 72.7108 146.862C72.7108 133.668 59.526 122.972 43.2617 122.972C26.9973 122.972 13.8125 133.668 13.8125 146.862C13.8125 160.056 26.9973 170.752 43.2617 170.752Z" fill="#CCD8DB" stroke="#6E8196" stroke-width="0.7087" stroke-miterlimit="10" stroke-linecap="round"/>
<path d="M43.2617 159.419C59.526 159.419 72.7108 148.723 72.7108 135.529C72.7108 122.335 59.526 111.639 43.2617 111.639C26.9973 111.639 13.8125 122.335 13.8125 135.529C13.8125 148.723 26.9973 159.419 43.2617 159.419Z" fill="#CCD8DB" stroke="#6E8196" stroke-width="0.7087" stroke-miterlimit="10" stroke-linecap="round"/>
<path d="M43.2617 159.419C59.526 159.419 72.7108 148.723 72.7108 135.529C72.7108 122.335 59.526 111.639 43.2617 111.639C26.9973 111.639 13.8125 122.335 13.8125 135.529C13.8125 148.723 26.9973 159.419 43.2617 159.419Z" fill="#CCD8DB" stroke="#6E8196" stroke-width="0.7087" stroke-miterlimit="10" stroke-linecap="round"/>
<path d="M43.3926 170.752C43.3926 170.445 43.3926 170.139 43.3926 169.986V159.572" fill="#CCD8DB"/>
<path d="M43.3926 170.752C43.3926 170.445 43.3926 170.139 43.3926 169.986V159.572" stroke="#6E8196" stroke-width="0.7087" stroke-miterlimit="10" stroke-linecap="round"/>
<path d="M49.7773 169.986V158.96" stroke="#6E8196" stroke-width="0.7087" stroke-miterlimit="10" stroke-linecap="round"/>
<path d="M55.9023 168.454V157.428" stroke="#6E8196" stroke-width="0.7087" stroke-miterlimit="10" stroke-linecap="round"/>
<path d="M61.5059 165.697V154.671" stroke="#6E8196" stroke-width="0.7087" stroke-miterlimit="10" stroke-linecap="round"/>
<path d="M66.1953 162.023V150.843" stroke="#6E8196" stroke-width="0.7087" stroke-miterlimit="10" stroke-linecap="round"/>
<path d="M70.627 155.744V144.564" stroke="#6E8196" stroke-width="0.7087" stroke-miterlimit="10" stroke-linecap="round"/>
<path d="M36.877 169.986V158.96" stroke="#6E8196" stroke-width="0.7087" stroke-miterlimit="10" stroke-linecap="round"/>
<path d="M30.752 168.454V157.428" stroke="#6E8196" stroke-width="0.7087" stroke-miterlimit="10" stroke-linecap="round"/>
<path d="M25.1484 165.697V154.671" stroke="#6E8196" stroke-width="0.7087" stroke-miterlimit="10" stroke-linecap="round"/>
<path d="M20.459 162.023V150.843" stroke="#6E8196" stroke-width="0.7087" stroke-miterlimit="10" stroke-linecap="round"/>
<path d="M16.1582 155.744V144.564" stroke="#6E8196" stroke-width="0.7087" stroke-miterlimit="10" stroke-linecap="round"/>
<path d="M43.2625 154.059C55.8566 154.059 66.0661 145.763 66.0661 135.529C66.0661 125.295 55.8566 116.999 43.2625 116.999C30.6685 116.999 20.459 125.295 20.459 135.529C20.459 145.763 30.6685 154.059 43.2625 154.059Z" fill="#CCD8DB" stroke="#6E8196" stroke-width="0.7087" stroke-miterlimit="10" stroke-linecap="round"/>
<path d="M43.2625 154.059C55.8566 154.059 66.0661 145.763 66.0661 135.529C66.0661 125.295 55.8566 116.999 43.2625 116.999C30.6685 116.999 20.459 125.295 20.459 135.529C20.459 145.763 30.6685 154.059 43.2625 154.059Z" fill="#CCD8DB" stroke="#6E8196" stroke-width="0.7087" stroke-miterlimit="10" stroke-linecap="round"/>
<path d="M44.8246 128.791L38.9608 131.701L37.9184 131.088C36.7456 130.322 35.9638 129.863 35.5729 129.71C35.0516 129.557 34.6607 129.557 34.1395 129.863C33.7486 130.016 33.6183 130.322 33.7486 130.476C33.8789 130.629 34.2698 131.088 34.791 131.547C35.8335 132.16 36.6153 132.619 37.3971 132.619C38.179 132.773 40.0033 132.619 42.87 132.619C45.3458 132.466 47.1701 132.466 48.2125 132.619C49.255 132.619 50.4277 132.926 51.7308 133.385C53.0339 133.845 54.4672 134.457 55.7703 135.376C57.9855 136.907 59.2886 138.286 59.5492 139.511C59.8098 140.889 59.0279 142.114 57.334 143.339L59.6795 144.871L56.943 146.249L54.4672 144.718C52.7733 145.33 50.6884 145.636 48.3428 145.483C45.9973 145.33 43.5215 144.258 40.6548 142.574L39.482 141.808L45.3458 138.898L46.9095 139.97C48.6035 141.042 49.7762 141.655 50.2974 141.961C50.8187 142.114 51.3399 142.114 51.8611 141.961C52.252 141.808 52.3823 141.502 52.3823 141.195C52.252 140.889 51.9914 140.583 51.4702 140.276C50.0368 139.358 48.9944 138.745 48.2125 138.439C47.4307 138.133 46.1276 137.979 44.3034 138.133C41.3063 138.286 39.2214 138.286 37.9184 138.133C36.7456 138.133 35.3122 137.826 33.8789 137.367C32.3152 136.907 31.0121 136.295 29.7091 135.376C27.8848 134.151 26.8424 132.926 26.8424 131.701C26.7121 130.476 27.6242 129.404 29.3182 128.178L27.3636 126.8L30.1 125.422L32.0546 126.8C34.1395 126.034 36.0941 125.881 38.179 126.034C40.1336 126.341 42.0882 126.953 43.9124 128.178C44.0428 128.178 44.4337 128.332 44.8246 128.791Z" fill="#CCD8DB" stroke="#6E8196" stroke-width="0.7087" stroke-miterlimit="10" stroke-linecap="round"/>
<path d="M44.8246 128.791L38.9608 131.701L37.9184 131.088C36.7456 130.322 35.9638 129.863 35.5729 129.71C35.0516 129.557 34.6607 129.557 34.1395 129.863C33.7486 130.016 33.6183 130.322 33.7486 130.476C33.8789 130.629 34.2698 131.088 34.791 131.547C35.8335 132.16 36.6153 132.619 37.3971 132.619C38.179 132.773 40.0033 132.619 42.87 132.619C45.3458 132.466 47.1701 132.466 48.2125 132.619C49.255 132.619 50.4277 132.926 51.7308 133.385C53.0339 133.845 54.4672 134.457 55.7703 135.376C57.9855 136.907 59.2886 138.286 59.5492 139.511C59.8098 140.889 59.0279 142.114 57.334 143.339L59.6795 144.871L56.943 146.249L54.4672 144.718C52.7733 145.33 50.6884 145.636 48.3428 145.483C45.9973 145.33 43.5215 144.258 40.6548 142.574L39.482 141.808L45.3458 138.898L46.9095 139.97C48.6035 141.042 49.7762 141.655 50.2974 141.961C50.8187 142.114 51.3399 142.114 51.8611 141.961C52.252 141.808 52.3823 141.502 52.3823 141.195C52.252 140.889 51.9914 140.583 51.4702 140.276C50.0368 139.358 48.9944 138.745 48.2125 138.439C47.4307 138.133 46.1276 137.979 44.3034 138.133C41.3063 138.286 39.2214 138.286 37.9184 138.133C36.7456 138.133 35.3122 137.826 33.8789 137.367C32.3152 136.907 31.0121 136.295 29.7091 135.376C27.8848 134.151 26.8424 132.926 26.8424 131.701C26.7121 130.476 27.6242 129.404 29.3182 128.178L27.3636 126.8L30.1 125.422L32.0546 126.8C34.1395 126.034 36.0941 125.881 38.179 126.034C40.1336 126.341 42.0882 126.953 43.9124 128.178C44.0428 128.178 44.4337 128.332 44.8246 128.791Z" fill="#CCD8DB" stroke="#6E8196" stroke-width="0.7087" stroke-miterlimit="10" stroke-linecap="round"/>
<path d="M69.1931 113.477C64.2415 105.974 54.4685 100.92 43.2622 100.92C32.0559 100.92 22.2829 105.974 17.3313 113.477H14.0737L13.9434 123.738C13.9434 124.044 13.9434 124.35 13.9434 124.81C13.9434 137.98 27.1043 148.7 43.3925 148.7C59.6808 148.7 72.8417 137.98 72.8417 124.81V113.477H69.1931Z" fill="#CCD8DB" stroke="#6E8196" stroke-width="0.7087" stroke-miterlimit="10" stroke-linecap="round"/>
<path d="M43.2617 148.7C59.526 148.7 72.7108 138.004 72.7108 124.81C72.7108 111.616 59.526 100.92 43.2617 100.92C26.9973 100.92 13.8125 111.616 13.8125 124.81C13.8125 138.004 26.9973 148.7 43.2617 148.7Z" fill="#CCD8DB" stroke="#6E8196" stroke-width="0.7087" stroke-miterlimit="10" stroke-linecap="round"/>
<path d="M69.1931 113.477C64.2415 105.974 54.4685 100.92 43.2622 100.92C32.0559 100.92 22.2829 105.974 17.3313 113.477H14.0737L13.9434 123.738C13.9434 124.044 13.9434 124.35 13.9434 124.81C13.9434 137.98 27.1043 148.7 43.3925 148.7C59.6808 148.7 72.8417 137.98 72.8417 124.81V113.477H69.1931Z" fill="#CCD8DB" stroke="#6E8196" stroke-width="0.7087" stroke-miterlimit="10" stroke-linecap="round"/>
<path d="M43.2617 148.7C59.526 148.7 72.7108 138.004 72.7108 124.81C72.7108 111.616 59.526 100.92 43.2617 100.92C26.9973 100.92 13.8125 111.616 13.8125 124.81C13.8125 138.004 26.9973 148.7 43.2617 148.7Z" fill="#CCD8DB" stroke="#6E8196" stroke-width="0.7087" stroke-miterlimit="10" stroke-linecap="round"/>
<path d="M43.2617 137.367C59.526 137.367 72.7108 126.671 72.7108 113.477C72.7108 100.283 59.526 89.5874 43.2617 89.5874C26.9973 89.5874 13.8125 100.283 13.8125 113.477C13.8125 126.671 26.9973 137.367 43.2617 137.367Z" fill="#CCD8DB" stroke="#6E8196" stroke-width="0.7087" stroke-miterlimit="10" stroke-linecap="round"/>
<path d="M43.2617 137.367C59.526 137.367 72.7108 126.671 72.7108 113.477C72.7108 100.283 59.526 89.5874 43.2617 89.5874C26.9973 89.5874 13.8125 100.283 13.8125 113.477C13.8125 126.671 26.9973 137.367 43.2617 137.367Z" fill="#CCD8DB" stroke="#6E8196" stroke-width="0.7087" stroke-miterlimit="10" stroke-linecap="round"/>
<path d="M43.3926 148.7C43.3926 148.394 43.3926 148.087 43.3926 147.934V137.521" fill="#CCD8DB"/>
<path d="M43.3926 148.7C43.3926 148.394 43.3926 148.087 43.3926 147.934V137.521" stroke="#6E8196" stroke-width="0.7087" stroke-miterlimit="10" stroke-linecap="round"/>
<path d="M49.7773 147.934V136.755" stroke="#6E8196" stroke-width="0.7087" stroke-miterlimit="10" stroke-linecap="round"/>
<path d="M55.9023 146.249V135.223" stroke="#6E8196" stroke-width="0.7087" stroke-miterlimit="10" stroke-linecap="round"/>
<path d="M61.5059 143.646V132.467" stroke="#6E8196" stroke-width="0.7087" stroke-miterlimit="10" stroke-linecap="round"/>
<path d="M66.1953 139.817V128.638" stroke="#6E8196" stroke-width="0.7087" stroke-miterlimit="10" stroke-linecap="round"/>
<path d="M70.627 133.539V122.513" stroke="#6E8196" stroke-width="0.7087" stroke-miterlimit="10" stroke-linecap="round"/>
<path d="M36.877 147.934V136.755" stroke="#6E8196" stroke-width="0.7087" stroke-miterlimit="10" stroke-linecap="round"/>
<path d="M30.752 146.249V135.223" stroke="#6E8196" stroke-width="0.7087" stroke-miterlimit="10" stroke-linecap="round"/>
<path d="M25.1484 143.646V132.467" stroke="#6E8196" stroke-width="0.7087" stroke-miterlimit="10" stroke-linecap="round"/>
<path d="M20.459 139.817V128.638" stroke="#6E8196" stroke-width="0.7087" stroke-miterlimit="10" stroke-linecap="round"/>
<path d="M16.1582 133.539V122.513" stroke="#6E8196" stroke-width="0.7087" stroke-miterlimit="10" stroke-linecap="round"/>
<path d="M43.2625 132.007C55.8566 132.007 66.0661 123.711 66.0661 113.477C66.0661 103.243 55.8566 94.9473 43.2625 94.9473C30.6685 94.9473 20.459 103.243 20.459 113.477C20.459 123.711 30.6685 132.007 43.2625 132.007Z" fill="#CCD8DB" stroke="#6E8196" stroke-width="0.7087" stroke-miterlimit="10" stroke-linecap="round"/>
<path d="M43.2625 132.007C55.8566 132.007 66.0661 123.711 66.0661 113.477C66.0661 103.243 55.8566 94.9473 43.2625 94.9473C30.6685 94.9473 20.459 103.243 20.459 113.477C20.459 123.711 30.6685 132.007 43.2625 132.007Z" fill="#CCD8DB" stroke="#6E8196" stroke-width="0.7087" stroke-miterlimit="10" stroke-linecap="round"/>
<path d="M44.8257 106.586L38.9619 109.496L37.9195 108.73C36.7467 107.964 35.9649 107.505 35.574 107.352C35.0527 107.199 34.6618 107.199 34.1406 107.505C33.7497 107.658 33.6194 107.964 33.7497 108.117C33.88 108.424 34.2709 108.73 34.7921 109.189C35.8346 109.802 36.6164 110.261 37.3983 110.261C38.1801 110.415 40.0044 110.261 42.8711 110.261C45.3469 110.108 47.1712 110.108 48.2137 110.261C49.2561 110.261 50.4289 110.568 51.7319 111.027C53.035 111.487 54.4683 112.099 55.7714 113.018C57.9866 114.549 59.2897 115.928 59.5503 117.153C59.8109 118.531 59.0291 119.756 57.3351 120.981L59.6806 122.513L56.9442 123.891L54.4683 122.36C52.7744 122.972 50.6895 123.278 48.344 123.125C45.9984 122.972 43.5226 121.9 40.6559 120.216L39.4831 119.45L45.6075 116.387L47.1712 117.459C48.8652 118.531 50.0379 119.144 50.5592 119.45C51.0804 119.603 51.6016 119.603 52.1228 119.45C52.5138 119.297 52.6441 118.99 52.6441 118.684C52.5138 118.378 52.2531 118.072 51.7319 117.765C50.2985 116.846 49.2561 116.234 48.4743 115.928C47.6924 115.621 46.3894 115.468 44.5651 115.621C41.568 115.774 39.4831 115.774 38.1801 115.621C37.0073 115.621 35.574 115.315 34.1406 114.856C32.5769 114.396 31.2739 113.784 29.9708 112.865C28.1465 111.64 27.1041 110.415 27.1041 109.189C26.9738 107.964 27.8859 106.892 29.5799 105.667L27.6253 104.289L30.3617 102.911L32.3163 104.289C34.4012 103.523 36.3558 103.37 38.4407 103.523C40.3953 103.829 42.3499 104.442 44.1742 105.667C44.0439 105.973 44.4348 106.28 44.8257 106.586Z" fill="#CCD8DB" stroke="#6E8196" stroke-width="0.7087" stroke-miterlimit="10" stroke-linecap="round"/>
<path d="M44.8257 106.586L38.9619 109.496L37.9195 108.73C36.7467 107.964 35.9649 107.505 35.574 107.352C35.0527 107.199 34.6618 107.199 34.1406 107.505C33.7497 107.658 33.6194 107.964 33.7497 108.117C33.88 108.424 34.2709 108.73 34.7921 109.189C35.8346 109.802 36.6164 110.261 37.3983 110.261C38.1801 110.415 40.0044 110.261 42.8711 110.261C45.3469 110.108 47.1712 110.108 48.2137 110.261C49.2561 110.261 50.4289 110.568 51.7319 111.027C53.035 111.487 54.4683 112.099 55.7714 113.018C57.9866 114.549 59.2897 115.928 59.5503 117.153C59.8109 118.531 59.0291 119.756 57.3351 120.981L59.6806 122.513L56.9442 123.891L54.4683 122.36C52.7744 122.972 50.6895 123.278 48.344 123.125C45.9984 122.972 43.5226 121.9 40.6559 120.216L39.4831 119.45L45.6075 116.387L47.1712 117.459C48.8652 118.531 50.0379 119.144 50.5592 119.45C51.0804 119.603 51.6016 119.603 52.1228 119.45C52.5138 119.297 52.6441 118.99 52.6441 118.684C52.5138 118.378 52.2531 118.072 51.7319 117.765C50.2985 116.846 49.2561 116.234 48.4743 115.928C47.6924 115.621 46.3894 115.468 44.5651 115.621C41.568 115.774 39.4831 115.774 38.1801 115.621C37.0073 115.621 35.574 115.315 34.1406 114.856C32.5769 114.396 31.2739 113.784 29.9708 112.865C28.1465 111.64 27.1041 110.415 27.1041 109.189C26.9738 107.964 27.8859 106.892 29.5799 105.667L27.6253 104.289L30.3617 102.911L32.3163 104.289C34.4012 103.523 36.3558 103.37 38.4407 103.523C40.3953 103.829 42.3499 104.442 44.1742 105.667C44.0439 105.973 44.4348 106.28 44.8257 106.586Z" fill="#CCD8DB" stroke="#6E8196" stroke-width="0.7087" stroke-miterlimit="10" stroke-linecap="round"/>
<path d="M69.1931 91.7314C64.2415 84.2275 54.4685 79.1738 43.2622 79.1738C32.0559 79.1738 22.2829 84.2275 17.3313 91.7314H14.0737L13.9434 101.992C13.9434 102.298 13.9434 102.604 13.9434 103.064C13.9434 116.234 27.1043 126.954 43.3925 126.954C59.6808 126.954 72.8417 116.234 72.8417 103.064V91.7314H69.1931Z" fill="#CCD8DB" stroke="#6E8196" stroke-width="0.7087" stroke-miterlimit="10" stroke-linecap="round"/>
<path d="M43.2617 126.954C59.526 126.954 72.7108 116.258 72.7108 103.064C72.7108 89.8697 59.526 79.1738 43.2617 79.1738C26.9973 79.1738 13.8125 89.8697 13.8125 103.064C13.8125 116.258 26.9973 126.954 43.2617 126.954Z" fill="#CCD8DB" stroke="#6E8196" stroke-width="0.7087" stroke-miterlimit="10" stroke-linecap="round"/>
<path d="M69.1931 91.7314C64.2415 84.2275 54.4685 79.1738 43.2622 79.1738C32.0559 79.1738 22.2829 84.2275 17.3313 91.7314H14.0737L13.9434 101.992C13.9434 102.298 13.9434 102.604 13.9434 103.064C13.9434 116.234 27.1043 126.954 43.3925 126.954C59.6808 126.954 72.8417 116.234 72.8417 103.064V91.7314H69.1931Z" fill="#CCD8DB" stroke="#6E8196" stroke-width="0.7087" stroke-miterlimit="10" stroke-linecap="round"/>
<path d="M43.2617 126.954C59.526 126.954 72.7108 116.258 72.7108 103.064C72.7108 89.8697 59.526 79.1738 43.2617 79.1738C26.9973 79.1738 13.8125 89.8697 13.8125 103.064C13.8125 116.258 26.9973 126.954 43.2617 126.954Z" fill="#CCD8DB" stroke="#6E8196" stroke-width="0.7087" stroke-miterlimit="10" stroke-linecap="round"/>
<path d="M43.2617 115.621C59.526 115.621 72.7108 104.925 72.7108 91.7312C72.7108 78.5372 59.526 67.8413 43.2617 67.8413C26.9973 67.8413 13.8125 78.5372 13.8125 91.7312C13.8125 104.925 26.9973 115.621 43.2617 115.621Z" fill="#CCD8DB" stroke="#6E8196" stroke-width="0.7087" stroke-miterlimit="10" stroke-linecap="round"/>
<path d="M43.2617 115.621C59.526 115.621 72.7108 104.925 72.7108 91.7312C72.7108 78.5372 59.526 67.8413 43.2617 67.8413C26.9973 67.8413 13.8125 78.5372 13.8125 91.7312C13.8125 104.925 26.9973 115.621 43.2617 115.621Z" fill="#CCD8DB" stroke="#6E8196" stroke-width="0.7087" stroke-miterlimit="10" stroke-linecap="round"/>
<path d="M43.3926 126.954C43.3926 126.647 43.3926 126.341 43.3926 126.188V115.774" fill="#CCD8DB"/>
<path d="M43.3926 126.954C43.3926 126.647 43.3926 126.341 43.3926 126.188V115.774" stroke="#6E8196" stroke-width="0.7087" stroke-miterlimit="10" stroke-linecap="round"/>
<path d="M49.7773 126.188V115.162" stroke="#6E8196" stroke-width="0.7087" stroke-miterlimit="10" stroke-linecap="round"/>
<path d="M55.9023 124.656V113.477" stroke="#6E8196" stroke-width="0.7087" stroke-miterlimit="10" stroke-linecap="round"/>
<path d="M61.5059 121.9V110.874" stroke="#6E8196" stroke-width="0.7087" stroke-miterlimit="10" stroke-linecap="round"/>
<path d="M66.1953 118.225V107.045" stroke="#6E8196" stroke-width="0.7087" stroke-miterlimit="10" stroke-linecap="round"/>
<path d="M70.627 111.946V100.767" stroke="#6E8196" stroke-width="0.7087" stroke-miterlimit="10" stroke-linecap="round"/>
<path d="M36.877 126.188V115.162" stroke="#6E8196" stroke-width="0.7087" stroke-miterlimit="10" stroke-linecap="round"/>
<path d="M30.752 124.656V113.477" stroke="#6E8196" stroke-width="0.7087" stroke-miterlimit="10" stroke-linecap="round"/>
<path d="M25.1484 121.9V110.874" stroke="#6E8196" stroke-width="0.7087" stroke-miterlimit="10" stroke-linecap="round"/>
<path d="M20.459 118.225V107.045" stroke="#6E8196" stroke-width="0.7087" stroke-miterlimit="10" stroke-linecap="round"/>
<path d="M16.1582 111.946V100.767" stroke="#6E8196" stroke-width="0.7087" stroke-miterlimit="10" stroke-linecap="round"/>
<path d="M43.2625 110.261C55.8566 110.261 66.0661 101.965 66.0661 91.7312C66.0661 81.4973 55.8566 73.2012 43.2625 73.2012C30.6685 73.2012 20.459 81.4973 20.459 91.7312C20.459 101.965 30.6685 110.261 43.2625 110.261Z" fill="#CCD8DB" stroke="#6E8196" stroke-width="0.7087" stroke-miterlimit="10" stroke-linecap="round"/>
<path d="M43.2625 110.261C55.8566 110.261 66.0661 101.965 66.0661 91.7312C66.0661 81.4973 55.8566 73.2012 43.2625 73.2012C30.6685 73.2012 20.459 81.4973 20.459 91.7312C20.459 101.965 30.6685 110.261 43.2625 110.261Z" fill="#CCD8DB" stroke="#6E8196" stroke-width="0.7087" stroke-miterlimit="10" stroke-linecap="round"/>
<path d="M44.8246 84.8396L38.9608 87.7493L37.9184 87.1367C36.7456 86.371 35.9638 85.9116 35.5729 85.7585C35.0516 85.6053 34.6607 85.6053 34.1395 85.9116C33.7486 86.0647 33.6183 86.371 33.7486 86.5242C33.8789 86.8304 34.2698 87.1367 34.791 87.5961C35.8335 88.2087 36.6153 88.6681 37.3971 88.6681C38.179 88.8213 40.0033 88.6681 42.87 88.6681C45.3458 88.515 47.1701 88.515 48.2125 88.6681C49.255 88.6681 50.4277 88.9744 51.7308 89.4338C53.0339 89.8933 54.4672 90.5058 55.7703 91.4247C57.9855 92.9561 59.2886 94.3343 59.5492 95.5595C59.8098 96.9377 59.0279 98.1628 57.334 99.388L59.6795 100.919L56.943 102.298L54.4672 100.766C52.7733 101.379 50.6884 101.685 48.3428 101.532C45.9973 101.379 43.5215 100.307 40.6548 98.6223L39.482 97.8566L45.3458 94.9469L46.9095 96.0189C48.6035 97.0909 49.7762 97.7034 50.2974 98.0097C50.8187 98.1628 51.3399 98.1628 51.8611 98.0097C52.252 97.8566 52.3823 97.5503 52.3823 97.244C52.252 96.9377 51.9914 96.6314 51.4702 96.3252C50.0368 95.4063 48.9944 94.7938 48.2125 94.4875C47.4307 94.1812 46.1276 94.0281 44.3034 94.1812C41.3063 94.3343 39.2214 94.3343 37.9184 94.1812C36.7456 94.1812 35.3122 93.8749 33.8789 93.4155C32.3152 92.9561 31.0121 92.3435 29.7091 91.4247C27.8848 90.1995 26.8424 88.9744 26.8424 87.7493C26.7121 86.5242 27.6242 85.4522 29.3182 84.2271L27.2333 82.6957L29.9697 81.3174L31.9243 82.6957C34.0092 81.9299 35.9638 81.7768 38.0487 81.9299C40.0033 82.2362 41.9579 82.8488 43.7821 84.0739C44.0427 84.2271 44.4337 84.5333 44.8246 84.8396Z" fill="#CCD8DB" stroke="#6E8196" stroke-width="0.7087" stroke-miterlimit="10" stroke-linecap="round"/>
<path d="M44.8246 84.8396L38.9608 87.7493L37.9184 87.1367C36.7456 86.371 35.9638 85.9116 35.5729 85.7585C35.0516 85.6053 34.6607 85.6053 34.1395 85.9116C33.7486 86.0647 33.6183 86.371 33.7486 86.5242C33.8789 86.8304 34.2698 87.1367 34.791 87.5961C35.8335 88.2087 36.6153 88.6681 37.3971 88.6681C38.179 88.8213 40.0033 88.6681 42.87 88.6681C45.3458 88.515 47.1701 88.515 48.2125 88.6681C49.255 88.6681 50.4277 88.9744 51.7308 89.4338C53.0339 89.8933 54.4672 90.5058 55.7703 91.4247C57.9855 92.9561 59.2886 94.3343 59.5492 95.5595C59.8098 96.9377 59.0279 98.1628 57.334 99.388L59.6795 100.919L56.943 102.298L54.4672 100.766C52.7733 101.379 50.6884 101.685 48.3428 101.532C45.9973 101.379 43.5215 100.307 40.6548 98.6223L39.482 97.8566L45.3458 94.9469L46.9095 96.0189C48.6035 97.0909 49.7762 97.7034 50.2974 98.0097C50.8187 98.1628 51.3399 98.1628 51.8611 98.0097C52.252 97.8566 52.3823 97.5503 52.3823 97.244C52.252 96.9377 51.9914 96.6314 51.4702 96.3252C50.0368 95.4063 48.9944 94.7938 48.2125 94.4875C47.4307 94.1812 46.1276 94.0281 44.3034 94.1812C41.3063 94.3343 39.2214 94.3343 37.9184 94.1812C36.7456 94.1812 35.3122 93.8749 33.8789 93.4155C32.3152 92.9561 31.0121 92.3435 29.7091 91.4247C27.8848 90.1995 26.8424 88.9744 26.8424 87.7493C26.7121 86.5242 27.6242 85.4522 29.3182 84.2271L27.2333 82.6957L29.9697 81.3174L31.9243 82.6957C34.0092 81.9299 35.9638 81.7768 38.0487 81.9299C40.0033 82.2362 41.9579 82.8488 43.7821 84.0739C44.0427 84.2271 44.4337 84.5333 44.8246 84.8396Z" fill="#CCD8DB" stroke="#6E8196" stroke-width="0.7087" stroke-miterlimit="10" stroke-linecap="round"/>
<path d="M116.103 187.904C111.152 180.4 101.379 175.346 90.1724 175.346C78.966 175.346 69.1931 180.4 64.2415 187.904H60.9838L60.8535 198.164C60.8535 198.47 60.8535 198.777 60.8535 199.236C60.8535 212.406 74.0144 223.126 90.3027 223.126C106.591 223.126 119.752 212.406 119.752 199.236V187.904H116.103Z" fill="#CCD8DB" stroke="#6E8196" stroke-width="0.7087" stroke-miterlimit="10" stroke-linecap="round"/>
<path d="M90.1718 223.126C106.436 223.126 119.621 212.43 119.621 199.236C119.621 186.042 106.436 175.346 90.1718 175.346C73.9075 175.346 60.7227 186.042 60.7227 199.236C60.7227 212.43 73.9075 223.126 90.1718 223.126Z" fill="#CCD8DB" stroke="#6E8196" stroke-width="0.7087" stroke-miterlimit="10" stroke-linecap="round"/>
<path d="M116.103 187.904C111.152 180.4 101.379 175.346 90.1724 175.346C78.966 175.346 69.1931 180.4 64.2415 187.904H60.9838L60.8535 198.164C60.8535 198.47 60.8535 198.777 60.8535 199.236C60.8535 212.406 74.0144 223.126 90.3027 223.126C106.591 223.126 119.752 212.406 119.752 199.236V187.904H116.103Z" fill="#CCD8DB" stroke="#6E8196" stroke-width="0.7087" stroke-miterlimit="10" stroke-linecap="round"/>
<path d="M90.1718 223.126C106.436 223.126 119.621 212.43 119.621 199.236C119.621 186.042 106.436 175.346 90.1718 175.346C73.9075 175.346 60.7227 186.042 60.7227 199.236C60.7227 212.43 73.9075 223.126 90.1718 223.126Z" fill="#CCD8DB" stroke="#6E8196" stroke-width="0.7087" stroke-miterlimit="10" stroke-linecap="round"/>
<path d="M90.1718 211.794C106.436 211.794 119.621 201.098 119.621 187.904C119.621 174.71 106.436 164.014 90.1718 164.014C73.9075 164.014 60.7227 174.71 60.7227 187.904C60.7227 201.098 73.9075 211.794 90.1718 211.794Z" fill="#CCD8DB" stroke="#6E8196" stroke-width="0.7087" stroke-miterlimit="10" stroke-linecap="round"/>
<path d="M90.1718 211.794C106.436 211.794 119.621 201.098 119.621 187.904C119.621 174.71 106.436 164.014 90.1718 164.014C73.9075 164.014 60.7227 174.71 60.7227 187.904C60.7227 201.098 73.9075 211.794 90.1718 211.794Z" fill="#CCD8DB" stroke="#6E8196" stroke-width="0.7087" stroke-miterlimit="10" stroke-linecap="round"/>
<path d="M90.4336 223.126C90.4336 222.82 90.4336 222.513 90.4336 222.36V211.947" fill="#CCD8DB"/>
<path d="M90.4336 223.126C90.4336 222.82 90.4336 222.513 90.4336 222.36V211.947" stroke="#6E8196" stroke-width="0.7087" stroke-miterlimit="10" stroke-linecap="round"/>
<path d="M96.8184 222.36V211.181" stroke="#6E8196" stroke-width="0.7087" stroke-miterlimit="10" stroke-linecap="round"/>
<path d="M102.812 220.676V209.649" stroke="#6E8196" stroke-width="0.7087" stroke-miterlimit="10" stroke-linecap="round"/>
<path d="M108.416 218.072V206.893" stroke="#6E8196" stroke-width="0.7087" stroke-miterlimit="10" stroke-linecap="round"/>
<path d="M113.236 214.244V203.064" stroke="#6E8196" stroke-width="0.7087" stroke-miterlimit="10" stroke-linecap="round"/>
<path d="M117.537 207.965V196.939" stroke="#6E8196" stroke-width="0.7087" stroke-miterlimit="10" stroke-linecap="round"/>
<path d="M83.918 222.36V211.181" stroke="#6E8196" stroke-width="0.7087" stroke-miterlimit="10" stroke-linecap="round"/>
<path d="M77.793 220.676V209.649" stroke="#6E8196" stroke-width="0.7087" stroke-miterlimit="10" stroke-linecap="round"/>
<path d="M72.1895 218.072V206.893" stroke="#6E8196" stroke-width="0.7087" stroke-miterlimit="10" stroke-linecap="round"/>
<path d="M67.3691 214.244V203.064" stroke="#6E8196" stroke-width="0.7087" stroke-miterlimit="10" stroke-linecap="round"/>
<path d="M63.0684 207.965V196.939" stroke="#6E8196" stroke-width="0.7087" stroke-miterlimit="10" stroke-linecap="round"/>
<path d="M90.1727 206.434C102.767 206.434 112.976 198.137 112.976 187.904C112.976 177.67 102.767 169.374 90.1727 169.374C77.5786 169.374 67.3691 177.67 67.3691 187.904C67.3691 198.137 77.5786 206.434 90.1727 206.434Z" fill="#CCD8DB" stroke="#6E8196" stroke-width="0.7087" stroke-miterlimit="10" stroke-linecap="round"/>
<path d="M90.1727 206.434C102.767 206.434 112.976 198.137 112.976 187.904C112.976 177.67 102.767 169.374 90.1727 169.374C77.5786 169.374 67.3691 177.67 67.3691 187.904C67.3691 198.137 77.5786 206.434 90.1727 206.434Z" fill="#CCD8DB" stroke="#6E8196" stroke-width="0.7087" stroke-miterlimit="10" stroke-linecap="round"/>
<path d="M91.8656 181.013L86.0018 183.922L84.9594 183.31C83.7866 182.544 83.0048 182.085 82.6139 181.931C82.0927 181.778 81.7017 181.778 81.1805 182.085C80.7896 182.238 80.6593 182.544 80.7896 182.697C80.9199 183.003 81.3108 183.31 81.832 183.769C82.8745 184.382 83.6563 184.841 84.4382 184.841C85.22 184.994 87.0443 184.841 89.911 184.841C92.3868 184.688 94.2111 184.688 95.2536 184.841C96.296 184.841 97.4688 185.147 98.7718 185.607C100.075 186.066 101.508 186.679 102.811 187.598C105.027 189.129 106.33 190.507 106.59 191.732C106.851 193.111 106.069 194.336 104.375 195.561L106.72 197.092L103.984 198.471L101.508 196.939C99.8143 197.552 97.7294 197.858 95.3839 197.705C93.0384 197.552 90.5625 196.48 87.6958 194.795L86.5231 194.03L92.3868 191.12L93.9505 192.192C95.6445 193.264 96.8172 193.876 97.3385 194.183C97.8597 194.336 98.3809 194.336 98.9021 194.183C99.2931 194.03 99.4234 193.723 99.4234 193.417C99.2931 193.111 99.0324 192.804 98.5112 192.498C97.0778 191.579 96.0354 190.967 95.2536 190.661C94.4717 190.354 93.1687 190.201 91.3444 190.354C88.3473 190.507 86.2624 190.507 84.9594 190.354C83.7866 190.354 82.3533 190.048 80.9199 189.589C79.3562 189.129 78.0532 188.517 76.7501 187.598C74.9258 186.373 73.8834 185.147 73.8834 183.922C73.7531 182.697 74.6652 181.625 76.3592 180.4L74.4046 179.022L77.141 177.644L79.0956 179.022C81.1805 178.256 83.1351 178.103 85.22 178.256C87.1746 178.562 89.1292 179.175 90.9535 180.4C90.9535 180.4 91.3444 180.706 91.8656 181.013Z" fill="#CCD8DB" stroke="#6E8196" stroke-width="0.7087" stroke-miterlimit="10" stroke-linecap="round"/>
<path d="M91.8656 181.013L86.0018 183.922L84.9594 183.31C83.7866 182.544 83.0048 182.085 82.6139 181.931C82.0927 181.778 81.7017 181.778 81.1805 182.085C80.7896 182.238 80.6593 182.544 80.7896 182.697C80.9199 183.003 81.3108 183.31 81.832 183.769C82.8745 184.382 83.6563 184.841 84.4382 184.841C85.22 184.994 87.0443 184.841 89.911 184.841C92.3868 184.688 94.2111 184.688 95.2536 184.841C96.296 184.841 97.4688 185.147 98.7718 185.607C100.075 186.066 101.508 186.679 102.811 187.598C105.027 189.129 106.33 190.507 106.59 191.732C106.851 193.111 106.069 194.336 104.375 195.561L106.72 197.092L103.984 198.471L101.508 196.939C99.8143 197.552 97.7294 197.858 95.3839 197.705C93.0384 197.552 90.5625 196.48 87.6958 194.795L86.5231 194.03L92.3868 191.12L93.9505 192.192C95.6445 193.264 96.8172 193.876 97.3385 194.183C97.8597 194.336 98.3809 194.336 98.9021 194.183C99.2931 194.03 99.4234 193.723 99.4234 193.417C99.2931 193.111 99.0324 192.804 98.5112 192.498C97.0778 191.579 96.0354 190.967 95.2536 190.661C94.4717 190.354 93.1687 190.201 91.3444 190.354C88.3473 190.507 86.2624 190.507 84.9594 190.354C83.7866 190.354 82.3533 190.048 80.9199 189.589C79.3562 189.129 78.0532 188.517 76.7501 187.598C74.9258 186.373 73.8834 185.147 73.8834 183.922C73.7531 182.697 74.6652 181.625 76.3592 180.4L74.4046 179.022L77.141 177.644L79.0956 179.022C81.1805 178.256 83.1351 178.103 85.22 178.256C87.1746 178.562 89.1292 179.175 90.9535 180.4C90.9535 180.4 91.3444 180.706 91.8656 181.013Z" fill="#CCD8DB" stroke="#6E8196" stroke-width="0.7087" stroke-miterlimit="10" stroke-linecap="round"/>
<path d="M116.103 168.148C111.152 160.644 101.379 155.591 90.1724 155.591C78.966 155.591 69.1931 160.644 64.2415 168.148H60.9838L60.8535 178.409C60.8535 178.715 60.8535 179.021 60.8535 179.481C60.8535 192.651 74.0144 203.371 90.3027 203.371C106.591 203.371 119.752 192.651 119.752 179.481V168.148H116.103Z" fill="#CCD8DB" stroke="#6E8196" stroke-width="0.7087" stroke-miterlimit="10" stroke-linecap="round"/>
<path d="M90.1718 203.371C106.436 203.371 119.621 192.675 119.621 179.481C119.621 166.287 106.436 155.591 90.1718 155.591C73.9075 155.591 60.7227 166.287 60.7227 179.481C60.7227 192.675 73.9075 203.371 90.1718 203.371Z" fill="#CCD8DB" stroke="#6E8196" stroke-width="0.7087" stroke-miterlimit="10" stroke-linecap="round"/>
<path d="M116.103 168.148C111.152 160.644 101.379 155.591 90.1724 155.591C78.966 155.591 69.1931 160.644 64.2415 168.148H60.9838L60.8535 178.409C60.8535 178.715 60.8535 179.021 60.8535 179.481C60.8535 192.651 74.0144 203.371 90.3027 203.371C106.591 203.371 119.752 192.651 119.752 179.481V168.148H116.103Z" fill="#CCD8DB" stroke="#6E8196" stroke-width="0.7087" stroke-miterlimit="10" stroke-linecap="round"/>
<path d="M90.1718 203.371C106.436 203.371 119.621 192.675 119.621 179.481C119.621 166.287 106.436 155.591 90.1718 155.591C73.9075 155.591 60.7227 166.287 60.7227 179.481C60.7227 192.675 73.9075 203.371 90.1718 203.371Z" fill="#CCD8DB" stroke="#6E8196" stroke-width="0.7087" stroke-miterlimit="10" stroke-linecap="round"/>
<path d="M90.1718 192.038C106.436 192.038 119.621 181.342 119.621 168.148C119.621 154.954 106.436 144.258 90.1718 144.258C73.9075 144.258 60.7227 154.954 60.7227 168.148C60.7227 181.342 73.9075 192.038 90.1718 192.038Z" fill="#CCD8DB" stroke="#6E8196" stroke-width="0.7087" stroke-miterlimit="10" stroke-linecap="round"/>
<path d="M90.1718 192.038C106.436 192.038 119.621 181.342 119.621 168.148C119.621 154.954 106.436 144.258 90.1718 144.258C73.9075 144.258 60.7227 154.954 60.7227 168.148C60.7227 181.342 73.9075 192.038 90.1718 192.038Z" fill="#CCD8DB" stroke="#6E8196" stroke-width="0.7087" stroke-miterlimit="10" stroke-linecap="round"/>
<path d="M90.4336 203.37C90.4336 203.064 90.4336 202.758 90.4336 202.604V192.191" fill="#CCD8DB"/>
<path d="M90.4336 203.37C90.4336 203.064 90.4336 202.758 90.4336 202.604V192.191" stroke="#6E8196" stroke-width="0.7087" stroke-miterlimit="10" stroke-linecap="round"/>
<path d="M96.8184 202.605V191.579" stroke="#6E8196" stroke-width="0.7087" stroke-miterlimit="10" stroke-linecap="round"/>
<path d="M102.812 201.073V190.047" stroke="#6E8196" stroke-width="0.7087" stroke-miterlimit="10" stroke-linecap="round"/>
<path d="M108.416 198.47V187.291" stroke="#6E8196" stroke-width="0.7087" stroke-miterlimit="10" stroke-linecap="round"/>
<path d="M113.236 194.641V183.462" stroke="#6E8196" stroke-width="0.7087" stroke-miterlimit="10" stroke-linecap="round"/>
<path d="M117.537 188.363V177.336" stroke="#6E8196" stroke-width="0.7087" stroke-miterlimit="10" stroke-linecap="round"/>
<path d="M83.918 202.605V191.579" stroke="#6E8196" stroke-width="0.7087" stroke-miterlimit="10" stroke-linecap="round"/>
<path d="M77.793 201.073V190.047" stroke="#6E8196" stroke-width="0.7087" stroke-miterlimit="10" stroke-linecap="round"/>
<path d="M72.1895 198.47V187.291" stroke="#6E8196" stroke-width="0.7087" stroke-miterlimit="10" stroke-linecap="round"/>
<path d="M67.3691 194.641V183.462" stroke="#6E8196" stroke-width="0.7087" stroke-miterlimit="10" stroke-linecap="round"/>
<path d="M63.0684 188.363V177.336" stroke="#6E8196" stroke-width="0.7087" stroke-miterlimit="10" stroke-linecap="round"/>
<path d="M90.1727 186.678C102.767 186.678 112.976 178.382 112.976 168.148C112.976 157.914 102.767 149.618 90.1727 149.618C77.5786 149.618 67.3691 157.914 67.3691 168.148C67.3691 178.382 77.5786 186.678 90.1727 186.678Z" fill="#CCD8DB" stroke="#6E8196" stroke-width="0.7087" stroke-miterlimit="10" stroke-linecap="round"/>
<path d="M90.1727 186.678C102.767 186.678 112.976 178.382 112.976 168.148C112.976 157.914 102.767 149.618 90.1727 149.618C77.5786 149.618 67.3691 157.914 67.3691 168.148C67.3691 178.382 77.5786 186.678 90.1727 186.678Z" fill="#CCD8DB" stroke="#6E8196" stroke-width="0.7087" stroke-miterlimit="10" stroke-linecap="round"/>
<path d="M91.8656 161.41L86.0018 164.32L84.9594 163.707C83.7866 162.942 83.0048 162.482 82.6139 162.329C82.0927 162.176 81.7017 162.176 81.1805 162.482C80.7896 162.635 80.6593 162.942 80.7896 163.095C80.9199 163.401 81.3108 163.707 81.832 164.167C82.8745 164.779 83.6563 165.239 84.4382 165.239C85.22 165.392 87.0443 165.239 89.911 165.239C92.3868 165.086 94.2111 165.086 95.2536 165.239C96.296 165.239 97.4688 165.545 98.7718 166.004C100.075 166.464 101.508 167.076 102.811 167.995C105.027 169.527 106.33 170.905 106.59 172.13C106.851 173.508 106.069 174.733 104.375 175.959L106.72 177.49L103.984 178.868L101.508 177.337C99.8143 177.949 97.7294 178.256 95.3839 178.102C93.0384 177.949 90.5625 176.877 87.6958 175.193L86.5231 174.427L92.3868 171.517L93.9505 172.589C95.6445 173.661 96.8172 174.274 97.3385 174.58C97.8597 174.733 98.3809 174.733 98.9021 174.58C99.2931 174.427 99.4234 174.121 99.4234 173.815C99.2931 173.508 99.0324 173.202 98.5112 172.896C97.0778 171.977 96.0354 171.364 95.2536 171.058C94.4717 170.752 93.1687 170.599 91.3444 170.752C88.3473 170.905 86.2624 170.905 84.9594 170.752C83.7866 170.752 82.3533 170.445 80.9199 169.986C79.3562 169.527 78.0532 168.914 76.7501 167.995C74.9258 166.77 73.8834 165.545 73.8834 164.32C73.7531 163.095 74.6652 162.023 76.3592 160.798L74.4046 159.419L77.141 158.041L79.0956 159.419C81.1805 158.654 83.1351 158.5 85.22 158.654C87.1746 158.96 89.1292 159.572 90.9535 160.798C90.9535 160.798 91.3444 161.104 91.8656 161.41Z" fill="#CCD8DB" stroke="#6E8196" stroke-width="0.7087" stroke-miterlimit="10" stroke-linecap="round"/>
<path d="M91.8656 161.41L86.0018 164.32L84.9594 163.707C83.7866 162.942 83.0048 162.482 82.6139 162.329C82.0927 162.176 81.7017 162.176 81.1805 162.482C80.7896 162.635 80.6593 162.942 80.7896 163.095C80.9199 163.401 81.3108 163.707 81.832 164.167C82.8745 164.779 83.6563 165.239 84.4382 165.239C85.22 165.392 87.0443 165.239 89.911 165.239C92.3868 165.086 94.2111 165.086 95.2536 165.239C96.296 165.239 97.4688 165.545 98.7718 166.004C100.075 166.464 101.508 167.076 102.811 167.995C105.027 169.527 106.33 170.905 106.59 172.13C106.851 173.508 106.069 174.733 104.375 175.959L106.72 177.49L103.984 178.868L101.508 177.337C99.8143 177.949 97.7294 178.256 95.3839 178.102C93.0384 177.949 90.5625 176.877 87.6958 175.193L86.5231 174.427L92.3868 171.517L93.9505 172.589C95.6445 173.661 96.8172 174.274 97.3385 174.58C97.8597 174.733 98.3809 174.733 98.9021 174.58C99.2931 174.427 99.4234 174.121 99.4234 173.815C99.2931 173.508 99.0324 173.202 98.5112 172.896C97.0778 171.977 96.0354 171.364 95.2536 171.058C94.4717 170.752 93.1687 170.599 91.3444 170.752C88.3473 170.905 86.2624 170.905 84.9594 170.752C83.7866 170.752 82.3533 170.445 80.9199 169.986C79.3562 169.527 78.0532 168.914 76.7501 167.995C74.9258 166.77 73.8834 165.545 73.8834 164.32C73.7531 163.095 74.6652 162.023 76.3592 160.798L74.4046 159.419L77.141 158.041L79.0956 159.419C81.1805 158.654 83.1351 158.5 85.22 158.654C87.1746 158.96 89.1292 159.572 90.9535 160.798C90.9535 160.798 91.3444 161.104 91.8656 161.41Z" fill="#CCD8DB" stroke="#6E8196" stroke-width="0.7087" stroke-miterlimit="10" stroke-linecap="round"/>
<path d="M116.103 148.393C111.152 140.89 101.379 135.836 90.1724 135.836C78.966 135.836 69.1931 140.89 64.2415 148.393H60.9838L60.8535 158.654C60.8535 158.96 60.8535 159.266 60.8535 159.726C60.8535 172.896 74.0144 183.616 90.3027 183.616C106.591 183.616 119.752 172.896 119.752 159.726V148.393H116.103Z" fill="#CCD8DB" stroke="#6E8196" stroke-width="0.7087" stroke-miterlimit="10" stroke-linecap="round"/>
<path d="M90.1718 183.616C106.436 183.616 119.621 172.92 119.621 159.726C119.621 146.532 106.436 135.836 90.1718 135.836C73.9075 135.836 60.7227 146.532 60.7227 159.726C60.7227 172.92 73.9075 183.616 90.1718 183.616Z" fill="#CCD8DB" stroke="#6E8196" stroke-width="0.7087" stroke-miterlimit="10" stroke-linecap="round"/>
<path d="M116.103 148.393C111.152 140.89 101.379 135.836 90.1724 135.836C78.966 135.836 69.1931 140.89 64.2415 148.393H60.9838L60.8535 158.654C60.8535 158.96 60.8535 159.266 60.8535 159.726C60.8535 172.896 74.0144 183.616 90.3027 183.616C106.591 183.616 119.752 172.896 119.752 159.726V148.393H116.103Z" fill="#CCD8DB" stroke="#6E8196" stroke-width="0.7087" stroke-miterlimit="10" stroke-linecap="round"/>
<path d="M90.1718 183.616C106.436 183.616 119.621 172.92 119.621 159.726C119.621 146.532 106.436 135.836 90.1718 135.836C73.9075 135.836 60.7227 146.532 60.7227 159.726C60.7227 172.92 73.9075 183.616 90.1718 183.616Z" fill="#CCD8DB" stroke="#6E8196" stroke-width="0.7087" stroke-miterlimit="10" stroke-linecap="round"/>
<path d="M90.1718 172.283C106.436 172.283 119.621 161.587 119.621 148.393C119.621 135.199 106.436 124.503 90.1718 124.503C73.9075 124.503 60.7227 135.199 60.7227 148.393C60.7227 161.587 73.9075 172.283 90.1718 172.283Z" fill="#CCD8DB" stroke="#6E8196" stroke-width="0.7087" stroke-miterlimit="10" stroke-linecap="round"/>
<path d="M90.1718 172.283C106.436 172.283 119.621 161.587 119.621 148.393C119.621 135.199 106.436 124.503 90.1718 124.503C73.9075 124.503 60.7227 135.199 60.7227 148.393C60.7227 161.587 73.9075 172.283 90.1718 172.283Z" fill="#CCD8DB" stroke="#6E8196" stroke-width="0.7087" stroke-miterlimit="10" stroke-linecap="round"/>
<path d="M90.4336 183.616C90.4336 183.31 90.4336 183.003 90.4336 182.85V172.437" fill="#CCD8DB"/>
<path d="M90.4336 183.616C90.4336 183.31 90.4336 183.003 90.4336 182.85V172.437" stroke="#6E8196" stroke-width="0.7087" stroke-miterlimit="10" stroke-linecap="round"/>
<path d="M96.8184 182.85V171.824" stroke="#6E8196" stroke-width="0.7087" stroke-miterlimit="10" stroke-linecap="round"/>
<path d="M102.812 181.165V170.139" stroke="#6E8196" stroke-width="0.7087" stroke-miterlimit="10" stroke-linecap="round"/>
<path d="M108.416 178.562V167.383" stroke="#6E8196" stroke-width="0.7087" stroke-miterlimit="10" stroke-linecap="round"/>
<path d="M113.236 174.887V163.708" stroke="#6E8196" stroke-width="0.7087" stroke-miterlimit="10" stroke-linecap="round"/>
<path d="M117.537 168.455V157.429" stroke="#6E8196" stroke-width="0.7087" stroke-miterlimit="10" stroke-linecap="round"/>
<path d="M83.918 182.85V171.824" stroke="#6E8196" stroke-width="0.7087" stroke-miterlimit="10" stroke-linecap="round"/>
<path d="M77.793 181.165V170.139" stroke="#6E8196" stroke-width="0.7087" stroke-miterlimit="10" stroke-linecap="round"/>
<path d="M72.1895 178.562V167.383" stroke="#6E8196" stroke-width="0.7087" stroke-miterlimit="10" stroke-linecap="round"/>
<path d="M67.3691 174.887V163.708" stroke="#6E8196" stroke-width="0.7087" stroke-miterlimit="10" stroke-linecap="round"/>
<path d="M63.0684 168.455V157.429" stroke="#6E8196" stroke-width="0.7087" stroke-miterlimit="10" stroke-linecap="round"/>
<path d="M90.1727 166.923C102.767 166.923 112.976 158.627 112.976 148.393C112.976 138.159 102.767 129.863 90.1727 129.863C77.5786 129.863 67.3691 138.159 67.3691 148.393C67.3691 158.627 77.5786 166.923 90.1727 166.923Z" fill="#CCD8DB" stroke="#6E8196" stroke-width="0.7087" stroke-miterlimit="10" stroke-linecap="round"/>
<path d="M90.1727 166.923C102.767 166.923 112.976 158.627 112.976 148.393C112.976 138.159 102.767 129.863 90.1727 129.863C77.5786 129.863 67.3691 138.159 67.3691 148.393C67.3691 158.627 77.5786 166.923 90.1727 166.923Z" fill="#CCD8DB" stroke="#6E8196" stroke-width="0.7087" stroke-miterlimit="10" stroke-linecap="round"/>
<path d="M91.8656 141.502L86.0018 144.411L84.9594 143.799C83.7866 143.033 83.0048 142.574 82.6139 142.421C82.0927 142.267 81.7017 142.267 81.1805 142.574C80.7896 142.727 80.6593 143.033 80.7896 143.186C80.9199 143.493 81.3108 143.799 81.832 144.258C82.8745 144.871 83.6563 145.33 84.4382 145.33C85.22 145.483 87.0443 145.33 89.911 145.33C92.3868 145.177 94.2111 145.177 95.2536 145.33C96.296 145.33 97.4688 145.637 98.7718 146.096C100.075 146.555 101.508 147.168 102.811 148.087C105.027 149.618 106.33 150.996 106.59 152.222C106.851 153.6 106.069 154.825 104.375 156.05L106.72 157.581L103.984 158.96L101.508 157.428C99.8143 158.041 97.7294 158.347 95.3839 158.194C93.0384 158.041 90.5625 156.969 87.6958 155.284L86.5231 154.519L92.3868 151.609L93.9505 152.681C95.6445 153.753 96.8172 154.366 97.3385 154.672C97.8597 154.825 98.3809 154.825 98.9021 154.672C99.2931 154.519 99.4234 154.212 99.4234 153.906C99.2931 153.6 99.0324 153.294 98.5112 152.987C97.0778 152.068 96.0354 151.456 95.2536 151.15C94.4717 150.843 93.1687 150.69 91.3444 150.843C88.3473 150.996 86.2624 150.996 84.9594 150.843C83.7866 150.843 82.3533 150.537 80.9199 150.078C79.3562 149.618 78.0532 149.006 76.7501 148.087C74.9258 146.862 73.8834 145.637 73.8834 144.411C73.7531 143.186 74.6652 142.114 76.3592 140.889L74.144 139.358L76.8804 137.979L78.835 139.358C80.9199 138.592 82.8745 138.439 84.9594 138.592C86.914 138.898 88.8686 139.511 90.6929 140.736C90.9535 140.889 91.3444 141.195 91.8656 141.502Z" fill="#CCD8DB" stroke="#6E8196" stroke-width="0.7087" stroke-miterlimit="10" stroke-linecap="round"/>
<path d="M91.8656 141.502L86.0018 144.411L84.9594 143.799C83.7866 143.033 83.0048 142.574 82.6139 142.421C82.0927 142.267 81.7017 142.267 81.1805 142.574C80.7896 142.727 80.6593 143.033 80.7896 143.186C80.9199 143.493 81.3108 143.799 81.832 144.258C82.8745 144.871 83.6563 145.33 84.4382 145.33C85.22 145.483 87.0443 145.33 89.911 145.33C92.3868 145.177 94.2111 145.177 95.2536 145.33C96.296 145.33 97.4688 145.637 98.7718 146.096C100.075 146.555 101.508 147.168 102.811 148.087C105.027 149.618 106.33 150.996 106.59 152.222C106.851 153.6 106.069 154.825 104.375 156.05L106.72 157.581L103.984 158.96L101.508 157.428C99.8143 158.041 97.7294 158.347 95.3839 158.194C93.0384 158.041 90.5625 156.969 87.6958 155.284L86.5231 154.519L92.3868 151.609L93.9505 152.681C95.6445 153.753 96.8172 154.366 97.3385 154.672C97.8597 154.825 98.3809 154.825 98.9021 154.672C99.2931 154.519 99.4234 154.212 99.4234 153.906C99.2931 153.6 99.0324 153.294 98.5112 152.987C97.0778 152.068 96.0354 151.456 95.2536 151.15C94.4717 150.843 93.1687 150.69 91.3444 150.843C88.3473 150.996 86.2624 150.996 84.9594 150.843C83.7866 150.843 82.3533 150.537 80.9199 150.078C79.3562 149.618 78.0532 149.006 76.7501 148.087C74.9258 146.862 73.8834 145.637 73.8834 144.411C73.7531 143.186 74.6652 142.114 76.3592 140.889L74.144 139.358L76.8804 137.979L78.835 139.358C80.9199 138.592 82.8745 138.439 84.9594 138.592C86.914 138.898 88.8686 139.511 90.6929 140.736C90.9535 140.889 91.3444 141.195 91.8656 141.502Z" fill="#CCD8DB" stroke="#6E8196" stroke-width="0.7087" stroke-miterlimit="10" stroke-linecap="round"/>
<path d="M116.103 126.341C111.152 118.837 101.379 113.784 90.1724 113.784C78.966 113.784 69.1931 118.837 64.2415 126.341H60.9838L60.8535 136.602C60.8535 136.908 60.8535 137.214 60.8535 137.674C60.8535 150.844 74.0144 161.564 90.3027 161.564C106.591 161.564 119.752 150.844 119.752 137.674V126.341H116.103Z" fill="#CCD8DB" stroke="#6E8196" stroke-width="0.7087" stroke-miterlimit="10" stroke-linecap="round"/>
<path d="M90.1718 161.564C106.436 161.564 119.621 150.868 119.621 137.674C119.621 124.48 106.436 113.784 90.1718 113.784C73.9075 113.784 60.7227 124.48 60.7227 137.674C60.7227 150.868 73.9075 161.564 90.1718 161.564Z" fill="#CCD8DB" stroke="#6E8196" stroke-width="0.7087" stroke-miterlimit="10" stroke-linecap="round"/>
<path d="M116.103 126.341C111.152 118.837 101.379 113.784 90.1724 113.784C78.966 113.784 69.1931 118.837 64.2415 126.341H60.9838L60.8535 136.602C60.8535 136.908 60.8535 137.214 60.8535 137.674C60.8535 150.844 74.0144 161.564 90.3027 161.564C106.591 161.564 119.752 150.844 119.752 137.674V126.341H116.103Z" fill="#CCD8DB" stroke="#6E8196" stroke-width="0.7087" stroke-miterlimit="10" stroke-linecap="round"/>
<path d="M90.1718 161.564C106.436 161.564 119.621 150.868 119.621 137.674C119.621 124.48 106.436 113.784 90.1718 113.784C73.9075 113.784 60.7227 124.48 60.7227 137.674C60.7227 150.868 73.9075 161.564 90.1718 161.564Z" fill="#CCD8DB" stroke="#6E8196" stroke-width="0.7087" stroke-miterlimit="10" stroke-linecap="round"/>
<path d="M90.1718 150.231C106.436 150.231 119.621 139.535 119.621 126.341C119.621 113.147 106.436 102.451 90.1718 102.451C73.9075 102.451 60.7227 113.147 60.7227 126.341C60.7227 139.535 73.9075 150.231 90.1718 150.231Z" fill="#CCD8DB" stroke="#6E8196" stroke-width="0.7087" stroke-miterlimit="10" stroke-linecap="round"/>
<path d="M90.1718 150.231C106.436 150.231 119.621 139.535 119.621 126.341C119.621 113.147 106.436 102.451 90.1718 102.451C73.9075 102.451 60.7227 113.147 60.7227 126.341C60.7227 139.535 73.9075 150.231 90.1718 150.231Z" fill="#CCD8DB" stroke="#6E8196" stroke-width="0.7087" stroke-miterlimit="10" stroke-linecap="round"/>
<path d="M90.4336 161.564C90.4336 161.257 90.4336 160.951 90.4336 160.798V150.384" fill="#CCD8DB"/>
<path d="M90.4336 161.564C90.4336 161.257 90.4336 160.951 90.4336 160.798V150.384" stroke="#6E8196" stroke-width="0.7087" stroke-miterlimit="10" stroke-linecap="round"/>
<path d="M96.8184 160.798V149.772" stroke="#6E8196" stroke-width="0.7087" stroke-miterlimit="10" stroke-linecap="round"/>
<path d="M102.812 159.266V148.087" stroke="#6E8196" stroke-width="0.7087" stroke-miterlimit="10" stroke-linecap="round"/>
<path d="M108.416 156.51V145.483" stroke="#6E8196" stroke-width="0.7087" stroke-miterlimit="10" stroke-linecap="round"/>
<path d="M113.236 152.835V141.655" stroke="#6E8196" stroke-width="0.7087" stroke-miterlimit="10" stroke-linecap="round"/>
<path d="M117.537 146.556V135.376" stroke="#6E8196" stroke-width="0.7087" stroke-miterlimit="10" stroke-linecap="round"/>
<path d="M83.918 160.798V149.772" stroke="#6E8196" stroke-width="0.7087" stroke-miterlimit="10" stroke-linecap="round"/>
<path d="M77.793 159.266V148.087" stroke="#6E8196" stroke-width="0.7087" stroke-miterlimit="10" stroke-linecap="round"/>
<path d="M72.1895 156.51V145.483" stroke="#6E8196" stroke-width="0.7087" stroke-miterlimit="10" stroke-linecap="round"/>
<path d="M67.3691 152.835V141.655" stroke="#6E8196" stroke-width="0.7087" stroke-miterlimit="10" stroke-linecap="round"/>
<path d="M63.0684 146.556V135.376" stroke="#6E8196" stroke-width="0.7087" stroke-miterlimit="10" stroke-linecap="round"/>
<path d="M90.1727 144.871C102.767 144.871 112.976 136.575 112.976 126.341C112.976 116.107 102.767 107.811 90.1727 107.811C77.5786 107.811 67.3691 116.107 67.3691 126.341C67.3691 136.575 77.5786 144.871 90.1727 144.871Z" fill="#CCD8DB" stroke="#6E8196" stroke-width="0.7087" stroke-miterlimit="10" stroke-linecap="round"/>
<path d="M90.1727 144.871C102.767 144.871 112.976 136.575 112.976 126.341C112.976 116.107 102.767 107.811 90.1727 107.811C77.5786 107.811 67.3691 116.107 67.3691 126.341C67.3691 136.575 77.5786 144.871 90.1727 144.871Z" fill="#CCD8DB" stroke="#6E8196" stroke-width="0.7087" stroke-miterlimit="10" stroke-linecap="round"/>
<path d="M91.8656 119.603L86.0018 122.513L84.9594 121.9C83.7866 121.134 83.0048 120.675 82.6139 120.522C82.0927 120.369 81.7017 120.369 81.1805 120.675C80.7896 120.828 80.6593 121.134 80.7896 121.288C80.9199 121.594 81.3108 121.9 81.832 122.36C82.8745 122.972 83.6563 123.431 84.4382 123.431C85.22 123.585 87.0443 123.431 89.911 123.431C92.3868 123.278 94.2111 123.278 95.2536 123.431C96.296 123.431 97.4688 123.738 98.7718 124.197C100.075 124.657 101.508 125.269 102.811 126.188C105.027 127.719 106.33 129.098 106.59 130.323C106.851 131.701 106.069 132.926 104.375 134.151L106.72 135.683L103.984 137.061L101.508 135.53C99.8143 136.142 97.7294 136.448 95.3839 136.295C93.0384 136.142 90.5625 135.07 87.6958 133.386L86.5231 132.62L92.3868 129.71L93.9505 130.782C95.6445 131.854 96.8172 132.467 97.3385 132.773C97.8597 132.926 98.3809 132.926 98.9021 132.773C99.2931 132.62 99.4234 132.314 99.4234 132.007C99.2931 131.701 99.0324 131.395 98.5112 131.089C97.0778 130.17 96.0354 129.557 95.2536 129.251C94.4717 128.945 93.1687 128.791 91.3444 128.945C88.3473 129.098 86.2624 129.098 84.9594 128.945C83.7866 128.945 82.3533 128.638 80.9199 128.179C79.3562 127.719 78.0532 127.107 76.7501 126.188C74.9258 124.963 73.8834 123.738 73.8834 122.513C73.7531 121.288 74.6652 120.216 76.3592 118.99L74.4046 117.612L77.141 116.234L79.0956 117.612C81.1805 116.846 83.1351 116.693 85.22 116.846C87.1746 117.153 89.1292 117.765 90.9535 118.99C90.9535 118.837 91.3444 119.144 91.8656 119.603Z" fill="#CCD8DB" stroke="#6E8196" stroke-width="0.7087" stroke-miterlimit="10" stroke-linecap="round"/>
<path d="M91.8656 119.603L86.0018 122.513L84.9594 121.9C83.7866 121.134 83.0048 120.675 82.6139 120.522C82.0927 120.369 81.7017 120.369 81.1805 120.675C80.7896 120.828 80.6593 121.134 80.7896 121.288C80.9199 121.594 81.3108 121.9 81.832 122.36C82.8745 122.972 83.6563 123.431 84.4382 123.431C85.22 123.585 87.0443 123.431 89.911 123.431C92.3868 123.278 94.2111 123.278 95.2536 123.431C96.296 123.431 97.4688 123.738 98.7718 124.197C100.075 124.657 101.508 125.269 102.811 126.188C105.027 127.719 106.33 129.098 106.59 130.323C106.851 131.701 106.069 132.926 104.375 134.151L106.72 135.683L103.984 137.061L101.508 135.53C99.8143 136.142 97.7294 136.448 95.3839 136.295C93.0384 136.142 90.5625 135.07 87.6958 133.386L86.5231 132.62L92.3868 129.71L93.9505 130.782C95.6445 131.854 96.8172 132.467 97.3385 132.773C97.8597 132.926 98.3809 132.926 98.9021 132.773C99.2931 132.62 99.4234 132.314 99.4234 132.007C99.2931 131.701 99.0324 131.395 98.5112 131.089C97.0778 130.17 96.0354 129.557 95.2536 129.251C94.4717 128.945 93.1687 128.791 91.3444 128.945C88.3473 129.098 86.2624 129.098 84.9594 128.945C83.7866 128.945 82.3533 128.638 80.9199 128.179C79.3562 127.719 78.0532 127.107 76.7501 126.188C74.9258 124.963 73.8834 123.738 73.8834 122.513C73.7531 121.288 74.6652 120.216 76.3592 118.99L74.4046 117.612L77.141 116.234L79.0956 117.612C81.1805 116.846 83.1351 116.693 85.22 116.846C87.1746 117.153 89.1292 117.765 90.9535 118.99C90.9535 118.837 91.3444 119.144 91.8656 119.603Z" fill="#CCD8DB" stroke="#6E8196" stroke-width="0.7087" stroke-miterlimit="10" stroke-linecap="round"/>
<path d="M130.697 140.277L119.751 117.765L109.066 116.54L99.9444 80.8585L89.2593 80.7054L82.2227 48.3927L69.4527 51.3024L57.8555 1.07227L47.9523 13.0172L42.2188 33.6912L34.1398 50.3835L17.8516 62.1754L130.697 140.277Z" fill="#CCD8DB" stroke="#6E8196" stroke-width="0.7087" stroke-miterlimit="10" stroke-linecap="round"/>
<path d="M130.697 140.277L119.751 117.765L109.066 116.54L99.9444 80.8585L89.2593 80.7054L82.2227 48.3927L69.4527 51.3024L57.8555 1.07227L47.9523 13.0172L42.2188 33.6912L34.1398 50.3835L17.8516 62.1754L130.697 140.277Z" fill="#CCD8DB" stroke="#6E8196" stroke-width="0.7087" stroke-miterlimit="10" stroke-linecap="round"/>
<path d="M113.757 152.069L102.811 129.557L92.1263 128.332L83.0049 92.6505L72.3198 92.4974L65.2833 60.1847L52.5133 63.0944L40.9161 12.8643L31.0128 24.8092L25.2793 45.4832L17.2004 62.1755L0.912109 73.9674L113.757 152.069Z" fill="#CCD8DB" stroke="#6E8196" stroke-width="0.7087" stroke-miterlimit="10" stroke-linecap="round"/>
<path d="M113.757 152.069L102.811 129.557L92.1263 128.332L83.0049 92.6505L72.3198 92.4974L65.2833 60.1847L52.5133 63.0944L40.9161 12.8643L31.0128 24.8092L25.2793 45.4832L17.2004 62.1755L0.912109 73.9674L113.757 152.069Z" fill="#D0E0DF" stroke="#6E8196" stroke-width="0.7087" stroke-miterlimit="10" stroke-linecap="round"/>
<path d="M113.757 152.069L102.811 129.557L92.1263 128.332L83.0049 92.6503L72.3198 92.4972L65.2832 60.1845L52.5133 63.0942L40.916 12.8641L57.8558 1.07227L69.453 51.3024L82.223 48.3927L89.2595 80.7054L99.9446 80.8585L109.066 116.54L119.751 117.765L130.697 140.277L113.757 152.069Z" fill="#C7CFDA" stroke="#6E8196" stroke-width="0.7087" stroke-miterlimit="10" stroke-linecap="round"/>
<path d="M113.757 152.069L102.811 129.557L92.1263 128.332L83.0049 92.6503L72.3198 92.4972L65.2832 60.1845L52.5133 63.0942L40.916 12.8641L57.8558 1.07227L69.453 51.3024L82.223 48.3927L89.2595 80.7054L99.9446 80.8585L109.066 116.54L119.751 117.765L130.697 140.277L113.757 152.069Z" fill="#C7CFDA" stroke="#6E8196" stroke-width="0.7087" stroke-miterlimit="10" stroke-linecap="round"/>
</svg>
