<svg width="296" height="270" viewBox="0 0 296 270" fill="none" xmlns="http://www.w3.org/2000/svg">
<g opacity="0.83">
<g opacity="0.83">
<g clip-path="url(#clip0_330_8352)">
<path d="M34.5 67C35.3 65.8 37.8333 64.1667 39 63.5L83 62.5L88.5 74L84.5 90C68.1667 89.5 35.4 88.4 35 88C34.5 87.5 32.5 75 32.5 73C32.5 71 33.5 68.5 34.5 67Z" fill="#91B6BE"/>
<path d="M250.5 96.5V152L174 122.5V72V63.5L180 61L186 64.5L190.5 63.5L197 67.5L201 65.5L228.5 79.5V83L239 87V91.5L250.5 96.5Z" fill="#B9CED5" stroke="#678293"/>
<path d="M144.5 86L146.5 4.5L164.5 5.5L165.5 76L144.5 86Z" fill="#93B4BB"/>
<path d="M80 182L84.5 178.5L74 174L73.5 171L63.5 166L63 161.5L34 147.5L30.5 149.5L24 146.5L19.5 148L13 144.5L9 146.5L20.5 152V148L31.5 154.5V149.5L59.5 163.5V168L69.5 173V177L80 182Z" fill="#B9CED5"/>
<path d="M109.5 57.5V103.5L64 127V34.5L109.5 57.5Z" fill="#91B6BE" stroke="#678293"/>
<path d="M83.3231 80.0394L83.3223 80.04C81.1899 81.365 78.5495 82.5075 75.5155 83.4004L75.4984 83.3633C75.3724 83.0907 75.1918 82.7003 74.9728 82.2293C74.535 81.2873 73.9439 80.0221 73.3311 78.7302C72.7185 77.4387 72.0832 76.1182 71.5571 75.0662C71.2943 74.5405 71.0571 74.0787 70.8629 73.7199C70.8397 73.677 70.8168 73.6349 70.7941 73.5938C74.6817 72.7255 78.0323 71.3664 80.5009 69.6505C82.8194 68.0389 84.4078 66.0759 84.8641 63.8737C87.8819 66.0716 89.5 68.7229 89.5 71.4141C89.5 74.5553 87.2594 77.6042 83.3231 80.0394Z" fill="#6E858F" stroke="#678293"/>
<path d="M82.9351 117.458L32.4746 142.793V107.917C34.1193 107.062 36.8167 105.416 39.0536 104.1C41.2246 102.784 43.0009 101.731 43.0009 101.731C43.0009 101.731 44.3167 101.073 44.3167 99.7574C44.3167 98.4413 43.6588 97.1253 43.0009 97.1253C42.343 97.1253 41.6851 97.1253 41.6851 97.1253L32.4746 102.258V72.3833C32.6062 77.7792 39.3825 82.3854 49.0536 84.4911C52.6062 85.2807 56.6193 85.6755 60.7641 85.6755C65.9614 85.6755 70.8299 85.0175 74.9746 83.833C78.0667 82.9776 80.7641 81.8589 82.9351 80.5429C83.1325 81.9906 82.9351 116.34 82.9351 117.458Z" fill="#A3C1BF" stroke="#6E858F" stroke-miterlimit="10"/>
<path d="M109.711 104.035V103.772V57.5778L145.566 39.4819L145.171 86.1363L109.711 104.035Z" fill="#8CADAC" stroke="#6E858F" stroke-miterlimit="10"/>
<path d="M109.447 12.1733L64.0527 34.5464L109.974 57.4459L145.632 39.1526V29.6112L109.447 12.1733Z" fill="#A3C1BF" stroke="#6E858F" stroke-miterlimit="10"/>
<path d="M246.948 104.956C246.948 105.614 246.948 154.966 246.948 154.966L85.1055 237.22V186.223L246.948 104.956Z" fill="#A3C1BF" stroke="#6E858F" stroke-miterlimit="10"/>
<path d="M52.5391 155.953L91.3549 136.541L209.118 77.6475L245.96 104.627L85.1049 184.577V178.655L73.9206 174V170.759L63.3943 165.495V161.546L52.5391 155.953Z" fill="#A3C1BF" stroke="#6E858F" stroke-miterlimit="10"/>
<path d="M79.8417 182.604V240.511L85.1048 237.22V178.656L79.8417 181.946L69.3154 176.682V172.733L59.447 168.127V163.521L31.1575 148.781V153.65L19.9733 147.728V151.676L8.78906 146.412V204.319L79.8417 240.511" fill="#D0E0DF"/>
<path d="M79.8417 182.604V240.511L85.1048 237.22V178.656L79.8417 181.946L69.3154 176.682V172.733L59.447 168.127V163.521L31.1575 148.781V153.65L19.9733 147.728V151.676L8.78906 146.412V204.319L79.8417 240.511" stroke="#6E858F" stroke-miterlimit="10"/>
<path d="M125.895 162.863L90.3691 137.2" stroke="#6E858F" stroke-miterlimit="10"/>
<path d="M115.368 147.07L97.5391 133.778" stroke="#6E858F" stroke-miterlimit="10"/>
<path d="M174.58 139.832L152.869 124.039" stroke="#6E858F" stroke-miterlimit="10"/>
<path d="M145.172 109.957L163.396 122.723" stroke="#6E858F" stroke-miterlimit="10"/>
<path d="M138.986 113.05L148.263 120.749" stroke="#6E858F" stroke-miterlimit="10"/>
<path d="M184.447 90.3477L220.368 117.656" stroke="#6E858F" stroke-miterlimit="10"/>
<path d="M190.961 87.0576C191.685 87.8473 208.79 100.35 208.79 100.35" stroke="#6E858F" stroke-miterlimit="10"/>
<path d="M208.79 77.9765L190.896 86.8599L190.501 87.0573L184.119 90.2817L144.777 109.891L138.33 113.05L130.764 116.866L51.5534 156.282L33.7903 147.728L31.685 149.044L31.1587 149.307L30.5008 149.702L23.9219 147.07L24.5798 146.741L29.185 144.438L32.4745 142.793L82.935 117.458L109.711 103.969L112.08 102.784L144.777 86.3993L145.172 86.1361L158.988 79.2267L165.961 75.7392L173.264 72.0542L174.251 72.2516L208.593 77.9107L208.79 77.9765Z" fill="#D0E0DF" stroke="#6E858F" stroke-miterlimit="10"/>
<path d="M157.475 80.6089L191.027 87.1892" stroke="#6E858F" stroke-miterlimit="10"/>
<path d="M161.422 85.873L184.448 90.3477" stroke="#6E858F" stroke-miterlimit="10"/>
<path d="M112.08 102.785L145.172 109.957" stroke="#6E858F" stroke-miterlimit="10"/>
<path d="M116.684 108.904L138.328 113.05" stroke="#6E858F" stroke-miterlimit="10"/>
<path d="M158.987 79.2272L158.855 9.54168C158.855 9.54168 164.119 7.56758 164.777 6.25152C165.434 4.93546 165.961 75.7396 165.961 75.7396L158.987 79.2272Z" fill="#6E858F"/>
<path d="M144.775 86.3996L146.289 4.27734" stroke="#6E858F" stroke-miterlimit="10"/>
<path d="M155.5 9.54154C160.586 9.54154 164.71 7.47926 164.71 4.93532C164.71 2.39138 160.586 0.329102 155.5 0.329102C150.413 0.329102 146.289 2.39138 146.289 4.93532C146.289 7.47926 150.413 9.54154 155.5 9.54154Z" fill="#B9CED5" stroke="#6E858F" stroke-miterlimit="10"/>
<path d="M83.7896 63.9604C83.7896 64.092 83.7896 64.2236 83.7896 64.2894C83.5264 68.5666 77.8685 72.2516 69.9738 73.8309C67.3422 74.3573 64.4475 74.6205 61.4211 74.6205C49.0527 74.6205 39.0527 69.8169 39.0527 63.9604C39.0527 58.0381 49.0527 53.3003 61.4211 53.3003C73.7896 53.3003 83.7896 58.1039 83.7896 63.9604Z" fill="#A0C3C3" stroke="#6E858F" stroke-miterlimit="10"/>
<path d="M32.4746 72.3837C32.4746 72.3178 32.4746 72.252 32.4746 72.1862C32.4746 68.9619 34.843 65.9349 38.8562 63.6318" stroke="#6E858F" stroke-miterlimit="10"/>
<path d="M83.7898 64.3554C83.724 64.3554 83.6582 64.2896 83.6582 64.2896" stroke="#6E858F" stroke-miterlimit="10"/>
<path d="M89.0527 114.168V72.0542" stroke="#6E858F" stroke-miterlimit="10"/>
<path d="M32.4746 107.917V102.192" stroke="#6E858F" stroke-miterlimit="10"/>
<path d="M39.0527 80.938V138.713" stroke="#6E858F" stroke-miterlimit="10"/>
<path d="M49.0527 84.4912V133.909" stroke="#6E858F" stroke-miterlimit="10"/>
<path d="M64.2501 53.3008L64.0527 34.5469L109.447 57.578" stroke="#6E858F" stroke-miterlimit="10"/>
<path d="M114.053 68.7643L117.342 67.4482L118 85.8731L114.711 87.8472L114.053 68.7643Z" fill="#6E858F"/>
<path d="M120.633 65.4743L123.922 64.1582L124.58 82.5831L121.291 84.5572L120.633 65.4743Z" fill="#6E858F"/>
<path d="M127.869 61.526L131.159 60.21L131.817 78.6348L128.527 80.6089L127.869 61.526Z" fill="#6E858F"/>
<path d="M134.777 58.5646L138.067 57.2485L138.725 75.6734L135.435 77.6475L134.777 58.5646Z" fill="#6E858F"/>
<path d="M141.355 55.2746L144.645 53.9585L145.303 72.3834L142.013 74.3575L141.355 55.2746Z" fill="#6E858F"/>
<path d="M92.9997 197.738L108.131 190.039L236.421 124.697V139.831L92.3418 210.899L92.9997 197.738Z" fill="#D0E0DF" stroke="#6E858F" stroke-miterlimit="10"/>
<path d="M108.133 203.002V189.842" stroke="#6E858F" stroke-miterlimit="10"/>
<path d="M125.236 194.119V180.958" stroke="#6E858F" stroke-miterlimit="10"/>
<path d="M141.684 186.881V173.062" stroke="#6E858F" stroke-miterlimit="10"/>
<path d="M157.475 178.985V165.166" stroke="#6E858F" stroke-miterlimit="10"/>
<path d="M174.58 170.43V155.953" stroke="#6E858F" stroke-miterlimit="10"/>
<path d="M191.027 161.876V147.399" stroke="#6E858F" stroke-miterlimit="10"/>
<path d="M207.475 153.979V139.502" stroke="#6E858F" stroke-miterlimit="10"/>
<path d="M223.922 146.083V130.948" stroke="#6E858F" stroke-miterlimit="10"/>
<path d="M62.7363 232.614V192.474L43.9863 183.262L25.2363 174.049V212.873L43.1311 222.283L62.7363 232.614Z" stroke="#6E858F" stroke-miterlimit="10"/>
<path d="M43.6582 223.073V182.999" stroke="#6E858F" stroke-miterlimit="10"/>
<path d="M74 174L69.5 176.5" stroke="#6E858F" stroke-miterlimit="10"/>
<path d="M74 171L69 173.5" stroke="#6E858F" stroke-miterlimit="10"/>
<path d="M60 168.632L63.9474 166" stroke="#6E858F" stroke-miterlimit="10"/>
<path d="M59 163.974L62.9474 162" stroke="#6E858F" stroke-miterlimit="10"/>
<path d="M19.3164 148.386L24.5796 146.741" stroke="#6E858F" stroke-miterlimit="10"/>
<path d="M9 146.5L12.7371 144.438L19.974 147.728" stroke="#6E858F" stroke-miterlimit="10"/>
<path d="M44.3166 99.6916C44.3166 101.008 43.0008 101.666 43.0008 101.666C43.0008 101.666 41.2245 102.784 39.0535 104.035C36.8166 105.416 34.1192 106.996 32.4745 107.851C32.2113 107.983 32.014 108.114 31.8166 108.18C29.185 109.496 29.185 110.812 29.185 110.812V144.372L24.5798 146.675L23.9219 147.004C23.9219 147.004 23.9219 146.938 23.9219 146.872V110.154C23.9219 107.522 25.2377 106.206 25.2377 106.206L32.4745 102.126L41.685 96.9937C41.685 96.9937 42.3429 96.9937 43.0008 96.9937C43.6587 96.9937 44.3166 98.3755 44.3166 99.6916Z" fill="#A0C2C2" stroke="#6E858F" stroke-miterlimit="10"/>
<path d="M174.251 72.2519L173.922 63.5659L185.764 70.1462V65.54L195.632 72.1203C195.632 72.1203 196.948 66.8561 196.948 67.5141C196.948 68.1721 224.58 81.9908 224.58 81.9908V85.939L235.764 90.5452V93.8354L246.29 99.0996V154.374L250.238 152.4V96.4675C250.238 96.4675 238.396 91.8613 239.053 91.2032C239.711 90.5452 239.053 87.255 239.053 87.255L228.527 83.3069V79.3587L200.896 65.54L196.948 67.5141" stroke="#6E858F" stroke-miterlimit="10"/>
<path d="M185.764 65.4741L191.027 63.5L197.606 67.4482" stroke="#6E858F" stroke-miterlimit="10"/>
<path d="M173.922 63.5003C175.896 62.8423 179.185 60.8682 179.843 60.8682C180.501 60.8682 186.948 65.0138 186.948 65.0138" stroke="#6E858F" stroke-miterlimit="10"/>
<path d="M250.236 121.736L276.091 134.962C277.934 135.883 277.868 138.515 276.091 139.437L107.605 223.007C105.499 224.06 104.184 226.165 104.184 228.468V253.605H112.078V231.1C112.078 229.587 112.934 228.139 114.315 227.481L283.789 143.319C288.92 140.753 288.92 133.449 283.789 130.882L250.17 114.103V121.736H250.236Z" fill="#D0E0DF" stroke="#6E858F" stroke-miterlimit="10"/>
<path d="M250.236 112.852C254.183 114.432 271.947 121.538 273.92 124.697C274.249 125.157 275.039 125.881 274.578 126.671C274.249 127.263 273.262 127.987 272.605 128.645C268.723 132.527 125.236 203.068 101.552 213.531C99.6439 214.386 92.6703 217.216 91.6834 222.743C91.4861 223.994 91.6834 245.775 91.6834 245.775H100.236C99.7097 243.735 100.039 231.035 100.17 225.441C100.236 223.796 101.157 222.283 102.67 221.559L277.078 134.041C284.578 130.29 284.381 119.498 276.749 116.077L250.302 104.035" fill="#D0E0DF"/>
<path d="M250.236 112.852C254.183 114.432 271.947 121.538 273.92 124.697C274.249 125.157 275.039 125.881 274.578 126.671C274.249 127.263 273.262 127.987 272.605 128.645C268.723 132.527 125.236 203.068 101.552 213.531C99.6439 214.386 92.6703 217.216 91.6834 222.743C91.4861 223.994 91.6834 245.775 91.6834 245.775H100.236C99.7097 243.735 100.039 231.035 100.17 225.441C100.236 223.796 101.157 222.283 102.67 221.559L277.078 134.041C284.578 130.29 284.381 119.498 276.749 116.077L250.302 104.035" stroke="#6E858F" stroke-miterlimit="10"/>
</g>
</g>
</g>
<defs>
<clipPath id="clip0_330_8352">
<rect width="280" height="254" fill="white" transform="translate(8)"/>
</clipPath>
</defs>
</svg>
