<svg width="141" height="154" viewBox="0 0 141 154" fill="none" xmlns="http://www.w3.org/2000/svg">
<g clip-path="url(#clip0_330_8455)">
<path d="M13.8034 106.615C14.7894 107.8 15.5783 109.182 15.5783 110.959C15.5783 112.538 14.9867 114.118 13.8034 115.302C12.8174 116.29 11.2398 117.079 9.66218 117.079C8.08455 117.079 6.50693 116.29 5.52092 115.302C4.3377 114.118 3.74609 112.736 3.74609 110.959C3.74609 109.379 4.3377 107.8 5.52092 106.615C6.50693 105.431 8.08455 104.838 9.66218 104.838C10.2538 104.838 10.8454 104.838 11.437 105.036C11.8314 105.233 12.2258 105.233 12.423 105.431C12.8174 105.628 13.0146 105.826 13.409 106.023C13.409 106.418 13.6062 106.418 13.8034 106.615Z" fill="#C2DADA" stroke="#6E8196" stroke-width="1.3" stroke-miterlimit="10" stroke-linecap="round" stroke-linejoin="round"/>
<path d="M135.676 30.0105C136.662 30.9977 137.451 32.5772 137.451 34.1566C137.451 35.7361 136.86 37.3156 135.676 38.5002C134.69 39.4874 133.113 40.0797 131.535 40.0797C131.535 40.0797 131.535 40.0797 131.338 40.0797C131.141 40.0797 130.746 40.0797 130.549 40.0797C130.352 40.0797 129.957 39.8823 129.76 39.8823C129.169 39.6849 128.774 39.4874 128.183 39.0925C127.985 38.8951 127.788 38.6977 127.394 38.5002C127.197 38.3028 126.999 38.1054 126.802 37.9079C126.408 37.5131 126.211 36.9207 125.816 36.5259C125.422 35.7361 125.225 34.9464 125.225 34.1566C125.225 33.1695 125.422 32.1823 126.013 31.1951C126.211 30.6028 126.605 30.2079 126.999 29.8131C128.183 28.6284 129.563 28.0361 131.338 28.0361C133.113 28.431 134.69 29.0233 135.676 30.0105Z" fill="#C2DADA" stroke="#6E8196" stroke-width="1.3" stroke-miterlimit="10" stroke-linecap="round" stroke-linejoin="round"/>
<path d="M135.676 106.615C136.662 107.8 137.451 109.182 137.451 110.959C137.451 112.538 136.86 114.118 135.676 115.302C134.69 116.29 133.113 117.079 131.535 117.079C129.957 117.079 128.38 116.29 127.197 115.302C126.605 114.71 126.211 114.118 126.013 113.526C126.013 113.526 126.013 113.328 125.816 113.131C125.816 112.933 125.816 112.933 125.619 112.736C125.619 112.538 125.422 112.341 125.422 112.144C125.422 111.749 125.225 111.354 125.225 110.959C125.225 109.379 125.816 107.8 126.999 106.615C128.183 105.431 129.563 104.838 131.338 104.838C133.113 104.838 134.69 105.628 135.676 106.615Z" fill="#C2DADA" stroke="#6E8196" stroke-width="1.3" stroke-miterlimit="10" stroke-linecap="round" stroke-linejoin="round"/>
<path d="M80.2616 14.61L122.266 31.3921C122.069 32.1818 121.871 33.169 121.871 34.1562C121.871 34.9459 121.871 35.7357 122.069 36.328L70.5986 59.428L18.5371 36.328C18.9315 35.3408 19.1287 34.3536 19.1287 33.169C19.1287 32.5767 19.1287 31.9844 18.9315 31.5895L64.2882 14.4126C64.4854 14.61 64.6826 15.0049 64.8798 15.2023C65.077 15.5972 65.2742 15.7946 65.4714 15.9921L65.6686 16.1895C66.063 16.5844 66.4574 16.9793 67.049 17.3741C67.2462 17.5716 67.6406 17.769 67.8378 17.769C68.035 17.9664 68.4294 17.9664 68.6266 18.1639C68.8238 18.1639 69.021 18.3613 69.4154 18.3613C69.6126 18.3613 69.6126 18.3613 69.8098 18.5588C70.007 18.5588 70.2042 18.7562 70.4014 18.7562C70.4014 18.7562 70.4014 18.7562 70.5986 18.7562C70.7959 18.7562 71.1903 18.7562 71.3875 18.9536C71.7819 18.9536 71.9791 18.9536 72.3735 18.9536C72.5707 18.9536 72.9651 18.9536 73.1623 18.9536C74.5427 18.7562 75.7259 18.5588 76.9091 17.769C77.1063 17.5716 77.3035 17.5716 77.5007 17.3741C78.0924 16.9793 78.4868 16.5844 78.8812 16.1895H79.0784C79.67 15.5972 80.0644 15.2023 80.2616 14.61Z" fill="#E0E5E3" stroke="#6E8196" stroke-width="1.3" stroke-miterlimit="10" stroke-linecap="round" stroke-linejoin="round"/>
<path d="M76.1213 135.244C76.3185 135.836 76.5157 136.626 76.5157 137.218C76.5157 138.798 75.9241 140.377 74.7409 141.562C73.7549 142.351 72.5716 143.141 71.3884 143.141H69.8108C68.4304 142.944 67.2472 142.351 66.2611 141.364C65.0779 140.18 64.4863 138.798 64.4863 137.021C64.4863 136.428 64.4863 135.836 64.6835 135.244C64.6835 135.244 64.8807 135.046 64.8807 134.849C65.0779 134.257 65.4723 133.664 65.6695 133.269C65.8667 133.072 66.0639 132.875 66.2611 132.677C66.4584 132.48 66.6556 132.282 67.05 132.085C67.2472 131.887 67.4444 131.69 67.8388 131.69C68.036 131.493 68.4304 131.493 68.6276 131.295C68.8248 131.295 69.2192 131.098 69.4164 131.098C69.4164 131.098 69.4164 131.098 69.6136 131.098C69.8108 131.098 70.2052 131.098 70.4024 131.098C70.7968 131.098 71.1912 131.098 71.5856 131.295C71.7828 131.295 71.98 131.295 72.1772 131.493C72.3744 131.493 72.5716 131.69 72.7689 131.69C72.9661 131.69 72.966 131.69 73.1633 131.887C73.3605 132.085 73.5577 132.085 73.7549 132.282C73.9521 132.282 73.9521 132.48 74.1493 132.48C74.1493 132.48 74.3465 132.48 74.3465 132.677L74.5437 132.875C74.7409 133.072 74.9381 133.269 74.9381 133.467C75.1353 133.664 75.1353 133.862 75.3325 134.059C75.3325 134.257 75.5297 134.257 75.5297 134.454C75.9241 134.651 76.1213 134.849 76.1213 135.244C76.1213 135.046 76.1213 135.244 76.1213 135.244Z" fill="#C2DADA"/>
<path d="M76.1213 135.244C76.3185 135.836 76.5157 136.626 76.5157 137.218C76.5157 138.798 75.9241 140.377 74.7409 141.562C73.7549 142.351 72.5716 143.141 71.3884 143.141H69.8108C68.4304 142.944 67.2472 142.351 66.2611 141.364C65.0779 140.18 64.4863 138.798 64.4863 137.021C64.4863 136.428 64.4863 135.836 64.6835 135.244C64.6835 135.244 64.8807 135.046 64.8807 134.849C65.0779 134.257 65.4723 133.664 65.6695 133.269C65.8667 133.072 66.0639 132.875 66.2611 132.677C66.4584 132.48 66.6556 132.282 67.05 132.085C67.2472 131.887 67.4444 131.69 67.8388 131.69C68.036 131.493 68.4304 131.493 68.6276 131.295C68.8248 131.295 69.2192 131.098 69.4164 131.098C69.4164 131.098 69.4164 131.098 69.6136 131.098C69.8108 131.098 70.2052 131.098 70.4024 131.098C70.7968 131.098 71.1912 131.098 71.5856 131.295C71.7828 131.295 71.98 131.295 72.1772 131.493C72.3744 131.493 72.5716 131.69 72.7689 131.69C72.9661 131.69 72.966 131.69 73.1633 131.887C73.3605 132.085 73.5577 132.085 73.7549 132.282C73.9521 132.282 73.9521 132.48 74.1493 132.48C74.1493 132.48 74.3465 132.48 74.3465 132.677L74.5437 132.875C74.7409 133.072 74.9381 133.269 74.9381 133.467C75.1353 133.664 75.1353 133.862 75.3325 134.059C75.3325 134.257 75.5297 134.257 75.5297 134.454C75.9241 134.651 76.1213 134.849 76.1213 135.244ZM76.1213 135.244C76.1213 135.046 76.1213 135.244 76.1213 135.244Z" stroke="#6E8196" stroke-width="1.3" stroke-miterlimit="10" stroke-linecap="round" stroke-linejoin="round"/>
<path d="M129.759 43.6333V101.482C129.562 101.482 129.365 101.482 129.167 101.679H128.97C128.773 101.679 128.576 101.877 128.379 101.877C127.59 102.074 126.801 102.469 126.209 102.864C126.012 103.061 125.815 103.061 125.618 103.259C125.421 103.456 125.026 103.654 124.829 104.049C123.054 105.826 122.068 108.195 122.068 110.761C122.068 111.156 122.068 111.354 122.068 111.749C122.068 112.144 122.068 112.538 122.265 112.933L78.6835 132.282C78.4863 132.085 78.2891 131.69 78.0919 131.492C77.8947 131.295 77.6975 130.9 77.5003 130.703L77.3031 130.505C77.1059 130.308 76.9087 130.308 76.7115 130.11C76.5143 129.913 76.1199 129.715 75.9227 129.518C75.7255 129.32 75.3311 129.123 75.1339 128.926C74.9367 128.728 74.7395 128.728 74.5423 128.531C73.9507 128.136 73.1619 127.938 72.373 127.741V62.3897L98.108 51.0371L123.843 39.6846C124.237 40.0794 124.632 40.6717 125.026 41.0666C125.223 41.2641 125.618 41.6589 125.815 41.8564C126.012 42.0538 126.209 42.0538 126.407 42.2512C127.195 42.8435 128.181 43.2384 128.97 43.4359C129.167 43.6333 129.562 43.6333 129.759 43.6333Z" fill="#C7CFDA" stroke="#6E8196" stroke-width="1.3" stroke-miterlimit="10" stroke-linecap="round" stroke-linejoin="round"/>
<path d="M78.2891 9.47711C78.2891 10.2668 78.0919 11.0566 77.8947 11.8463C77.6975 12.2412 77.5003 12.6361 77.3031 13.031C77.1059 13.2284 76.9087 13.6233 76.7115 13.8207C76.5143 14.0181 76.3171 14.2156 76.1199 14.2156C75.9227 14.413 75.5283 14.6104 75.3311 14.8079C75.3311 14.8079 75.1339 15.0053 74.9367 15.0053C74.5423 15.2027 74.1479 15.4002 73.5563 15.4002C73.3591 15.4002 73.1619 15.4002 72.9647 15.4002C72.7675 15.4002 72.5703 15.4002 72.3731 15.4002C72.1759 15.4002 71.7814 15.4002 71.5842 15.4002C71.5842 15.4002 71.5842 15.4002 71.387 15.4002C71.1898 15.4002 70.9926 15.4002 70.7954 15.2027H70.5982C70.401 15.2027 70.401 15.2027 70.2038 15.0053C70.0066 15.0053 69.8094 14.8079 69.6122 14.8079C69.415 14.8079 69.415 14.6104 69.2178 14.6104C69.2178 14.6104 69.0206 14.6104 69.0206 14.413C68.8234 14.413 68.8234 14.2156 68.6262 14.2156C68.429 14.0181 68.2318 13.8207 68.0346 13.8207C67.8374 13.6233 67.6402 13.4258 67.443 13.2284C67.2458 13.031 67.2458 12.8335 67.0486 12.8335L66.8514 12.6361C66.8514 12.4386 66.6542 12.2412 66.6542 12.0438C66.457 11.254 66.2598 10.6617 66.2598 9.67454C66.2598 8.09505 66.8514 6.51557 68.0346 5.52839C69.0206 4.34377 70.5982 3.75146 72.3731 3.75146C73.9507 3.75146 75.5283 4.34377 76.5143 5.52839C77.6975 6.31813 78.2891 7.89762 78.2891 9.47711Z" fill="#C2DADA" stroke="#6E8196" stroke-width="1.3" stroke-miterlimit="10" stroke-linecap="round" stroke-linejoin="round"/>
<path d="M68.8235 62.3897V127.938C68.4291 127.938 68.2318 128.136 67.8374 128.136C67.443 128.136 67.2458 128.333 67.0486 128.531C65.8654 128.926 64.8794 129.715 64.0906 130.505L63.8934 130.703C63.499 131.097 63.1046 131.69 62.7102 132.282L18.7339 113.131V112.736C18.9311 112.144 18.9311 111.551 18.9311 110.959C18.9311 108.392 17.9451 106.023 16.1703 104.246C15.3815 103.456 14.1983 102.667 13.0151 102.272C12.6207 102.074 12.4235 102.074 12.029 101.877C11.8318 101.877 11.6346 101.679 11.4374 101.679H11.2402V43.6333C12.4235 43.4359 13.6067 42.8435 14.5927 42.2512C15.5787 41.6589 16.5647 40.6717 17.1563 39.6846L68.8235 62.3897Z" fill="#D4DDDE" stroke="#6E8196" stroke-width="1.3" stroke-miterlimit="10" stroke-linecap="round" stroke-linejoin="round"/>
<path d="M15.1839 30.9972C15.3811 31.5895 15.5783 32.3793 15.5783 33.169C15.5783 34.7485 14.9867 36.328 13.8034 37.3152C12.8174 38.3024 11.2398 38.8947 9.66218 38.8947C8.08455 38.8947 6.50693 38.3024 5.52092 37.1177C4.3377 35.9331 3.74609 34.5511 3.74609 32.9716C3.74609 31.1947 4.3377 29.8126 5.52092 28.628C6.50693 27.6408 8.08455 26.8511 9.66218 26.8511C11.2398 26.8511 12.8174 27.4434 14.0006 28.628C14.395 29.6152 14.7894 30.2075 15.1839 30.9972Z" fill="#C2DADA" stroke="#6E8196" stroke-width="1.3" stroke-miterlimit="10" stroke-linecap="round" stroke-linejoin="round"/>
</g>
<defs>
<clipPath id="clip0_330_8455">
<rect width="141" height="154" fill="white"/>
</clipPath>
</defs>
</svg>
