<svg width="15" height="13" viewBox="0 0 15 13" fill="none" xmlns="http://www.w3.org/2000/svg">
<path d="M14.561 0.233829C14.4504 0.145093 14.3237 0.0794312 14.188 0.0406342C14.0524 0.00183713 13.9105 -0.00932738 13.7705 0.00778468C13.6306 0.0248967 13.4954 0.0699469 13.3727 0.140335C13.25 0.210723 13.1423 0.305056 13.0557 0.417889L5.58281 10.1622L1.92109 5.63653C1.8352 5.52057 1.72722 5.4233 1.60355 5.35049C1.47988 5.27767 1.34305 5.2308 1.20117 5.21265C1.0593 5.19449 0.915274 5.20543 0.777648 5.24482C0.640023 5.2842 0.511602 5.35123 0.400008 5.44191C0.288414 5.5326 0.195922 5.6451 0.128022 5.77274C0.0601224 5.90037 0.0181985 6.04055 0.00473923 6.18493C-0.00872007 6.32932 0.00655974 6.47497 0.0496713 6.61325C0.0927829 6.75153 0.162848 6.87962 0.255707 6.98991L4.70741 12.5983C4.80789 12.7239 4.93484 12.8251 5.07894 12.8944C5.22304 12.9638 5.38062 12.9995 5.54011 12.9989C5.7094 13.0066 5.87806 12.9733 6.03213 12.9017C6.18621 12.8302 6.32128 12.7225 6.42618 12.5875L14.7851 1.76044C14.8704 1.6457 14.9322 1.51491 14.9671 1.37569C15.002 1.23647 15.0092 1.09159 14.9884 0.94951C14.9675 0.807427 14.919 0.670976 14.8456 0.548105C14.7722 0.425235 14.6754 0.318401 14.561 0.233829V0.233829Z" fill="#4777A7"/>
</svg>
