<svg width="17" height="12" viewBox="0 0 17 12" fill="none" xmlns="http://www.w3.org/2000/svg">
<path d="M12.0939 1.29298L12.0939 1.29298L12.0948 1.29204C12.1141 1.2705 12.1341 1.25663 12.1521 1.24833C12.1699 1.24012 12.1867 1.23682 12.2022 1.23682C12.2176 1.23682 12.2345 1.24012 12.2522 1.24833C12.2702 1.25663 12.2902 1.2705 12.3095 1.29204L12.31 1.29251L16.375 5.81554L16.3754 5.816C16.3948 5.83755 16.4127 5.86597 16.4257 5.90082C16.4387 5.9357 16.4459 5.97465 16.4459 6.01503C16.4459 6.05541 16.4387 6.09436 16.4257 6.12924C16.4127 6.16409 16.3948 6.19251 16.3754 6.21406L16.375 6.21452L12.31 10.7376C12.2714 10.7805 12.2312 10.7928 12.2022 10.7928C12.1731 10.7928 12.1329 10.7805 12.0944 10.7376C12.0542 10.6929 12.0238 10.6218 12.0238 10.5381C12.0238 10.4543 12.0542 10.3833 12.0943 10.3386C12.0943 10.3386 12.0943 10.3386 12.0944 10.3386L15.681 6.34932L15.9816 6.01503L15.681 5.68074L12.0943 1.69142L12.0939 1.69103C12.0745 1.66948 12.0567 1.64106 12.0437 1.60621C12.0306 1.57133 12.0234 1.53238 12.0234 1.492C12.0234 1.45162 12.0306 1.41267 12.0437 1.37779C12.0567 1.34294 12.0745 1.31452 12.0939 1.29298Z"/>
<path d="M1.18359 6.01507C1.18359 5.93154 1.2139 5.86076 1.25391 5.81625C1.29234 5.77349 1.33229 5.76123 1.3611 5.76123L15.5887 5.76123C15.6176 5.76123 15.6575 5.77349 15.6959 5.81625C15.7359 5.86076 15.7663 5.93154 15.7663 6.01507C15.7663 6.0986 15.7359 6.16938 15.6959 6.21389C15.6575 6.25664 15.6176 6.26891 15.5887 6.26891L1.3611 6.26891C1.33229 6.26891 1.29234 6.25664 1.25391 6.21389C1.2139 6.16938 1.18359 6.0986 1.18359 6.01507Z">
</svg>
