<svg width="52" height="52" viewBox="0 0 52 52" fill="none" xmlns="http://www.w3.org/2000/svg">
<g clip-path="url(#clip0_13_728)">
<path d="M1.84096 52C1.27236 51.7698 0.73083 51.5125 0.392377 50.9573C-0.0543821 50.2261 -0.122073 49.4542 0.270533 48.6823C0.676677 47.8969 1.34005 47.4636 2.22003 47.423C2.72094 47.3959 3.22185 47.423 3.79045 47.423C3.79045 46.8948 3.79045 46.4073 3.79045 45.9334C3.79045 45.0532 3.77691 44.173 3.79045 43.2927C3.83106 41.3563 5.02242 39.8125 6.87715 39.298C9.19217 38.675 11.5207 38.0792 13.8222 37.4427C14.1742 37.348 14.5397 37.1313 14.8105 36.8875C16.5569 35.2355 18.2898 33.5834 20.0091 31.9042C21.2411 30.7125 22.6762 30.1302 24.3955 30.1438C27.8342 30.1709 31.2593 30.1573 34.698 30.1438C37.0401 30.1438 38.7865 31.1594 39.9508 33.1771C40.6548 34.4094 41.3723 35.6282 42.0628 36.874C42.2117 37.1448 42.3877 37.2532 42.6991 37.2396C43.3218 37.2125 43.9581 37.2667 44.5809 37.2261C46.6657 37.1042 48.2903 38.7157 48.2362 40.8688C48.1955 42.8459 48.2226 44.823 48.2226 46.8136C48.2226 47.0032 48.2226 47.1792 48.2226 47.45C49.8472 47.3282 51.3906 47.3552 51.9998 49.2646C51.9998 49.5625 51.9998 49.874 51.9998 50.1855C51.7019 51.1063 51.0927 51.7157 50.1721 52.0136C39.9102 52.0136 29.6618 52.0136 19.3999 52.0136C19.075 51.7563 18.7772 51.4719 18.9532 50.998C19.1292 50.524 19.5218 50.4698 19.955 50.4834C20.0768 50.4834 20.1851 50.4834 20.307 50.4834C29.9732 50.4834 39.6259 50.4834 49.2921 50.4834C50.0774 50.4834 50.4429 50.2532 50.4564 49.7521C50.47 49.224 50.0909 48.9667 49.2786 48.9667C33.7504 48.9667 18.2086 48.9667 2.68032 48.9667C2.54494 48.9667 2.40956 48.9532 2.27418 48.9667C1.84096 49.0073 1.52958 49.3188 1.52958 49.7115C1.52958 50.1177 1.82742 50.4292 2.26064 50.4698C2.4231 50.4834 2.59909 50.4834 2.76155 50.4834C7.28329 50.4834 11.7915 50.4834 16.3132 50.4834C16.7465 50.4834 17.1391 50.5375 17.3015 50.998C17.464 51.4719 17.1932 51.7563 16.8412 52.0136C11.8592 52 6.85007 52 1.84096 52ZM5.3338 47.4365C6.78238 47.4365 8.16327 47.45 9.54416 47.423C9.67954 47.423 9.86907 47.274 9.93677 47.1521C10.925 45.324 12.4278 44.3084 14.4991 44.2948C16.5975 44.2813 18.1273 45.2969 19.1156 47.1386C19.1833 47.274 19.4135 47.4094 19.5624 47.4094C24.0841 47.423 28.5923 47.423 33.1141 47.4094C33.263 47.4094 33.4661 47.2875 33.5337 47.1657C34.5356 45.2969 36.0654 44.2677 38.1909 44.2813C40.2757 44.2948 41.7785 45.324 42.7532 47.1521C42.8074 47.2605 42.9563 47.4094 43.0646 47.4094C44.256 47.423 45.4473 47.423 46.6657 47.423C46.6657 45.8792 46.6657 44.4032 46.6657 42.8594C46.4356 42.8594 46.2325 42.8459 46.043 42.8594C44.5809 43.0084 43.2947 41.9792 43.403 40.2052C43.4301 39.7448 43.403 39.2709 43.403 38.7563C43.1594 38.7563 42.9969 38.7563 42.8344 38.7563C40.9933 38.7563 39.1521 38.7563 37.2973 38.7563C36.7423 38.7563 36.4309 38.4448 36.4444 37.9709C36.458 37.524 36.7558 37.2532 37.2973 37.2396C37.9066 37.2261 38.5158 37.2396 39.125 37.2396C39.5582 37.2396 39.9779 37.2396 40.5465 37.2396C39.6936 35.8177 38.9761 34.4636 38.1096 33.2177C37.3786 32.1615 36.2414 31.6875 34.9417 31.674C33.5067 31.6605 32.0716 31.674 30.623 31.674C30.5147 31.674 30.3929 31.7011 30.2846 31.7011C30.2846 33.5563 30.2846 35.3709 30.2846 37.2396C30.5689 37.2396 30.8126 37.2396 31.0698 37.2396C34.6168 37.2396 34.9146 37.2938 34.8876 38.0115C34.874 38.7157 34.5897 38.7698 31.0292 38.7698C26.4804 38.7698 21.9316 38.8105 17.3827 38.7563C15.6363 38.7292 13.9441 38.9052 12.2924 39.4334C11.8321 39.5823 11.3447 39.6907 10.8709 39.8125C9.88261 40.0698 9.88261 40.0698 9.86907 41.0854C9.88261 42.724 8.93494 43.6719 7.31037 43.6719C6.66054 43.6719 6.0107 43.6719 5.3338 43.6719C5.3338 44.9448 5.3338 46.1636 5.3338 47.4365ZM16.9766 37.2125C20.7944 37.2125 24.7475 37.2125 28.7142 37.2125C28.7142 35.3573 28.7142 33.5427 28.7142 31.6875C27.1979 31.6875 25.7087 31.6875 24.2195 31.6875C23.0281 31.6875 22.0128 32.1073 21.1599 32.9334C20.3205 33.7459 19.4541 34.5313 18.6418 35.3709C18.0461 35.9667 17.491 36.6302 16.9766 37.2125ZM11.602 47.3959C13.5921 47.3959 15.5145 47.3959 17.464 47.3959C16.2591 45.2969 12.9693 45.2834 11.602 47.3959ZM35.1854 47.4094C37.2161 47.4094 39.1385 47.4094 41.1422 47.4094C40.3705 46.3396 39.3822 45.8115 38.1502 45.8115C36.9183 45.8115 35.9571 46.3532 35.1854 47.4094ZM44.9599 38.824C44.9599 39.4605 44.9193 40.0969 44.987 40.7334C45.0141 40.95 45.2984 41.2344 45.5285 41.3021C45.8805 41.3969 46.2867 41.3292 46.6522 41.3292C46.8011 39.7855 46.1513 38.824 44.9599 38.824ZM8.3528 40.5573C7.12083 40.7063 6.0107 41.1396 5.65871 42.1417C6.32208 42.1417 6.97191 42.1688 7.62174 42.1282C8.02789 42.1011 8.31219 41.8438 8.33926 41.4104C8.37988 41.1261 8.3528 40.8417 8.3528 40.5573Z" fill="#DEA54F"/>
<path d="M52.0008 2.74896C51.5405 4.10313 50.5793 4.61771 49.1578 4.59063C45.9492 4.53646 42.7271 4.57708 39.5186 4.57708C39.3291 4.57708 39.1531 4.57708 38.8959 4.57708C38.8959 4.78021 38.8959 4.95625 38.8959 5.14583C38.8959 8.59896 38.8959 12.0521 38.9094 15.5052C38.9094 15.7625 39.0177 16.0604 39.1666 16.2771C39.5457 16.8323 39.83 17.4146 39.8435 18.1052C39.8571 20.0146 39.8571 21.924 39.8571 23.8469C39.8571 24.3885 39.5728 24.6458 39.0312 24.6729C38.5032 24.7 37.9888 24.6729 37.3796 24.6729C37.3796 25.0792 37.3796 25.4583 37.3796 25.8375C37.3796 26.5417 37.3931 27.2594 37.366 27.9635C37.3525 28.4646 37.0141 28.776 36.5673 28.7625C36.1341 28.749 35.8498 28.4375 35.8498 27.95C35.8362 26.8802 35.8498 25.824 35.8498 24.6729C35.3353 24.6729 34.8479 24.6729 34.3741 24.6729C33.6024 24.6594 33.3452 24.4156 33.3452 23.6302C33.3452 21.9375 33.3452 20.2448 33.3452 18.5521C33.3452 17.6583 33.5754 16.8458 34.1575 16.1552C34.2523 16.0333 34.3335 15.8573 34.3335 15.7083C34.347 12.0656 34.3335 8.43646 34.3335 4.79375C34.3335 4.73958 34.3064 4.69896 34.2929 4.59063C34.1034 4.59063 33.9003 4.59063 33.7107 4.59063C29.9201 4.59063 26.1294 4.59063 22.3387 4.59063C22.1898 4.59063 22.0273 4.60417 21.8784 4.57708C21.4452 4.50938 21.2015 4.25208 21.2015 3.81875C21.2015 3.39896 21.4452 3.12813 21.8784 3.06042C22.0679 3.03333 22.2439 3.04688 22.4335 3.04688C31.3957 3.04688 40.3715 3.04688 49.3338 3.04688C50.119 3.04688 50.4845 2.80313 50.4845 2.30208C50.4845 1.7875 50.119 1.53021 49.3473 1.53021C33.792 1.53021 18.2502 1.53021 2.69487 1.53021C2.55949 1.53021 2.42411 1.51667 2.28873 1.53021C1.85551 1.57083 1.54413 1.88229 1.54413 2.28854C1.54413 2.69479 1.84197 3.00625 2.28873 3.04688C2.43765 3.06042 2.58657 3.04688 2.74903 3.04688C7.94767 3.04688 13.1328 3.04688 18.3314 3.04688C18.4803 3.04688 18.6428 3.04688 18.7917 3.04688C19.3197 3.06042 19.6311 3.34479 19.6446 3.79167C19.6582 4.26562 19.3332 4.56354 18.7782 4.57708C17.0724 4.59063 15.3666 4.57708 13.6472 4.57708C13.4577 4.57708 13.2817 4.57708 13.0651 4.57708C13.0515 4.75313 13.038 4.90208 13.038 5.05104C13.038 6.87917 13.0245 8.70729 13.0515 10.5354C13.0515 10.7656 13.1869 10.9958 13.2817 11.2125C13.5118 11.7677 13.7555 12.3229 14.0128 12.8646C14.1481 13.1625 14.2429 13.4875 14.4595 13.7177C15.6779 14.9635 16.9099 16.1958 18.1554 17.4146C18.3314 17.5906 18.6022 17.7125 18.8459 17.7531C19.5769 17.8615 20.2132 18.1323 20.7412 18.6469C22.0544 19.9469 23.3541 21.2469 24.6537 22.5604C25.087 22.9938 25.087 23.3865 24.6402 23.8333C24.3288 24.1448 24.0039 24.4292 23.6519 24.7677C24.383 25.499 25.0734 26.176 25.7503 26.8531C25.8992 27.0021 26.0482 27.1375 26.1835 27.2865C26.5085 27.6521 26.5085 28.0583 26.1971 28.3698C25.8857 28.6813 25.4796 28.6948 25.114 28.3563C24.7214 27.9906 24.3424 27.5979 23.9633 27.2188C23.5301 26.7719 23.1104 26.3115 22.5824 25.7698C22.1356 26.2573 21.7566 26.6906 21.364 27.0969C20.8766 27.5844 20.4975 27.5844 20.0102 27.0969C18.7376 25.8375 17.465 24.5646 16.2059 23.2917C15.6373 22.7229 15.3124 22.0323 15.2312 21.2198C15.2177 21.0438 15.1093 20.8406 14.974 20.7052C13.6743 19.3917 12.3746 18.0917 11.0614 16.7917C10.9261 16.6698 10.723 16.575 10.547 16.5479C9.24733 16.399 8.27258 15.7625 7.75814 14.5573C7.24369 13.3521 7.43322 12.2146 8.25905 11.1719C8.36735 11.0365 8.46212 10.8469 8.46212 10.6844C8.47566 8.66667 8.47566 6.6625 8.47566 4.56354C8.27258 4.56354 8.09659 4.56354 7.92059 4.56354C6.10648 4.56354 4.30591 4.56354 2.4918 4.56354C1.0703 4.56354 0.0413974 3.60208 0.0278593 2.28854C0.000783015 0.975 1.04322 0 2.45119 0C18.1554 0 33.8597 0 49.5504 0C50.8365 0 51.5811 0.677083 51.9872 1.82813C52.0008 2.13958 52.0008 2.4375 52.0008 2.74896ZM38.3137 23.0885C38.3137 21.4906 38.3273 19.9333 38.3137 18.376C38.3002 17.2792 37.5827 16.5344 36.5808 16.5479C35.5925 16.5615 34.875 17.3333 34.8615 18.4167C34.8479 19.7708 34.8615 21.125 34.8615 22.4656C34.8615 22.6688 34.8615 22.8583 34.8615 23.0885C36.0258 23.0885 37.1359 23.0885 38.3137 23.0885ZM23.0427 23.1833C21.8784 22.0052 20.7547 20.8 19.5634 19.649C18.9136 19.026 17.9253 19.1208 17.2754 19.7573C16.6256 20.3802 16.5173 21.3687 17.1536 22.0323C18.3043 23.2375 19.5228 24.3885 20.6871 25.5396C21.4587 24.7677 22.2439 23.9823 23.0427 23.1833ZM35.8633 15.0583C36.3778 15.0583 36.8381 15.0583 37.3254 15.0583C37.3254 11.5646 37.3254 8.08438 37.3254 4.61771C36.811 4.61771 36.3371 4.61771 35.8633 4.61771C35.8633 8.11146 35.8633 11.5781 35.8633 15.0583ZM9.00365 13.2708C8.99011 14.2323 9.76178 15.0177 10.723 15.0313C11.6707 15.0448 12.4829 14.2594 12.4965 13.3115C12.51 12.35 11.7383 11.5646 10.7771 11.5646C9.78886 11.551 9.01718 12.2958 9.00365 13.2708ZM10.019 4.59063C10.019 6.44583 10.019 8.23333 10.019 10.0479C10.5199 10.0479 10.9802 10.0479 11.454 10.0479C11.454 8.21979 11.454 6.40521 11.454 4.59063C10.9531 4.59063 10.5064 4.59063 10.019 4.59063ZM13.6202 15.1938C13.2952 15.4781 12.9297 15.7896 12.6319 16.0469C13.6608 17.076 14.6897 18.1323 15.6644 19.0938C15.9622 18.7958 16.3007 18.4708 16.5985 18.1729C15.5967 17.1708 14.5543 16.1281 13.6202 15.1938Z" fill="#DEA54F"/>
<path d="M24.3693 40.7062C24.8567 40.7062 25.3441 40.6927 25.845 40.7062C26.3053 40.7198 26.5896 41.0177 26.6166 41.4239C26.6302 41.8437 26.3459 42.2093 25.872 42.2229C24.8431 42.25 23.8142 42.25 22.7853 42.2229C22.3115 42.2093 22.0137 41.8708 22.0137 41.451C22.0137 41.0177 22.3115 40.7333 22.8124 40.7198C23.3269 40.6927 23.8413 40.7062 24.3693 40.7062Z" fill="#DEA54F"/>
</g>
<defs>
<clipPath id="clip0_13_728">
<rect width="52" height="52" fill="white"/>
</clipPath>
</defs>
</svg>
