<svg width="52" height="52" viewBox="0 0 52 52" fill="none" xmlns="http://www.w3.org/2000/svg">
<g clip-path="url(#clip0_13_761)">
<path d="M0 50.2655C1.86372 50.2655 3.71661 50.2655 5.59117 50.2655C5.42863 49.3983 5.4178 49.3875 4.61596 49.3875C3.78162 49.3766 3.54324 49.1598 3.44572 48.336C2.88227 43.5988 2.32965 38.8617 1.7662 34.1246C1.66868 33.3441 1.90706 33.0514 2.90394 32.8563C2.57887 32.2167 2.28631 31.5772 1.95041 30.9593C1.72286 30.5365 1.70119 30.1354 1.93957 29.7127C2.18879 29.2682 2.39467 28.8021 2.63305 28.3577C2.92561 27.7831 3.1965 27.6639 3.82496 27.7831C4.85434 27.9891 5.87289 28.2059 6.91311 28.3902C7.12982 28.4335 7.45489 28.3902 7.60659 28.2493C8.30006 27.6314 8.98271 27.6314 9.71953 28.1408C9.89289 28.2601 10.1096 28.336 10.3805 28.4661C10.4455 28.195 10.5105 27.9674 10.5539 27.7289C11.3557 22.6124 12.1684 17.5067 12.9594 12.3902C12.9919 12.1842 12.9485 11.9566 12.9052 11.7506C12.6993 10.8942 12.4826 10.0487 12.2659 9.19234C12.0167 8.21673 12.3309 7.80481 13.3169 7.80481C16.0258 7.80481 18.7347 7.80481 21.4436 7.80481C22.3647 7.80481 22.6897 8.22757 22.473 9.13814C22.408 9.39831 22.3647 9.66931 22.2671 9.91863C21.6603 11.5121 21.812 13.1056 22.0829 14.7533C22.8306 19.3062 23.5024 23.8807 24.2067 28.4444C24.2392 28.6612 24.2826 28.878 24.3367 29.1815C24.5318 29.0081 24.6943 28.8671 24.846 28.7262C27.8475 25.962 30.8381 23.1978 33.8287 20.4119C34.208 20.065 34.598 19.9024 35.1073 19.924C35.7466 19.9566 36.3968 19.924 37.0361 19.9349C37.8704 19.9349 38.163 20.2276 38.163 21.0731C38.163 22.9159 38.163 24.7696 38.163 26.6124C38.163 26.7858 38.163 26.9701 38.163 27.3062C39.084 26.2764 39.8858 25.3766 40.6985 24.4661C41.8904 23.1219 43.0931 21.7885 44.2634 20.4335C44.5776 20.065 44.9352 19.9132 45.412 19.924C46.3438 19.9457 47.2757 19.924 48.2075 19.9349C49.1611 19.9349 49.4211 20.1951 49.4211 21.1273C49.4211 23.9674 49.4211 26.8184 49.4211 29.6585C49.4211 29.8644 49.4211 30.0595 49.4211 30.3522C49.9629 30.3522 50.4613 30.3522 50.9598 30.3522C51.7399 30.3631 52.0325 30.6449 52.0325 31.4362C52.0325 37.9403 52.0325 44.4444 52.0325 50.9376C52.0325 51.7398 51.7183 52.0216 50.8514 52.0216C33.9046 52.0216 16.9685 52.0216 0.0216712 52.0216C0 51.4254 0 50.8509 0 50.2655ZM32.1167 32.0866C32.1167 38.1788 32.1167 44.2059 32.1167 50.233C33.8504 50.233 35.5516 50.233 37.2744 50.233C37.2744 48.3143 37.2744 46.4389 37.2744 44.5528C37.2744 43.588 37.5128 43.3387 38.4555 43.3387C40.2651 43.3387 42.0746 43.3387 43.8841 43.3387C44.7943 43.3387 45.0761 43.6097 45.0761 44.5094C45.0761 46.233 45.0761 47.9674 45.0761 49.691C45.0761 49.8753 45.0761 50.0487 45.0761 50.233C46.8423 50.233 48.5435 50.233 50.2338 50.233C50.2338 44.1625 50.2338 38.1354 50.2338 32.0866C44.1875 32.0866 38.163 32.0866 32.1167 32.0866ZM12.0275 47.653C12.6126 47.653 13.1544 47.6747 13.6962 47.6422C13.8371 47.6314 14.0321 47.4904 14.0863 47.3712C14.6931 45.9078 15.7658 45.0839 17.3586 45.0948C18.9515 45.0948 20.0133 45.9403 20.6093 47.4037C20.6526 47.5013 20.7285 47.588 20.7935 47.6747C20.8368 47.6639 20.8694 47.6422 20.9127 47.6314C21.2811 44.4877 21.6603 41.3441 22.0288 38.1788C15.9933 38.1788 10.0121 38.1788 4.00917 38.1788C4.38841 41.3766 4.75682 44.5094 5.12523 47.653C5.19025 47.6747 5.24443 47.6964 5.30944 47.7181C5.63451 46.6991 6.21963 45.8969 7.17316 45.4308C8.13753 44.9647 9.1344 44.943 10.1204 45.3875C11.074 45.8211 11.6808 46.6016 12.0275 47.653ZM17.3261 12.9972C17.3261 13.5826 17.3261 14.1246 17.3261 14.6774C16.7302 14.6774 16.1884 14.6774 15.5924 14.6774C15.5924 14.1029 15.5924 13.5717 15.5924 13.0081C15.2348 13.0081 14.9314 13.0081 14.5955 13.0081C13.8696 17.5934 13.1544 22.1571 12.4176 26.84C12.6885 26.6449 12.8293 26.5365 12.981 26.4281C13.8045 25.8211 13.9562 25.8211 14.7472 26.4498C15.7658 27.2628 16.7952 28.065 17.792 28.8997C18.0629 29.1273 18.258 29.1273 18.5397 28.943C19.0923 28.5745 19.6666 28.2493 20.23 27.9132C20.761 27.6097 21.0644 27.6422 21.5086 28.065C21.812 28.3577 22.1154 28.6612 22.4188 28.9647C22.4513 28.943 22.473 28.9213 22.5055 28.8997C21.6929 23.6097 20.8802 18.3197 20.0675 13.0297C20.0133 13.0406 19.9592 13.0406 19.9158 13.0514C19.9158 14.1571 19.9158 15.2736 19.9158 16.3902C19.3307 16.3902 18.7781 16.3902 18.1713 16.3902C18.1713 15.2303 18.1713 14.1029 18.1713 12.9864C17.8787 12.9972 17.6403 12.9972 17.3261 12.9972ZM23.5674 39.8265C25.8321 39.8265 28.0642 39.8265 30.318 39.8265C30.318 37.2357 30.318 34.6774 30.318 32.065C30.1013 32.065 29.9171 32.065 29.7437 32.065C28.0317 32.065 26.3305 32.0975 24.6185 32.0433C23.9467 32.0216 23.5891 32.2601 23.394 32.8563C24.2175 33.1707 24.3367 33.3875 24.2284 34.2655C23.99 36.1083 23.7841 37.9295 23.5674 39.8265ZM36.3642 26.0379C36.2992 26.0162 36.2667 25.9945 36.2342 25.9945C34.338 25.9945 32.4418 25.9837 30.5455 25.9945C30.383 25.9945 30.188 26.1029 30.0688 26.2113C28.6926 27.4688 27.3274 28.7262 25.9621 29.9945C25.8862 30.0704 25.8104 30.1571 25.6912 30.298C29.2886 30.298 32.8102 30.298 36.3534 30.298C36.3642 28.8671 36.3642 27.4688 36.3642 26.0379ZM47.6441 25.9837C45.6612 25.9837 43.7216 25.9837 41.782 25.9945C41.6412 25.9945 41.4895 26.1354 41.3811 26.2438C40.3734 27.3604 39.3765 28.4877 38.3905 29.6259C38.2605 29.7777 38.2388 30.0053 38.163 30.2005C38.3255 30.2438 38.4989 30.3197 38.6614 30.3197C41.4895 30.3306 44.3067 30.3197 47.1348 30.3197C47.2974 30.3197 47.4599 30.3197 47.6441 30.3197C47.6441 28.8563 47.6441 27.4579 47.6441 25.9837ZM3.78162 36.336C9.95791 36.336 16.0909 36.336 22.2346 36.336C22.2996 35.7614 22.3647 35.2303 22.4188 34.6883C16.1125 34.6883 9.87122 34.6883 3.58658 34.6883C3.65159 35.2628 3.70577 35.7831 3.78162 36.336ZM30.318 43.3278C30.318 42.7208 30.318 42.1896 30.318 41.6259C28.8769 41.6259 27.4682 41.6259 26.0271 41.6259C26.0271 44.5094 26.0271 47.3604 26.0271 50.233C27.4682 50.233 28.8769 50.233 30.3072 50.233C30.3072 49.6585 30.3072 49.1056 30.3072 48.5202C29.7329 48.5202 29.2019 48.5202 28.6493 48.5202C28.6493 47.924 28.6493 47.382 28.6493 46.7858C29.2236 46.7858 29.7545 46.7858 30.3072 46.7858C30.3072 46.1896 30.3072 45.6476 30.3072 45.0514C29.7329 45.0514 29.2019 45.0514 28.6601 45.0514C28.6601 44.4552 28.6601 43.9024 28.6601 43.3278C29.2128 43.3278 29.7329 43.3278 30.318 43.3278ZM43.3207 45.1056C41.8471 45.1056 40.4384 45.1056 39.0406 45.1056C39.0406 46.84 39.0406 48.5419 39.0406 50.2221C40.4818 50.2221 41.9012 50.2221 43.3207 50.2221C43.3207 48.5094 43.3207 46.8184 43.3207 45.1056ZM24.2284 50.233C24.2284 47.3495 24.2284 44.4877 24.2284 41.6259C23.925 41.6259 23.6541 41.6259 23.3724 41.6259C23.3399 41.8211 23.2965 41.9837 23.2749 42.1463C23.0256 44.2167 22.7873 46.2763 22.5489 48.3468C22.4513 49.1598 22.213 49.3875 21.3678 49.3875C20.5876 49.3983 20.5334 49.4417 20.4143 50.2655C21.617 50.2655 22.8198 50.2655 24.0225 50.2655C24.0984 50.2655 24.1525 50.2438 24.2284 50.233ZM13.0027 32.8888C14.0754 32.8888 15.0615 32.8888 16.1017 32.8888C16.0042 32.5745 15.9283 32.3034 15.8308 32.0324C15.4516 30.8834 15.4624 30.8509 16.4484 30.1679C16.4701 30.1571 16.4701 30.1137 16.4918 30.0704C15.6899 29.4308 14.8881 28.7804 14.0754 28.1517C13.9779 28.0758 13.772 28.0324 13.6962 28.0866C13.1544 28.4661 12.6235 28.8671 12.0167 29.3224C12.9052 29.5717 13.0569 30.1571 13.0027 30.8942C12.9702 31.5446 13.0027 32.195 13.0027 32.8888ZM11.269 32.8888C11.269 32.5636 11.2257 32.2818 11.2799 31.9999C11.4424 31.1327 11.1173 30.6124 10.2721 30.3414C9.71953 30.1679 9.17775 29.6585 8.66847 29.7018C8.14837 29.7452 7.6716 30.2872 7.184 30.6124C7.14066 30.6449 7.08648 30.6558 7.05397 30.6991C6.99979 30.775 6.92394 30.8617 6.92394 30.9484C6.91311 31.588 6.91311 32.2276 6.91311 32.878C8.38675 32.8888 9.78454 32.8888 11.269 32.8888ZM14.5414 11.2303C16.4376 11.2303 18.258 11.2303 20.1217 11.2303C20.2626 10.6774 20.4034 10.1246 20.5443 9.53923C18.388 9.53923 16.2751 9.53923 14.1188 9.53923C14.2705 10.1138 14.4005 10.6666 14.5414 11.2303ZM20.6093 29.7235C19.8833 30.1571 19.114 30.6124 18.3555 31.0785C17.4995 31.588 17.5103 31.588 17.8245 32.5419C17.9221 32.8346 18.0521 32.943 18.3555 32.9322C19.2007 32.9105 20.0458 32.9322 20.891 32.9213C21.0427 32.9213 21.2378 32.8563 21.3244 32.7479C21.6603 32.2926 21.9637 31.8048 22.2563 31.3604C21.6929 30.7967 21.1619 30.2764 20.6093 29.7235ZM8.66847 46.8075C7.70411 46.8075 6.92394 47.5988 6.93478 48.5419C6.94561 49.4742 7.71494 50.2438 8.6468 50.2655C9.61117 50.2763 10.3913 49.5067 10.3913 48.5419C10.3913 47.5663 9.64368 46.8075 8.66847 46.8075ZM15.6141 48.5311C15.6141 49.4959 16.3834 50.2763 17.3478 50.2655C18.2796 50.2547 19.0598 49.485 19.0706 48.5528C19.0923 47.6097 18.3013 46.8075 17.3478 46.7967C16.3726 46.7967 15.6141 47.5555 15.6141 48.5311ZM47.6441 21.691C45.6937 21.4525 45.6178 21.485 44.3717 22.8834C44.155 23.1219 43.9383 23.3604 43.7324 23.5988C43.5591 23.794 43.3965 23.9891 43.2015 24.2167C44.7402 24.2167 46.1921 24.2167 47.6549 24.2167C47.6441 23.3604 47.6441 22.5365 47.6441 21.691ZM36.3751 21.5934C35.8441 21.6476 35.259 21.5284 34.9448 21.7669C34.0021 22.4932 33.1677 23.3495 32.225 24.2167C33.6662 24.2167 35.0098 24.2167 36.3751 24.2167C36.3751 23.3604 36.3751 22.5365 36.3751 21.5934ZM5.21192 29.8319C4.9627 29.7777 4.68098 29.691 4.39925 29.6585C4.22588 29.6368 3.92248 29.6476 3.87914 29.7452C3.75995 29.9837 3.61909 30.3414 3.70577 30.5582C3.99833 31.2736 4.36674 31.9566 4.73515 32.6395C4.80017 32.7696 4.9627 32.8455 5.07106 32.943C5.1144 32.9105 5.15774 32.8888 5.21192 32.8563C5.21192 31.8807 5.21192 30.8942 5.21192 29.8319ZM14.303 50.2547C13.9346 49.2899 13.9346 49.2791 12.3201 49.3875C11.7675 49.42 11.93 49.9511 11.6808 50.2547C12.5801 50.2547 13.4253 50.2547 14.303 50.2547Z" fill="#DEA54F"/>
<path d="M16.47 6.88347C15.8524 6.88347 15.3323 6.88347 14.758 6.88347C14.7472 6.73171 14.7255 6.57995 14.7255 6.43902C14.7255 5.20325 14.7147 3.96748 14.7255 2.73171C14.7255 2.0271 15.0506 1.71274 15.7441 1.7019C16.2208 1.69106 16.6868 1.7019 17.1635 1.69106C17.196 1.69106 17.2285 1.66938 17.3152 1.6477C17.3152 1.11653 17.3152 0.574526 17.3152 0C17.9112 0 18.4421 0 19.0272 0C19.0272 0.921409 19.0706 1.84282 19.0056 2.76423C18.9731 3.21951 18.5938 3.43631 18.1279 3.43631C17.5861 3.43631 17.0552 3.43631 16.4592 3.43631C16.47 4.59621 16.47 5.72358 16.47 6.88347Z" fill="#DEA54F"/>
<path d="M19.9484 6.04888C19.9268 6.36324 19.9159 6.60172 19.9051 6.86189C19.3416 6.86189 18.7999 6.86189 18.2039 6.86189C18.2039 6.25484 18.1606 5.65864 18.2147 5.08411C18.2581 4.60714 18.5723 4.3253 19.0708 4.3253C19.6234 4.31446 20.176 4.3253 20.7719 4.3253C20.7936 4.01094 20.8153 3.75078 20.837 3.46893C21.3896 3.46893 21.9314 3.46893 22.5165 3.46893C22.5165 4.08682 22.549 4.71555 22.5056 5.32259C22.4731 5.78872 22.0939 6.03804 21.5521 6.04888C21.032 6.05972 20.5119 6.04888 19.9484 6.04888Z" fill="#DEA54F"/>
<path d="M22.5163 1.68022C21.9421 1.68022 21.4111 1.68022 20.8477 1.68022C20.8477 1.11653 20.8477 0.574526 20.8477 0C21.4003 0 21.9529 0 22.5163 0C22.5163 0.552846 22.5163 1.09485 22.5163 1.68022Z" fill="#DEA54F"/>
<path d="M45.9426 38.9919C45.3899 38.9919 44.8265 39.0028 44.2739 38.9919C43.6888 38.9811 43.3637 38.6667 43.3529 38.0705C43.342 36.954 43.342 35.8374 43.3529 34.7209C43.3637 34.103 43.6779 33.7995 44.3064 33.7995C45.3899 33.7887 46.4735 33.7887 47.5571 33.7995C48.2072 33.7995 48.5323 34.1247 48.5431 34.7643C48.5539 35.8483 48.5539 36.9323 48.5431 38.0163C48.5323 38.6559 48.2072 38.9811 47.5679 39.0028C47.5462 39.0028 47.5354 39.0028 47.5137 39.0028C46.9936 38.9919 46.4627 38.9919 45.9426 38.9919ZM45.1082 35.5556C45.1082 36.141 45.1082 36.683 45.1082 37.2358C45.6825 37.2358 46.2243 37.2358 46.7769 37.2358C46.7769 36.6613 46.7769 36.1193 46.7769 35.5556C46.2026 35.5556 45.6717 35.5556 45.1082 35.5556Z" fill="#DEA54F"/>
<path d="M36.4181 38.9919C35.8547 38.9919 35.3021 39.0028 34.7495 38.9919C34.1643 38.9811 33.8284 38.6559 33.8284 38.0814C33.8176 36.9648 33.8176 35.8483 33.8284 34.7318C33.8393 34.1356 34.1427 33.8104 34.7278 33.8104C35.8439 33.7995 36.9599 33.7995 38.076 33.8104C38.6611 33.8212 38.997 34.1356 39.0079 34.7101C39.0187 35.8266 39.0187 36.9432 39.0079 38.0597C38.997 38.6559 38.6611 38.9811 38.0435 38.9919C37.4909 39.0028 36.9491 38.9919 36.4181 38.9919ZM37.2308 37.2467C37.2308 36.683 37.2308 36.1302 37.2308 35.5665C36.6674 35.5665 36.1256 35.5665 35.5838 35.5665C35.5838 36.1518 35.5838 36.6938 35.5838 37.2467C36.1473 37.2467 36.6674 37.2467 37.2308 37.2467Z" fill="#DEA54F"/>
<path d="M39.9072 48.5096C39.9072 47.9242 39.9072 47.393 39.9072 46.8293C40.4707 46.8293 41.0016 46.8293 41.5759 46.8293C41.5759 47.3822 41.5759 47.935 41.5759 48.5096C41.0125 48.5096 40.4815 48.5096 39.9072 48.5096Z" fill="#DEA54F"/>
</g>
<defs>
<clipPath id="clip0_13_761">
<rect width="52" height="52" fill="white"/>
</clipPath>
</defs>
</svg>
