<svg width="54" height="57" viewBox="0 0 54 57" fill="none" xmlns="http://www.w3.org/2000/svg">
<g clip-path="url(#clip0_330_8286)">
<path d="M26.7909 57.0002C26.2795 56.7479 26.099 56.3471 26.099 55.783C26.129 54.3729 26.114 52.9627 26.114 51.508C25.7831 51.508 25.4672 51.4932 25.1513 51.508C24.1285 51.5823 23.1207 51.5971 22.173 51.1073C19.9017 49.9198 19.5407 47.2331 21.436 45.5854C21.9625 45.1252 22.4889 45.1104 22.88 45.526C23.2711 45.9416 23.2109 46.4315 22.6995 46.9362C22.2633 47.3518 21.9023 47.812 22.143 48.4502C22.4137 49.1479 22.9402 49.5932 23.6923 49.6526C24.4594 49.712 25.2265 49.6674 26.0388 49.6674C26.0388 47.5002 26.0388 45.3776 26.0388 43.2698C25.3318 43.2698 24.6249 43.2401 23.9329 43.2698C22.0226 43.3885 20.3229 42.9729 18.9842 41.5034C17.0438 39.3807 17.5101 36.694 19.6611 34.9573C20.0973 34.601 20.6388 34.6456 20.9847 35.0018C21.3458 35.4026 21.3157 35.9073 20.8795 36.3377C20.8494 36.3674 20.8193 36.3823 20.7892 36.412C19.9318 37.1838 19.3302 38.0745 19.7664 39.262C20.2327 40.5088 21.2104 41.2807 22.5491 41.3846C23.7073 41.4737 24.8655 41.3995 26.0538 41.3995C26.0538 38.787 26.0538 36.3081 26.0538 33.7549C25.031 33.7995 24.0232 33.9034 23.0154 33.8737C21.8572 33.844 20.6689 33.8291 19.5558 33.5768C17.9012 33.1909 16.6678 32.1073 15.7201 30.7417C14.2009 28.5596 14.4115 25.8729 16.2315 23.8096C16.5474 23.4534 16.9084 23.112 17.2845 22.8003C17.7357 22.4292 18.3073 22.4885 18.6382 22.8893C18.9691 23.2901 18.909 23.7651 18.4878 24.1807C18.1118 24.5518 17.7207 24.9081 17.4048 25.3088C16.2767 26.7784 16.2917 28.4706 17.4198 29.9252C18.4728 31.2909 19.8566 32.0627 21.6165 32.0479C23.0756 32.0331 24.5346 31.9588 26.0388 31.9143C26.0388 24.819 26.0388 17.7534 26.0388 10.7768C25.3318 10.4503 24.6098 10.2128 23.9781 9.82682C21.8722 8.50573 20.9847 5.9526 21.782 3.65182C22.5942 1.32136 24.9407 -0.192704 27.4377 0.0151082C29.9045 0.208077 31.9653 2.03386 32.3864 4.40886C32.8828 7.18464 31.2132 9.82682 28.4455 10.5542C28.0394 10.6581 27.919 10.8214 27.919 11.2221C27.9341 17.9909 27.9341 24.7596 27.919 31.5432C27.919 31.9737 28.0845 32.0627 28.4605 32.1815C30.2355 32.7159 32.0254 33.2206 33.7251 33.9182C35.2594 34.5416 36.4778 35.6252 36.9742 37.2729C37.5909 39.2768 36.8689 41.0284 35.7408 42.6612C35.455 43.062 34.9586 43.0768 34.5374 42.7948C34.1162 42.4979 34.026 42.0674 34.2667 41.5776C34.5976 40.8948 34.9736 40.2268 35.1992 39.5143C35.5452 38.3713 35.2444 37.3174 34.3268 36.5456C33.7853 36.1002 33.1836 35.6698 32.5368 35.4174C31.1831 34.8979 29.7692 34.4971 28.3853 34.037C28.265 33.9924 28.1296 34.0073 27.9491 33.9924C27.9341 34.2002 27.919 34.3784 27.919 34.5565C27.919 36.7088 27.9341 38.8612 27.904 41.0135C27.904 41.4291 28.0394 41.5627 28.4304 41.6815C29.6037 42.0674 30.8221 42.4088 31.8901 42.9729C34.5825 44.3979 34.7179 46.9956 33.0934 49.3112C32.8076 49.7268 32.3263 49.7862 31.8901 49.519C31.4388 49.2518 31.3034 48.7916 31.5441 48.3166C31.7246 47.9752 31.9352 47.6338 32.0856 47.2776C32.5068 46.2088 32.2962 45.3331 31.2884 44.769C30.2505 44.1901 29.1224 43.8041 27.904 43.2698C27.904 43.8041 27.904 44.1307 27.904 44.4721C27.904 46.1049 27.919 47.7377 27.8889 49.3705C27.8889 49.801 28.0394 49.9643 28.4455 50.1127C29.1374 50.3651 29.8745 50.6323 30.4761 51.0479C32.236 52.2651 31.8901 54.2244 30.8823 55.501C30.6115 55.8573 30.2054 55.887 29.8143 55.6791C29.4082 55.4565 29.2126 55.1299 29.3179 54.6698C29.3329 54.5807 29.3781 54.4916 29.4232 54.4174C30.3407 52.9924 29.6187 52.5026 28.4605 52.0424C28.3101 51.983 28.1446 51.9534 27.904 51.8791C27.904 52.844 27.904 53.7495 27.904 54.6549C27.904 55.026 27.8889 55.3971 27.904 55.7682C27.9491 56.3174 27.7536 56.7479 27.2722 57.0299C27.1669 57.0002 26.9714 57.0002 26.7909 57.0002ZM27.0466 1.85573C25.0611 1.84089 23.4215 3.41433 23.3914 5.32917C23.3764 7.28854 24.9859 8.90651 26.9864 8.90651C29.002 8.92135 30.6416 7.36276 30.6717 5.40339C30.7017 3.45886 29.0772 1.85573 27.0466 1.85573Z" />
<path d="M9.02616 21.672C8.27407 21.8798 7.52198 22.1767 6.73981 22.2657C6.10805 22.3399 5.43117 22.2509 4.79942 22.1173C3.94204 21.9243 3.77658 21.4345 4.19775 20.6626C4.27295 20.5142 4.36321 20.3806 4.45346 20.2173C3.92699 20.1282 3.40053 20.0688 2.90415 19.9501C1.50527 19.5938 0.662926 18.629 0.0913387 17.4118C-0.194455 16.7884 0.27184 16.061 0.963762 16.1501C4.1827 16.536 6.8451 15.1704 9.46237 13.597C11.1621 12.5727 12.8468 11.5188 14.6067 10.5985C16.517 9.604 18.5626 9.18837 20.6986 9.91572C22.0223 10.361 23.1353 11.1477 24.098 12.1423C24.2936 12.3352 24.3989 12.7063 24.3989 13.0032C24.4139 15.7345 24.4139 18.4509 24.4139 21.1821C24.4139 22.0282 23.8423 22.5329 23.1203 22.236C20.7287 21.2712 18.3821 21.6274 16.0206 22.3548C14.6819 22.7704 13.3281 23.1415 11.9443 23.4384C11.3576 23.572 10.7108 23.5126 10.0941 23.4235C9.0412 23.2603 8.84566 22.8743 9.02616 21.672ZM22.5186 20.0243C22.5186 17.7978 22.5186 15.586 22.5186 13.3743C22.5186 13.2556 22.4585 13.122 22.3682 13.0329C21.4507 12.2313 20.4429 11.6079 19.2094 11.4595C17.5398 11.2517 16.0507 11.8454 14.6518 12.6321C13.0724 13.5227 11.5381 14.5024 9.97379 15.4228C7.94315 16.6399 5.8373 17.679 3.41557 17.961C3.34036 17.9759 3.2802 18.0204 3.0997 18.1095C3.47574 18.1688 3.73145 18.2728 3.98716 18.2579C4.81446 18.1985 5.62672 18.1243 6.43897 18.0204C6.89022 17.961 7.26627 18.0353 7.50694 18.436C7.74761 18.8368 7.6724 19.2079 7.3866 19.5642C7.19106 19.8017 6.99552 20.054 6.79997 20.2915C7.10081 20.3063 7.35652 20.2767 7.58215 20.1579C8.27407 19.8165 8.95095 19.4454 9.62783 19.1188C9.83841 19.0149 10.0791 18.911 10.3047 18.8962C11.0418 18.8517 11.6133 19.6235 11.493 20.5142C11.4479 20.8704 11.3275 21.2118 11.2223 21.6274C11.5381 21.5978 11.8239 21.5978 12.0947 21.5235C12.9069 21.3157 13.7192 21.0931 14.5315 20.8407C16.3816 20.2618 18.2317 19.6978 20.2022 19.7868C20.9543 19.8462 21.7064 19.9353 22.5186 20.0243Z" />
<path d="M49.6089 20.3209C49.6239 20.3654 49.639 20.4248 49.654 20.4693C50.3459 21.6865 50.1504 22.1021 48.7515 22.3396C47.6986 22.5177 46.6908 22.3099 45.7281 21.924C45.4874 21.8349 45.2468 21.731 44.9911 21.6271C44.976 21.7013 44.9459 21.7459 44.961 21.8052C45.2618 22.9927 44.9158 23.4381 43.6523 23.5123C42.0278 23.6162 40.5537 23.0967 39.0345 22.681C37.8011 22.3545 36.5677 22.0427 35.3192 21.8201C33.9203 21.5677 32.5515 21.7756 31.2278 22.2506C30.1749 22.6217 29.6484 22.2506 29.6484 21.1373C29.6484 18.5099 29.6484 15.8677 29.6484 13.2404C29.6484 12.7357 29.7989 12.3646 30.1749 12.0232C31.8145 10.5091 33.6646 9.52946 35.9961 9.72243C37.3498 9.82633 38.6133 10.2568 39.7716 10.9248C41.6518 11.9787 43.4718 13.1068 45.322 14.2052C46.9164 15.1404 48.556 15.9568 50.4061 16.224C51.2033 16.3279 52.0156 16.2982 52.8128 16.2834C53.2339 16.2834 53.61 16.3131 53.8507 16.6842C54.1064 17.0701 54.0011 17.4412 53.8055 17.8271C53.0384 19.2967 51.8351 20.1279 50.1654 20.2615C50 20.2763 49.8345 20.2912 49.669 20.306C49.639 20.2763 49.6239 20.2912 49.6089 20.3209ZM50.9025 18.1982C50.6919 18.124 50.5866 18.0795 50.4813 18.0646C49.0824 17.9013 47.7437 17.5154 46.5103 16.8771C44.9158 16.0459 43.3966 15.0959 41.8172 14.2349C40.3431 13.4334 38.8841 12.5724 37.3348 11.9193C35.3041 11.0732 33.4239 11.5779 31.8145 13.0177C31.634 13.181 31.4986 13.4779 31.4986 13.7154C31.4685 15.3482 31.4835 16.981 31.4835 18.6138C31.4835 19.1334 31.4835 19.6381 31.4835 20.1131C32.5064 20.0388 33.4841 19.9201 34.4468 19.9201C36.4924 19.9052 38.3877 20.5881 40.3131 21.1521C41.0952 21.3748 41.8924 21.5529 42.6445 21.731C42.6445 21.0037 42.5242 20.3654 42.6746 19.7865C42.8702 18.9849 43.4568 18.8068 44.2089 19.1779C44.9459 19.5342 45.683 19.9052 46.4351 20.2615C46.6306 20.3506 46.8713 20.3951 47.2323 20.499C46.9164 20.0982 46.6306 19.8607 46.5253 19.5638C46.42 19.267 46.3749 18.8513 46.5103 18.599C46.6306 18.3763 47.0367 18.2427 47.3376 18.1537C47.5181 18.1092 47.7437 18.2131 47.9392 18.2576C48.9019 18.3912 49.8495 18.5248 50.9025 18.1982Z" />
<path d="M39.5297 27.5798C39.5297 29.6876 37.9954 31.736 35.9498 32.3595C35.3932 32.5227 34.942 32.3298 34.7464 31.8399C34.5509 31.3501 34.7464 30.9048 35.2578 30.6524C35.5587 30.504 35.8746 30.3852 36.1604 30.1923C38.1459 28.8712 38.1609 26.3329 36.1904 24.9821C35.9949 24.8485 35.7693 24.7446 35.5587 24.6259C35.0322 24.329 34.8517 23.8391 35.1074 23.3641C35.3481 22.9188 35.8294 22.7556 36.3559 22.9634C38.206 23.6907 39.5297 25.6352 39.5297 27.5798Z" />
<path d="M21.7951 54.1351C21.7801 53.0218 22.6675 52.0569 23.7806 51.9382C24.292 51.8788 24.7283 52.1757 24.8486 52.6507C24.9539 53.0812 24.6831 53.4968 24.2319 53.7195C24.0213 53.8234 23.8558 54.0015 23.6753 54.1499C23.8859 54.2687 24.0815 54.4913 24.3071 54.5062C24.8185 54.5656 25.1344 54.8179 25.1795 55.2929C25.2246 55.7976 24.8636 56.1093 24.3973 56.2429C23.179 56.5843 21.8102 55.4562 21.7951 54.1351Z" />
</g>
<defs>
<clipPath id="clip0_330_8286">
<rect width="54" height="57" fill="white"/>
</clipPath>
</defs>
</svg>
