<svg width="52" height="52" viewBox="0 0 52 52" fill="none" xmlns="http://www.w3.org/2000/svg">
<g clip-path="url(#clip0_330_8292)">
<path d="M0 46.2045C0.257292 45.2295 0.582292 44.3087 1.28646 43.5503C2.09896 42.6701 3.07396 42.1149 4.25208 41.9253C4.33333 41.9118 4.41458 41.8982 4.49583 41.8712C4.52292 41.8576 4.55 41.8441 4.63125 41.8034C4.29271 40.8691 4.03542 39.8805 3.61562 38.9732C2.53229 36.6576 3.15521 34.6534 4.80729 32.9472C6.51354 31.1732 8.65312 30.6316 10.9958 31.4034C13.3115 32.1482 14.6792 33.8139 15.1531 36.2107C15.275 36.8607 15.2344 37.4701 14.9906 38.093C14.5708 39.1493 14.2187 40.2191 13.8396 41.2889C13.7854 41.4649 13.7312 41.6409 13.6771 41.8441C16.2906 41.8441 18.85 41.8441 21.4771 41.8441C21.45 41.7086 21.4229 41.5868 21.3823 41.4649C21.0302 40.4764 20.7458 39.4607 20.3125 38.5128C19.6219 36.9691 19.9604 35.5607 20.7187 34.2066C22.0187 31.8774 24.6865 30.6857 27.2323 31.2274C29.8594 31.7826 31.85 33.9899 32.0802 36.6847C32.1073 37.0639 32.0531 37.4701 31.9312 37.8222C31.5521 38.9732 31.1187 40.1107 30.7125 41.2618C30.6448 41.4514 30.5906 41.6409 30.5229 41.8576C30.6719 41.8711 30.7667 41.8712 30.875 41.8712C33.3396 41.8712 35.8177 41.8712 38.3365 41.8712C38.2958 41.7087 38.2823 41.5868 38.2417 41.4649C37.8625 40.3951 37.524 39.3118 37.0906 38.2691C36.6844 37.3076 36.7521 36.3868 37.05 35.4524C37.5104 33.9357 38.4448 32.7711 39.799 31.9451C39.9479 31.8639 40.0833 31.7826 40.2594 31.6743C39.8396 30.8482 39.6906 30.0086 39.9885 29.1284C40.2052 28.4784 40.5979 27.9638 41.1667 27.5711C42.2906 26.7993 43.7802 26.867 44.85 27.7607C45.9604 28.6816 46.2042 30.0628 45.5135 31.6743C45.649 31.7555 45.7844 31.8368 45.9333 31.918C47.7344 33.0149 48.75 34.6128 48.9531 36.6982C48.9937 37.0639 48.9125 37.4701 48.8042 37.8357C48.3573 39.1628 47.8698 40.4764 47.3958 41.8305C47.5448 41.8711 47.6667 41.9118 47.8021 41.9389C50.2396 42.3722 52.0135 44.4305 52.0406 46.868C52.0677 49.3191 50.375 51.4045 47.951 51.9191C47.8562 51.9326 47.7615 51.9868 47.6802 52.0139C41.8844 52.0139 36.1021 52.0139 30.3198 52.0139C29.6969 51.5941 29.4937 51.1878 29.6562 50.6868C29.8323 50.1857 30.1979 49.9826 30.9698 49.9826C32.6896 49.9826 34.4229 49.9826 36.1427 49.9826C36.3323 49.9826 36.5354 49.9826 36.7927 49.9826C35.4656 47.9243 35.4927 45.9201 36.7656 43.9295C29.6021 43.9295 22.4927 43.9295 15.3427 43.9295C16.6427 45.9607 16.6156 47.9649 15.3292 49.9826C15.6 49.9826 15.776 49.9826 15.9656 49.9826C17.7802 49.9826 19.5812 49.9826 21.3958 49.9826C21.8562 49.9826 22.2083 50.1722 22.4115 50.592C22.5875 50.9712 22.5198 51.3232 22.2625 51.6347C22.1406 51.7837 21.951 51.892 21.8021 52.0139C16.0062 52.0139 10.224 52.0139 4.44167 52.0139C4.42812 52.0003 4.41458 51.9868 4.40104 51.9732C1.97708 51.4587 0.541667 50.0232 0.040625 47.667C0.040625 47.6534 0.0135417 47.6399 0 47.6264C0 47.1524 0 46.6784 0 46.2045ZM40.8281 43.8753C39.149 43.8753 37.7812 45.2295 37.7812 46.9087C37.7812 48.5743 39.1354 49.9555 40.801 49.9691C42.4937 49.9826 43.875 48.6014 43.875 46.9087C43.875 45.243 42.5073 43.8753 40.8281 43.8753ZM11.1583 49.9691C12.824 49.9826 14.2052 48.6149 14.2187 46.9493C14.2323 45.2701 12.8781 43.8889 11.2125 43.8753C9.51979 43.8618 8.125 45.2295 8.125 46.9222C8.125 48.5878 9.49271 49.9555 11.1583 49.9691ZM44.9177 49.9555C45.676 49.9555 46.3531 49.9691 47.0302 49.9555C48.5604 49.9149 49.8333 48.6962 49.9552 47.1795C50.0771 45.6628 49.0885 44.2409 47.5854 43.9701C46.7323 43.8212 45.8521 43.8753 44.8906 43.8347C46.2312 45.9201 46.2312 47.9107 44.9177 49.9555ZM7.06875 43.8753C6.31042 43.8753 5.66042 43.8618 4.99687 43.8753C3.49375 43.9159 2.26146 45.0264 2.04479 46.5159C1.84167 47.9378 2.70833 49.4274 4.13021 49.7795C5.05104 50.0097 6.03958 49.9555 7.12292 50.0368C5.76875 47.8972 5.78229 45.9201 7.06875 43.8753ZM38.9729 36.1159C41.5729 36.1159 44.1458 36.1159 46.7323 36.1159C46.3937 34.4232 44.6875 33.1097 42.8458 33.1097C41.0312 33.1097 39.3115 34.4232 38.9729 36.1159ZM29.8594 36.1295C29.6562 34.4368 27.7333 33.0149 25.7833 33.1097C24.0229 33.1909 22.1948 34.7076 22.1542 36.1295C24.7271 36.1295 27.3 36.1295 29.8594 36.1295ZM5.25417 36.1159C7.85417 36.1159 10.4271 36.1159 13.0135 36.1159C12.675 34.4232 10.9687 33.1097 9.12708 33.1097C7.3125 33.1097 5.59271 34.4232 5.25417 36.1159ZM5.51146 38.2014C5.95833 39.4607 6.37812 40.6389 6.79792 41.817C7.25833 41.817 7.66458 41.817 8.08437 41.817C8.08437 40.5982 8.08437 39.4066 8.08437 38.2014C7.23125 38.2014 6.41875 38.2014 5.51146 38.2014ZM12.7562 38.2149C11.849 38.2149 11.0094 38.2149 10.1833 38.2149C10.1833 39.4336 10.1833 40.6253 10.1833 41.817C10.6302 41.817 11.0229 41.817 11.4698 41.817C11.9031 40.6389 12.3229 39.4472 12.7562 38.2149ZM24.9573 41.8441C24.9573 40.6118 24.9573 39.4201 24.9573 38.2149C24.0906 38.2149 23.2646 38.2149 22.3844 38.2149C22.8042 39.3795 23.1969 40.5034 23.6031 41.6274C23.6437 41.7222 23.7927 41.817 23.8875 41.8305C24.2396 41.8576 24.5917 41.8441 24.9573 41.8441ZM27.0427 38.2014C27.0427 39.4336 27.0427 40.6253 27.0427 41.8441C27.4083 41.8441 27.7469 41.8576 28.0854 41.8305C28.1937 41.817 28.3562 41.7357 28.3833 41.6545C28.8031 40.517 29.1958 39.3795 29.6156 38.2014C28.7354 38.2014 27.9094 38.2014 27.0427 38.2014ZM41.8031 41.8034C41.8031 40.5847 41.8031 39.393 41.8031 38.1878C40.95 38.1878 40.124 38.1878 39.2302 38.1878C39.5417 39.068 39.8396 39.9347 40.151 40.7743C40.5573 41.9118 40.5573 41.9118 41.8031 41.8034ZM46.4885 38.2149C45.5812 38.2149 44.7417 38.2149 43.9156 38.2149C43.9156 39.4336 43.9156 40.6253 43.9156 41.817C44.3625 41.817 44.7552 41.817 45.2021 41.817C45.6219 40.6389 46.0417 39.4472 46.4885 38.2149ZM42.8865 29.0472C42.3448 29.0336 41.8844 29.467 41.8573 30.0086C41.8302 30.5639 42.2906 31.0514 42.8458 31.0649C43.401 31.0784 43.875 30.6045 43.875 30.0493C43.875 29.5076 43.4146 29.0607 42.8865 29.0472Z" />
<path d="M-0.000130211 2.73577C0.297786 2.18056 0.758203 2.00452 1.38112 2.01806C3.71029 2.04514 6.05299 2.0316 8.38216 2.01806C8.63945 2.01806 8.95091 1.90973 9.14049 1.73369C13.0947 -1.66527 19.2155 0.162852 20.6509 5.17327C20.7322 5.4441 20.9488 5.74202 21.1926 5.90452C23.603 7.52952 25.9863 9.19514 28.4509 10.7389C31.3488 12.5535 31.7957 16.0608 30.0082 18.3358C29.9947 18.3629 29.9811 18.3899 29.9676 18.4576C30.7936 19.1618 31.6197 19.8795 32.4592 20.5972C33.3124 21.3285 33.3259 21.7889 32.554 22.6285C31.4707 23.7931 30.3738 24.9441 29.304 26.1222C29.1415 26.2983 29.0197 26.542 28.9519 26.7722C28.5728 28.1129 27.3811 29.0472 25.9863 29.0472C24.6051 29.0472 23.4134 28.1129 23.0342 26.7587C22.9665 26.5285 22.8311 26.2983 22.6686 26.1087C21.5717 24.917 20.4613 23.7254 19.3509 22.5337C18.6738 21.8024 18.7009 21.3149 19.4592 20.6514C20.2447 19.9743 21.0165 19.2972 21.8426 18.6066C21.7207 18.5118 21.6395 18.417 21.5311 18.3493C19.4999 16.9951 17.4822 15.641 15.4509 14.3139C15.2613 14.192 14.977 14.1243 14.7467 14.1514C12.6478 14.3951 10.8061 13.8264 9.16758 12.4993C8.93737 12.3233 8.61237 12.1879 8.31445 12.1879C5.99883 12.1608 3.6832 12.1608 1.36758 12.1879C0.744661 12.2014 0.284245 12.0118 -0.0136719 11.4701C-0.000130211 8.55869 -0.000130211 5.64723 -0.000130211 2.73577ZM18.8905 7.12327C18.904 4.33369 16.629 2.04514 13.8394 2.01806C11.0499 2.00452 8.74778 4.26598 8.73424 7.05556C8.7207 9.87223 10.9957 12.1743 13.7988 12.1879C16.6019 12.1879 18.877 9.91285 18.8905 7.12327ZM2.07174 4.07639C2.07174 6.12119 2.07174 8.12535 2.07174 10.1295C3.8457 10.1295 5.57904 10.1295 7.36654 10.1295C6.48633 8.11181 6.48633 6.10764 7.36654 4.07639C5.57904 4.07639 3.83216 4.07639 2.07174 4.07639ZM26.0676 12.1879C24.3884 12.1608 22.9936 13.4743 22.953 15.1399C22.9124 16.8326 24.2395 18.2545 25.9322 18.2816C27.6113 18.3087 29.0061 16.9951 29.0467 15.3295C29.0874 13.6233 27.7467 12.2149 26.0676 12.1879ZM28.4238 24.0774C29.1551 23.292 29.8863 22.5066 30.6311 21.7076C29.9134 21.0847 29.2499 20.5024 28.5728 19.9472C28.4509 19.8524 28.1936 19.8254 28.0447 19.8931C26.677 20.4483 25.3092 20.4483 23.9551 19.8795C23.8332 19.8254 23.6301 19.7983 23.5488 19.866C22.8176 20.4618 22.1134 21.0847 21.3822 21.7076C22.154 22.5337 22.8717 23.3056 23.603 24.091C24.8895 22.6826 26.8394 22.466 28.4238 24.0774ZM20.8405 8.17952C20.4613 10.3462 19.3374 11.9983 17.4822 13.217C18.6467 13.9889 19.7436 14.7201 20.8947 15.492C20.9488 13.041 22.0863 11.4024 24.2801 10.4274C23.1697 9.68264 22.1134 8.97848 21.0572 8.28785C21.003 8.23369 20.9353 8.22014 20.8405 8.17952ZM27.0155 25.9733C27.0019 25.4316 26.5551 24.9847 26.0134 24.9847C25.4582 24.9847 24.9842 25.4587 24.9978 26.0139C25.0113 26.5556 25.4582 27.0024 25.9999 27.0024C26.5551 27.016 27.0155 26.542 27.0155 25.9733Z" />
<path d="M25.7005 52C25.6193 51.9458 25.538 51.8917 25.4568 51.824C25.064 51.5396 24.888 51.1604 25.037 50.6865C25.1859 50.226 25.5245 49.9688 26.0255 49.9688C26.4995 49.9823 26.8245 50.2396 26.9599 50.6729C27.1088 51.1469 26.9463 51.526 26.5401 51.8104C26.4588 51.8646 26.3776 51.9187 26.2963 51.9865C26.1068 52 25.8901 52 25.7005 52Z" />
<path d="M41.8438 46.9356C41.8302 47.4908 41.3427 47.9512 40.7875 47.9241C40.2458 47.897 39.8125 47.4366 39.8125 46.895C39.826 46.3397 40.3135 45.8793 40.8687 45.9064C41.4104 45.9335 41.8438 46.3939 41.8438 46.9356Z" />
<path d="M11.1854 47.9242C10.6302 47.9378 10.1562 47.4638 10.1562 46.9086C10.1562 46.367 10.6031 45.9201 11.1448 45.9065C11.7 45.893 12.174 46.367 12.174 46.9222C12.174 47.4638 11.7271 47.9242 11.1854 47.9242Z" />
<path d="M10.7641 7.0284C10.7912 5.36277 12.186 4.02215 13.8651 4.04923C15.5443 4.07631 16.8985 5.48465 16.8578 7.1909C16.8172 8.84298 15.4089 10.1836 13.7297 10.143C12.0641 10.1159 10.737 8.70757 10.7641 7.0284ZM14.8266 7.12319C14.8401 6.58152 14.3932 6.12111 13.8651 6.09402C13.3099 6.06694 12.8224 6.52736 12.8089 7.08257C12.7953 7.62423 13.2422 8.08465 13.7703 8.11173C14.3255 8.13882 14.813 7.6784 14.8266 7.12319Z" />
<path d="M26.0135 16.2367C25.4583 16.2503 24.9844 15.7763 24.9844 15.2211C24.9844 14.6795 25.4448 14.2326 25.9865 14.219C26.5417 14.2055 27.0156 14.6794 27.0156 15.2347C27.0021 15.7763 26.5552 16.2367 26.0135 16.2367Z" />
</g>
<defs>
<clipPath id="clip0_330_8292">
<rect width="52" height="52" fill="white"/>
</clipPath>
</defs>
</svg>
