<svg width="52" height="52" viewBox="0 0 52 52" fill="none" xmlns="http://www.w3.org/2000/svg">
<g clip-path="url(#clip0_330_8268)">
<path d="M14.3421 0C15.9775 0 17.5711 0 19.2066 0C19.4861 2.77072 19.7657 5.52745 20.0453 8.35415C20.6044 8.35415 21.1775 8.35415 21.7926 8.35415C21.7926 11.1808 21.7926 13.9516 21.7926 16.7643C23.484 16.7643 25.1195 16.7643 26.8109 16.7643C26.8109 17.8977 26.8109 18.9892 26.8109 20.1087C27.9431 20.1087 29.0195 20.1087 30.1517 20.1087C30.1517 24.6006 30.1517 29.0506 30.1517 33.5285C32.4582 33.5285 34.6947 33.5285 36.9872 33.5285C37.5464 29.0786 38.1055 24.6286 38.6646 20.1507C40.8313 20.1507 42.984 20.1507 45.1786 20.1507C45.7378 24.6006 46.2969 29.0506 46.856 33.5565C47.9883 33.5565 49.1206 33.5565 50.2808 33.5565C50.2808 39.7277 50.2808 45.8428 50.2808 52C34.6668 52 19.0388 52 3.34098 52C3.34098 51.8181 3.34098 51.6362 3.34098 51.4543C3.34098 49.0893 3.35496 46.7384 3.327 44.3735C3.327 44.1356 3.2012 43.8278 3.03345 43.6459C-1.02031 39.4058 -1.03429 32.8009 3.0055 28.5468C3.18722 28.3509 3.327 28.0011 3.327 27.7352C3.34098 21.5081 3.34098 15.2809 3.34098 9.05382C3.34098 8.84392 3.34098 8.64801 3.34098 8.39612C3.90012 8.39612 4.41733 8.39612 4.99044 8.39612C4.99044 7.26265 4.99044 6.17115 4.99044 5.05167C7.25496 5.05167 9.46356 5.05167 11.7141 5.05167C11.7141 6.14316 11.7141 7.22067 11.7141 8.34015C12.3152 8.34015 12.8743 8.34015 13.4894 8.34015C13.7829 5.55544 14.0625 2.78471 14.3421 0ZM20.1431 41.9666C22.3657 41.9666 24.6023 41.9666 26.8668 41.9666C26.8668 44.8073 26.8668 47.564 26.8668 50.3208C27.999 50.3208 29.0894 50.3208 30.2216 50.3208C30.2216 47.5221 30.2216 44.7513 30.2216 41.9946C32.4722 41.9946 34.6668 41.9946 36.9173 41.9946C36.9173 44.7933 36.9173 47.564 36.9173 50.3208C38.0636 50.3208 39.1539 50.3208 40.2722 50.3208C40.2722 47.5221 40.2722 44.7653 40.2722 42.0086C42.5227 42.0086 44.7173 42.0086 46.9818 42.0086C46.9818 44.8073 46.9818 47.578 46.9818 50.3348C47.555 50.3348 48.0722 50.3348 48.6033 50.3348C48.6033 46.4166 48.6033 42.5264 48.6033 38.6362C39.5453 38.6362 30.5292 38.6362 21.5689 38.6362C21.2335 39.4758 20.9119 40.2734 20.5765 41.0571C20.4507 41.3649 20.2969 41.6728 20.1431 41.9806C19.6818 42.5124 19.2066 43.0441 18.7872 43.6039C18.6195 43.8278 18.4657 44.1356 18.4517 44.4155C18.4238 45.9548 18.4378 47.4941 18.4378 49.0194C18.4378 49.4532 18.4378 49.887 18.4378 50.3208C19.0249 50.3208 19.556 50.3208 20.1292 50.3208C20.1431 47.5081 20.1431 44.7374 20.1431 41.9666ZM28.4883 21.8439C23.4421 21.8439 18.4378 21.8439 13.4335 21.8439C13.4335 23.0614 13.4335 24.2508 13.4335 25.4403C17.627 26.6437 20.3249 29.3305 21.513 33.5285C23.8335 33.5285 26.1539 33.5285 28.4883 33.5285C28.4883 29.6383 28.4883 25.7621 28.4883 21.8439ZM10.0926 10.0893C10.0926 15.141 10.0926 20.1507 10.0926 25.1604C10.6517 25.1604 11.1829 25.1604 11.756 25.1604C11.756 23.4672 11.756 21.8159 11.756 20.1367C12.8883 20.1367 13.9646 20.1367 15.0969 20.1367C15.0969 19.0032 15.0969 17.9117 15.0969 16.7643C16.8023 16.7643 18.4517 16.7643 20.1012 16.7643C20.1012 14.5113 20.1012 12.3143 20.1012 10.0893C16.7603 10.0893 13.4474 10.0893 10.0926 10.0893ZM16.7464 50.3348C16.7464 48.6416 16.7464 47.0043 16.7464 45.3111C12.8324 47.564 8.94636 47.564 5.06034 45.3251C5.06034 47.0323 5.06034 48.6835 5.06034 50.3348C8.97431 50.3348 12.8464 50.3348 16.7464 50.3348ZM45.1786 33.5425C44.8292 30.7578 44.4797 27.9871 44.1302 25.2024C42.6625 25.2024 41.2227 25.2024 39.741 25.2024C39.3915 27.9871 39.0421 30.7438 38.6926 33.5425C40.8593 33.5425 42.998 33.5425 45.1786 33.5425ZM48.6173 35.2777C39.6571 35.2777 30.7388 35.2777 21.8206 35.2777C21.8206 35.8375 21.8206 36.3692 21.8206 36.901C30.7668 36.901 39.6851 36.901 48.6173 36.901C48.6173 36.3412 48.6173 35.8235 48.6173 35.2777ZM45.2485 50.3348C45.2485 48.0818 45.2485 45.8708 45.2485 43.6878C44.1163 43.6878 43.0399 43.6878 41.9636 43.6878C41.9636 45.9268 41.9636 48.1238 41.9636 50.3348C43.0679 50.3348 44.1442 50.3348 45.2485 50.3348ZM35.2119 43.6738C34.0797 43.6738 32.9894 43.6738 31.899 43.6738C31.899 45.9128 31.899 48.1238 31.899 50.3208C33.0173 50.3208 34.1076 50.3208 35.2119 50.3208C35.2119 48.0958 35.2119 45.9128 35.2119 43.6738ZM21.8485 43.6599C21.8485 45.9128 21.8485 48.1098 21.8485 50.3068C22.9668 50.3068 24.0571 50.3068 25.1335 50.3068C25.1335 48.0678 25.1335 45.8708 25.1335 43.6599C24.0292 43.6599 22.9528 43.6599 21.8485 43.6599ZM14.2861 35.2217C14.1464 34.0883 14.0206 32.9968 13.8947 31.9053C11.8539 31.9053 9.92485 31.9053 7.91195 31.9053C7.78614 33.0108 7.66034 34.1023 7.53453 35.2217C9.827 35.2217 12.0076 35.2217 14.2861 35.2217ZM13.8947 40.2734C14.0206 39.1539 14.1464 38.0764 14.2722 36.9709C11.9797 36.9709 9.78507 36.9709 7.52055 36.9709C7.66034 38.1044 7.78614 39.1819 7.91195 40.2734C9.93883 40.2734 11.8679 40.2734 13.8947 40.2734ZM17.6969 1.69322C17.0539 1.69322 16.4668 1.69322 15.8517 1.69322C15.6281 3.91819 15.4044 6.11518 15.1808 8.34015C16.2571 8.34015 17.2915 8.34015 18.3539 8.34015C18.1302 6.11518 17.9206 3.91819 17.6969 1.69322ZM25.1474 18.4855C22.3378 18.4855 19.57 18.4855 16.8023 18.4855C16.8023 19.0452 16.8023 19.577 16.8023 20.0947C19.598 20.0947 22.3657 20.0947 25.1474 20.0947C25.1474 19.549 25.1474 19.0452 25.1474 18.4855ZM1.74743 35.2078C3.15926 35.2078 4.51517 35.2078 5.85711 35.2078C5.96894 34.0883 6.08077 33.0248 6.19259 31.8913C5.08829 31.8913 3.98399 31.8773 2.89367 31.9053C2.78184 31.9053 2.62808 32.0592 2.57216 32.1712C2.11087 33.1227 1.81733 34.1302 1.74743 35.2078ZM6.19259 40.2874C6.06679 39.1259 5.95496 38.0344 5.84313 36.9569C4.45926 36.9569 3.11733 36.9569 1.73345 36.9569C1.80335 38.0764 2.11087 39.098 2.60012 40.0775C2.65604 40.1755 2.79582 40.2874 2.90765 40.2874C3.99797 40.2874 5.07431 40.2874 6.19259 40.2874ZM20.227 36.9569C18.6614 36.9569 17.3055 36.9569 15.9636 36.9569C15.8517 38.0764 15.7399 39.1539 15.6281 40.2874C16.7324 40.2874 17.7947 40.3014 18.8571 40.2734C18.9829 40.2734 19.1926 40.1335 19.2345 40.0075C19.57 39.028 19.8775 38.0344 20.227 36.9569ZM15.6141 31.8913C15.7259 33.0527 15.8378 34.1302 15.9496 35.2078C17.3474 35.2078 18.6894 35.2078 20.213 35.2078C19.8636 34.1302 19.556 33.1367 19.2206 32.1572C19.1786 32.0312 18.9689 31.9053 18.8431 31.8913C17.7947 31.8773 16.7324 31.8913 15.6141 31.8913ZM13.4055 30.1841C13.0421 29.1066 12.6507 28.085 11.8259 27.2874C11.1969 26.6857 10.5958 26.6857 9.98077 27.2734C9.14206 28.0571 8.76464 29.1066 8.38722 30.1841C10.0926 30.1841 11.7281 30.1841 13.4055 30.1841ZM8.38722 41.9806C8.76464 43.0861 9.15604 44.1076 9.98077 44.8913C10.5539 45.437 11.113 45.479 11.6722 45.0172C12.6227 44.2336 13.0281 43.1281 13.4195 41.9806C11.7141 41.9806 10.0926 41.9806 8.38722 41.9806ZM8.37324 23.5231C7.24098 23.5231 6.15066 23.5231 5.07431 23.5231C5.07431 24.6426 5.07431 25.7341 5.07431 26.7696C6.17862 26.3079 7.25496 25.8461 8.37324 25.3703C8.37324 24.8245 8.37324 24.1948 8.37324 23.5231ZM39.9507 23.4532C41.3066 23.4532 42.5926 23.4532 43.9206 23.4532C43.8507 22.8934 43.7808 22.3617 43.7109 21.8439C42.4947 21.8439 41.3345 21.8439 40.1743 21.8439C40.0904 22.3897 40.0205 22.9074 39.9507 23.4532ZM6.73776 6.7169C6.73776 7.29064 6.73776 7.8084 6.73776 8.34015C7.85604 8.34015 8.94636 8.34015 10.0227 8.34015C10.0227 7.78041 10.0227 7.24865 10.0227 6.7169C8.9184 6.7169 7.84206 6.7169 6.73776 6.7169ZM5.04636 11.6986C6.19259 11.6986 7.28292 11.6986 8.35926 11.6986C8.35926 11.1389 8.35926 10.6211 8.35926 10.0893C7.24098 10.0893 6.15066 10.0893 5.04636 10.0893C5.04636 10.6351 5.04636 11.1529 5.04636 11.6986ZM8.35926 20.1647C7.227 20.1647 6.13668 20.1647 5.07431 20.1647C5.07431 20.7384 5.07431 21.2562 5.07431 21.774C6.19259 21.774 7.26894 21.774 8.35926 21.774C8.35926 21.2422 8.35926 20.7244 8.35926 20.1647ZM5.04636 18.4155C6.17862 18.4155 7.26894 18.4155 8.35926 18.4155C8.35926 17.8558 8.35926 17.338 8.35926 16.8062C7.24098 16.8062 6.16464 16.8062 5.04636 16.8062C5.04636 17.352 5.04636 17.8698 5.04636 18.4155ZM5.06034 15.071C6.19259 15.071 7.26894 15.071 8.35926 15.071C8.35926 14.5113 8.35926 13.9795 8.35926 13.4618C7.24098 13.4618 6.15066 13.4618 5.06034 13.4618C5.06034 14.0075 5.06034 14.5253 5.06034 15.071ZM3.80227 30.2121C4.73883 30.2121 5.5356 30.2121 6.33238 30.1981C6.44421 30.1981 6.62593 30.1281 6.66786 30.0301C7.00335 29.1905 7.32485 28.3369 7.66034 27.4553C6.15066 28.0431 4.90657 28.9107 3.80227 30.2121ZM18.0184 30.2121C16.8861 28.9107 15.656 28.0151 14.1464 27.4833C14.4818 28.3369 14.7754 29.1346 15.0969 29.9182C15.1528 30.0441 15.3206 30.2121 15.4324 30.2121C16.2431 30.226 17.0679 30.2121 18.0184 30.2121ZM7.66034 44.7094C7.32485 43.8278 7.00335 42.9882 6.68184 42.1485C6.65388 42.0646 6.5141 41.9666 6.41625 41.9666C5.59152 41.9526 4.76679 41.9526 3.81625 41.9526C4.90657 43.268 6.16464 44.1356 7.66034 44.7094ZM14.1464 44.7234C15.656 44.1216 16.9281 43.282 17.9904 41.9666C17.0818 41.9666 16.2851 41.9526 15.4883 41.9806C15.3625 41.9806 15.1808 42.1206 15.1249 42.2325C14.7754 43.0301 14.4818 43.8418 14.1464 44.7234Z" />
<path d="M41.0413 18.4292C40.524 18.4292 40.0068 18.4292 39.4197 18.4292C39.4197 18.2053 39.4197 17.9954 39.4197 17.7715C39.4058 17.0858 39.1122 16.778 38.4273 16.778C36.5122 16.778 34.5832 16.792 32.6681 16.764C31.438 16.75 30.4316 15.8544 30.2359 14.637C30.0402 13.4895 30.7391 12.2861 31.8574 11.8942C32.109 11.7963 32.3886 11.7543 32.6821 11.6843C32.0391 10.7048 31.7316 9.65527 31.9552 8.4938C32.3047 6.63266 33.7445 5.23331 35.6176 5.05139C36.5821 4.95344 37.5606 5.0374 38.5671 5.0374C38.5671 5.58315 38.5671 6.10091 38.5671 6.68864C37.7423 6.68864 36.9176 6.67464 36.0929 6.68864C34.9606 6.70263 34.0101 7.4163 33.6886 8.45182C33.1993 10.0331 34.3316 11.6423 35.981 11.7123C36.5542 11.7403 37.1273 11.7123 37.7283 11.7123C37.7283 12.2721 37.7283 12.7898 37.7283 13.3915C37.5606 13.3915 37.3789 13.3915 37.1972 13.3915C35.7993 13.3915 34.4015 13.3915 33.0036 13.3915C32.2907 13.3915 31.8993 13.6854 31.8993 14.2172C31.8853 14.7629 32.2907 15.0708 33.0316 15.0708C34.7649 15.0708 36.4982 15.1407 38.2176 15.0568C39.923 14.9868 41.4187 16.2602 41.0413 18.4292Z" />
<path d="M46.1282 8.33985C46.9808 8.38183 47.8056 8.35384 48.5884 8.47978C50.6991 8.84361 52.1529 10.7747 51.9851 12.9157C51.8174 15.0288 50.0561 16.722 47.9174 16.778C47.1626 16.7919 46.4217 16.778 45.6669 16.778C44.6884 16.778 44.4507 17.0158 44.4507 17.9674C44.4507 18.1073 44.4507 18.2473 44.4507 18.4572C44.1572 18.4572 43.8776 18.4572 43.612 18.4572C43.3464 18.4572 43.0948 18.4572 42.8432 18.4572C42.4798 16.4841 43.612 15.0987 45.555 15.0987C46.3099 15.0987 47.0507 15.1127 47.8056 15.0987C49.2174 15.0707 50.3077 13.9792 50.3217 12.6079C50.3357 11.2085 49.2314 10.089 47.7916 10.075C46.7013 10.0611 45.597 10.075 44.4507 10.075C44.4507 9.62725 44.4647 9.23543 44.4507 8.84361C44.4228 7.62617 43.5421 6.74458 42.312 6.73059C41.655 6.71659 40.9841 6.73059 40.2852 6.73059C40.2852 6.17085 40.2852 5.63909 40.2852 5.10734C41.1798 5.10734 42.0744 4.99539 42.9411 5.13532C44.6045 5.38721 45.6389 6.43672 46.0303 8.07397C46.0722 8.12994 46.1002 8.24189 46.1282 8.33985Z" />
<path d="M26.8107 30.2402C26.8107 30.8 26.8107 31.3177 26.8107 31.8635C26.2655 31.8635 25.7483 31.8635 25.2031 31.8635C25.2031 31.3457 25.2031 30.814 25.2031 30.2402C25.7203 30.2402 26.2515 30.2402 26.8107 30.2402Z" />
<path d="M23.4552 30.2402C23.4552 30.786 23.4552 31.3038 23.4552 31.8495C22.924 31.8495 22.4068 31.8495 21.8477 31.8495C21.8477 31.3317 21.8477 30.8 21.8477 30.2402C22.3649 30.2402 22.8821 30.2402 23.4552 30.2402Z" />
<path d="M26.797 28.5048C26.2518 28.5048 25.7346 28.5048 25.1895 28.5048C25.1895 27.973 25.1895 27.4553 25.1895 26.8955C25.7067 26.8955 26.2378 26.8955 26.797 26.8955C26.797 27.3993 26.797 27.931 26.797 28.5048Z" />
<path d="M21.834 28.4911C21.834 27.9453 21.834 27.4276 21.834 26.8818C22.3791 26.8818 22.9103 26.8818 23.4695 26.8818C23.4695 27.4136 23.4695 27.9313 23.4695 28.4911C22.9383 28.4911 22.4071 28.4911 21.834 28.4911Z" />
<path d="M26.8107 23.5229C26.8107 24.0827 26.8107 24.6005 26.8107 25.1322C26.2655 25.1322 25.7623 25.1322 25.2031 25.1322C25.2031 24.6144 25.2031 24.0827 25.2031 23.5229C25.7203 23.5229 26.2515 23.5229 26.8107 23.5229Z" />
<path d="M21.8477 23.5093C22.4068 23.5093 22.924 23.5093 23.4552 23.5093C23.4552 24.055 23.4552 24.5588 23.4552 25.1185C22.938 25.1185 22.4068 25.1185 21.8477 25.1185C21.8477 24.6148 21.8477 24.083 21.8477 23.5093Z" />
<path d="M18.4785 25.1464C18.4785 24.6006 18.4785 24.0829 18.4785 23.5371C19.0097 23.5371 19.5409 23.5371 20.1 23.5371C20.1 24.0689 20.1 24.6006 20.1 25.1464C19.5688 25.1464 19.0516 25.1464 18.4785 25.1464Z" />
<path d="M16.7465 23.5229C16.7465 24.0547 16.7465 24.5725 16.7465 25.1322C16.2293 25.1322 15.6981 25.1322 15.125 25.1322C15.125 24.6144 15.125 24.0827 15.125 23.5229C15.6702 23.5229 16.1874 23.5229 16.7465 23.5229Z" />
</g>
<defs>
<clipPath id="clip0_330_8268">
<rect width="52" height="52" fill="white"/>
</clipPath>
</defs>
</svg>
