<svg width="22" height="22" viewBox="0 0 22 22" fill="none" xmlns="http://www.w3.org/2000/svg">
<path fill-rule="evenodd" clip-rule="evenodd" d="M9.79738 0.00335426C10.0311 0.00298851 10.2825 0.00310133 10.5538 0.00322308L11.001 0.00335426C14.5833 0.00335426 15.0079 0.0162121 16.4225 0.0805011C17.7306 0.140318 18.4406 0.358901 18.9136 0.542544C19.5397 0.785725 19.9861 1.07642 20.4554 1.54601C20.925 2.0156 21.2157 2.46283 21.4594 3.08895C21.6431 3.56134 21.8619 4.27131 21.9215 5.57946C21.9858 6.99382 21.9997 7.41868 21.9997 10.9993C21.9997 14.5799 21.9858 15.0048 21.9215 16.4192C21.8616 17.7273 21.6431 18.4373 21.4594 18.9097C21.2162 19.5358 20.925 19.9816 20.4554 20.4509C19.9858 20.9205 19.54 21.2112 18.9136 21.4544C18.4412 21.6389 17.7306 21.8569 16.4225 21.9167C15.0081 21.981 14.5833 21.995 11.001 21.995C7.4184 21.995 6.99381 21.981 5.57945 21.9167C4.27131 21.8563 3.56133 21.6378 3.08811 21.4541C2.46199 21.2109 2.01476 20.9202 1.54517 20.4506C1.07558 19.9811 0.784883 19.5349 0.541143 18.9085C0.3575 18.4362 0.138637 17.7262 0.0791001 16.418C0.014811 15.0037 0.00195312 14.5788 0.00195312 10.996C0.00195312 7.41309 0.014811 6.99046 0.0791001 5.5761C0.138917 4.26796 0.3575 3.55798 0.541143 3.08504C0.784324 2.45892 1.07558 2.01169 1.54517 1.5421C2.01476 1.07251 2.46199 0.781812 3.08811 0.538072C3.56105 0.35359 4.27131 0.135566 5.57945 0.0754699C6.81716 0.0195663 7.29681 0.00279521 9.79738 0V0.00335426ZM18.1633 2.23175C17.2745 2.23175 16.5533 2.95207 16.5533 3.84121C16.5533 4.73008 17.2745 5.45124 18.1633 5.45124C19.0522 5.45124 19.7734 4.73008 19.7734 3.84121C19.7734 2.95235 19.0522 2.23119 18.1633 2.23119V2.23175ZM4.11113 11.0032C4.11113 7.19823 7.19601 4.11324 11.001 4.1131C14.806 4.1131 17.8902 7.19814 17.8902 11.0032C17.8902 14.8083 14.8063 17.8919 11.0012 17.8919C7.19617 17.8919 4.11113 14.8083 4.11113 11.0032Z"/>
<path d="M10.9996 6.53027C13.4695 6.53027 15.4719 8.53246 15.4719 11.0026C15.4719 13.4724 13.4695 15.4748 10.9996 15.4748C8.52953 15.4748 6.52734 13.4724 6.52734 11.0026C6.52734 8.53246 8.52953 6.53027 10.9996 6.53027Z"/>
</svg>
