<svg width="123" height="145" viewBox="0 0 123 145" fill="none" xmlns="http://www.w3.org/2000/svg">
<g opacity="0.6" clip-path="url(#clip0_330_8828)">
<path d="M105.094 91.0905V95.7222H103.532V92.2683H102.738V91.0905H105.094ZM107.76 95.828C107.35 95.828 106.986 95.7332 106.668 95.5435C106.355 95.3494 106.108 95.0715 105.927 94.7098C105.751 94.3437 105.662 93.9092 105.662 93.4064C105.662 92.9035 105.751 92.4712 105.927 92.1095C106.108 91.7434 106.355 91.4655 106.668 91.2758C106.986 91.0817 107.35 90.9847 107.76 90.9847C108.17 90.9847 108.532 91.0817 108.845 91.2758C109.163 91.4655 109.41 91.7434 109.586 92.1095C109.767 92.4712 109.857 92.9035 109.857 93.4064C109.857 93.9092 109.767 94.3437 109.586 94.7098C109.41 95.0715 109.163 95.3494 108.845 95.5435C108.532 95.7332 108.17 95.828 107.76 95.828ZM107.76 94.5775C108.113 94.5775 108.289 94.1871 108.289 93.4064C108.289 92.6256 108.113 92.2352 107.76 92.2352C107.407 92.2352 107.231 92.6256 107.231 93.4064C107.231 94.1871 107.407 94.5775 107.76 94.5775ZM112.341 95.828C111.931 95.828 111.567 95.7332 111.249 95.5435C110.936 95.3494 110.689 95.0715 110.508 94.7098C110.332 94.3437 110.244 93.9092 110.244 93.4064C110.244 92.9035 110.332 92.4712 110.508 92.1095C110.689 91.7434 110.936 91.4655 111.249 91.2758C111.567 91.0817 111.931 90.9847 112.341 90.9847C112.751 90.9847 113.113 91.0817 113.426 91.2758C113.744 91.4655 113.991 91.7434 114.167 92.1095C114.348 92.4712 114.439 92.9035 114.439 93.4064C114.439 93.9092 114.348 94.3437 114.167 94.7098C113.991 95.0715 113.744 95.3494 113.426 95.5435C113.113 95.7332 112.751 95.828 112.341 95.828ZM112.341 94.5775C112.694 94.5775 112.871 94.1871 112.871 93.4064C112.871 92.6256 112.694 92.2352 112.341 92.2352C111.988 92.2352 111.812 92.6256 111.812 93.4064C111.812 94.1871 111.988 94.5775 112.341 94.5775ZM115.97 93.6049C115.608 93.6049 115.312 93.4902 115.083 93.2608C114.854 93.0314 114.739 92.716 114.739 92.3146C114.739 92.0455 114.792 91.814 114.898 91.6199C115.004 91.4258 115.149 91.278 115.334 91.1766C115.524 91.0751 115.736 91.0244 115.97 91.0244C116.203 91.0244 116.413 91.0751 116.598 91.1766C116.788 91.278 116.936 91.4258 117.041 91.6199C117.147 91.814 117.2 92.0455 117.2 92.3146C117.2 92.716 117.086 93.0314 116.856 93.2608C116.627 93.4902 116.331 93.6049 115.97 93.6049ZM118.689 91.0905H119.807L116.644 95.7222H115.526L118.689 91.0905ZM115.97 92.8903C116.053 92.8903 116.122 92.8462 116.175 92.7579C116.232 92.6653 116.261 92.5175 116.261 92.3146C116.261 92.1117 116.232 91.9661 116.175 91.8779C116.122 91.7853 116.053 91.739 115.97 91.739C115.886 91.739 115.815 91.7853 115.758 91.8779C115.705 91.9661 115.678 92.1117 115.678 92.3146C115.678 92.5175 115.705 92.6653 115.758 92.7579C115.815 92.8462 115.886 92.8903 115.97 92.8903ZM119.364 95.7883C119.002 95.7883 118.707 95.6736 118.477 95.4443C118.248 95.2149 118.133 94.8995 118.133 94.4981C118.133 94.229 118.186 93.9974 118.292 93.8034C118.398 93.6093 118.543 93.4615 118.729 93.36C118.918 93.2586 119.13 93.2079 119.364 93.2079C119.598 93.2079 119.807 93.2586 119.992 93.36C120.182 93.4615 120.33 93.6093 120.436 93.8034C120.542 93.9974 120.595 94.229 120.595 94.4981C120.595 94.8995 120.48 95.2149 120.251 95.4443C120.021 95.6736 119.726 95.7883 119.364 95.7883ZM119.364 95.0737C119.448 95.0737 119.516 95.0296 119.569 94.9414C119.626 94.8488 119.655 94.701 119.655 94.4981C119.655 94.2952 119.626 94.1496 119.569 94.0614C119.516 93.9688 119.448 93.9225 119.364 93.9225C119.28 93.9225 119.21 93.9688 119.152 94.0614C119.099 94.1496 119.073 94.2952 119.073 94.4981C119.073 94.701 119.099 94.8488 119.152 94.9414C119.21 95.0296 119.28 95.0737 119.364 95.0737Z" fill="white"/>
<path d="M81.3627 108.513C81.5612 108.637 81.7134 108.789 81.8193 108.97C81.9296 109.146 81.9847 109.349 81.9847 109.578C81.9847 109.874 81.8965 110.134 81.72 110.359C81.548 110.584 81.3032 110.758 80.9856 110.882C80.6724 111.001 80.3129 111.06 79.9071 111.06C79.5013 111.06 79.1396 111.001 78.822 110.882C78.5088 110.758 78.264 110.584 78.0875 110.359C77.9155 110.134 77.8295 109.874 77.8295 109.578C77.8295 109.349 77.8824 109.146 77.9883 108.97C78.0986 108.789 78.2529 108.637 78.4514 108.513C78.1471 108.27 77.9949 107.966 77.9949 107.6C77.9949 107.322 78.0743 107.079 78.2331 106.872C78.3963 106.665 78.6213 106.504 78.908 106.389C79.1991 106.274 79.5321 106.217 79.9071 106.217C80.282 106.217 80.6129 106.274 80.8996 106.389C81.1907 106.504 81.4157 106.665 81.5745 106.872C81.7377 107.079 81.8193 107.322 81.8193 107.6C81.8193 107.966 81.6671 108.27 81.3627 108.513ZM79.9071 107.269C79.7968 107.269 79.7064 107.304 79.6358 107.375C79.5696 107.446 79.5366 107.543 79.5366 107.666C79.5366 107.79 79.5696 107.887 79.6358 107.957C79.7064 108.028 79.7968 108.063 79.9071 108.063C80.0174 108.063 80.1056 108.028 80.1718 107.957C80.2423 107.887 80.2776 107.79 80.2776 107.666C80.2776 107.543 80.2423 107.446 80.1718 107.375C80.1056 107.304 80.0174 107.269 79.9071 107.269ZM79.9071 110.008C80.0571 110.008 80.1784 109.964 80.271 109.876C80.368 109.788 80.4166 109.671 80.4166 109.525C80.4166 109.38 80.368 109.263 80.271 109.175C80.1784 109.087 80.0571 109.042 79.9071 109.042C79.7571 109.042 79.6336 109.087 79.5366 109.175C79.4439 109.263 79.3976 109.38 79.3976 109.525C79.3976 109.671 79.4439 109.788 79.5366 109.876C79.6336 109.964 79.7571 110.008 79.9071 110.008ZM84.4377 111.06C84.0275 111.06 83.6636 110.966 83.346 110.776C83.0328 110.582 82.7858 110.304 82.6049 109.942C82.4285 109.576 82.3402 109.142 82.3402 108.639C82.3402 108.136 82.4285 107.704 82.6049 107.342C82.7858 106.976 83.0328 106.698 83.346 106.508C83.6636 106.314 84.0275 106.217 84.4377 106.217C84.8479 106.217 85.2096 106.314 85.5228 106.508C85.8404 106.698 86.0874 106.976 86.2639 107.342C86.4447 107.704 86.5352 108.136 86.5352 108.639C86.5352 109.142 86.4447 109.576 86.2639 109.942C86.0874 110.304 85.8404 110.582 85.5228 110.776C85.2096 110.966 84.8479 111.06 84.4377 111.06ZM84.4377 109.81C84.7906 109.81 84.967 109.42 84.967 108.639C84.967 107.858 84.7906 107.468 84.4377 107.468C84.0848 107.468 83.9084 107.858 83.9084 108.639C83.9084 109.42 84.0848 109.81 84.4377 109.81ZM88.0661 108.837C87.7044 108.837 87.4089 108.723 87.1795 108.493C86.9501 108.264 86.8354 107.948 86.8354 107.547C86.8354 107.278 86.8884 107.046 86.9942 106.852C87.1001 106.658 87.2457 106.51 87.4309 106.409C87.6206 106.308 87.8323 106.257 88.0661 106.257C88.2999 106.257 88.5094 106.308 88.6947 106.409C88.8844 106.51 89.0322 106.658 89.138 106.852C89.2439 107.046 89.2968 107.278 89.2968 107.547C89.2968 107.948 89.1821 108.264 88.9528 108.493C88.7234 108.723 88.4278 108.837 88.0661 108.837ZM90.7856 106.323H91.9038L88.741 110.955H87.6228L90.7856 106.323ZM88.0661 108.123C88.1499 108.123 88.2183 108.079 88.2712 107.99C88.3286 107.898 88.3573 107.75 88.3573 107.547C88.3573 107.344 88.3286 107.199 88.2712 107.11C88.2183 107.018 88.1499 106.971 88.0661 106.971C87.9823 106.971 87.9117 107.018 87.8544 107.11C87.8015 107.199 87.775 107.344 87.775 107.547C87.775 107.75 87.8015 107.898 87.8544 107.99C87.9117 108.079 87.9823 108.123 88.0661 108.123ZM91.4604 111.021C91.0987 111.021 90.8032 110.906 90.5738 110.677C90.3444 110.447 90.2298 110.132 90.2298 109.731C90.2298 109.461 90.2827 109.23 90.3886 109.036C90.4944 108.842 90.64 108.694 90.8253 108.592C91.0149 108.491 91.2267 108.44 91.4604 108.44C91.6942 108.44 91.9038 108.491 92.089 108.592C92.2787 108.694 92.4265 108.842 92.5323 109.036C92.6382 109.23 92.6911 109.461 92.6911 109.731C92.6911 110.132 92.5764 110.447 92.3471 110.677C92.1177 110.906 91.8222 111.021 91.4604 111.021ZM91.4604 110.306C91.5443 110.306 91.6126 110.262 91.6656 110.174C91.7229 110.081 91.7516 109.933 91.7516 109.731C91.7516 109.528 91.7229 109.382 91.6656 109.294C91.6126 109.201 91.5443 109.155 91.4604 109.155C91.3766 109.155 91.3061 109.201 91.2487 109.294C91.1958 109.382 91.1693 109.528 91.1693 109.731C91.1693 109.933 91.1958 110.081 91.2487 110.174C91.3061 110.262 91.3766 110.306 91.4604 110.306Z" fill="white"/>
<path d="M58.0461 124.007C58.4034 124.096 58.6769 124.257 58.8666 124.49C59.0607 124.72 59.1577 124.998 59.1577 125.324C59.1577 125.602 59.0805 125.862 58.9261 126.105C58.7761 126.343 58.5424 126.537 58.2248 126.687C57.9072 126.837 57.5124 126.912 57.0404 126.912C56.714 126.912 56.3876 126.877 56.0611 126.806C55.7391 126.736 55.4568 126.632 55.2142 126.495L55.7435 125.344C55.9332 125.454 56.1361 125.538 56.3523 125.595C56.5728 125.653 56.7845 125.681 56.9875 125.681C57.1683 125.681 57.3139 125.65 57.4242 125.589C57.5344 125.527 57.5896 125.439 57.5896 125.324C57.5896 125.112 57.4065 125.006 57.0404 125.006H56.425V124.047L57.1066 123.352H55.4524V122.175H58.9063V123.134L58.0461 124.007ZM61.6075 126.912C61.1973 126.912 60.8334 126.817 60.5158 126.628C60.2026 126.433 59.9556 126.156 59.7747 125.794C59.5983 125.428 59.5101 124.993 59.5101 124.49C59.5101 123.987 59.5983 123.555 59.7747 123.193C59.9556 122.827 60.2026 122.549 60.5158 122.36C60.8334 122.166 61.1973 122.069 61.6075 122.069C62.0178 122.069 62.3795 122.166 62.6927 122.36C63.0103 122.549 63.2573 122.827 63.4337 123.193C63.6146 123.555 63.705 123.987 63.705 124.49C63.705 124.993 63.6146 125.428 63.4337 125.794C63.2573 126.156 63.0103 126.433 62.6927 126.628C62.3795 126.817 62.0178 126.912 61.6075 126.912ZM61.6075 125.661C61.9604 125.661 62.1369 125.271 62.1369 124.49C62.1369 123.71 61.9604 123.319 61.6075 123.319C61.2547 123.319 61.0782 123.71 61.0782 124.49C61.0782 125.271 61.2547 125.661 61.6075 125.661ZM65.236 124.689C64.8743 124.689 64.5787 124.574 64.3494 124.345C64.12 124.115 64.0053 123.8 64.0053 123.399C64.0053 123.13 64.0582 122.898 64.1641 122.704C64.27 122.51 64.4155 122.362 64.6008 122.261C64.7905 122.159 65.0022 122.108 65.236 122.108C65.4698 122.108 65.6793 122.159 65.8646 122.261C66.0542 122.362 66.202 122.51 66.3079 122.704C66.4137 122.898 66.4667 123.13 66.4667 123.399C66.4667 123.8 66.352 124.115 66.1226 124.345C65.8932 124.574 65.5977 124.689 65.236 124.689ZM67.9554 122.175H69.0736L65.9109 126.806H64.7927L67.9554 122.175ZM65.236 123.974C65.3198 123.974 65.3882 123.93 65.4411 123.842C65.4984 123.749 65.5271 123.602 65.5271 123.399C65.5271 123.196 65.4984 123.05 65.4411 122.962C65.3882 122.869 65.3198 122.823 65.236 122.823C65.1522 122.823 65.0816 122.869 65.0242 122.962C64.9713 123.05 64.9448 123.196 64.9448 123.399C64.9448 123.602 64.9713 123.749 65.0242 123.842C65.0816 123.93 65.1522 123.974 65.236 123.974ZM68.6303 126.872C68.2686 126.872 67.973 126.758 67.7437 126.528C67.5143 126.299 67.3996 125.983 67.3996 125.582C67.3996 125.313 67.4525 125.081 67.5584 124.887C67.6643 124.693 67.8098 124.545 67.9951 124.444C68.1848 124.343 68.3965 124.292 68.6303 124.292C68.8641 124.292 69.0736 124.343 69.2589 124.444C69.4485 124.545 69.5963 124.693 69.7022 124.887C69.808 125.081 69.861 125.313 69.861 125.582C69.861 125.983 69.7463 126.299 69.5169 126.528C69.2875 126.758 68.992 126.872 68.6303 126.872ZM68.6303 126.158C68.7141 126.158 68.7825 126.114 68.8354 126.025C68.8928 125.933 68.9214 125.785 68.9214 125.582C68.9214 125.379 68.8928 125.234 68.8354 125.145C68.7825 125.053 68.7141 125.006 68.6303 125.006C68.5465 125.006 68.4759 125.053 68.4186 125.145C68.3656 125.234 68.3392 125.379 68.3392 125.582C68.3392 125.785 68.3656 125.933 68.4186 126.025C68.4759 126.114 68.5465 126.158 68.6303 126.158Z" fill="white"/>
<path d="M33.3984 136.097V140.729H31.8368V137.275H31.0428V136.097H33.3984ZM36.0646 140.835C35.6544 140.835 35.2905 140.74 34.9729 140.55C34.6597 140.356 34.4127 140.078 34.2318 139.717C34.0554 139.351 33.9672 138.916 33.9672 138.413C33.9672 137.91 34.0554 137.478 34.2318 137.116C34.4127 136.75 34.6597 136.472 34.9729 136.283C35.2905 136.089 35.6544 135.992 36.0646 135.992C36.4749 135.992 36.8366 136.089 37.1498 136.283C37.4674 136.472 37.7144 136.75 37.8908 137.116C38.0717 137.478 38.1621 137.91 38.1621 138.413C38.1621 138.916 38.0717 139.351 37.8908 139.717C37.7144 140.078 37.4674 140.356 37.1498 140.55C36.8366 140.74 36.4749 140.835 36.0646 140.835ZM36.0646 139.584C36.4175 139.584 36.594 139.194 36.594 138.413C36.594 137.632 36.4175 137.242 36.0646 137.242C35.7118 137.242 35.5353 137.632 35.5353 138.413C35.5353 139.194 35.7118 139.584 36.0646 139.584ZM39.6931 138.612C39.3314 138.612 39.0358 138.497 38.8064 138.268C38.5771 138.038 38.4624 137.723 38.4624 137.321C38.4624 137.052 38.5153 136.821 38.6212 136.627C38.727 136.433 38.8726 136.285 39.0579 136.183C39.2476 136.082 39.4593 136.031 39.6931 136.031C39.9269 136.031 40.1364 136.082 40.3216 136.183C40.5113 136.285 40.6591 136.433 40.765 136.627C40.8708 136.821 40.9238 137.052 40.9238 137.321C40.9238 137.723 40.8091 138.038 40.5797 138.268C40.3503 138.497 40.0548 138.612 39.6931 138.612ZM42.4125 136.097H43.5307L40.368 140.729H39.2498L42.4125 136.097ZM39.6931 137.897C39.7769 137.897 39.8453 137.853 39.8982 137.765C39.9555 137.672 39.9842 137.524 39.9842 137.321C39.9842 137.119 39.9555 136.973 39.8982 136.885C39.8453 136.792 39.7769 136.746 39.6931 136.746C39.6093 136.746 39.5387 136.792 39.4813 136.885C39.4284 136.973 39.4019 137.119 39.4019 137.321C39.4019 137.524 39.4284 137.672 39.4813 137.765C39.5387 137.853 39.6093 137.897 39.6931 137.897ZM43.0874 140.795C42.7257 140.795 42.4301 140.68 42.2008 140.451C41.9714 140.222 41.8567 139.906 41.8567 139.505C41.8567 139.236 41.9096 139.004 42.0155 138.81C42.1214 138.616 42.2669 138.468 42.4522 138.367C42.6419 138.265 42.8536 138.215 43.0874 138.215C43.3212 138.215 43.5307 138.265 43.716 138.367C43.9056 138.468 44.0534 138.616 44.1593 138.81C44.2651 139.004 44.3181 139.236 44.3181 139.505C44.3181 139.906 44.2034 140.222 43.974 140.451C43.7446 140.68 43.4491 140.795 43.0874 140.795ZM43.0874 140.081C43.1712 140.081 43.2396 140.036 43.2925 139.948C43.3498 139.856 43.3785 139.708 43.3785 139.505C43.3785 139.302 43.3498 139.156 43.2925 139.068C43.2396 138.976 43.1712 138.929 43.0874 138.929C43.0036 138.929 42.933 138.976 42.8757 139.068C42.8227 139.156 42.7963 139.302 42.7963 139.505C42.7963 139.708 42.8227 139.856 42.8757 139.948C42.933 140.036 43.0036 140.081 43.0874 140.081Z" fill="white"/>
<path d="M108.401 85.2999V13.0999L91.8008 3.3999L75.4008 13.0999L75.5008 49.1999L65.6008 43.3999L49.2008 52.9999L49.3008 78.5999L41.3008 73.8999L24.8008 83.4999L25.0008 114.7L41.5008 124.4L57.8008 114.7V105.8L65.8008 110.5L82.1008 100.9V89.0999L92.1008 94.8999L108.401 85.2999Z" fill="#969696"/>
<path d="M0.699219 120.9L0.899219 129.7L17.2992 139.3L33.6992 129.7V120.9L17.0992 111.3L0.699219 120.9Z" fill="#969696"/>
<path d="M92.1 91.9001L92 19.8001L108.4 10.1001V82.2001L92.1 91.9001Z" stroke="#A7B5CD" stroke-width="0.7087" stroke-miterlimit="10" stroke-linecap="round"/>
<path d="M92.1 91.9001L92 19.8001L108.4 10.1001V82.2001L92.1 91.9001Z" fill="#BFC7D1" stroke="#6E8196" stroke-width="0.7087" stroke-miterlimit="10" stroke-linecap="round"/>
<path d="M92.1004 91.9L92.0004 19.8L75.4004 10L75.6004 82.2L92.1004 91.9Z" fill="white"/>
<path d="M92.1004 91.9L92.0004 19.8L75.4004 10L75.6004 82.2L92.1004 91.9Z" fill="#CCD8DB" stroke="#6E8196" stroke-width="0.7087" stroke-miterlimit="10" stroke-linecap="round"/>
<path d="M92.0004 19.7999L108.4 10.0999L91.8004 0.399902L75.4004 9.9999L92.0004 19.7999Z" fill="white"/>
<path d="M92.0004 19.7999L108.4 10.0999L91.8004 0.399902L75.4004 9.9999L92.0004 19.7999Z" fill="#CCD8DB" stroke="#6E8196" stroke-width="0.7087" stroke-miterlimit="10" stroke-linecap="round"/>
<path d="M65.8008 107.5V59.7L82.1008 50V97.8L65.8008 107.5Z" stroke="#A7B5CD" stroke-width="0.7087" stroke-miterlimit="10" stroke-linecap="round"/>
<path d="M65.8008 107.5V59.7L82.1008 50V97.8L65.8008 107.5Z" fill="#BFC7D1" stroke="#6E8196" stroke-width="0.7087" stroke-miterlimit="10" stroke-linecap="round"/>
<path d="M65.7992 107.5V59.7L49.1992 50L49.2992 97.8L65.7992 107.5Z" fill="#CCD8DB" stroke="#6E8196" stroke-width="0.7087" stroke-miterlimit="10" stroke-linecap="round"/>
<path d="M65.7992 107.5V59.7L49.1992 50L49.2992 97.8L65.7992 107.5Z" fill="#CCD8DB" stroke="#6E8196" stroke-width="0.7087" stroke-miterlimit="10" stroke-linecap="round"/>
<path d="M65.7992 59.6999L82.0992 49.9999L65.5992 40.3999L49.1992 49.9999L65.7992 59.6999Z" fill="white"/>
<path d="M65.7992 59.6999L82.0992 49.9999L65.5992 40.3999L49.1992 49.9999L65.7992 59.6999Z" fill="#CCD8DB" stroke="#6E8196" stroke-width="0.7087" stroke-miterlimit="10" stroke-linecap="round"/>
<path d="M17.3008 136.3V127.6L33.7008 117.9V126.7L17.3008 136.3Z" fill="#BFC7D1" stroke="#6E8196" stroke-width="0.7087" stroke-miterlimit="10" stroke-linecap="round"/>
<path d="M17.3008 136.3V127.6L33.7008 117.9V126.7L17.3008 136.3Z" stroke="#A7B5CD" stroke-width="0.7087" stroke-miterlimit="10" stroke-linecap="round"/>
<path d="M17.2992 136.3V127.6L0.699219 117.9L0.899219 126.6L17.2992 136.3Z" fill="white"/>
<path d="M17.2992 136.3V127.6L0.699219 117.9L0.899219 126.6L17.2992 136.3Z" fill="#CCD8DB" stroke="#6E8196" stroke-width="0.7087" stroke-miterlimit="10" stroke-linecap="round"/>
<path d="M17.2992 127.6L33.6992 117.9L17.0992 108.3L0.699219 117.9L17.2992 127.6Z" fill="white"/>
<path d="M17.2992 127.6L33.6992 117.9L17.0992 108.3L0.699219 117.9L17.2992 127.6Z" fill="#CCD8DB" stroke="#6E8196" stroke-width="0.7087" stroke-miterlimit="10" stroke-linecap="round"/>
<path d="M41.5 121.3V90.2L57.8 80.5V111.7L41.5 121.3Z" stroke="#A7B5CD" stroke-width="0.7087" stroke-miterlimit="10" stroke-linecap="round"/>
<path d="M41.5 121.3V90.2L57.8 80.5V111.7L41.5 121.3Z" fill="#BFC7D1" stroke="#6E8196" stroke-width="0.7087" stroke-miterlimit="10" stroke-linecap="round"/>
<path d="M41.5008 121.3V90.2L24.8008 80.5L25.0008 111.7L41.5008 121.3Z" fill="#CCD8DB" stroke="#6E8196" stroke-width="0.7087" stroke-miterlimit="10" stroke-linecap="round"/>
<path d="M41.5008 121.3V90.2L24.8008 80.5L25.0008 111.7L41.5008 121.3Z" fill="#CCD8DB" stroke="#6E8196" stroke-width="0.7087" stroke-miterlimit="10" stroke-linecap="round"/>
<path d="M41.5008 90.1999L57.8008 80.4999L41.3008 70.8999L24.8008 80.4999L41.5008 90.1999Z" fill="white"/>
<path d="M41.5008 90.1999L57.8008 80.4999L41.3008 70.8999L24.8008 80.4999L41.5008 90.1999Z" fill="#CCD8DB" stroke="#6E8196" stroke-width="0.7087" stroke-miterlimit="10" stroke-linecap="round"/>
</g>
<defs>
<clipPath id="clip0_330_8828">
<rect width="122.3" height="144.1" fill="white"/>
</clipPath>
</defs>
</svg>
