<svg width="196" height="159" viewBox="0 0 196 159" fill="none" xmlns="http://www.w3.org/2000/svg">
<g opacity="0.7" clip-path="url(#clip0_330_8911)">
<path d="M117.22 158.213L116.997 156.529L33.9707 108.919V110.603L117.22 158.213Z" fill="#CCD8DB" stroke="#6E8196" stroke-width="0.7087" stroke-miterlimit="10" stroke-linecap="round"/>
<path d="M117.22 158.213L116.997 156.529L33.9707 108.919V110.603L117.22 158.213Z" fill="#CCD8DB" stroke="#6E8196" stroke-width="0.7087" stroke-miterlimit="10" stroke-linecap="round"/>
<path d="M116.996 156.529L166.052 126.772V128.794L117.443 158.213L116.996 156.529Z" fill="#CCD8DB" stroke="#6E8196" stroke-width="0.7087" stroke-miterlimit="10" stroke-linecap="round"/>
<path d="M116.996 156.529L166.052 126.772V128.794L117.22 158.213L116.996 156.529Z" fill="#CCD8DB" stroke="#6E8196" stroke-width="0.7087" stroke-miterlimit="10" stroke-linecap="round"/>
<path d="M166.053 126.773L83.0266 78.938L33.9707 108.919L116.997 156.529L166.053 126.773Z" fill="#CCD8DB" stroke="#6E8196" stroke-width="0.7087" stroke-miterlimit="10" stroke-linecap="round"/>
<path d="M117.109 156.529L116.886 147.322L33.8594 99.7114L33.9711 108.919L117.109 156.529Z" fill="#CCD8DB" stroke="#6E8196" stroke-width="0.7087" stroke-miterlimit="10" stroke-linecap="round"/>
<path d="M117.109 156.529L116.886 147.322L33.8594 99.7114L33.9711 108.919L117.109 156.529Z" fill="#CCD8DB" stroke="#6E8196" stroke-width="0.7087" stroke-miterlimit="10" stroke-linecap="round"/>
<path d="M116.885 147.321L165.941 117.565L166.052 127.109L117.443 156.529L116.885 147.321Z" fill="#CCD8DB" stroke="#6E8196" stroke-width="0.7087" stroke-miterlimit="10" stroke-linecap="round"/>
<path d="M116.885 147.321L165.941 117.565L166.052 127.109L117.22 156.529L116.885 147.321Z" fill="#CCD8DB" stroke="#6E8196" stroke-width="0.7087" stroke-miterlimit="10" stroke-linecap="round"/>
<path d="M165.941 117.565L82.9152 69.7305L33.8594 99.7114L116.886 147.322L165.941 117.565Z" fill="#CCD8DB" stroke="#6E8196" stroke-width="0.7087" stroke-miterlimit="10" stroke-linecap="round"/>
<path d="M165.941 117.565L82.9152 69.7305L33.8594 99.5991L116.886 147.322L165.941 117.565Z" fill="#E3F0F0" stroke="#6E8196" stroke-width="0.7087" stroke-miterlimit="10" stroke-linecap="round"/>
<path d="M165.941 117.565L82.9152 69.7305L33.8594 99.5991L116.886 147.322L165.941 117.565Z" fill="#E3F0F0" stroke="#6E8196" stroke-width="0.7087" stroke-miterlimit="10" stroke-linecap="round"/>
<path d="M46.375 99.2622C47.1572 99.2622 117.78 140.36 117.78 140.36Z" fill="#CCD8DB"/>
<path d="M46.375 99.2622C47.1572 99.2622 117.78 140.36 117.78 140.36" stroke="#6E8196" stroke-width="0.7087" stroke-miterlimit="10" stroke-linecap="round"/>
<path d="M51.5156 97.8025L86.9387 76.4678" stroke="#6E8196" stroke-width="0.7087" stroke-miterlimit="10" stroke-linecap="round"/>
<path d="M59.002 102.182L94.425 80.7349" stroke="#6E8196" stroke-width="0.7087" stroke-miterlimit="10" stroke-linecap="round"/>
<path d="M66.377 106.561L101.8 85.1138" stroke="#6E8196" stroke-width="0.7087" stroke-miterlimit="10" stroke-linecap="round"/>
<path d="M73.8652 110.828L109.288 89.4932" stroke="#6E8196" stroke-width="0.7087" stroke-miterlimit="10" stroke-linecap="round"/>
<path d="M81.3516 115.207L116.775 93.7603" stroke="#6E8196" stroke-width="0.7087" stroke-miterlimit="10" stroke-linecap="round"/>
<path d="M88.7266 119.586L124.15 98.1392" stroke="#6E8196" stroke-width="0.7087" stroke-miterlimit="10" stroke-linecap="round"/>
<path d="M96.2129 123.853L131.636 102.519" stroke="#6E8196" stroke-width="0.7087" stroke-miterlimit="10" stroke-linecap="round"/>
<path d="M103.701 128.233L139.124 106.786" stroke="#6E8196" stroke-width="0.7087" stroke-miterlimit="10" stroke-linecap="round"/>
<path d="M111.076 132.612L146.499 111.165" stroke="#6E8196" stroke-width="0.7087" stroke-miterlimit="10" stroke-linecap="round"/>
<path d="M118.562 136.879L153.986 115.544" stroke="#6E8196" stroke-width="0.7087" stroke-miterlimit="10" stroke-linecap="round"/>
<path d="M62.465 54.6842C61.571 56.8176 61.7945 59.7371 63.2472 62.5443C64.6999 65.3515 67.1582 67.1481 69.3931 67.485L69.8401 68.271L71.9633 67.1481C72.075 67.1481 72.075 67.0358 72.1868 67.0358C74.9804 65.5761 75.4273 61.0846 73.3042 57.0422C71.1811 52.9998 67.1582 50.9786 64.3646 52.4384L62.018 53.7858L62.465 54.6842Z" fill="#CCD8DB" stroke="#6E8196" stroke-width="0.7087" stroke-miterlimit="10" stroke-linecap="round"/>
<path d="M72.3379 67.1336C75.1068 65.6294 75.5906 61.1373 73.4185 57.1003C71.2465 53.0632 67.2412 51.01 64.4724 52.5142C61.7036 54.0184 61.2198 58.5105 63.3918 62.5475C65.5638 66.5845 69.5691 68.6378 72.3379 67.1336Z" fill="#CCD8DB" stroke="#6E8196" stroke-width="0.7087" stroke-miterlimit="10" stroke-linecap="round"/>
<path d="M62.465 54.6842C61.571 56.8176 61.7945 59.7371 63.2472 62.5443C64.6999 65.3515 67.1582 67.1481 69.3931 67.485L69.8401 68.271L71.9633 67.1481C72.075 67.1481 72.075 67.0358 72.1868 67.0358C74.9804 65.5761 75.4273 61.0846 73.3042 57.0422C71.1811 52.9998 67.1582 50.9786 64.3646 52.4384L62.018 53.7858L62.465 54.6842Z" fill="#CCD8DB" stroke="#6E8196" stroke-width="0.7087" stroke-miterlimit="10" stroke-linecap="round"/>
<path d="M72.3379 67.1336C75.1068 65.6294 75.5906 61.1373 73.4185 57.1003C71.2465 53.0632 67.2412 51.01 64.4724 52.5142C61.7036 54.0184 61.2198 58.5105 63.3918 62.5475C65.5638 66.5845 69.5691 68.6378 72.3379 67.1336Z" fill="#CCD8DB" stroke="#6E8196" stroke-width="0.7087" stroke-miterlimit="10" stroke-linecap="round"/>
<path d="M62.0174 53.786C64.811 52.3263 68.8338 54.3475 70.957 58.3899C73.0801 62.4322 73.3036 67.1483 69.8395 68.3835C66.9342 69.5064 63.0231 67.8221 60.9 63.7797C58.7768 59.8496 59.2238 55.3581 62.0174 53.786Z" fill="#CCD8DB" stroke="#6E8196" stroke-width="0.7087" stroke-miterlimit="10" stroke-linecap="round"/>
<path d="M68.9505 66.7281C71.0676 65.5778 71.4276 62.1248 69.7546 59.0156C68.0815 55.9063 65.009 54.3182 62.8919 55.4685C60.7748 56.6188 60.4149 60.0718 62.0879 63.1811C63.7609 66.2903 66.8334 67.8784 68.9505 66.7281Z" fill="#CCD8DB" stroke="#6E8196" stroke-width="0.7087" stroke-miterlimit="10" stroke-linecap="round"/>
<path d="M13.1855 83.5419L62.9119 53.4487L71.628 67.3725L22.2369 97.3534L13.1855 83.5419Z" fill="#CCD8DB" stroke="#6E8196" stroke-width="0.7087" stroke-miterlimit="10" stroke-linecap="round"/>
<path d="M70.9579 58.3896C69.0583 54.7964 65.5942 52.7752 62.9123 53.4489C62.9123 53.4489 61.4596 54.0104 61.1244 54.3472L13.0742 83.5421L22.1255 97.3536L71.6284 67.3726C72.9693 65.2392 72.6341 61.5337 70.9579 58.3896Z" fill="#CCD8DB" stroke="#6E8196" stroke-width="0.7087" stroke-miterlimit="10" stroke-linecap="round"/>
<path d="M12.5138 84.8892C11.6198 87.0227 11.8433 89.9422 13.296 92.7494C14.7487 95.5566 17.2071 97.3532 19.442 97.6901L19.8889 98.4761L22.0121 97.3532C22.1238 97.3532 22.1238 97.2409 22.2356 97.2409C25.0292 95.7812 25.4762 91.2897 23.353 87.2473C21.2299 83.2049 17.2071 81.1837 14.4135 82.6435L12.0668 83.9909L12.5138 84.8892Z" fill="#CCD8DB" stroke="#6E8196" stroke-width="0.7087" stroke-miterlimit="10" stroke-linecap="round"/>
<path d="M22.2774 97.3538C25.0462 95.8496 25.53 91.3575 23.358 87.3205C21.186 83.2834 17.1806 81.2302 14.4118 82.7344C11.643 84.2386 11.1592 88.7307 13.3312 92.7677C15.5032 96.8048 19.5086 98.858 22.2774 97.3538Z" fill="#CCD8DB" stroke="#6E8196" stroke-width="0.7087" stroke-miterlimit="10" stroke-linecap="round"/>
<path d="M12.5138 84.8892C11.6198 87.0227 11.8433 89.9422 13.296 92.7494C14.7487 95.5566 17.2071 97.3532 19.442 97.6901L19.8889 98.4761L22.0121 97.3532C22.1238 97.3532 22.1238 97.2409 22.2356 97.2409C25.0292 95.7812 25.4762 91.2897 23.353 87.2473C21.2299 83.2049 17.2071 81.1837 14.4135 82.6435L12.0668 83.9909L12.5138 84.8892Z" fill="#CCD8DB" stroke="#6E8196" stroke-width="0.7087" stroke-miterlimit="10" stroke-linecap="round"/>
<path d="M22.2774 97.3538C25.0462 95.8496 25.53 91.3575 23.358 87.3205C21.186 83.2834 17.1806 81.2302 14.4118 82.7344C11.643 84.2386 11.1592 88.7307 13.3312 92.7677C15.5032 96.8048 19.5086 98.858 22.2774 97.3538Z" fill="#CCD8DB" stroke="#6E8196" stroke-width="0.7087" stroke-miterlimit="10" stroke-linecap="round"/>
<path d="M19.8985 98.5804C22.6673 97.0762 23.1511 92.5841 20.9791 88.547C18.8071 84.51 14.8017 82.4567 12.0329 83.961C9.2641 85.4652 8.7803 89.9572 10.9523 93.9943C13.1243 98.0313 17.1297 100.085 19.8985 98.5804Z" fill="#CCD8DB" stroke="#6E8196" stroke-width="0.7087" stroke-miterlimit="10" stroke-linecap="round"/>
<path d="M18.9959 96.9008C21.1132 95.7505 21.4734 92.2972 19.8004 89.1876C18.1273 86.078 15.0546 84.4896 12.9373 85.6399C10.82 86.7902 10.4598 90.2435 12.1328 93.3531C13.8059 96.4627 16.8786 98.0511 18.9959 96.9008Z" fill="#CCD8DB" stroke="#6E8196" stroke-width="0.7087" stroke-miterlimit="10" stroke-linecap="round"/>
<path d="M20.8955 88.5949C18.7723 84.5526 14.7495 82.5314 11.9559 83.9911C11.6207 84.2157 11.2855 84.4403 10.9502 84.7771C10.7267 85.114 10.3915 85.4509 10.2798 85.7877L1.00495 98.8132L1.1167 98.9254C0.893207 99.4869 0.893207 100.161 1.22844 100.947C1.78716 101.957 2.34589 102.631 3.1281 102.294C3.35159 102.182 16.7609 99.3746 16.7609 99.3746C19.8898 98.8132 18.6606 99.2623 19.8898 98.5886C22.5717 97.1288 23.1304 92.6373 20.8955 88.5949Z" fill="#CCD8DB" stroke="#6E8196" stroke-width="0.7087" stroke-miterlimit="10" stroke-linecap="round"/>
<path d="M20.8955 88.5949C18.7723 84.5526 14.7495 82.5314 11.9559 83.9911C11.6207 84.2157 11.2855 84.4403 10.9502 84.7771C10.7267 85.114 10.3915 85.4509 10.2798 85.7877L1.00495 98.8132L1.1167 98.9254C0.893207 99.4869 0.893207 100.161 1.22844 100.947C1.78716 101.957 2.34589 102.631 3.1281 102.294C3.35159 102.182 16.7609 99.3746 16.7609 99.3746C19.8898 98.8132 18.6606 99.2623 19.8898 98.5886C22.5717 97.1288 23.1304 92.6373 20.8955 88.5949Z" fill="#CCD8DB" stroke="#6E8196" stroke-width="0.7087" stroke-miterlimit="10" stroke-linecap="round"/>
<path d="M2.98023 102.371C3.68601 101.987 3.82986 100.88 3.30153 99.8983C2.7732 98.9163 1.77276 98.4311 1.06698 98.8145C0.361208 99.198 0.217355 100.305 0.745683 101.287C1.27401 102.269 2.27445 102.754 2.98023 102.371Z" fill="#CCD8DB" stroke="#6E8196" stroke-width="0.7087" stroke-miterlimit="10" stroke-linecap="round"/>
<path d="M2.98023 102.371C3.68601 101.987 3.82986 100.88 3.30153 99.8983C2.7732 98.9163 1.77276 98.4311 1.06698 98.8145C0.361208 99.198 0.217355 100.305 0.745683 101.287C1.27401 102.269 2.27445 102.754 2.98023 102.371Z" fill="#CCD8DB" stroke="#6E8196" stroke-width="0.7087" stroke-miterlimit="10" stroke-linecap="round"/>
<path d="M2.76993 101.974C3.31283 101.68 3.41983 100.821 3.0089 100.058C2.59798 99.2937 1.82475 98.9137 1.28185 99.2086C0.73894 99.5036 0.631947 100.362 1.04287 101.126C1.45379 101.889 2.22702 102.269 2.76993 101.974Z" fill="#CCD8DB" stroke="#6E8196" stroke-width="0.7087" stroke-miterlimit="10" stroke-linecap="round"/>
<path d="M195.441 16.5066C195.553 16.1697 195.553 15.7206 195.553 15.3837C195.553 9.65702 188.848 4.94092 180.579 4.94092C172.31 4.94092 165.605 9.65702 165.605 15.3837V92.0765C165.605 97.8032 172.31 102.519 180.579 102.519C188.848 102.519 195.553 97.8032 195.553 92.0765C195.553 91.9642 195.553 91.7396 195.553 91.6274L195.441 16.5066Z" fill="#CCD8DB" stroke="#6E8196" stroke-width="0.7087" stroke-miterlimit="10" stroke-linecap="round"/>
<path d="M147.392 18.1909C139.123 18.1909 132.418 22.907 132.418 28.6337V73.0998C132.418 78.8265 139.123 83.5426 147.392 83.5426C155.661 83.5426 162.366 78.8265 162.366 73.0998C162.366 72.9875 162.366 72.7629 162.366 72.6507L162.254 29.7566C162.366 29.4197 162.366 28.9706 162.366 28.6337C162.366 22.7947 155.661 18.1909 147.392 18.1909Z" fill="#CCD8DB" stroke="#6E8196" stroke-width="0.7087" stroke-miterlimit="10" stroke-linecap="round"/>
<path d="M116.439 28.2969C108.17 28.2969 101.465 33.013 101.465 38.7397V54.2354C101.465 59.9621 108.17 64.6782 116.439 64.6782C124.708 64.6782 131.412 59.9621 131.412 54.2354C131.412 54.1231 131.412 53.8986 131.412 53.7863L131.301 39.8626C131.412 39.5257 131.412 39.0765 131.412 38.7397C131.412 32.9007 124.708 28.2969 116.439 28.2969Z" fill="#CCD8DB" stroke="#6E8196" stroke-width="0.7087" stroke-miterlimit="10" stroke-linecap="round"/>
<path d="M167.393 10.78C169.964 7.5236 174.88 5.27783 180.579 5.27783C186.278 5.27783 191.307 7.5236 193.765 10.78H195.441L195.553 87.0236C195.553 87.1359 195.553 87.3605 195.553 87.4727C195.553 93.1994 188.848 97.9155 180.579 97.9155C172.31 97.9155 165.605 93.1994 165.605 87.4727V10.78H167.393Z" fill="#CCD8DB" stroke="#6E8196" stroke-width="0.7087" stroke-miterlimit="10" stroke-linecap="round"/>
<path d="M167.393 10.78C169.964 7.5236 174.88 5.27783 180.579 5.27783C186.278 5.27783 191.307 7.5236 193.765 10.78H195.441L195.553 87.0236C195.553 87.1359 195.553 87.3605 195.553 87.4727C195.553 93.1994 188.848 97.9155 180.579 97.9155C172.31 97.9155 165.605 93.1994 165.605 87.4727V10.78H167.393Z" fill="#CCD8DB" stroke="#6E8196" stroke-width="0.7087" stroke-miterlimit="10" stroke-linecap="round"/>
<path d="M180.579 21.2225C188.849 21.2225 195.553 16.5471 195.553 10.7797C195.553 5.01231 188.849 0.336914 180.579 0.336914C172.309 0.336914 165.605 5.01231 165.605 10.7797C165.605 16.5471 172.309 21.2225 180.579 21.2225Z" fill="#CCD8DB" stroke="#6E8196" stroke-width="0.7087" stroke-miterlimit="10" stroke-linecap="round"/>
<path d="M180.579 21.2225C188.849 21.2225 195.553 16.5471 195.553 10.7797C195.553 5.01231 188.849 0.336914 180.579 0.336914C172.309 0.336914 165.605 5.01231 165.605 10.7797C165.605 16.5471 172.309 21.2225 180.579 21.2225Z" fill="#CCD8DB" stroke="#6E8196" stroke-width="0.7087" stroke-miterlimit="10" stroke-linecap="round"/>
<path d="M134.206 24.1423C136.776 20.8859 141.693 18.6401 147.392 18.6401C153.091 18.6401 158.119 20.8859 160.578 24.1423H162.254L162.366 68.1592C162.366 68.2715 162.366 68.4961 162.366 68.6084C162.366 74.335 155.661 79.0512 147.392 79.0512C139.123 79.0512 132.418 74.335 132.418 68.6084V24.1423H134.206Z" fill="#CCD8DB" stroke="#6E8196" stroke-width="0.7087" stroke-miterlimit="10" stroke-linecap="round"/>
<path d="M134.206 24.1423C136.776 20.8859 141.693 18.6401 147.392 18.6401C153.091 18.6401 158.119 20.8859 160.578 24.1423H162.254L162.366 68.1592C162.366 68.2715 162.366 68.4961 162.366 68.6084C162.366 74.335 155.661 79.0512 147.392 79.0512C139.123 79.0512 132.418 74.335 132.418 68.6084V24.1423H134.206Z" fill="#CCD8DB" stroke="#6E8196" stroke-width="0.7087" stroke-miterlimit="10" stroke-linecap="round"/>
<path d="M147.392 34.5848C155.662 34.5848 162.366 29.9094 162.366 24.142C162.366 18.3746 155.662 13.6992 147.392 13.6992C139.122 13.6992 132.418 18.3746 132.418 24.142C132.418 29.9094 139.122 34.5848 147.392 34.5848Z" fill="#CCD8DB" stroke="#6E8196" stroke-width="0.7087" stroke-miterlimit="10" stroke-linecap="round"/>
<path d="M147.392 34.5848C155.662 34.5848 162.366 29.9094 162.366 24.142C162.366 18.3746 155.662 13.6992 147.392 13.6992C139.122 13.6992 132.418 18.3746 132.418 24.142C132.418 29.9094 139.122 34.5848 147.392 34.5848Z" fill="#CCD8DB" stroke="#6E8196" stroke-width="0.7087" stroke-miterlimit="10" stroke-linecap="round"/>
<path d="M103.253 34.2482C105.823 30.9919 110.74 28.7461 116.439 28.7461C122.138 28.7461 127.166 30.9919 129.624 34.2482H131.301L131.412 49.2948C131.412 49.4071 131.412 49.6317 131.412 49.744C131.412 55.4707 124.708 60.1868 116.439 60.1868C108.17 60.1868 101.465 55.4707 101.465 49.744V34.2482H103.253Z" fill="#CCD8DB" stroke="#6E8196" stroke-width="0.7087" stroke-miterlimit="10" stroke-linecap="round"/>
<path d="M103.253 34.2482C105.823 30.9919 110.74 28.7461 116.439 28.7461C122.138 28.7461 127.166 30.9919 129.624 34.2482H131.301L131.412 49.2948C131.412 49.4071 131.412 49.6317 131.412 49.744C131.412 55.4707 124.708 60.1868 116.439 60.1868C108.17 60.1868 101.465 55.4707 101.465 49.744V34.2482H103.253Z" fill="#CCD8DB" stroke="#6E8196" stroke-width="0.7087" stroke-miterlimit="10" stroke-linecap="round"/>
<path d="M116.439 44.6908C124.708 44.6908 131.412 40.0154 131.412 34.248C131.412 28.4806 124.708 23.8052 116.439 23.8052C108.169 23.8052 101.465 28.4806 101.465 34.248C101.465 40.0154 108.169 44.6908 116.439 44.6908Z" fill="#CCD8DB" stroke="#6E8196" stroke-width="0.7087" stroke-miterlimit="10" stroke-linecap="round"/>
<path d="M116.439 44.6908C124.708 44.6908 131.412 40.0154 131.412 34.248C131.412 28.4806 124.708 23.8052 116.439 23.8052C108.169 23.8052 101.465 28.4806 101.465 34.248C101.465 40.0154 108.169 44.6908 116.439 44.6908Z" fill="#CCD8DB" stroke="#6E8196" stroke-width="0.7087" stroke-miterlimit="10" stroke-linecap="round"/>
</g>
<defs>
<clipPath id="clip0_330_8911">
<rect width="196" height="159" fill="white"/>
</clipPath>
</defs>
</svg>
