<svg width="133" height="100" viewBox="0 0 133 100" fill="none" xmlns="http://www.w3.org/2000/svg">
<g clip-path="url(#clip0_330_8425)">
<path d="M76.7008 28.7999L69.9008 24.9999C69.7008 24.8999 69.5008 24.8999 69.2008 24.9999L64.6008 27.0999C64.5008 26.6999 64.6008 26.2999 64.7008 25.9999L70.0008 15.2999C70.3008 14.6999 70.1008 14.0999 69.5008 13.6999L63.7008 10.3999L57.0008 6.59994C56.5008 6.29994 55.8008 6.49994 55.4008 6.99994L49.0008 16.7999C48.8008 17.0999 48.5008 17.2999 48.1008 17.4999L47.6008 12.4999C47.6008 12.1999 47.4008 11.9999 47.3008 11.8999L40.5008 7.99994C40.3008 7.89994 40.0008 7.89994 39.8008 8.09994L30.9008 13.2999C30.4008 13.5999 29.9008 14.3999 29.8008 14.9999L28.9008 24.8999C28.8008 25.4999 28.4008 26.2999 28.0008 26.7999C26.3008 28.3999 24.6008 30.1999 23.0008 32.0999C22.6008 32.5999 21.8008 32.7999 21.2008 32.5999L15.5008 30.5999C14.9008 30.3999 14.2008 30.6999 13.9008 31.1999L7.30078 42.3999C7.00078 42.8999 7.10078 43.6999 7.60078 44.0999L12.2008 48.0999C12.7008 48.4999 12.9008 49.2999 12.6008 49.8999C11.7008 52.1999 11.0008 54.4999 10.5008 56.7999C10.4008 57.3999 9.90078 58.1999 9.40078 58.4999L1.20078 64.1999C0.700781 64.5999 0.300781 65.2999 0.300781 65.9999V76.2999C0.300781 76.5999 0.400781 76.7999 0.600781 76.9999L7.30078 80.8999C7.50078 80.9999 7.70078 80.9999 8.00078 80.8999L12.6008 78.7999C12.7008 79.1999 12.6008 79.5999 12.5008 79.8999L7.20078 90.5999C6.90078 91.1999 7.10078 91.7999 7.70078 92.1999L15.8008 96.7999L20.2008 99.2999C20.7008 99.5999 21.4008 99.3999 21.8008 98.8999L28.4008 88.9999C28.6008 88.6999 28.9008 88.4999 29.3008 88.2999L29.8008 93.2999C29.8008 93.5999 30.0008 93.7999 30.1008 93.8999L36.8008 97.7999C37.0008 97.8999 37.3008 97.8999 37.5008 97.6999L46.4008 92.4999C46.9008 92.1999 47.4008 91.3999 47.5008 90.7999L48.4008 80.8999C48.5008 80.2999 48.9008 79.4999 49.3008 78.9999C51.0008 77.3999 52.7008 75.5999 54.3008 73.6999C54.7008 73.1999 55.5008 72.9999 56.1008 73.1999L61.8008 75.1999C62.4008 75.3999 63.1008 75.0999 63.4008 74.5999L70.0008 63.3999C70.3008 62.8999 70.2008 62.0999 69.7008 61.6999L65.1008 57.6999C64.6008 57.2999 64.4008 56.4999 64.7008 55.8999C65.6008 53.5999 66.3008 51.2999 66.8008 48.9999C66.9008 48.3999 67.4008 47.5999 67.9008 47.2999L76.1008 41.5999C76.6008 41.1999 77.0008 40.4999 77.0008 39.7999V29.4999C77.0008 29.1999 76.9008 28.9999 76.7008 28.7999ZM26.9008 63.5999C26.9008 53.9999 33.7008 42.2999 42.0008 37.3999C45.3008 35.4999 48.3008 34.9999 50.7008 35.5999C52.0008 37.3999 52.7008 40.0999 52.7008 43.5999C52.7008 53.1999 45.9008 64.8999 37.6008 69.7999C34.3008 71.6999 31.6008 72.2999 29.4008 71.7999C27.8008 69.8999 26.9008 67.0999 26.9008 63.5999Z" fill="#638EB9" stroke="#BBCDE1" stroke-width="0.7087" stroke-miterlimit="10" stroke-linecap="round"/>
<path opacity="0.2" d="M76.7008 28.7999L69.9008 24.9999C69.7008 24.8999 69.5008 24.8999 69.2008 24.9999L64.6008 27.0999C64.5008 26.6999 64.6008 26.2999 64.7008 25.9999L70.0008 15.2999C70.3008 14.6999 70.1008 14.0999 69.5008 13.6999L63.7008 10.3999L57.0008 6.59994C56.5008 6.29994 55.8008 6.49994 55.4008 6.99994L49.0008 16.7999C48.8008 17.0999 48.5008 17.2999 48.1008 17.4999L47.6008 12.4999C47.6008 12.1999 47.4008 11.9999 47.3008 11.8999L40.5008 7.99994C40.3008 7.89994 40.0008 7.89994 39.8008 8.09994L30.9008 13.2999C30.4008 13.5999 29.9008 14.3999 29.8008 14.9999L28.9008 24.8999C28.8008 25.4999 28.4008 26.2999 28.0008 26.7999C26.3008 28.3999 24.6008 30.1999 23.0008 32.0999C22.6008 32.5999 21.8008 32.7999 21.2008 32.5999L15.5008 30.5999C14.9008 30.3999 14.2008 30.6999 13.9008 31.1999L7.30078 42.3999C7.00078 42.8999 7.10078 43.6999 7.60078 44.0999L12.2008 48.0999C12.7008 48.4999 12.9008 49.2999 12.6008 49.8999C11.7008 52.1999 11.0008 54.4999 10.5008 56.7999C10.4008 57.3999 9.90078 58.1999 9.40078 58.4999L1.20078 64.1999C0.700781 64.5999 0.300781 65.2999 0.300781 65.9999V76.2999C0.300781 76.5999 0.400781 76.7999 0.600781 76.9999L7.30078 80.8999C7.50078 80.9999 7.70078 80.9999 8.00078 80.8999L12.6008 78.7999C12.7008 79.1999 12.6008 79.5999 12.5008 79.8999L7.20078 90.5999C6.90078 91.1999 7.10078 91.7999 7.70078 92.1999L15.8008 96.7999L20.2008 99.2999C20.7008 99.5999 21.4008 99.3999 21.8008 98.8999L28.4008 88.9999C28.6008 88.6999 28.9008 88.4999 29.3008 88.2999L29.8008 93.2999C29.8008 93.5999 30.0008 93.7999 30.1008 93.8999L36.8008 97.7999C37.0008 97.8999 37.3008 97.8999 37.5008 97.6999L46.4008 92.4999C46.9008 92.1999 47.4008 91.3999 47.5008 90.7999L48.4008 80.8999C48.5008 80.2999 48.9008 79.4999 49.3008 78.9999C51.0008 77.3999 52.7008 75.5999 54.3008 73.6999C54.7008 73.1999 55.5008 72.9999 56.1008 73.1999L61.8008 75.1999C62.4008 75.3999 63.1008 75.0999 63.4008 74.5999L70.0008 63.3999C70.3008 62.8999 70.2008 62.0999 69.7008 61.6999L65.1008 57.6999C64.6008 57.2999 64.4008 56.4999 64.7008 55.8999C65.6008 53.5999 66.3008 51.2999 66.8008 48.9999C66.9008 48.3999 67.4008 47.5999 67.9008 47.2999L76.1008 41.5999C76.6008 41.1999 77.0008 40.4999 77.0008 39.7999V29.4999C77.0008 29.1999 76.9008 28.9999 76.7008 28.7999ZM26.9008 63.5999C26.9008 53.9999 33.7008 42.2999 42.0008 37.3999C45.3008 35.4999 48.3008 34.9999 50.7008 35.5999C52.0008 37.3999 52.7008 40.0999 52.7008 43.5999C52.7008 53.1999 45.9008 64.8999 37.6008 69.7999C34.3008 71.6999 31.6008 72.2999 29.4008 71.7999C27.8008 69.8999 26.9008 67.0999 26.9008 63.5999Z" fill="#638EB9" stroke="#BBCDE1" stroke-width="0.7087" stroke-miterlimit="10" stroke-linecap="round"/>
<path opacity="0.1" d="M17.4003 77.8998C17.2003 77.2998 16.6003 76.9998 16.1003 77.2998L12.7003 78.7998C12.8003 79.1998 12.7003 79.5998 12.6003 79.8998L7.20033 90.5998C6.90033 91.1998 7.10033 91.7998 7.70033 92.1998L15.8003 96.7998L14.4003 95.9998C13.9003 95.6998 13.7003 94.9998 13.9003 94.3998L19.2003 83.6998C19.5003 83.0998 19.4003 82.2998 19.1003 81.7998C18.4003 80.6998 17.8003 79.2998 17.4003 77.8998ZM36.7003 97.7998C36.6003 97.6998 36.5003 97.4998 36.4003 97.1998L35.5003 88.4998C35.4003 87.8998 34.9003 87.4998 34.3003 87.6998C32.8003 87.9998 31.4003 88.1998 30.0003 88.0998C29.7003 88.0998 29.4003 88.1998 29.1003 88.2998L29.6003 93.2998C29.6003 93.5998 29.8003 93.7998 29.9003 93.8998L36.7003 97.7998Z" fill="#638EB9" stroke="#BBCDE1" stroke-width="0.7087" stroke-miterlimit="10" stroke-linecap="round"/>
<path opacity="0.1" d="M57.1004 46.1C57.1004 55.7 50.3004 67.4 42.0004 72.3C36.7004 75.3 32.1004 74.9 29.4004 71.7C31.6004 72.2 34.3004 71.6 37.6004 69.7C45.9004 64.9 52.7004 53.2 52.7004 43.5C52.7004 40 52.0004 37.3 50.8004 35.5C54.6004 36.5 57.1004 40.3 57.1004 46.1Z" fill="#638EB9" stroke="#BBCDE1" stroke-width="0.7087" stroke-miterlimit="10" stroke-linecap="round"/>
<path d="M57.1008 6.49984C56.6008 6.19984 55.9008 6.39984 55.5008 6.89984L48.9008 16.7998C48.8008 16.9998 48.6008 17.0998 48.5008 17.1998L55.2008 21.0998C55.4008 20.9998 55.5008 20.7998 55.6008 20.6998L62.2008 10.7998C62.5008 10.2998 63.1008 10.1998 63.6008 10.3998L57.1008 6.49984ZM69.9008 24.9998C69.7008 24.8998 69.5008 24.8998 69.2008 24.9998L64.6008 27.0998C64.6008 27.3998 64.7008 27.6998 64.9008 27.8998C65.6008 28.9998 66.2008 30.2998 66.6008 31.6998C66.6008 31.7998 66.7008 31.7998 66.7008 31.8998C66.8008 32.0998 66.8008 32.1998 66.9008 32.2998L67.0008 32.3998C67.1008 32.4998 67.2008 32.4998 67.3008 32.4998C67.4008 32.5998 67.6008 32.5998 67.8008 32.4998C67.9008 32.4998 67.9008 32.4998 68.0008 32.3998L76.0008 28.7998C76.1008 28.7998 76.1008 28.6998 76.2008 28.6998C76.3008 28.6998 76.4008 28.6998 76.5008 28.6998C76.6008 28.6998 76.7008 28.6998 76.7008 28.7998L69.9008 24.9998ZM40.5008 7.99984C40.3008 7.89984 40.1008 7.89984 39.8008 8.09984L30.9008 13.2998C30.5008 13.4998 30.2008 13.8998 30.0008 14.3998L36.7008 18.2998C36.9008 17.8998 37.2008 17.3998 37.6008 17.1998L46.5008 11.9998C46.8008 11.8998 47.0008 11.7998 47.2008 11.8998L40.5008 7.99984ZM10.1008 57.7998C9.90078 58.0998 9.70078 58.2998 9.50078 58.4998L1.30078 64.1998C1.10078 64.2998 0.900781 64.5998 0.800781 64.7998L7.50078 68.6998C7.60078 68.3998 7.80078 68.1998 8.10078 68.0998L16.3008 62.3998C16.5008 62.1998 16.7008 61.9998 16.9008 61.6998L10.1008 57.7998ZM15.0008 30.3998C14.5008 30.3998 14.1008 30.6998 13.9008 31.0998L7.30078 42.3998C7.20078 42.6998 7.10078 42.8998 7.20078 43.1998L13.9008 47.0998C13.9008 46.7998 13.9008 46.4998 14.0008 46.2998L20.6008 34.8998C20.8008 34.4998 21.2008 34.2998 21.7008 34.1998L15.0008 30.3998Z" fill="#638EB9" stroke="#BBCDE1" stroke-width="0.7087" stroke-miterlimit="10" stroke-linecap="round"/>
<path opacity="0.7" d="M57.1008 6.49984C56.6008 6.19984 55.9008 6.39984 55.5008 6.89984L48.9008 16.7998C48.8008 16.9998 48.6008 17.0998 48.5008 17.1998L55.2008 21.0998C55.4008 20.9998 55.5008 20.7998 55.6008 20.6998L62.2008 10.7998C62.5008 10.2998 63.1008 10.1998 63.6008 10.3998L57.1008 6.49984ZM69.9008 24.9998C69.7008 24.8998 69.5008 24.8998 69.2008 24.9998L64.6008 27.0998C64.6008 27.3998 64.7008 27.6998 64.9008 27.8998C65.6008 28.9998 66.2008 30.2998 66.6008 31.6998C66.6008 31.7998 66.7008 31.7998 66.7008 31.8998C66.8008 32.0998 66.8008 32.1998 66.9008 32.2998L67.0008 32.3998C67.1008 32.4998 67.2008 32.4998 67.3008 32.4998C67.4008 32.5998 67.6008 32.5998 67.8008 32.4998C67.9008 32.4998 67.9008 32.4998 68.0008 32.3998L76.0008 28.7998C76.1008 28.7998 76.1008 28.6998 76.2008 28.6998C76.3008 28.6998 76.4008 28.6998 76.5008 28.6998C76.6008 28.6998 76.7008 28.6998 76.7008 28.7998L69.9008 24.9998ZM40.5008 7.99984C40.3008 7.89984 40.1008 7.89984 39.8008 8.09984L30.9008 13.2998C30.5008 13.4998 30.2008 13.8998 30.0008 14.3998L36.7008 18.2998C36.9008 17.8998 37.2008 17.3998 37.6008 17.1998L46.5008 11.9998C46.8008 11.8998 47.0008 11.7998 47.2008 11.8998L40.5008 7.99984ZM10.1008 57.7998C9.90078 58.0998 9.70078 58.2998 9.50078 58.4998L1.30078 64.1998C1.10078 64.2998 0.900781 64.5998 0.800781 64.7998L7.50078 68.6998C7.60078 68.3998 7.80078 68.1998 8.10078 68.0998L16.3008 62.3998C16.5008 62.1998 16.7008 61.9998 16.9008 61.6998L10.1008 57.7998ZM15.0008 30.3998C14.5008 30.3998 14.1008 30.6998 13.9008 31.0998L7.30078 42.3998C7.20078 42.6998 7.10078 42.8998 7.20078 43.1998L13.9008 47.0998C13.9008 46.7998 13.9008 46.4998 14.0008 46.2998L20.6008 34.8998C20.8008 34.4998 21.2008 34.2998 21.7008 34.1998L15.0008 30.3998Z" fill="#638EB9" stroke="#BBCDE1" stroke-width="0.7087" stroke-miterlimit="10" stroke-linecap="round"/>
<path d="M77.0016 39.7997V29.4997C77.0016 28.8997 76.5016 28.5997 76.0016 28.7997L68.0016 32.3997C67.4016 32.6997 66.9016 32.3997 66.7016 31.7997C66.2016 30.2997 65.6016 28.9997 64.9016 27.8997C64.6016 27.3997 64.5016 26.4997 64.8016 25.9997L70.1016 15.2997C70.4016 14.6997 70.2016 14.0997 69.6016 13.6997L63.8016 10.3997C63.3016 10.0997 62.6016 10.2997 62.2016 10.7997L55.6016 20.6997C55.3016 21.1997 54.5016 21.5997 53.9016 21.5997C52.5016 21.5997 51.1016 21.6997 49.6016 21.9997C49.0016 22.0997 48.5016 21.7997 48.4016 21.1997L47.5016 12.4997C47.4016 11.8997 47.0016 11.5997 46.4016 11.8997L37.5016 17.0997C37.0016 17.3997 36.5016 18.1997 36.4016 18.7997L35.5016 28.6997C35.4016 29.2997 35.0016 30.0997 34.6016 30.5997C32.9016 32.1997 31.2016 33.9997 29.6016 35.8997C29.2016 36.3997 28.4016 36.5997 27.8016 36.3997L22.1016 34.3997C21.5016 34.1997 20.8016 34.4997 20.5016 34.9997L14.0016 46.2997C13.7016 46.7997 13.8016 47.5997 14.3016 47.9997L18.9016 51.9997C19.4016 52.3997 19.6016 53.1997 19.3016 53.7997C18.4016 56.0997 17.7016 58.3997 17.2016 60.6997C17.1016 61.2997 16.6016 62.0997 16.1016 62.3997L8.00156 68.0997C7.50156 68.4997 7.10156 69.1997 7.10156 69.8997V80.1997C7.10156 80.7997 7.60156 81.0997 8.10156 80.8997L16.1016 77.2997C16.7016 76.9997 17.2016 77.2997 17.4016 77.8997C17.9016 79.3997 18.5016 80.6997 19.2016 81.7997C19.5016 82.2997 19.6016 83.1997 19.3016 83.6997L14.0016 94.3997C13.7016 94.9997 13.9016 95.5997 14.5016 95.9997L20.3016 99.2997C20.8016 99.5997 21.5016 99.3997 21.9016 98.8997L28.5016 88.9997C28.8016 88.4997 29.6016 88.0997 30.2016 88.0997C31.6016 88.0997 33.0016 87.9997 34.5016 87.6997C35.1016 87.5997 35.6016 87.8997 35.7016 88.4997L36.6016 97.1997C36.7016 97.7997 37.1016 98.0997 37.7016 97.7997L46.6016 92.5997C47.1016 92.2997 47.6016 91.4997 47.7016 90.8997L48.6016 80.9997C48.7016 80.3997 49.1016 79.5997 49.5016 79.0997C51.2016 77.4997 52.9016 75.6997 54.5016 73.7997C54.9016 73.2997 55.7016 73.0997 56.3016 73.2997L62.0016 75.2997C62.6016 75.4997 63.3016 75.1997 63.6016 74.6997L70.0016 63.3997C70.3016 62.8997 70.2016 62.0997 69.7016 61.6997L65.1016 57.6997C64.6016 57.2997 64.4016 56.4997 64.7016 55.8997C65.6016 53.5997 66.3016 51.2997 66.8016 48.9997C66.9016 48.3997 67.4016 47.5997 67.9016 47.2997L76.1016 41.5997C76.6016 41.1997 77.0016 40.3997 77.0016 39.7997ZM42.0016 72.2997C33.7016 77.0997 26.9016 73.1997 26.9016 63.5997C26.9016 53.9997 33.7016 42.2997 42.0016 37.3997C50.3016 32.5997 57.1016 36.4997 57.1016 46.0997C57.1016 55.7997 50.4016 67.4997 42.0016 72.2997Z" fill="#638EB9" stroke="#BBCDE1" stroke-width="0.7087" stroke-miterlimit="10" stroke-linecap="round"/>
<path opacity="0.55" d="M77.0016 39.7997V29.4997C77.0016 28.8997 76.5016 28.5997 76.0016 28.7997L68.0016 32.3997C67.4016 32.6997 66.9016 32.3997 66.7016 31.7997C66.2016 30.2997 65.6016 28.9997 64.9016 27.8997C64.6016 27.3997 64.5016 26.4997 64.8016 25.9997L70.1016 15.2997C70.4016 14.6997 70.2016 14.0997 69.6016 13.6997L63.8016 10.3997C63.3016 10.0997 62.6016 10.2997 62.2016 10.7997L55.6016 20.6997C55.3016 21.1997 54.5016 21.5997 53.9016 21.5997C52.5016 21.5997 51.1016 21.6997 49.6016 21.9997C49.0016 22.0997 48.5016 21.7997 48.4016 21.1997L47.5016 12.4997C47.4016 11.8997 47.0016 11.5997 46.4016 11.8997L37.5016 17.0997C37.0016 17.3997 36.5016 18.1997 36.4016 18.7997L35.5016 28.6997C35.4016 29.2997 35.0016 30.0997 34.6016 30.5997C32.9016 32.1997 31.2016 33.9997 29.6016 35.8997C29.2016 36.3997 28.4016 36.5997 27.8016 36.3997L22.1016 34.3997C21.5016 34.1997 20.8016 34.4997 20.5016 34.9997L14.0016 46.2997C13.7016 46.7997 13.8016 47.5997 14.3016 47.9997L18.9016 51.9997C19.4016 52.3997 19.6016 53.1997 19.3016 53.7997C18.4016 56.0997 17.7016 58.3997 17.2016 60.6997C17.1016 61.2997 16.6016 62.0997 16.1016 62.3997L8.00156 68.0997C7.50156 68.4997 7.10156 69.1997 7.10156 69.8997V80.1997C7.10156 80.7997 7.60156 81.0997 8.10156 80.8997L16.1016 77.2997C16.7016 76.9997 17.2016 77.2997 17.4016 77.8997C17.9016 79.3997 18.5016 80.6997 19.2016 81.7997C19.5016 82.2997 19.6016 83.1997 19.3016 83.6997L14.0016 94.3997C13.7016 94.9997 13.9016 95.5997 14.5016 95.9997L20.3016 99.2997C20.8016 99.5997 21.5016 99.3997 21.9016 98.8997L28.5016 88.9997C28.8016 88.4997 29.6016 88.0997 30.2016 88.0997C31.6016 88.0997 33.0016 87.9997 34.5016 87.6997C35.1016 87.5997 35.6016 87.8997 35.7016 88.4997L36.6016 97.1997C36.7016 97.7997 37.1016 98.0997 37.7016 97.7997L46.6016 92.5997C47.1016 92.2997 47.6016 91.4997 47.7016 90.8997L48.6016 80.9997C48.7016 80.3997 49.1016 79.5997 49.5016 79.0997C51.2016 77.4997 52.9016 75.6997 54.5016 73.7997C54.9016 73.2997 55.7016 73.0997 56.3016 73.2997L62.0016 75.2997C62.6016 75.4997 63.3016 75.1997 63.6016 74.6997L70.0016 63.3997C70.3016 62.8997 70.2016 62.0997 69.7016 61.6997L65.1016 57.6997C64.6016 57.2997 64.4016 56.4997 64.7016 55.8997C65.6016 53.5997 66.3016 51.2997 66.8016 48.9997C66.9016 48.3997 67.4016 47.5997 67.9016 47.2997L76.1016 41.5997C76.6016 41.1997 77.0016 40.3997 77.0016 39.7997ZM42.0016 72.2997C33.7016 77.0997 26.9016 73.1997 26.9016 63.5997C26.9016 53.9997 33.7016 42.2997 42.0016 37.3997C50.3016 32.5997 57.1016 36.4997 57.1016 46.0997C57.1016 55.7997 50.4016 67.4997 42.0016 72.2997Z" fill="#638EB9" stroke="#BBCDE1" stroke-width="0.7087" stroke-miterlimit="10" stroke-linecap="round"/>
<g opacity="0.55">
<path opacity="0.55" d="M63.3016 10.9997C63.4016 10.9997 63.4016 10.9997 63.5016 11.0997L69.3016 14.3997C69.5016 14.4997 69.6016 14.7997 69.5016 14.9997L64.2016 25.6997C63.8016 26.4997 63.9016 27.5997 64.4016 28.3997C65.1016 29.4997 65.7016 30.7997 66.1016 32.1997C66.3016 32.9997 67.0016 33.3997 67.7016 33.3997C67.9016 33.3997 68.2016 33.2997 68.4016 33.1997L76.3016 29.5997V39.8997C76.3016 40.2997 76.0016 40.7997 75.7016 40.9997L67.5016 46.6997C66.9016 47.1997 66.2016 48.0997 66.1016 48.8997C65.6016 51.0997 64.9016 53.3997 64.1016 55.6997C63.8016 56.5997 64.1016 57.6997 64.8016 58.2997L69.4016 62.2997C69.6016 62.4997 69.7016 62.7997 69.5016 62.9997L62.9016 74.3997C62.8016 74.5997 62.6016 74.6997 62.4016 74.6997C62.3016 74.6997 62.3016 74.6997 62.2016 74.6997L56.5016 72.6997C56.3016 72.5997 56.0016 72.5997 55.8016 72.5997C55.1016 72.5997 54.4016 72.8997 53.9016 73.3997C52.3016 75.2997 50.7016 76.9997 49.0016 78.5997C48.4016 79.0997 47.9016 80.1997 47.8016 80.8997L46.9016 90.7997C46.9016 91.1997 46.5016 91.6997 46.2016 91.8997L37.3016 96.9997L36.4016 88.3997C36.3016 87.4997 35.6016 86.7997 34.7016 86.7997C34.6016 86.7997 34.4016 86.7997 34.3016 86.7997C33.0016 87.0997 31.8016 87.1997 30.6016 87.1997C30.5016 87.1997 30.3016 87.1997 30.2016 87.1997H30.1016C29.2016 87.1997 28.2016 87.6997 27.8016 88.3997L21.2016 98.2997C21.1016 98.3997 21.0016 98.4997 20.8016 98.4997C20.7016 98.4997 20.7016 98.4997 20.6016 98.3997L14.8016 95.0997C14.6016 94.9997 14.5016 94.6997 14.6016 94.4997L19.9016 83.7997C20.3016 82.9997 20.2016 81.8997 19.7016 81.0997C19.0016 79.9997 18.4016 78.6997 18.0016 77.2997C17.8016 76.4997 17.1016 76.0997 16.4016 76.0997C16.2016 76.0997 15.9016 76.1997 15.7016 76.2997L7.80156 79.8997V69.5997C7.80156 69.1997 8.10156 68.6997 8.40156 68.4997L16.6016 62.7997C17.2016 62.2997 17.9016 61.3997 18.0016 60.5997C18.5016 58.3997 19.2016 56.0997 20.0016 53.7997C20.3016 52.8997 20.0016 51.7997 19.3016 51.1997L14.7016 47.1997C14.5016 46.9997 14.4016 46.6997 14.6016 46.4997L21.2016 35.0997C21.3016 34.8997 21.5016 34.7997 21.7016 34.7997C21.8016 34.7997 21.8016 34.7997 21.9016 34.7997L27.6016 36.7997C27.8016 36.8997 28.1016 36.8997 28.3016 36.8997C29.0016 36.8997 29.7016 36.5997 30.2016 36.0997C31.8016 34.1997 33.4016 32.4997 35.1016 30.8997C35.7016 30.3997 36.2016 29.2997 36.3016 28.5997L37.2016 18.6997C37.2016 18.2997 37.6016 17.7997 37.9016 17.5997L46.8016 12.4997L47.7016 21.0997C47.8016 21.9997 48.5016 22.6997 49.4016 22.6997C49.5016 22.6997 49.7016 22.6997 49.8016 22.6997C51.1016 22.3997 52.3016 22.2997 53.5016 22.2997C53.6016 22.2997 53.8016 22.2997 53.9016 22.2997H54.0016C54.9016 22.2997 55.9016 21.7997 56.3016 21.0997L62.9016 11.1997C63.0016 11.0997 63.1016 10.9997 63.3016 10.9997ZM35.3016 75.0997C37.5016 75.0997 39.9016 74.3997 42.4016 72.8997C50.9016 67.9997 57.9016 55.8997 57.9016 46.0997C57.9016 42.5997 57.0016 39.6997 55.4016 37.6997C53.8016 35.6997 51.5016 34.5997 48.8016 34.5997C46.6016 34.5997 44.2016 35.2997 41.7016 36.7997C33.2016 41.6997 26.2016 53.7997 26.2016 63.5997C26.2016 70.5997 29.7016 75.0997 35.3016 75.0997ZM63.3016 10.1997C62.9016 10.1997 62.5016 10.3997 62.3016 10.6997L55.7016 20.5997C55.4016 21.0997 54.6016 21.4997 54.0016 21.4997C53.9016 21.4997 53.7016 21.4997 53.6016 21.4997C52.4016 21.4997 51.1016 21.5997 49.7016 21.8997C49.6016 21.8997 49.5016 21.8997 49.5016 21.8997C49.0016 21.8997 48.6016 21.5997 48.6016 20.9997L47.7016 12.2997C47.7016 11.8997 47.4016 11.5997 47.1016 11.5997C47.0016 11.5997 46.8016 11.5997 46.7016 11.6997L37.8016 16.8997C37.3016 17.1997 36.8016 17.9997 36.7016 18.5997L35.8016 28.4997C35.7016 29.0997 35.3016 29.8997 34.9016 30.3997C33.2016 31.9997 31.5016 33.7997 29.9016 35.6997C29.6016 36.0997 29.1016 36.2997 28.6016 36.2997C28.4016 36.2997 28.3016 36.2997 28.1016 36.1997L22.4016 34.1997C22.3016 34.1997 22.1016 34.0997 22.0016 34.0997C21.5016 34.0997 21.0016 34.3997 20.8016 34.7997L14.0016 46.2997C13.7016 46.7997 13.8016 47.5997 14.3016 47.9997L18.9016 51.9997C19.4016 52.3997 19.6016 53.1997 19.3016 53.7997C18.4016 56.0997 17.7016 58.3997 17.2016 60.6997C17.1016 61.2997 16.6016 62.0997 16.1016 62.3997L8.00156 68.0997C7.50156 68.4997 7.10156 69.1997 7.10156 69.8997V80.1997C7.10156 80.6997 7.40156 80.8997 7.70156 80.8997C7.80156 80.8997 7.90156 80.8997 8.10156 80.7997L16.1016 77.1997C16.2016 77.0997 16.4016 77.0997 16.5016 77.0997C16.9016 77.0997 17.3016 77.3997 17.4016 77.7997C17.9016 79.2997 18.5016 80.5997 19.2016 81.6997C19.5016 82.1997 19.6016 83.0997 19.3016 83.5997L14.0016 94.3997C13.7016 94.9997 13.9016 95.5997 14.5016 95.9997L20.3016 99.2997C20.5016 99.3997 20.7016 99.4997 20.9016 99.4997C21.3016 99.4997 21.7016 99.2997 21.9016 98.9997L28.5016 89.0997C28.8016 88.5997 29.6016 88.1997 30.2016 88.1997C30.3016 88.1997 30.5016 88.1997 30.6016 88.1997C31.8016 88.1997 33.1016 88.0997 34.5016 87.7997C34.6016 87.7997 34.7016 87.7997 34.7016 87.7997C35.2016 87.7997 35.6016 88.0997 35.6016 88.6997L36.5016 97.3997C36.5016 97.7997 36.8016 98.0997 37.1016 98.0997C37.2016 98.0997 37.4016 98.0997 37.5016 97.9997L46.4016 92.7997C46.9016 92.4997 47.4016 91.6997 47.5016 91.0997L48.4016 81.1997C48.5016 80.5997 48.9016 79.7997 49.3016 79.2997C51.0016 77.6997 52.7016 75.8997 54.3016 73.9997C54.6016 73.5997 55.1016 73.3997 55.6016 73.3997C55.8016 73.3997 55.9016 73.3997 56.1016 73.4997L61.8016 75.4997C61.9016 75.4997 62.1016 75.5997 62.2016 75.5997C62.7016 75.5997 63.2016 75.2997 63.4016 74.8997L70.0016 63.3997C70.3016 62.8997 70.2016 62.0997 69.7016 61.6997L65.1016 57.6997C64.6016 57.2997 64.4016 56.4997 64.7016 55.8997C65.6016 53.5997 66.3016 51.2997 66.8016 48.9997C66.9016 48.3997 67.4016 47.5997 67.9016 47.2997L76.1016 41.5997C76.6016 41.1997 77.0016 40.4997 77.0016 39.7997V29.4997C77.0016 28.9997 76.7016 28.7997 76.4016 28.7997C76.3016 28.7997 76.2016 28.7997 76.0016 28.8997L68.0016 32.4997C67.9016 32.5997 67.7016 32.5997 67.6016 32.5997C67.2016 32.5997 66.8016 32.2997 66.7016 31.8997C66.2016 30.3997 65.6016 29.0997 64.9016 27.9997C64.6016 27.4997 64.5016 26.5997 64.8016 26.0997L70.1016 15.3997C70.4016 14.7997 70.2016 14.1997 69.6016 13.7997L63.8016 10.4997C63.7016 10.2997 63.5016 10.1997 63.3016 10.1997ZM35.3016 74.2997C30.3016 74.2997 26.9016 70.3997 26.9016 63.4997C26.9016 53.8997 33.7016 42.1997 42.0016 37.2997C44.4016 35.8997 46.7016 35.1997 48.7016 35.1997C53.7016 35.1997 57.1016 39.0997 57.1016 45.9997C57.1016 55.5997 50.3016 67.2997 42.0016 72.1997C39.6016 73.6997 37.3016 74.2997 35.3016 74.2997Z" fill="#638EB9" stroke="#BBCDE1" stroke-width="0.7087" stroke-miterlimit="10" stroke-linecap="round"/>
</g>
<path d="M126.701 25.0998C126.801 24.3998 127.201 23.4998 127.701 22.9998L131.901 19.0998C132.401 18.5998 132.701 17.6998 132.601 16.9998L131.801 12.3998C131.701 12.0998 131.601 11.8998 131.401 11.7998L126.401 8.89978C126.201 8.79978 125.801 8.79978 125.501 8.99978L123.701 10.1998L125.501 5.49978C125.701 4.99978 125.501 4.39978 125.001 4.19978L120.001 1.29978C119.901 1.19978 119.801 1.19978 119.701 1.19978L116.501 0.49978C115.801 0.29978 115.001 0.69978 114.701 1.29978L111.701 6.99978C111.501 7.39978 111.001 7.79978 110.501 8.09978L110.401 7.59978C110.301 7.29978 110.201 7.19978 110.001 6.99978L105.001 4.09978C104.701 3.99978 104.401 3.99978 104.001 4.19978L99.3012 7.99978C98.8012 8.39978 98.4012 9.29978 98.4012 9.99978L98.7012 14.4998C98.7012 15.1998 98.4012 16.1998 98.0012 16.6998C97.2012 17.5998 96.5012 18.5998 95.8012 19.5998C95.4012 20.1998 94.5012 20.5998 93.9012 20.5998L90.8012 20.3998C90.1012 20.3998 89.3012 20.8998 89.0012 21.4998L86.0012 28.0998C85.7012 28.6998 86.0012 29.2998 86.5012 29.6998L89.9012 31.6998C90.0012 31.9998 90.0012 32.2998 90.0012 32.5998C89.8012 33.5998 89.6012 34.6998 89.5012 35.6998C89.4012 36.3998 89.0012 37.2998 88.5012 37.7998L84.3012 41.6998C83.8012 42.1998 83.5012 43.0998 83.6012 43.7998L84.4012 48.3998C84.5012 48.6998 84.6012 48.8998 84.8012 48.9998L89.8012 51.8998C90.0012 51.9998 90.3012 51.9998 90.7012 51.7998L92.5012 50.5998L90.7012 55.2998C90.5012 55.7998 90.7012 56.2998 91.1012 56.5998L96.1012 59.4998C96.2012 59.5998 96.3012 59.5998 96.5012 59.6998L99.7012 60.3998C100.401 60.5998 101.201 60.1998 101.501 59.5998L104.501 53.8998C104.701 53.4998 105.201 53.0998 105.701 52.7998L105.801 53.2998C105.901 53.5998 106.001 53.7998 106.201 53.8998L111.201 56.7998H111.301C111.601 56.8998 111.901 56.8998 112.201 56.6998L117.001 52.9998C117.501 52.5998 117.901 51.6998 117.901 50.9998L117.601 46.4998C117.601 45.7998 117.901 44.7998 118.301 44.2998C119.101 43.3998 119.801 42.3998 120.501 41.3998C120.901 40.7998 121.701 40.3998 122.401 40.3998L125.501 40.5998C126.201 40.5998 127.001 40.0998 127.301 39.4998L130.201 32.9998C130.501 32.3998 130.201 31.5998 129.601 31.3998L127.101 30.2998C126.501 29.9998 126.101 29.2998 126.301 28.5998C126.401 27.1998 126.601 26.0998 126.701 25.0998ZM101.201 39.0998C100.301 33.6998 103.701 25.9998 108.901 21.8998C110.801 20.3998 112.701 19.5998 114.301 19.4998C114.601 20.0998 114.801 20.6998 114.901 21.4998C115.801 26.8998 112.401 34.5998 107.201 38.6998C105.301 40.1998 103.401 40.9998 101.801 41.0998C101.601 40.4998 101.401 39.8998 101.201 39.0998Z" fill="#638EB9" stroke="#BBCDE1" stroke-width="0.7087" stroke-miterlimit="10" stroke-linecap="round"/>
<path opacity="0.2" d="M126.701 25.0998C126.801 24.3998 127.201 23.4998 127.701 22.9998L131.901 19.0998C132.401 18.5998 132.701 17.6998 132.601 16.9998L131.801 12.3998C131.701 12.0998 131.601 11.8998 131.401 11.7998L126.401 8.89978C126.201 8.79978 125.801 8.79978 125.501 8.99978L123.701 10.1998L125.501 5.49978C125.701 4.99978 125.501 4.39978 125.001 4.19978L120.001 1.29978C119.901 1.19978 119.801 1.19978 119.701 1.19978L116.501 0.49978C115.801 0.29978 115.001 0.69978 114.701 1.29978L111.701 6.99978C111.501 7.39978 111.001 7.79978 110.501 8.09978L110.401 7.59978C110.301 7.29978 110.201 7.19978 110.001 6.99978L105.001 4.09978C104.701 3.99978 104.401 3.99978 104.001 4.19978L99.3012 7.99978C98.8012 8.39978 98.4012 9.29978 98.4012 9.99978L98.7012 14.4998C98.7012 15.1998 98.4012 16.1998 98.0012 16.6998C97.2012 17.5998 96.5012 18.5998 95.8012 19.5998C95.4012 20.1998 94.5012 20.5998 93.9012 20.5998L90.8012 20.3998C90.1012 20.3998 89.3012 20.8998 89.0012 21.4998L86.0012 28.0998C85.7012 28.6998 86.0012 29.2998 86.5012 29.6998L89.9012 31.6998C90.0012 31.9998 90.0012 32.2998 90.0012 32.5998C89.8012 33.5998 89.6012 34.6998 89.5012 35.6998C89.4012 36.3998 89.0012 37.2998 88.5012 37.7998L84.3012 41.6998C83.8012 42.1998 83.5012 43.0998 83.6012 43.7998L84.4012 48.3998C84.5012 48.6998 84.6012 48.8998 84.8012 48.9998L89.8012 51.8998C90.0012 51.9998 90.3012 51.9998 90.7012 51.7998L92.5012 50.5998L90.7012 55.2998C90.5012 55.7998 90.7012 56.2998 91.1012 56.5998L96.1012 59.4998C96.2012 59.5998 96.3012 59.5998 96.5012 59.6998L99.7012 60.3998C100.401 60.5998 101.201 60.1998 101.501 59.5998L104.501 53.8998C104.701 53.4998 105.201 53.0998 105.701 52.7998L105.801 53.2998C105.901 53.5998 106.001 53.7998 106.201 53.8998L111.201 56.7998H111.301C111.601 56.8998 111.901 56.8998 112.201 56.6998L117.001 52.9998C117.501 52.5998 117.901 51.6998 117.901 50.9998L117.601 46.4998C117.601 45.7998 117.901 44.7998 118.301 44.2998C119.101 43.3998 119.801 42.3998 120.501 41.3998C120.901 40.7998 121.701 40.3998 122.401 40.3998L125.501 40.5998C126.201 40.5998 127.001 40.0998 127.301 39.4998L130.201 32.9998C130.501 32.3998 130.201 31.5998 129.601 31.3998L127.101 30.2998C126.501 29.9998 126.101 29.2998 126.301 28.5998C126.401 27.1998 126.601 26.0998 126.701 25.0998ZM101.201 39.0998C100.301 33.6998 103.701 25.9998 108.901 21.8998C110.801 20.3998 112.701 19.5998 114.301 19.4998C114.601 20.0998 114.801 20.6998 114.901 21.4998C115.801 26.8998 112.401 34.5998 107.201 38.6998C105.301 40.1998 103.401 40.9998 101.801 41.0998C101.601 40.4998 101.401 39.8998 101.201 39.0998Z" fill="#638EB9" stroke="#BBCDE1" stroke-width="0.7087" stroke-miterlimit="10" stroke-linecap="round"/>
<path opacity="0.1" d="M96.5019 49.3C96.1019 48.7 95.4019 48.5 94.8019 48.9L92.4019 50.5L90.6019 55.2C90.4019 55.7 90.6019 56.2 91.0019 56.5L96.0019 59.4C95.6019 59.1 95.4019 58.6 95.6019 58.1L97.8019 52.3C98.0019 51.7 97.8019 50.8 97.3019 50.3C97.0019 50 96.8019 49.6 96.5019 49.3ZM111.202 56.5C111.002 56.4 110.902 56.2 110.802 55.9L109.702 52.3C109.502 51.6 108.802 51.4 108.202 51.6C107.502 51.9 106.902 52.1 106.202 52.3C106.002 52.3 105.802 52.4 105.602 52.6L105.702 53.1C105.802 53.4 105.902 53.6 106.102 53.7L111.202 56.5Z" fill="#638EB9" stroke="#BBCDE1" stroke-width="0.7087" stroke-miterlimit="10" stroke-linecap="round"/>
<path opacity="0.1" d="M112.3 41.5997C107.8 45.0997 103.5 44.7997 101.9 41.0997C103.6 40.9997 105.4 40.1997 107.3 38.6997C112.5 34.5997 115.9 26.8997 115 21.4997C114.9 20.6997 114.7 20.0997 114.4 19.4997C117.2 19.2997 119.4 20.9997 120 24.3997C120.9 29.7997 117.4 37.4997 112.3 41.5997Z" fill="#638EB9" stroke="#BBCDE1" stroke-width="0.7087" stroke-miterlimit="10" stroke-linecap="round"/>
<path d="M94.6016 20.4998C94.3016 20.5998 94.0016 20.6998 93.7016 20.6998L90.6016 20.5998C90.2016 20.5998 89.7016 20.7998 89.3016 21.0998L94.3016 23.9998C94.7016 23.6998 95.1016 23.4998 95.6016 23.4998L98.7016 23.5998C99.0016 23.5998 99.3016 23.5998 99.6016 23.3998L94.6016 20.4998ZM105.002 4.09981C104.702 3.99981 104.402 3.99981 104.002 4.19981L99.3016 7.99981C98.9016 8.29981 98.7016 8.79981 98.5016 9.29981L103.502 12.1998C103.602 11.6998 103.902 11.1998 104.302 10.8998L109.102 7.19981C109.402 6.89981 109.802 6.89981 110.002 7.09981L105.002 4.09981ZM88.4016 37.6998L84.2016 41.4998C83.9016 41.7998 83.7016 42.1998 83.6016 42.6998L88.6016 45.5998C88.7016 45.0998 89.0016 44.6998 89.3016 44.3998L93.5016 40.5998L88.4016 37.6998ZM120.002 1.19981C119.902 1.09981 119.802 1.09981 119.702 1.09981L116.502 0.399809C115.802 0.299809 115.002 0.599809 114.702 1.19981L111.702 6.89981C111.602 7.19981 111.302 7.39981 111.002 7.69981L116.002 10.5998C116.302 10.3998 116.502 10.0998 116.702 9.79981L119.702 4.09981C120.002 3.49981 120.802 3.09981 121.502 3.29981L124.702 3.99981C124.802 3.99981 124.902 4.09981 125.002 4.09981L120.002 1.19981ZM126.402 8.89981C126.202 8.79981 125.802 8.79981 125.502 8.99981L123.702 10.1998L123.302 11.2998C123.102 11.8998 123.302 12.7998 123.802 13.2998C124.102 13.5998 124.402 13.8998 124.602 14.2998C124.702 14.3998 124.702 14.4998 124.802 14.4998C124.902 14.4998 124.902 14.5998 125.002 14.5998C125.102 14.6998 125.302 14.6998 125.402 14.7998C125.602 14.7998 125.802 14.7998 126.002 14.7998C126.102 14.7998 126.202 14.6998 126.302 14.6998L130.502 11.8998C130.602 11.7998 130.702 11.7998 130.802 11.7998C130.902 11.7998 131.002 11.7998 131.202 11.7998C131.302 11.7998 131.302 11.7998 131.402 11.8998L126.402 8.89981Z" fill="#638EB9" stroke="#BBCDE1" stroke-width="0.7087" stroke-miterlimit="10" stroke-linecap="round"/>
<path opacity="0.7" d="M94.6016 20.4998C94.3016 20.5998 94.0016 20.6998 93.7016 20.6998L90.6016 20.5998C90.2016 20.5998 89.7016 20.7998 89.3016 21.0998L94.3016 23.9998C94.7016 23.6998 95.1016 23.4998 95.6016 23.4998L98.7016 23.5998C99.0016 23.5998 99.3016 23.5998 99.6016 23.3998L94.6016 20.4998ZM105.002 4.09981C104.702 3.99981 104.402 3.99981 104.002 4.19981L99.3016 7.99981C98.9016 8.29981 98.7016 8.79981 98.5016 9.29981L103.502 12.1998C103.602 11.6998 103.902 11.1998 104.302 10.8998L109.102 7.19981C109.402 6.89981 109.802 6.89981 110.002 7.09981L105.002 4.09981ZM88.4016 37.6998L84.2016 41.4998C83.9016 41.7998 83.7016 42.1998 83.6016 42.6998L88.6016 45.5998C88.7016 45.0998 89.0016 44.6998 89.3016 44.3998L93.5016 40.5998L88.4016 37.6998ZM120.002 1.19981C119.902 1.09981 119.802 1.09981 119.702 1.09981L116.502 0.399809C115.802 0.299809 115.002 0.599809 114.702 1.19981L111.702 6.89981C111.602 7.19981 111.302 7.39981 111.002 7.69981L116.002 10.5998C116.302 10.3998 116.502 10.0998 116.702 9.79981L119.702 4.09981C120.002 3.49981 120.802 3.09981 121.502 3.29981L124.702 3.99981C124.802 3.99981 124.902 4.09981 125.002 4.09981L120.002 1.19981ZM126.402 8.89981C126.202 8.79981 125.802 8.79981 125.502 8.99981L123.702 10.1998L123.302 11.2998C123.102 11.8998 123.302 12.7998 123.802 13.2998C124.102 13.5998 124.402 13.8998 124.602 14.2998C124.702 14.3998 124.702 14.4998 124.802 14.4998C124.902 14.4998 124.902 14.5998 125.002 14.5998C125.102 14.6998 125.302 14.6998 125.402 14.7998C125.602 14.7998 125.802 14.7998 126.002 14.7998C126.102 14.7998 126.202 14.6998 126.302 14.6998L130.502 11.8998C130.602 11.7998 130.702 11.7998 130.802 11.7998C130.902 11.7998 131.002 11.7998 131.202 11.7998C131.302 11.7998 131.302 11.7998 131.402 11.8998L126.402 8.89981Z" fill="#638EB9" stroke="#BBCDE1" stroke-width="0.7087" stroke-miterlimit="10" stroke-linecap="round"/>
<path d="M132.601 16.9997L131.801 12.3997C131.701 11.6997 131.101 11.4997 130.501 11.8997L126.301 14.6997C125.701 15.0997 125.001 14.8997 124.601 14.2997C124.301 13.8997 124.101 13.5997 123.801 13.2997C123.301 12.7997 123.101 11.8997 123.301 11.2997L125.501 5.49968C125.701 4.89968 125.401 4.19968 124.701 4.09968L121.501 3.39968C120.801 3.19968 120.001 3.59968 119.701 4.19968L116.701 9.89968C116.401 10.4997 115.601 11.0997 114.901 11.2997C114.301 11.4997 113.601 11.6997 112.901 11.8997C112.301 12.1997 111.601 11.8997 111.401 11.1997L110.301 7.59968C110.101 6.89968 109.501 6.69968 109.001 7.19968L104.201 10.8997C103.701 11.2997 103.301 12.1997 103.301 12.8997L103.601 17.3997C103.601 18.0997 103.301 19.0997 102.901 19.5997C102.101 20.4997 101.401 21.4997 100.701 22.4997C100.301 23.0997 99.5008 23.4997 98.8008 23.4997L95.7008 23.2997C95.0008 23.2997 94.2008 23.7997 93.9008 24.3997L91.1008 30.9997C90.8008 31.5997 91.1008 32.3997 91.7008 32.5997L94.2008 33.6997C94.8008 33.9997 95.2008 34.6997 95.1008 35.3997C94.9008 36.3997 94.7008 37.4997 94.6008 38.4997C94.5008 39.1997 94.1008 40.0997 93.6008 40.5997L89.4008 44.4997C88.9008 44.9997 88.6008 45.8997 88.7008 46.5997L89.5008 51.1997C89.6008 51.8997 90.2008 52.0997 90.8008 51.6997L95.0008 48.8997C95.6008 48.4997 96.3008 48.6997 96.7008 49.2997C97.0008 49.6997 97.2008 49.9997 97.5008 50.2997C98.0008 50.7997 98.2008 51.6997 98.0008 52.2997L95.8008 58.0997C95.6008 58.6997 95.9008 59.3997 96.6008 59.4997L99.8008 60.1997C100.501 60.3997 101.301 59.9997 101.601 59.3997L104.601 53.6997C104.901 53.0997 105.701 52.4997 106.401 52.2997C107.001 52.0997 107.701 51.8997 108.401 51.6997C109.001 51.3997 109.701 51.6997 109.901 52.3997L111.001 55.9997C111.201 56.6997 111.801 56.8997 112.301 56.3997L117.101 52.6997C117.601 52.2997 118.001 51.3997 118.001 50.6997L117.701 46.1997C117.701 45.4997 118.001 44.4997 118.401 43.9997C119.201 43.0997 119.901 42.0997 120.601 41.0997C121.001 40.4997 121.801 40.0997 122.501 40.0997L125.601 40.2997C126.301 40.2997 127.101 39.8997 127.401 39.1997L130.301 32.6997C130.601 32.0997 130.301 31.2997 129.701 31.0997L127.201 29.9997C126.601 29.6997 126.201 28.9997 126.401 28.2997C126.601 27.2997 126.801 26.1997 126.901 25.1997C127.001 24.4997 127.401 23.5997 127.901 23.0997L132.101 19.1997C132.401 18.6997 132.801 17.6997 132.601 16.9997ZM112.301 41.5997C107.101 45.6997 102.201 44.5997 101.201 39.0997C100.301 33.6997 103.701 25.9997 108.901 21.8997C114.101 17.7997 119.001 18.8997 120.001 24.3997C120.901 29.7997 117.401 37.4997 112.301 41.5997Z" fill="#638EB9" stroke="#BBCDE1" stroke-width="0.7087" stroke-miterlimit="10" stroke-linecap="round"/>
<path opacity="0.55" d="M132.601 16.9997L131.801 12.3997C131.701 11.6997 131.101 11.4997 130.501 11.8997L126.301 14.6997C125.701 15.0997 125.001 14.8997 124.601 14.2997C124.301 13.8997 124.101 13.5997 123.801 13.2997C123.301 12.7997 123.101 11.8997 123.301 11.2997L125.501 5.49968C125.701 4.89968 125.401 4.19968 124.701 4.09968L121.501 3.39968C120.801 3.19968 120.001 3.59968 119.701 4.19968L116.701 9.89968C116.401 10.4997 115.601 11.0997 114.901 11.2997C114.301 11.4997 113.601 11.6997 112.901 11.8997C112.301 12.1997 111.601 11.8997 111.401 11.1997L110.301 7.59968C110.101 6.89968 109.501 6.69968 109.001 7.19968L104.201 10.8997C103.701 11.2997 103.301 12.1997 103.301 12.8997L103.601 17.3997C103.601 18.0997 103.301 19.0997 102.901 19.5997C102.101 20.4997 101.401 21.4997 100.701 22.4997C100.301 23.0997 99.5008 23.4997 98.8008 23.4997L95.7008 23.2997C95.0008 23.2997 94.2008 23.7997 93.9008 24.3997L91.1008 30.9997C90.8008 31.5997 91.1008 32.3997 91.7008 32.5997L94.2008 33.6997C94.8008 33.9997 95.2008 34.6997 95.1008 35.3997C94.9008 36.3997 94.7008 37.4997 94.6008 38.4997C94.5008 39.1997 94.1008 40.0997 93.6008 40.5997L89.4008 44.4997C88.9008 44.9997 88.6008 45.8997 88.7008 46.5997L89.5008 51.1997C89.6008 51.8997 90.2008 52.0997 90.8008 51.6997L95.0008 48.8997C95.6008 48.4997 96.3008 48.6997 96.7008 49.2997C97.0008 49.6997 97.2008 49.9997 97.5008 50.2997C98.0008 50.7997 98.2008 51.6997 98.0008 52.2997L95.8008 58.0997C95.6008 58.6997 95.9008 59.3997 96.6008 59.4997L99.8008 60.1997C100.501 60.3997 101.301 59.9997 101.601 59.3997L104.601 53.6997C104.901 53.0997 105.701 52.4997 106.401 52.2997C107.001 52.0997 107.701 51.8997 108.401 51.6997C109.001 51.3997 109.701 51.6997 109.901 52.3997L111.001 55.9997C111.201 56.6997 111.801 56.8997 112.301 56.3997L117.101 52.6997C117.601 52.2997 118.001 51.3997 118.001 50.6997L117.701 46.1997C117.701 45.4997 118.001 44.4997 118.401 43.9997C119.201 43.0997 119.901 42.0997 120.601 41.0997C121.001 40.4997 121.801 40.0997 122.501 40.0997L125.601 40.2997C126.301 40.2997 127.101 39.8997 127.401 39.1997L130.301 32.6997C130.601 32.0997 130.301 31.2997 129.701 31.0997L127.201 29.9997C126.601 29.6997 126.201 28.9997 126.401 28.2997C126.601 27.2997 126.801 26.1997 126.901 25.1997C127.001 24.4997 127.401 23.5997 127.901 23.0997L132.101 19.1997C132.401 18.6997 132.801 17.6997 132.601 16.9997ZM112.301 41.5997C107.101 45.6997 102.201 44.5997 101.201 39.0997C100.301 33.6997 103.701 25.9997 108.901 21.8997C114.101 17.7997 119.001 18.8997 120.001 24.3997C120.901 29.7997 117.401 37.4997 112.301 41.5997Z" fill="#638EB9" stroke="#BBCDE1" stroke-width="0.7087" stroke-miterlimit="10" stroke-linecap="round"/>
<g opacity="0.55">
<path opacity="0.55" d="M121.201 3.9998C121.301 3.9998 121.301 3.9998 121.301 3.9998L124.501 4.6998C124.601 4.6998 124.701 4.7998 124.701 4.8998C124.701 4.9998 124.701 5.0998 124.701 5.1998L122.501 10.9998C122.201 11.8998 122.501 13.0998 123.201 13.7998C123.501 14.0998 123.701 14.3998 124.001 14.6998C124.401 15.2998 125.001 15.5998 125.701 15.5998C126.101 15.5998 126.401 15.4998 126.801 15.2998L131.001 12.4998H131.101C131.101 12.4998 131.101 12.4998 131.101 12.5998L131.901 17.1998C132.001 17.5998 131.701 18.2998 131.401 18.5998L127.201 22.4998C126.601 23.0998 126.001 24.1998 125.901 25.0998C125.801 26.0998 125.601 27.0998 125.401 28.0998C125.201 29.0998 125.701 30.2998 126.701 30.6998L129.201 31.7998C129.301 31.8998 129.401 31.8998 129.501 32.0998C129.501 32.1998 129.501 32.2998 129.501 32.4998L126.601 38.9998C126.501 39.2998 126.001 39.5998 125.601 39.5998L122.501 39.3998H122.401C121.501 39.3998 120.401 39.9998 119.901 40.6998C119.201 41.6998 118.501 42.6998 117.701 43.5998C117.101 44.2998 116.701 45.4998 116.801 46.2998L117.101 50.7998C117.101 51.1998 116.801 51.8998 116.501 52.1998L111.701 55.8998C111.601 55.8998 111.601 55.9998 111.601 55.9998C111.601 55.9998 111.601 55.9998 111.501 55.8998L110.401 52.2998C110.201 51.4998 109.501 50.9998 108.601 50.9998C108.301 50.9998 108.101 51.0998 107.801 51.1998C107.201 51.4998 106.501 51.6998 105.901 51.7998C105.101 51.9998 104.101 52.6998 103.601 53.4998L100.601 59.1998C100.501 59.4998 100.101 59.6998 99.8008 59.6998C99.7008 59.6998 99.7008 59.6998 99.7008 59.6998L96.5008 58.9998C96.4008 58.9998 96.3008 58.8998 96.3008 58.7998C96.3008 58.6998 96.3008 58.5998 96.3008 58.4998L98.5008 52.6998C98.8008 51.7998 98.5008 50.5998 97.8008 49.8998C97.5008 49.5998 97.3008 49.2998 97.0008 48.9998C96.6008 48.3998 96.0008 48.0998 95.3008 48.0998C94.9008 48.0998 94.6008 48.1998 94.2008 48.3998L90.2008 50.9998H90.1008C90.1008 50.9998 90.1008 50.9998 90.1008 50.8998L89.3008 46.2998C89.2008 45.8998 89.5008 45.1998 89.8008 44.8998L94.0008 40.9998C94.6008 40.3998 95.2008 39.2998 95.3008 38.3998C95.4008 37.3998 95.6008 36.3998 95.8008 35.3998C96.0008 34.3998 95.5008 33.1998 94.5008 32.7998L92.0008 31.8998C91.9008 31.7998 91.8008 31.7998 91.7008 31.5998C91.7008 31.4998 91.7008 31.3998 91.7008 31.1998L94.6008 24.6998C94.7008 24.3998 95.2008 24.0998 95.6008 24.0998L98.7008 24.2998H98.8008C99.7008 24.2998 100.801 23.6998 101.301 22.9998C102.001 21.9998 102.701 20.9998 103.501 20.0998C104.101 19.3998 104.501 18.1998 104.401 17.3998L104.101 12.8998C104.101 12.4998 104.401 11.7998 104.701 11.4998L109.501 7.7998C109.601 7.7998 109.601 7.6998 109.601 7.6998C109.601 7.6998 109.601 7.6998 109.701 7.7998L110.801 11.3998C111.001 12.1998 111.701 12.6998 112.601 12.6998C112.901 12.6998 113.101 12.5998 113.401 12.4998C114.001 12.1998 114.701 11.9998 115.301 11.8998C116.101 11.6998 117.101 10.9998 117.601 10.1998L120.601 4.4998C120.501 4.1998 120.901 3.9998 121.201 3.9998ZM106.301 44.7998C108.301 44.7998 110.501 43.8998 112.701 42.1998C118.101 37.9998 121.601 29.9998 120.601 24.2998C120.001 20.7998 117.801 18.6998 114.701 18.6998C112.701 18.6998 110.501 19.5998 108.301 21.2998C102.901 25.4998 99.4008 33.4998 100.401 39.1998C101.101 42.6998 103.301 44.7998 106.301 44.7998ZM121.201 3.2998C120.601 3.2998 120.001 3.5998 119.701 4.1998L116.701 9.8998C116.401 10.4998 115.601 11.0998 114.901 11.2998C114.301 11.4998 113.601 11.6998 112.901 11.8998C112.701 11.9998 112.601 11.9998 112.401 11.9998C111.901 11.9998 111.501 11.6998 111.401 11.1998L110.301 7.5998C110.201 7.1998 109.901 6.8998 109.501 6.8998C109.301 6.8998 109.101 6.9998 108.901 7.0998L104.101 10.7998C103.601 11.1998 103.201 12.0998 103.201 12.7998L103.501 17.2998C103.501 17.9998 103.201 18.9998 102.801 19.4998C102.001 20.3998 101.301 21.3998 100.601 22.3998C100.201 22.9998 99.4008 23.3998 98.7008 23.3998H98.6008L95.5008 23.1998C95.5008 23.1998 95.5008 23.1998 95.4008 23.1998C94.7008 23.1998 94.0008 23.6998 93.7008 24.2998L91.1008 30.9998C90.8008 31.5998 91.1008 32.3998 91.7008 32.5998L94.2008 33.6998C94.8008 33.9998 95.2008 34.6998 95.1008 35.3998C94.9008 36.3998 94.7008 37.4998 94.6008 38.4998C94.5008 39.1998 94.1008 40.0998 93.6008 40.5998L89.4008 44.4998C88.9008 44.9998 88.6008 45.8998 88.7008 46.5998L89.5008 51.1998C89.6008 51.6998 89.9008 51.8998 90.2008 51.8998C90.4008 51.8998 90.6008 51.7998 90.7008 51.6998L94.9008 48.8998C95.1008 48.7998 95.3008 48.6998 95.5008 48.6998C95.9008 48.6998 96.3008 48.8998 96.6008 49.2998C96.9008 49.6998 97.1008 49.9998 97.4008 50.2998C97.9008 50.7998 98.1008 51.6998 97.9008 52.2998L95.7008 58.0998C95.5008 58.6998 95.8008 59.3998 96.5008 59.4998L99.7008 60.1998C99.8008 60.1998 99.9008 60.1998 100.001 60.1998C100.601 60.1998 101.201 59.8998 101.501 59.2998L104.501 53.5998C104.801 52.9998 105.601 52.3998 106.301 52.1998C106.901 51.9998 107.601 51.7998 108.301 51.5998C108.501 51.4998 108.601 51.4998 108.801 51.4998C109.301 51.4998 109.701 51.7998 109.801 52.2998L110.901 55.8998C111.001 56.2998 111.301 56.5998 111.701 56.5998C111.901 56.5998 112.101 56.4998 112.301 56.3998L117.101 52.6998C117.601 52.2998 118.001 51.3998 118.001 50.6998L117.701 46.1998C117.701 45.4998 118.001 44.4998 118.401 43.9998C119.201 43.0998 119.901 42.0998 120.601 41.0998C121.001 40.4998 121.801 40.0998 122.501 40.0998H122.601L125.701 40.2998C125.701 40.2998 125.701 40.2998 125.801 40.2998C126.501 40.2998 127.201 39.7998 127.501 39.1998L130.401 32.6998C130.701 32.0998 130.401 31.2998 129.801 31.0998L127.301 29.9998C126.701 29.6998 126.301 28.9998 126.401 28.2998C126.601 27.2998 126.801 26.1998 126.901 25.1998C127.001 24.4998 127.401 23.5998 127.901 23.0998L132.101 19.1998C132.601 18.6998 132.901 17.7998 132.801 17.0998L132.001 12.4998C131.901 11.9998 131.601 11.7998 131.301 11.7998C131.101 11.7998 130.901 11.8998 130.801 11.9998L126.601 14.7998C126.401 14.8998 126.201 14.9998 126.001 14.9998C125.601 14.9998 125.201 14.7998 124.901 14.3998C124.601 13.9998 124.401 13.6998 124.101 13.3998C123.601 12.8998 123.401 11.9998 123.601 11.3998L125.801 5.5998C126.001 4.9998 125.701 4.2998 125.001 4.1998L121.801 3.4998C121.401 3.2998 121.301 3.2998 121.201 3.2998ZM106.301 44.0998C103.701 44.0998 101.701 42.3998 101.201 39.1998C100.301 33.7998 103.701 26.0998 108.901 21.9998C111.001 20.2998 113.101 19.5998 114.801 19.5998C117.401 19.5998 119.401 21.2998 119.901 24.4998C120.801 29.8998 117.401 37.5998 112.201 41.6998C110.201 43.2998 108.101 44.0998 106.301 44.0998Z" fill="#638EB9" stroke="#BBCDE1" stroke-width="0.7087" stroke-miterlimit="10" stroke-linecap="round"/>
</g>
</g>
<defs>
<clipPath id="clip0_330_8425">
<rect width="133" height="99.8" fill="white"/>
</clipPath>
</defs>
</svg>
